<svg xmlns="http://www.w3.org/2000/svg" width="115" height="115" fill="none" viewBox="0 0 115 115"><g filter="url(#a)"><path fill="#00aacb" fill-rule="evenodd" d="M100.559 4.044c-8.402 4.218-8.59 4.342-8.606 5.691-.022 1.856-1.275 4.932-2.805 6.887-1.003 1.28-1.255 2.266-.716 2.805.202.202-1.23 1.745-6.753 7.273l-7.009 7.016-.794-.896c-2.408-2.713-5.035-6.483-6.135-8.8l-.372-.786-1.689-.004c-1.3-.004-2.027-.131-3.155-.552-2.259-.843-4.749-1.685-5.444-1.842-.6-.135-.575-.087.547 1.076 1.39 1.44 2.046 2.405 3.49 5.13 1.913 3.615 4.42 7.244 7.162 10.37l1.248 1.423-6.117 6.126c-3.365 3.369-6.212 6.126-6.328 6.126-.212.001-34.905-34.794-34.799-34.9.031-.032.948.122 2.037.342 4.567.92 10.053 1.082 17.71.521 5.268-.385 11.54-.43 13.69-.098 2.441.377 4.662.988 6.963 1.916 1.806.728 2.28.838 3.28.763 5.117-.386 6.898-6.895 2.665-9.742-1.152-.774-4.495-1.908-7.683-2.605-1.968-.43-2.742-.48-7.634-.48-4.045 0-6.09.092-7.957.36-8.883 1.276-8.884 1.276-14.134 1.291-4.535.014-5.4-.04-7.462-.458-4.524-.917-8.674-2.548-13.01-5.111-2.079-1.23-2.19-1.269-3.364-1.184-1.49.108-2.436.72-2.986 1.93-.495 1.09-.495 2.094 0 3.183.558 1.23 3.916 3.598 8.081 5.7 1.636.827 2.156 1.328 21.882 21.07L54.568 53.81 41.155 67.224 27.74 80.638l-3.988.805c-2.6.524-4.419 1.009-5.223 1.392-1.017.485-2.218 1.565-6.836 6.147-5.506 5.463-5.602 5.573-5.6 6.411 0 1.283.61 1.746 2.649 2.014.904.12 1.685.255 1.735.302s-1.386 1.575-3.193 3.394C4.225 104.186 4 104.465 4 105.192c0 1.064.744 1.808 1.808 1.808.727 0 1.006-.225 4.088-3.285 1.82-1.807 3.345-3.244 3.39-3.194s.19.842.324 1.759c.299 2.054.733 2.625 1.995 2.627.84 0 .949-.096 6.411-5.602 4.533-4.57 5.664-5.826 6.134-6.812.37-.777.864-2.639 1.381-5.212l.805-4.002 13.425-13.426 13.425-13.426 20.21 20.208 20.211 20.208 1.058 2.094c1.23 2.439 3.48 5.894 4.501 6.916 1.246 1.245 3.067 1.432 4.493.461 1.2-.816 1.561-1.497 1.561-2.942 0-1.186-.089-1.441-1.076-3.073-2.294-3.796-3.545-6.741-4.58-10.785-1.456-5.69-1.507-10.797-.205-20.732 1.47-11.227 1.241-16.839-.962-23.496-.76-2.296-1.5-3.466-2.706-4.276-2.28-1.532-4.912-1.311-6.791.569-1.745 1.745-2.018 4.096-.787 6.785.811 1.771 1.409 3.815 1.837 6.282.42 2.425.326 10.105-.217 17.696-.4 5.591-.225 9.565.608 13.821.271 1.382.475 2.533.453 2.557S86.89 80.9 77.28 71.287L59.805 53.809l6.168-6.17 6.168-6.172.569.464 2.311 1.89c2.404 1.965 5.84 4.213 9.06 5.927 2.206 1.174 3.035 1.755 4.45 3.118 1.73 1.667 1.738 1.672 1.605.943-.122-.674-.473-1.699-1.864-5.445-.383-1.03-.509-1.795-.517-3.141l-.011-1.78-2.315-1.257c-2.252-1.222-5.215-3.309-7.158-5.04l-.957-.853 6.997-6.995c5.513-5.511 7.051-6.94 7.253-6.739.539.54 1.524.288 2.805-.717 1.674-1.313 3.904-2.32 5.775-2.61 2.798-.433 2.241.29 6.788-8.803C109.55 5.195 111 2.067 111 1.656c0-.882-.819-1.67-1.718-1.656-.463.008-3.333 1.338-8.723 4.044" clip-rule="evenodd"/></g><defs><filter id="a" width="115" height="115" x="0" y="0" color-interpolation-filters="sRGB" filterUnits="userSpaceOnUse"><feFlood flood-opacity="0" result="BackgroundImageFix"/><feColorMatrix in="SourceAlpha" result="hardAlpha" values="0 0 0 0 0 0 0 0 0 0 0 0 0 0 0 0 0 0 127 0"/><feOffset dy="4"/><feGaussianBlur stdDeviation="2"/><feComposite in2="hardAlpha" operator="out"/><feColorMatrix values="0 0 0 0 0 0 0 0 0 0 0 0 0 0 0 0 0 0 0.25 0"/><feBlend in2="BackgroundImageFix" result="effect1_dropShadow_294_29949"/><feBlend in="SourceGraphic" in2="effect1_dropShadow_294_29949" result="shape"/></filter></defs></svg>