<svg width="51" height="51" viewBox="0 0 51 51" fill="none" xmlns="http://www.w3.org/2000/svg">
<g clip-path="url(#clip0_403_36200)">
<path d="M7.72666 23.9978C7.32829 24.3962 7.10449 24.9367 7.10449 25.5001C7.10449 26.0636 7.32829 26.604 7.72666 27.0025L19.7478 39.0236C19.9438 39.2266 20.1783 39.3885 20.4376 39.4998C20.6968 39.6112 20.9757 39.6698 21.2578 39.6723C21.54 39.6747 21.8198 39.621 22.0809 39.5141C22.3421 39.4073 22.5794 39.2495 22.7789 39.05C22.9784 38.8504 23.1362 38.6132 23.243 38.352C23.3499 38.0909 23.4036 37.8111 23.4012 37.5289C23.3987 37.2467 23.3401 36.9679 23.2288 36.7086C23.1174 36.4494 22.9555 36.2149 22.7525 36.0189L14.3588 27.6251L42.5002 27.6251C43.0637 27.6251 43.6043 27.4012 44.0028 27.0027C44.4013 26.6042 44.6252 26.0637 44.6252 25.5001C44.6252 24.9365 44.4013 24.396 44.0028 23.9975C43.6043 23.599 43.0637 23.3751 42.5002 23.3751L14.3588 23.3751L22.7525 14.9814C23.1396 14.5806 23.3538 14.0438 23.349 13.4866C23.3441 12.9295 23.1206 12.3965 22.7267 12.0025C22.3327 11.6085 21.7997 11.385 21.2425 11.3802C20.6853 11.3754 20.1486 11.5895 19.7478 11.9766L7.72666 23.9978Z" fill="black"/>
</g>
<defs>
<clipPath id="clip0_403_36200">
<rect width="51" height="51" fill="white" transform="translate(0 51) rotate(-90)"/>
</clipPath>
</defs>
</svg>
