<svg xmlns="http://www.w3.org/2000/svg" width="120" height="120" fill="none" viewBox="0 0 120 120"><g filter="url(#a)"><path fill="#00aacb" d="M30.97.002c-1.086-.035-2.173.343-3.565 1.734-1.337 1.338-2.835 5.201-3.65 8.617a52 52 0 0 0-.157.679L50.952 36.25c-1.72-6.833-4.203-14.361-7.146-20.769C41.01 9.397 37.76 4.312 34.825 1.83 33.356.59 32.057.037 30.97.002m-10.106 14.37-2.491 2.491L57.027 58.79l5.763-5.764zm-5.832 5.226c-.222.05-.444.1-.679.156-3.415.816-7.279 2.313-8.617 3.65-1.391 1.392-1.769 2.48-1.734 3.566.035 1.087.587 2.386 1.828 3.854 2.482 2.937 7.567 6.187 13.652 8.982 6.408 2.943 13.936 5.427 20.769 7.146zm50.93 36.352-6.012 6.01 17.54 19.026 7.496-7.496zm22.196 20.463-7.744 7.744.495.538c.015.014 1.058 1.01 2.535 1.503 1.486.495 3.043.69 5.243-1.511s2.006-3.758 1.51-5.244c-.492-1.478-1.492-2.523-1.503-2.535zm4.83 9.83a11 11 0 0 1-1.254 1.49q-.69.694-1.49 1.254L116 112z"/></g><defs><filter id="a" width="120" height="120" x="0" y="0" color-interpolation-filters="sRGB" filterUnits="userSpaceOnUse"><feFlood flood-opacity="0" result="BackgroundImageFix"/><feColorMatrix in="SourceAlpha" result="hardAlpha" values="0 0 0 0 0 0 0 0 0 0 0 0 0 0 0 0 0 0 127 0"/><feOffset dy="4"/><feGaussianBlur stdDeviation="2"/><feComposite in2="hardAlpha" operator="out"/><feColorMatrix values="0 0 0 0 0 0 0 0 0 0 0 0 0 0 0 0 0 0 0.25 0"/><feBlend in2="BackgroundImageFix" result="effect1_dropShadow_186_23203"/><feBlend in="SourceGraphic" in2="effect1_dropShadow_186_23203" result="shape"/></filter></defs></svg>