<svg xmlns="http://www.w3.org/2000/svg" width="117" height="117" fill="none" viewBox="0 0 117 117"><g filter="url(#a)"><path fill="#00aacb" fill-rule="evenodd" d="M55.407.299C49.395 1.616 44.654 6.724 43.84 12.761l-.18 1.336h.996c.547 0 1.734-.19 2.637-.421 5.833-1.499 10.332-6.963 10.348-12.568.004-1.292-.008-1.296-2.233-.809m4.493.809c-.061.5-.171 1.382-.245 1.961-.18 1.434-1.145 4.1-2.028 5.61-.401.685-1.513 2.033-2.471 2.995-1.46 1.466-2.099 1.927-3.94 2.84-2.3 1.142-4.388 1.711-6.296 1.718-1.023.003-1.118.045-1.118.493 0 1.008.672 3.102 1.616 5.034 1.784 3.651 5.117 6.357 9.245 7.505 2.309.643 2.288.65 2.443-.788.26-2.427.774-4.256 1.754-6.254 1.329-2.71 3.972-5.44 6.568-6.786a18 18 0 0 1 6.347-1.888l1.46-.147-.134-1.022c-.514-3.885-3.627-8.348-7.224-10.356C64.278 1.131 61.597.2 60.629.2c-.567 0-.626.074-.729.909M13.35 14.23c-3.826 1.592-6.7 4.3-8.458 7.968-.651 1.358-.793 1.909-.863 3.337-.078 1.6-.038 1.801.626 3.1.667 1.306 1.862 2.455 19.51 18.763 10.34 9.556 18.87 17.373 18.954 17.373s2.779-2.638 5.988-5.862l5.836-5.862-.514-.611c-.282-.336-8.097-8.887-17.367-19.002C18.273 12.93 19.26 13.87 16.34 13.731c-1.365-.064-1.812.01-2.99.5m85.78-.352c-1.571.476-2.587 1.433-9.304 8.766A49841 49841 0 0 1 71.538 42.59c-6.237 6.798-11.34 12.455-11.34 12.57 0 .114.575.894 1.276 1.733 1.647 1.97 2.442 3.089 5.56 7.826 1.412 2.146 2.634 3.902 2.716 3.902.21 0 39.213-36.038 41.048-37.928 1.146-1.18 1.606-1.836 1.889-2.691 1.543-4.665-2.803-11.251-9.084-13.764-1.461-.585-3.254-.729-4.473-.36m-28.604 2.026c-1.973.374-3.514 1.011-5.258 2.175-1.957 1.307-3.416 3.02-4.528 5.318-.997 2.06-1.393 3.553-1.393 5.25 0 1.02.021 1.058.604 1.058.972 0 3.73-.779 4.965-1.401 4.662-2.351 7.925-6.965 8.31-11.749.065-.816.04-.857-.57-.894-.352-.022-1.31.088-2.13.243m-19.965 44.54c-3.132 3.146-5.695 5.83-5.695 5.963 0 .325 3.827 3.678 6.131 5.373 3.17 2.33 2.195 2.704 7.896-3.024l4.945-4.97-1.419-2.02c-.78-1.11-1.855-2.548-2.388-3.195-1.106-1.342-3.49-3.848-3.661-3.848-.063 0-2.677 2.574-5.809 5.72m9.858 9.986c-2.511 2.524-4.523 4.627-4.47 4.672.053.046.864.594 1.8 1.22 3.837 2.559 8.9 6.51 12.99 10.138 1.054.934 5.482 5.257 9.84 9.606l7.923 7.906-.61.697c-.793.908-.971 1.764-.568 2.733.571 1.373 2.227 2 3.496 1.324.896-.477 7.66-7.421 7.925-8.137.357-.962.085-1.911-.763-2.659-1.036-.913-2.33-.925-3.346-.029l-.713.63-7.779-7.846c-4.278-4.315-8.634-8.807-9.68-9.983-3.182-3.581-6.914-8.367-9.96-12.776-.792-1.147-1.457-2.085-1.479-2.085s-2.094 2.065-4.606 4.59m-13.956 3.063c-3.15 4.235-6.981 8.471-14.875 16.449l-8.509 8.599-.72-.634c-1.803-1.59-4.652-.02-4.22 2.326.12.645.781 1.427 3.8 4.486 2.01 2.038 3.915 3.842 4.23 4.01 1.261.666 2.925.046 3.485-1.298.49-1.178.423-1.439-.808-3.156-.237-.331.366-1.012 5.268-5.953 9.289-9.364 14.305-13.94 19.962-18.213 1.26-.951 2.29-1.811 2.29-1.912s-1.174-.942-2.61-1.87c-1.434-.928-3.382-2.272-4.327-2.986-.946-.715-1.76-1.294-1.81-1.29-.05.006-.57.654-1.156 1.442" clip-rule="evenodd"/></g><defs><filter id="a" width="117" height="117" x="0" y="0" color-interpolation-filters="sRGB" filterUnits="userSpaceOnUse"><feFlood flood-opacity="0" result="BackgroundImageFix"/><feColorMatrix in="SourceAlpha" result="hardAlpha" values="0 0 0 0 0 0 0 0 0 0 0 0 0 0 0 0 0 0 127 0"/><feOffset dy="4"/><feGaussianBlur stdDeviation="2"/><feComposite in2="hardAlpha" operator="out"/><feColorMatrix values="0 0 0 0 0 0 0 0 0 0 0 0 0 0 0 0 0 0 0.25 0"/><feBlend in2="BackgroundImageFix" result="effect1_dropShadow_294_30009"/><feBlend in="SourceGraphic" in2="effect1_dropShadow_294_30009" result="shape"/></filter></defs></svg>