<svg xmlns="http://www.w3.org/2000/svg" width="64" height="64" fill="none" viewBox="0 0 64 64"><path fill="#00aacb" d="m63.173 9.578-8.75-8.75a2.188 2.188 0 1 0-3.096 3.095l.405.402L36.647 15.64l-10.451 2.092a2.2 2.2 0 0 0-1.119.596L2.29 41.11a6.56 6.56 0 0 0 0 9.28l11.32 11.321a6.56 6.56 0 0 0 9.28 0l22.784-22.78c.304-.306.512-.695.596-1.118l2.092-10.451 11.315-15.086.401.405a2.19 2.19 0 0 0 3.096-3.095zM18.25 59.25a2.17 2.17 0 0 1-1.545-.64L5.39 47.296a2.19 2.19 0 0 1 0-3.093l1.548-1.548 14.407 14.408-1.556 1.547a2.2 2.2 0 0 1-1.54.64m26.313-34.125a2.16 2.16 0 0 0-.394.883l-2.06 10.29-2.359 2.36L25.343 24.25l2.36-2.36 10.289-2.059a2.16 2.16 0 0 0 .883-.393L54.858 7.45l1.692 1.693z"/></svg>