<svg xmlns="http://www.w3.org/2000/svg" width="68" height="54" fill="none" viewBox="0 0 68 54"><path fill="#00aacb" d="M35.921 13.886c0 2.13-.864 3.857-1.928 3.857s-1.929-1.728-1.929-3.857.864-3.857 1.929-3.857 1.928 1.728 1.928 3.857m11.535 2.13c-1.065 1.841-2.675 2.906-3.598 2.375-.923-.534-.805-2.462.26-4.304 1.064-1.846 2.674-2.91 3.597-2.376.923.533.805 2.459-.26 4.304M24.128 18.39c-.923.53-2.53-.534-3.598-2.376-1.065-1.845-1.182-3.774-.26-4.308.926-.53 2.537.534 3.602 2.376 1.064 1.846 1.178 3.774.256 4.308"/><path fill="#00aacb" fill-rule="evenodd" d="M7 20.829v7.263a8.489 8.489 0 0 0 0 16.333v1.09A8.486 8.486 0 0 0 15.484 54h37.029a8.486 8.486 0 0 0 8.485-8.486v-1.092a8.49 8.49 0 0 0 0-16.33v-7.264c0-6.004-3.249-11.262-8.155-14.944C47.938 2.206 41.269 0 33.999 0S20.061 2.206 15.155 5.884s-8.156 8.94-8.156 14.944m4.628 0c0-4.222 2.274-8.218 6.304-11.242C21.965 6.567 27.634 4.63 34 4.63s12.038 1.937 16.068 4.958c4.027 3.024 6.304 7.02 6.304 11.241v.772H11.628zm0 6.942v-1.543H56.37v1.543H46.342a2.314 2.314 0 0 0-2.314 2.315v3.085a2.314 2.314 0 1 1-4.629 0v-3.085a2.314 2.314 0 0 0-2.314-2.315zM9.314 32.4a3.857 3.857 0 1 0 0 7.714h49.371a3.857 3.857 0 1 0 0-7.714H48.657v.771a6.943 6.943 0 0 1-13.886 0V32.4zm2.314 13.114v-.771h44.743v.771a3.86 3.86 0 0 1-3.857 3.857H15.485a3.86 3.86 0 0 1-3.857-3.857" clip-rule="evenodd"/></svg>