<svg xmlns="http://www.w3.org/2000/svg" width="123" height="106" fill="none" viewBox="0 0 123 106"><g filter="url(#a)"><path fill="#e1017d" fill-rule="evenodd" d="M58.23.214C39.987 1.665 24.698 10.349 18.324 22.88c-3.157 6.206-3.458 11.695-.808 14.695 1.372 1.553 1.69 1.651 6.137 1.9 10.887.61 75.633.63 82.379.024 3.045-.273 4.495-1.266 5.65-3.867 1.618-3.644-.051-10.396-4.056-16.408-1.735-2.604-6.213-7.094-9.022-9.046C87.88 2.724 72.96-.957 58.23.214m45.266 42.366c-.275.11-.501.312-.501.449 0 .702 5.409 5.52 8.129 7.24 1.254.792 3.064 1.194 5.598 1.242 1.27.024 1.727-.053 2.016-.341.35-.349.35-.399-.002-.786-.207-.228-1.058-.787-1.891-1.242s-2.398-1.495-3.478-2.31c-3.261-2.466-4.31-3.098-6.099-3.672-2.127-.684-3.127-.837-3.772-.58m-84.797.59c-5.503.71-11.332 3.205-13.92 5.957L4 49.956l.78-.148a87 87 0 0 1 7.664-1.109l3.1-.316 2.914-1.473c1.602-.81 3.95-1.845 5.215-2.299 1.266-.454 2.296-.923 2.29-1.043-.024-.41-5.049-.684-7.264-.398m30.957.014c.122.124 1.626.748 3.34 1.387 8.069 3.006 12.49 6.054 14.473 9.978.418.828.933 1.57 1.143 1.65.21.081 1.594.041 3.074-.088 1.48-.13 3.534-.258 4.566-.285 1.123-.03 1.907-.147 1.956-.293.044-.134-.75-.879-1.764-1.654-2.677-2.046-5.284-4.27-8.152-6.955-2.786-2.608-3.548-3.086-5.5-3.445-1.805-.332-13.433-.593-13.136-.295m26.725.054c-1.96.078-3.739.22-3.953.317-.223.1-.39.417-.39.74 0 .432.797 1.35 3.429 3.952 3.432 3.392 4.482 4.202 5.129 3.955.19-.073.885-.896 1.545-1.83 1.156-1.636 3.023-3.534 5.445-5.536 2.012-1.665 1.625-1.84-3.939-1.779-2.037.023-5.306.104-7.266.181M34.623 45.6c-4.486.68-9.239 2.102-12.322 3.688-1.976 1.017-2.656 1.757-2.112 2.299.184.183 1.043.437 1.91.566 1.721.254 1.942.186 5.144-1.593.67-.372 1.526-.664 1.949-.664 1.15 0 .985.684-.553 2.294-.718.752-1.413 1.573-1.543 1.823-.47.903.31 1.335 2.993 1.66 4.02.486 30.468.718 34.544.302 1.457-.149 1.489-.435.173-1.59-2.184-1.914-9.873-5.323-16.35-7.249-6.187-1.838-9.448-2.2-13.833-1.536m57.793 1.1c-.367.309-2.372 1.876-4.454 3.483-5.596 4.32-6.246 4.98-5.29 5.374.215.089 3.397.245 7.072.347 8.934.25 8.993.262 8.448 1.802-.467 1.317-.397 1.842.343 2.58.695.692 2.349 1.371 3.342 1.371 2.608 0 .642-4.86-4.847-11.983-2.857-3.707-3.356-4.029-4.614-2.974m7.016-.341c0 .129.325.638.723 1.13.399.493 1.685 2.81 2.86 5.147 2.44 4.855 2.706 5.094 3.389 3.042.522-1.57.358-2.48-.753-4.173-.974-1.486-3.312-3.77-4.857-4.747-1.083-.684-1.362-.766-1.362-.4m-80.662 9.88c-1.393.426-3.262 2.15-4.033 3.719-1.754 3.569-1.187 6.891 1.333 7.816.588.216 1.146.457 1.24.536.093.078.321.932.506 1.896s.584 2.29.885 2.947c1.235 2.689 4.855 5.164 8.162 5.582 7.05.89 69.94 1.082 74.239.226 4.47-.89 8.297-4.783 8.699-8.848.083-.838.23-1.653.328-1.81s.781-.358 1.518-.445c2.513-.295 3.708-1.875 3.683-4.87-.024-2.933-1.471-5.436-3.838-6.64-1.687-.857-2.261-.445-2.261 1.622 0 2.434-1.323 4.57-3.387 5.47-.912.396-1.581.511-2.96.509-2.08-.004-2.824-.189-6.577-1.63-5.686-2.186-9.024-2.773-15.695-2.76-4.298.007-5.534.086-7.683.49-10.444 1.968-17.985 6.335-22.722 13.159-.799 1.15-1.61 2.123-1.804 2.16-.28.054-.378-.22-.483-1.344-.486-5.184-4.721-9.772-12.419-13.454-2.836-1.356-6.475-2.707-8.692-3.226-1.522-.355-1.975-.167-2.9 1.205-.685 1.016-.863 2.358-.377 2.842.147.147.6.266 1.009.266.965 0 1.123.447.508 1.437-1.034 1.669-2.417 1.942-3.515.695-1.312-1.488-1.448-3.863-.356-6.238.307-.668.495-1.315.418-1.439-.196-.315-1.59-.253-2.826.126m89.236 26.184c-.367.19-.838.5-1.046.689-.213.19-1.096.424-2.005.53-1.887.217-79.172.275-82.414.06-1.811-.119-2.172-.203-2.172-.508 0-.998-1.672-1.227-2.906-.4-2.185 1.468-2.335 4.848-.384 8.699.896 1.77 3.51 4.382 5.104 5.102 1.71.772 4.917.964 21.348 1.277 19.715.376 50.956-.117 59.546-.939 2.822-.27 3.667-.626 5.447-2.29 2.546-2.385 3.705-5.036 3.558-8.144-.101-2.148-.61-3.266-1.826-4.004-.84-.51-1.373-.528-2.25-.072" clip-rule="evenodd"/></g><defs><filter id="a" width="123" height="106" x="0" y="0" color-interpolation-filters="sRGB" filterUnits="userSpaceOnUse"><feFlood flood-opacity="0" result="BackgroundImageFix"/><feColorMatrix in="SourceAlpha" result="hardAlpha" values="0 0 0 0 0 0 0 0 0 0 0 0 0 0 0 0 0 0 127 0"/><feOffset dy="4"/><feGaussianBlur stdDeviation="2"/><feComposite in2="hardAlpha" operator="out"/><feColorMatrix values="0 0 0 0 0 0 0 0 0 0 0 0 0 0 0 0 0 0 0.86 0"/><feBlend in2="BackgroundImageFix" result="effect1_dropShadow_340_59975"/><feBlend in="SourceGraphic" in2="effect1_dropShadow_340_59975" result="shape"/></filter></defs></svg>