<svg xmlns="http://www.w3.org/2000/svg" width="28" height="29" fill="none" viewBox="0 0 28 29"><rect width="28" height="28" y=".5" fill="#fff" rx="14"/><path fill="#000" d="M18.8 19.3a1.6 1.6 0 1 0 0 3.2 1.6 1.6 0 0 0 0-3.2M6 6.5v1.6h1.6l2.88 6.072-1.088 1.96a1.6 1.6 0 0 0-.192.768 1.6 1.6 0 0 0 1.6 1.6h9.6v-1.6h-9.264a.2.2 0 0 1-.2-.2.17.17 0 0 1 .024-.096l.72-1.304h5.96c.6 0 1.128-.336 1.4-.824L21.904 9.3c.056-.128.096-.264.096-.4a.8.8 0 0 0-.8-.8H9.368l-.752-1.6M10.8 19.3a1.6 1.6 0 1 0 0 3.2 1.6 1.6 0 0 0 0-3.2"/></svg>