<svg width="44" height="42" viewBox="0 0 44 42" fill="none" xmlns="http://www.w3.org/2000/svg">
<path d="M15.5572 33.2287H9.00001C7.26095 33.2287 5.59312 32.5378 4.36341 31.3081C3.13371 30.0784 2.44287 28.4106 2.44287 26.6715V9.1858C2.44287 7.44674 3.13371 5.77891 4.36341 4.54921C5.59312 3.3195 7.26095 2.62866 9.00001 2.62866H35.2286C36.9676 2.62866 38.6355 3.3195 39.8652 4.54921C41.0949 5.77891 41.7857 7.44674 41.7857 9.1858V26.6715C41.7857 28.4106 41.0949 30.0784 39.8652 31.3081C38.6355 32.5378 36.9676 33.2287 35.2286 33.2287H28.6714L22.1143 39.7858L15.5572 33.2287Z" stroke="white" stroke-width="4" stroke-linecap="round" stroke-linejoin="round"/>
</svg>
