<svg xmlns="http://www.w3.org/2000/svg" width="68" height="52" fill="none" viewBox="0 0 68 52"><path fill="#00aacb" fill-rule="evenodd" d="M42.282 16.115a9114 9114 0 0 0-17.32 16.08l-.605.583-7.279-7.772c-4.003-4.275-7.328-7.772-7.388-7.772s-2.26 2.014-4.887 4.477L.026 26.187l.352.418c.194.23 5.518 5.928 11.831 12.662L23.69 51.51l.673-.651c.37-.358 10.116-9.392 21.657-20.077a13918 13918 0 0 0 21.483-19.91l.499-.482-4.464-4.846L59.036.658c-.021-.022-7.56 6.933-16.754 15.457" clip-rule="evenodd"/></svg>