<svg xmlns="http://www.w3.org/2000/svg" width="105" height="133" fill="none" viewBox="0 0 105 133"><g filter="url(#a)"><path fill="#e1017d" fill-rule="evenodd" d="M65.619.02c-.79.043-2.43.177-3.49.286-3.434.354-8.528 1.282-11.76 2.143l-.863.228c-.785.202-4.051 1.25-4.531 1.453-.1.042-.569.228-1.043.413-4.378 1.707-8.622 4.13-11.869 6.776-3.752 3.059-6.657 6.535-9.19 10.994-.49.863-1.551 3.004-1.78 3.591a14 14 0 0 1-.253.61c-.208.452-.746 1.908-1.061 2.873-1.762 5.392-2.52 11.451-2.207 17.639.163 3.228.657 6.63 1.58 10.872.171.79 1.016 4.157 1.188 4.735.06.2.272.946.473 1.657a234 234 0 0 0 1.97 6.5c.132.414.408 1.287.613 1.939.205.651.497 1.573.65 2.047 1.047 3.263 1.237 3.967 1.443 5.35.13.874.148 1.22.11 2.154-.074 1.82-.1 1.902-1.09 3.448-.468.73-1.178 1.878-1.579 2.55-1.107 1.854-1.089 1.825-2.098 3.347-1.804 2.72-3.58 4.717-5.42 6.1-.667.501-1.679 1.082-3.453 1.983-2.418 1.228-3.186 1.756-4.372 3.006-1.769 1.863-3.071 4.262-3.43 6.32-.347 1.984-.114 3.918.661 5.492.275.559.441.787.916 1.257.66.654 1.23.988 2.233 1.304.638.201.672.204 2.374.201 1.934-.003 2.216-.045 4.812-.712 1.397-.359 1.944-.404 2.66-.218 1.558.406 2.601 1.281 4.814 4.038 1.5 1.868 1.838 2.247 2.636 2.945 1.377 1.205 2.876 1.734 4.678 1.65 2.704-.125 5.46-1.409 7.568-3.524 1.411-1.416 2.32-3.159 2.608-5.002.122-.779.088-2.55-.066-3.411-.253-1.423-.918-3.445-1.876-5.709-.647-1.53-.711-2.169-.392-3.918.322-1.763 1.024-3.73 2.297-6.438.6-1.273.69-1.427.975-1.63.172-.124.404-.371.516-.55 1.217-1.953 2.653-3.341 4.699-4.541.64-.376 2.567-1.324 2.877-1.416a1 1 0 0 0 .251-.108c.065-.048 2.264-.888 3.489-1.333 2.258-.819 2.815-1.028 3.632-1.36 2.248-.915 5.611-2.428 7.985-3.593 4.808-2.359 8.818-4.816 13.398-8.21 2.948-2.183 4.884-3.851 7.428-6.397 3.138-3.14 5.383-5.987 7.46-9.46 1.85-3.091 3.819-7.283 5.098-10.856 1.724-4.817 2.566-8.562 2.982-13.254.13-1.468.148-2.064.117-3.888-.021-1.185-.073-2.462-.117-2.837-.208-1.789-.313-2.602-.412-3.196l-.177-1.077c-.483-2.992-1.371-5.685-2.58-7.827-.48-.85-1.78-2.66-2.53-3.52-2.221-2.554-3.458-3.752-5.529-5.359-2.865-2.223-6.669-4.129-10.285-5.152C77.075.779 75.346.455 72.56.153c-.954-.104-5.758-.195-6.942-.132m-2.05 3.09c-.159.015-.936.078-1.727.138-3.93.3-7.917 1.004-12.084 2.135-.277.075-.665.18-.863.232s-.457.128-.576.168-.507.16-.863.268c-.865.26-1.284.399-2.266.75-.454.163-.924.33-1.042.37-.12.041-.313.116-.432.167-.119.05-.442.18-.72.29-.276.108-.762.308-1.078.443l-.72.308c-.2.085-3.068 1.503-3.2 1.582-.06.036-.572.333-1.137.66-.567.328-1.084.629-1.151.669-.787.466-3.505 2.415-3.754 2.692-.02.022-.376.334-.792.693a28.8 28.8 0 0 0-5.2 5.915c-.275.414-.56.841-.635.948s-.135.21-.135.23-.11.222-.244.451c-.625 1.068-1.315 2.53-1.873 3.972-.146.376-.293.752-.327.836-.111.272-.629 1.84-.79 2.396-.705 2.422-1.123 4.578-1.455 7.505-.117 1.03-.153 1.919-.181 4.38-.03 2.756-.018 3.282.122 4.884.294 3.383.808 6.195 1.695 9.265.321 1.111.647 2.13.86 2.693.874 2.302 1.598 3.877 2.564 5.584.318.563.594 1.023.612 1.023.037 0 .003-.269-.201-1.616-.218-1.433-.52-2.965-1.179-5.996-.257-1.183-.46-2.134-.645-3.017l-.207-.97a64 64 0 0 1-.296-1.508 56 56 0 0 0-.252-1.292 8 8 0 0 1-.109-.647 18 18 0 0 0-.143-.897A16 16 0 0 1 23 47.88a73 73 0 0 0-.144-1.149c-.21-1.587-.287-3.877-.187-5.602.26-4.484 1.325-8.532 3.313-12.604 1.825-3.738 4.166-6.983 7.338-10.171 1.684-1.693 2.941-2.764 5.54-4.719.428-.322 2.406-1.608 3.165-2.057a47.4 47.4 0 0 1 13.163-5.305c3.274-.778 5.872-1.167 9.17-1.374a47.3 47.3 0 0 1 13.416 1.038c.138.035.543.135.899.221 2.378.576 5.179 1.604 7.408 2.721.752.377 1.395.698 1.43.713.191.084-.319-.449-.63-.658-2.073-1.396-3.889-2.32-6.662-3.39-1.16-.448-2.356-.814-4.172-1.277-1.59-.406-4.187-.848-5.61-.956a37 37 0 0 1-1.151-.11c-.62-.07-5.19-.143-5.719-.091m-22.19 83.125c-1.462.294-1.758.372-4.209 1.11-2.143.645-3.232.915-4.333 1.076-.957.14-2.898.141-3.622.003-1.294-.247-2.169-.791-2.789-1.734l-.344-.523-.563 1.02c-2.733 4.947-4.773 7.933-7.272 10.641-1.458 1.58-2.277 2.202-4.955 3.767-3.46 2.021-4.596 2.866-5.612 4.173-.74.95-1.008 1.777-.954 2.94.048 1.064.315 1.79 1.095 2.982.66 1.007 1.424 1.667 2.376 2.051.392.159.532.175 1.546.175 1.16 0 1.466-.052 3.201-.54 1.694-.476 2.95-.718 3.722-.716.6.001 1.679.256 2.269.536 1.284.609 2.19 1.486 3.94 3.811 1.86 2.472 2.762 3.364 3.988 3.941 1.403.66 3.199.756 4.856.258.575-.172 1.501-.621 1.745-.845.054-.049.123-.089.152-.089.15 0 1.303-1.242 1.303-1.403 0-.026.058-.133.13-.238.248-.365.373-.955.373-1.76 0-.808-.092-1.253-.466-2.237-1.158-3.055-1.529-4.143-1.993-5.853-.148-.545-.166-.765-.163-2.047.003-1.25.025-1.53.172-2.154.209-.886.468-1.856.585-2.191.46-1.31.887-2.4 1.254-3.196l.329-.718c1.265-2.771 2.911-6.082 3.303-6.643.069-.099.148-.252.175-.341.028-.089.077-.162.11-.162.032 0 .077-.056.1-.125.04-.118.15-.314.414-.736.527-.843.75-1.19.785-1.221.022-.02.16-.22.308-.445s.527-.74.843-1.146c.6-.77.63-.863.368-1.166-.353-.408-1.017-.486-2.168-.255" clip-rule="evenodd"/></g><defs><filter id="a" width="105" height="133" x="0" y="0" color-interpolation-filters="sRGB" filterUnits="userSpaceOnUse"><feFlood flood-opacity="0" result="BackgroundImageFix"/><feColorMatrix in="SourceAlpha" result="hardAlpha" values="0 0 0 0 0 0 0 0 0 0 0 0 0 0 0 0 0 0 127 0"/><feOffset dy="4"/><feGaussianBlur stdDeviation="2"/><feComposite in2="hardAlpha" operator="out"/><feColorMatrix values="0 0 0 0 0 0 0 0 0 0 0 0 0 0 0 0 0 0 0.86 0"/><feBlend in2="BackgroundImageFix" result="effect1_dropShadow_340_59985"/><feBlend in="SourceGraphic" in2="effect1_dropShadow_340_59985" result="shape"/></filter></defs></svg>