<svg width="18" height="18" viewBox="0 0 18 18" fill="none" xmlns="http://www.w3.org/2000/svg">
<path fill-rule="evenodd" clip-rule="evenodd" d="M0.666504 8.99996C0.666504 4.39746 4.39734 0.666626 8.99984 0.666626C13.6023 0.666626 17.3332 4.39746 17.3332 8.99996C17.3332 13.6025 13.6023 17.3333 8.99984 17.3333C4.39734 17.3333 0.666504 13.6025 0.666504 8.99996ZM9.83317 5.66663C9.83317 5.44561 9.74537 5.23365 9.58909 5.07737C9.43281 4.92109 9.22085 4.83329 8.99984 4.83329C8.77882 4.83329 8.56686 4.92109 8.41058 5.07737C8.2543 5.23365 8.1665 5.44561 8.1665 5.66663V8.99996C8.16655 9.22095 8.25438 9.43288 8.41067 9.58913L10.9107 12.0891C11.0678 12.2409 11.2783 12.3249 11.4968 12.323C11.7153 12.3211 11.9243 12.2335 12.0789 12.079C12.2334 11.9245 12.321 11.7155 12.3229 11.497C12.3248 11.2785 12.2408 11.068 12.089 10.9108L9.83317 8.65496V5.66663Z" fill="#292524"/>
</svg>
