<svg xmlns="http://www.w3.org/2000/svg" width="81" height="80" fill="none" viewBox="0 0 81 80"><path fill="#fff" fill-rule="evenodd" d="M30.727 2.902c-.887.386-1.544 1.005-1.953 1.84-.351.717-.394.97-.347 2.012.079 1.728.694 2.887 2.489 4.684 1.53 1.533 2.673 2.356 3.27 2.356.637 0 3.65-1.578 4.741-2.483 1.517-1.258 2.426-2.869 2.426-4.296 0-1.325-.895-2.705-2.162-3.337-.929-.463-2.521-.542-3.412-.17-.504.21-.572.203-1.1-.127a6.4 6.4 0 0 0-1.08-.529c-.702-.241-2.265-.214-2.872.05m.409 2.502c-.596.596-.61 1.524-.044 2.644.393.775 2.02 2.543 2.814 3.058.377.245.434.242 1.1-.043 1.718-.736 3.275-2.023 3.772-3.118.408-.9.363-1.268-.228-1.859-.66-.66-1.494-.704-2.56-.137-.942.501-1.338.482-1.882-.09-.611-.642-1.154-.9-1.899-.9-.491 0-.725.097-1.074.445m-7.404 3.683c-.267.077-.859.483-1.316.9-.696.636-.928.76-1.42.762-.323 0-.93.161-1.35.357-2.885 1.343-2.643 4.953.436 6.524.988.504 2.5.883 3.945.987 1.177.086 1.372.063 1.66-.192.517-.457 1.567-2.17 2.046-3.336.371-.903.439-1.279.441-2.45.003-1.271-.034-1.442-.455-2.132-.788-1.29-2.422-1.873-3.987-1.42m25.241 1.596c-5.92 1.08-10.887 5.006-12.8 10.119-.336.9-.34.903-.74.698-.851-.435-2.68-1.012-4.16-1.314-1.738-.354-4.703-.425-6.4-.154-2.852.455-6.273 1.927-8.662 3.725-3.552 2.673-6.519 6.878-7.974 11.304l-.407 1.236-.85.088c-2.426.25-4.183 2.15-5.1 5.513-.447 1.64-.49 5.835-.083 7.921 1.218 6.225 4.287 10.575 8.293 11.755.718.212.992.387 1.345.859.697.933 2.437 2.508 3.629 3.286l1.09.711-.326 1.072a30 30 0 0 0-.583 2.367l-.257 1.295-1.41 1.437c-.776.79-1.535 1.705-1.687 2.031-.257.55-.26.63-.035 1.1.471.989 1.367.87 2.201-.291l.56-.78.106.731c.136.952.467 1.312 1.207 1.312.76 0 1.05-.41 1.05-1.48 0-.443.056-.805.123-.805.066 0 .29.285.495.632.831 1.406 1.493 1.69 2.226.957.321-.322.376-.489.305-.927-.121-.75-.859-1.836-1.953-2.88l-.932-.89.469-1.889c.257-1.04.5-1.921.539-1.96s.54.075 1.113.253c1.366.423 3.64.762 5.127.763.654 0 1.155.056 1.113.125-.042.067-.22.823-.393 1.679l-.317 1.556-1.135 1.078c-2.05 1.947-2.528 3.123-1.562 3.84.567.422 1.088.226 1.762-.662.286-.376.58-.707.654-.735s.136.263.136.647c0 .864.38 1.308 1.118 1.308.71 0 1.034-.418 1.148-1.481l.095-.88.322.457c.178.25.371.612.43.801.11.353.794.798 1.227.798.396 0 .991-.706.99-1.174-.003-.638-.768-1.831-1.87-2.914l-.982-.965.21-1.091c.115-.6.3-1.399.414-1.774l.205-.683 1.87-.187c4.46-.446 8.23-1.645 10.416-3.314l.72-.55 1.266.842c1.49.991 2.827 1.625 4.798 2.275 1.642.541 1.592.47 2.162 3.04l.3 1.348-1.119 1.17c-1.118 1.171-1.786 2.25-1.786 2.89 0 .46.659 1.087 1.143 1.087.444 0 .888-.416 1.44-1.349.205-.347.428-.631.494-.631.067 0 .122.377.122.838 0 1.011.337 1.447 1.119 1.447.666 0 1.008-.394 1.14-1.312l.104-.732.56.78c.309.429.708.826.887.883.811.258 1.696-.666 1.394-1.457-.248-.651-1.522-2.22-2.357-2.902l-.809-.662-.318-1.526c-.174-.84-.36-1.63-.41-1.755-.081-.197.245-.23 2.383-.243 2.348-.013 3.58-.18 5.534-.752.283-.083.356.044.724 1.251.224.739.476 1.713.56 2.164l.152.821-1.113 1.165c-1.114 1.166-1.781 2.246-1.781 2.885 0 .46.658 1.087 1.142 1.087.444 0 .888-.416 1.44-1.349.205-.347.428-.631.495-.631s.122.377.122.838c0 1.011.337 1.447 1.118 1.447.667 0 1.008-.394 1.14-1.312l.105-.732.56.78c.308.429.707.826.886.883.812.258 1.696-.666 1.394-1.457-.24-.628-1.477-2.162-2.353-2.915-.787-.677-.843-.774-1.025-1.752-.105-.57-.393-1.72-.64-2.555-.245-.836-.39-1.538-.321-1.561.355-.119 2.798-1.651 3.519-2.207.455-.351 1.437-1.288 2.182-2.082.785-.836 1.675-1.618 2.117-1.86 4.748-2.596 8.204-7.607 9.444-13.694.168-.823.319-1.794.335-2.158s.076.093.131 1.014c.061 1.01.076.404.038-1.523-.07-3.627-.224-5.236-.672-7.053-1.057-4.283-3.551-7.264-6.356-7.596l-.722-.085-.503-1.62c-1.163-3.749-2.692-7.209-4.148-9.389-2.095-3.136-5.31-5.715-8.64-6.93-2.797-1.02-6.587-1.352-9.467-.827m-24.8.76c-.188.131-.478.506-.645.833-.404.792-.703.926-1.807.81-1.046-.109-1.622.14-1.78.77-.245.977 1.236 2.034 3.351 2.39 1.03.174 1.063.17 1.356-.185.529-.641 1.2-2.312 1.278-3.178.062-.704.02-.91-.257-1.26-.38-.48-.968-.55-1.497-.18m25.087 1.512c-1.967.373-4.353 1.343-5.927 2.41-1.013.688-2.847 2.498-3.5 3.456-.7 1.028-1.327 2.252-1.684 3.29l-.27.786.841.818c4.02 3.908 4.735 10.797 1.976 19.054a47 47 0 0 1-1.475 3.786c-1.491 3.28-1.586 3.67-1.596 6.591-.009 2.377-.032 2.583-.312 2.787-.465.34-1.284.203-1.64-.276-.25-.336-.316-.723-.376-2.209-.116-2.886.179-4.078 2.074-8.372 1.937-4.39 3-9.674 2.622-13.04-.218-1.943-.517-3.02-1.255-4.529-.836-1.706-1.797-2.663-3.57-3.552-2.773-1.392-5.025-1.867-8.24-1.739-4.41.176-8.03 1.83-11.394 5.206-4.247 4.26-6.26 9.629-6.571 17.523-.31 7.849 1.932 14.437 6.095 17.915 1.374 1.147 3.691 2.309 5.655 2.835 1.436.384 1.715.407 4.874.403 5.815-.008 10.488-1.001 13.072-2.779l.708-.487-.71-.87c-1.021-1.254-1.57-2.168-1.57-2.619 0-.883.919-1.454 1.61-1.001.198.13.628.63.957 1.111.9 1.32 1.725 2.195 2.952 3.13 6.241 4.762 15.362 4.76 21.293-.004 4.406-3.54 6.775-9.12 7.315-17.234.497-7.474-1.426-16.825-4.84-23.53-2.337-4.588-5.747-7.433-10.362-8.646-1.57-.413-5.112-.525-6.752-.214m11.286 7.042c-.249.317-.303.535-.23.926.058.307.024.597-.084.727-.207.25-1.057.296-1.057.058 0-.326-.754-.907-1.178-.907-.694 0-1.107.387-1.106 1.037.001 1.237 1.354 2.38 2.817 2.38 1.959 0 3.437-2.034 2.802-3.855-.308-.883-1.397-1.086-1.964-.366M49.71 23.682c-.292.236-.355.421-.334.977.045 1.186-.879 1.561-1.393.567-.37-.714-1.188-.84-1.73-.264-.775.825-.073 2.308 1.38 2.915 1.496.625 3.204-.099 3.842-1.628.759-1.815-.476-3.611-1.765-2.567m5.242 1.484c-.904.32-2.112 1.46-2.622 2.474-.504 1.003-.634 1.529-.642 2.602-.012 1.506 1.281 3.493 2.797 4.298.982.522 2.925.5 4.08-.044 1.612-.76 2.684-2.227 2.852-3.901.06-.6.2-1.017.436-1.301.776-.933.675-1.485-.426-2.34-2.31-1.795-4.64-2.438-6.475-1.788m.644 2.263c-.618.335-.98.679-1.235 1.17-.406.786-.314.885.816.882 1.68-.003 4.33-.801 4.069-1.225-.051-.082-.44-.325-.864-.54-.99-.502-2.168-.623-2.786-.287m-37.43 1.76c-.564.328-.664 1.791-.187 2.732 1.123 2.214 4.474 1.962 5.252-.396.459-1.389-1.472-2.107-2.106-.783-.136.282-.318.417-.564.417-.46 0-.598-.225-.557-.911.057-.974-.97-1.565-1.838-1.06m39.79 2.22c-.377.12-1.25.26-1.942.312-1.06.078-1.228.126-1.077.308.78.94 2.375.836 3.515-.23.704-.659.6-.74-.496-.39m14.38.606c.148.383.805 4.279 1.025 6.075.248 2.022.248 7.829.001 9.749-.375 2.907-1.15 6.037-2.076 8.378-.214.54 1.587-1.336 2.374-2.474 2.075-2.998 3.248-6.593 3.441-10.542.183-3.769-.693-7.399-2.325-9.621-.598-.815-1.126-1.241-1.98-1.598-.527-.22-.555-.218-.46.033m-43.699.553c-.479.416-.628 1.19-.395 2.055.447 1.66 2.244 2.58 3.784 1.936 1.456-.608 2.195-2.195 1.377-2.957-.607-.566-1.313-.379-1.851.49-.27.436-.76.554-.96.23-.064-.103-.126-.492-.139-.864-.038-1.135-.994-1.603-1.816-.89m-6.553 1.61c-.42.156-.973.394-1.232.527-.57.296-2.018 1.4-2.386 1.82-.396.452-.332 1.099.168 1.674.31.357.46.726.524 1.29.247 2.15 2.07 3.808 4.369 3.973 2.035.145 3.398-.684 4.376-2.663.473-.956.569-1.307.551-2.01-.043-1.728-1.094-3.503-2.597-4.384-.927-.543-2.649-.647-3.773-.227m.114 2.458c-.524.248-.952.517-.952.599 0 .331 1.757.817 3.237.894 1.657.087 1.72.042 1.181-.84-.708-1.162-1.91-1.388-3.466-.653M6.394 38.911c-.335.155-.758.444-.94.644-.504.552-1.081 1.801-1.371 2.969-.367 1.478-.368 5.3-.001 7.066.816 3.931 2.552 7.257 4.536 8.69l.395.285L8.5 57.2a30.3 30.3 0 0 1-1.533-5.859c-.36-2.274-.356-7.912.008-10.536.14-1.02.256-1.928.256-2.018 0-.224-.127-.205-.838.123m15.649 1.509c.717.778 2.041 1.023 2.874.531.243-.143.442-.315.442-.38 0-.066-.394-.121-.876-.123a11 11 0 0 1-1.83-.203l-.956-.2zm-20.54 5.439c0 1.006.025 1.397.055.87.03-.526.03-1.349 0-1.828-.031-.478-.055-.047-.055.959" clip-rule="evenodd"/></svg>