<svg xmlns="http://www.w3.org/2000/svg" width="70" height="70" fill="none" viewBox="0 0 70 70"><path stroke="#00aacb" stroke-linecap="round" stroke-linejoin="round" stroke-width="4" d="M35 67.5c17.5 0 30-6.19 30-19.97 0-14.975-7.5-24.96-22.5-32.45l5.9-7.59a3.29 3.29 0 0 0-2.8-4.99H24.4a3.3 3.3 0 0 0-2.8 4.99l5.9 7.64C12.5 22.67 5 32.655 5 47.63 5 61.31 17.5 67.5 35 67.5"/><path stroke="#00aacb" stroke-linecap="round" stroke-linejoin="round" stroke-width="4" d="M41.914 34.03a5.4 5.4 0 0 0-5.11-3.615h-4.19a4.835 4.835 0 0 0-1.035 9.56l6.385 1.4a5.42 5.42 0 0 1-1.16 10.71H33.2a5.425 5.425 0 0 1-5.11-3.61M35 30.415V25m0 32.5v-5.415"/></svg>