<svg xmlns="http://www.w3.org/2000/svg" width="80" height="124" fill="none" viewBox="0 0 80 124"><g filter="url(#a)"><path fill="#00aacb" d="M32.886 0v14.482H22.108c-9.773 0-17.964 8.255-17.964 18.102v7.241c0 9.848 6.323 17.958 15.664 20.42l36.79 9.558c2.013.579 4.887 4.2 4.887 6.372v7.24c0 2.028-1.58 3.621-3.593 3.621H21.964a8 8 0 0 1-3.593-.869V72.554H4v14.482c0 4.924 2.874 9.124 6.323 11.296 3.306 2.317 7.473 3.186 11.641 3.186h10.779V116h14.37v-14.482h10.78c9.915 0 17.963-8.11 17.963-18.102v-7.241c0-9.848-6.323-17.958-15.664-20.42l-36.79-9.558c-2.013-.579-4.887-4.2-4.887-6.372v-7.24c0-2.028 1.58-3.621 3.593-3.621h35.928c1.58 0 3.018.58 3.593.869v13.613H76V28.964c0-4.924-2.874-9.124-6.323-11.296-3.306-2.317-7.473-3.186-11.641-3.186H47.257V0z"/></g><defs><filter id="a" width="80" height="124" x="0" y="0" color-interpolation-filters="sRGB" filterUnits="userSpaceOnUse"><feFlood flood-opacity="0" result="BackgroundImageFix"/><feColorMatrix in="SourceAlpha" result="hardAlpha" values="0 0 0 0 0 0 0 0 0 0 0 0 0 0 0 0 0 0 127 0"/><feOffset dy="4"/><feGaussianBlur stdDeviation="2"/><feComposite in2="hardAlpha" operator="out"/><feColorMatrix values="0 0 0 0 0 0 0 0 0 0 0 0 0 0 0 0 0 0 0.25 0"/><feBlend in2="BackgroundImageFix" result="effect1_dropShadow_186_25025"/><feBlend in="SourceGraphic" in2="effect1_dropShadow_186_25025" result="shape"/></filter></defs></svg>