<svg xmlns="http://www.w3.org/2000/svg" width="140" height="78" fill="none" viewBox="0 0 140 78"><path fill="#fff" fill-rule="evenodd" d="M62.907.267c-.174.146-2.08 3.763-4.234 8.037l-3.92 7.771-9.94.04-9.939.038-.102-.877c-.279-2.383-1.438-5.47-2.826-7.524-.36-.534-1.24-1.579-1.952-2.322A16.94 16.94 0 0 0 9.297 2.446c-1.69.972-2.251 1.497-2.251 2.105 0 .556.384 1.02.96 1.16.284.068.616-.064 1.326-.528 1.42-.929 2.863-1.617 4.37-2.083 1.258-.389 1.54-.418 4.006-.417 3.138.002 4.165.223 6.595 1.423 4.293 2.118 7.471 6.455 8.074 11.017l.136 1.028h-2.331l-.09-.763c-.133-1.126-.887-3.195-1.61-4.419-1.58-2.673-4.492-4.891-7.514-5.725-1.321-.364-4.286-.451-5.63-.165-2.568.547-4.47 1.61-6.429 3.59-1.169 1.183-1.581 1.729-2.153 2.845-1.134 2.217-1.405 3.387-1.392 6.009.01 2.038.047 2.317.473 3.606 1.148 3.475 3.28 5.946 6.49 7.524 1.46.718 3.031 1.204 3.903 1.21l.417.001v2.286h-.578c-1.63 0-5.04-1.308-6.913-2.651-1.33-.954-3.219-3.026-4.088-4.485-.853-1.431-1.673-3.71-1.926-5.358-.243-1.58-.096-4.495.303-6.019.364-1.39 1.193-3.208 2.112-4.633.346-.537.63-1.107.63-1.269 0-.16-.207-.5-.459-.753-.371-.373-.537-.442-.872-.358-.589.148-.877.454-1.713 1.82-1.383 2.258-2.128 4.53-2.427 7.397-.929 8.916 5.703 17.355 14.624 18.61l1.307.183v17.467c0 19.487-.068 18.205 1.086 20.574.86 1.764 2.425 3.35 4.177 4.232 2.337 1.175 1.288 1.122 21.115 1.073l17.662-.043.875-.336c2.595-.996 4.734-2.824 5.755-4.92 1.193-2.45 1.092.122 1.14-28.991.025-14.31-.011-26.241-.08-26.512-.208-.829-.82-1.026-3.18-1.027-1.105 0-2.009-.042-2.009-.093s1.398-2.857 3.108-6.236 3.108-6.242 3.108-6.362c0-.538-.756-1.095-3.048-2.249C65.033.545 63.786 0 63.586 0s-.506.12-.68.267M60.77 9.354c-1.84 3.634-3.344 6.652-3.344 6.707 0 .056.698.081 1.55.057l1.551-.043 2.994-5.942c1.646-3.269 2.995-5.993 2.997-6.055s-.538-.387-1.2-.722l-1.205-.608zM14.744 7.676c-1.064.346-2.26.936-2.91 1.435l-.343.262 2.578 2.587 2.578 2.588V7.314l-.417.007c-.23.003-.898.163-1.486.355m4.177 3.255v3.617l2.569-2.579 2.569-2.578-.485-.362c-.71-.53-2.197-1.214-3.218-1.482-1.573-.411-1.435-.737-1.435 3.384m-9.679.917c-.748 1.171-1.54 3.283-1.54 4.107 0 .155.762.196 3.6.196H14.9l-2.498-2.514c-1.374-1.383-2.543-2.514-2.597-2.514-.055 0-.308.326-.563.725m13.924 1.789-2.498 2.514h3.61l3.611-.495c-.255-.788-.646-1.968-.97-2.628-.385-.784-1.078-1.904-1.178-1.905-.043 0-1.201 1.131-2.575 2.514m-15.463 5.24c0 .85 1.117 3.61 1.795 4.436l.312.38 2.546-2.552 2.547-2.552h-3.6c-3.433 0-3.6.014-3.6.289M18.92 43.627c0 17.324.05 25.315.164 25.94.39 2.146 2.092 4.415 3.981 5.308 1.865.882 1.457.865 20.006.82l17.008-.043.898-.343c2.465-.944 4.23-2.875 4.864-5.324.196-.756.226-4.233.226-26.134V18.59h-4.18l-1.697 3.324-1.698 3.325 1.476.175c1.698.202 3.214.673 3.62 1.124.256.284.285.67.328 4.372.025 2.233.005 4.283-.045 4.556-.193 1.049-1.268 1.445-1.98.73l-.372-.374v-7.76l-.765-.165c-2.059-.444-4.913-.064-8.043 1.072l-.85.308.393.942c.32.764.394 1.188.395 2.245.001 1.197-.044 1.396-.557 2.438-.497 1.008-.911 1.485-3.724 4.29-2.695 2.689-3.31 3.225-4.14 3.615-1.163.545-2.382.717-3.45.487-1.636-.353-2.068-.675-5.54-4.14l-3.314-3.306-2.598-.087c-2.389-.08-3.676-.267-5.52-.804l-.343-.1.04 17.147.04 17.146.456.647c.25.356.727.79 1.06.966.605.317.661.318 17.535.318h16.929l.657-.459c.384-.268.799-.74.998-1.137l.341-.678V54.232c0-14.514.002-14.576.315-14.976.553-.708 1.64-.495 1.944.38.208.601.23 27.764.023 29.203-.267 1.853-1.352 3.34-3.01 4.12l-.863.407H25.06l-.834-.395c-1.063-.505-2.061-1.508-2.563-2.576l-.393-.838-.04-18.887c-.036-16.936-.015-18.974.203-19.732.718-2.503 2.401-4.011 5.173-4.637 1.302-.294 4.603-.33 6.602-.072l1.346.173 2.006-1.996c2.539-2.527 3.127-2.846 5.252-2.846 2.15 0 2.701.306 5.395 2.99l2.147 2.14 1.063-2.032c.585-1.117 1.515-2.94 2.067-4.05l1.003-2.019H18.92zM54.1 22.56c-1.105 2.184-1.979 4.003-1.94 4.042.038.038.267-.006.508-.099.24-.093 1.018-.323 1.726-.51l1.289-.342 1.789-3.532 1.789-3.531h-3.15zm-40.083.27-2.554 2.57.427.338c.697.55 2.491 1.354 3.603 1.613.57.133 1.064.214 1.098.18.033-.033.042-1.683.02-3.666l-.04-3.605zm26.658 1.192c-.675.207-1.102.578-3.885 3.38-3.306 3.328-3.5 3.604-3.53 5-.008.35.037.686.098.749.16.16 2.443-.31 4.588-.944 1.706-.503 5.954-2.133 8.602-3.299l1.173-.517-2.159-2.133c-1.879-1.857-2.25-2.157-2.87-2.312-.884-.22-1.073-.213-2.017.076M27.438 28.51c-1.79.3-3.127 1.252-3.583 2.553-.41 1.165-.344 1.35.565 1.615 1.375.402 3.077.68 4.809.786l1.668.102v-.986c0-1.243.319-2.33.966-3.297l.506-.756-.681-.093c-.936-.13-3.273-.087-4.25.076m20.135 2.519c-5.08 2.212-9.401 3.75-11.795 4.197l-.956.178 2.472 2.503c1.486 1.503 2.714 2.616 3.078 2.787.745.35 2.008.376 2.77.056.765-.321 6.49-6.028 6.87-6.849.386-.83.38-2.196-.011-2.967-.166-.326-.353-.624-.417-.662-.064-.037-.969.303-2.01.757m7.58 5.825c-1.125.37-2.092 1.217-2.493 2.185-.13.311-.236 1-.236 1.53 0 .817.076 1.09.493 1.79 1.49 2.497 4.994 2.428 6.375-.124.993-1.837.27-4.106-1.619-5.084-.653-.339-1.936-.49-2.52-.297m-26.93 1.07c-.752.193-1.491.722-1.962 1.405-.587.852-.701 2.377-.244 3.27.68 1.33 1.748 1.95 3.216 1.866 1.241-.07 2.077-.579 2.697-1.64.732-1.254.46-3.1-.601-4.068-.814-.744-2.103-1.09-3.106-.833m27.069 1.43c-.665.512-.766 1.414-.23 2.04.29.338.49.423 1 .423.511 0 .712-.085 1.002-.423.784-.916.194-2.226-1.001-2.226-.292 0-.639.083-.771.185M28.32 40.53c-.167.168-.303.465-.303.66 0 .438.588 1.016 1.033 1.016.463 0 .938-.527.938-1.043 0-.854-1.051-1.253-1.668-.633m4.591 4.03c-.864.272-1.837.866-2.423 1.48-.594.624-4.641 7.63-4.982 8.626-.735 2.15.125 4.969 1.916 6.273 1.087.791 7.314 4.336 8.1 4.61 1.73.604 4.01.183 5.327-.984l.325-.288.323.964c.857 2.556 3.326 4.269 5.827 4.042 1.026-.094 8.232-2.193 9.288-2.707.994-.483 1.984-1.539 2.53-2.699.435-.922.483-1.162.476-2.396-.007-1.262-.1-1.68-1.169-5.228-.639-2.121-1.316-4.168-1.505-4.55-.484-.973-1.892-2.235-2.96-2.652-1.494-.583-2.676-.493-5.762.44l-2.61.788-.668-.646c-.71-.688-7.434-4.655-8.575-5.06-.798-.283-2.576-.29-3.458-.013m.563 2.265c-.959.306-1.794 1.399-3.85 5.036-2.095 3.707-2.275 4.222-1.93 5.507.305 1.134.876 1.602 4.61 3.777 1.943 1.133 3.835 2.141 4.203 2.24 1.262.342 2.813-.23 3.54-1.305l.36-.533-.51-1.687c-.897-2.974-.927-4.14-.149-5.85.45-.988 1.59-2.18 2.477-2.593.352-.163.622-.358.6-.431-.054-.18-6.572-3.956-6.572-3.956l-.648-.227c-.613-.215-1.413-.206-2.13.022m13.922 5.361c-2.057.618-3.944 1.229-4.193 1.358-.969.504-1.69 1.768-1.693 2.963 0 .544 2.143 8.014 2.493 8.688.528 1.015 1.676 1.695 2.862 1.695 1.06 0 8.226-2.103 9.062-2.659.895-.595 1.409-1.608 1.389-2.736-.02-1.16-2.09-8.191-2.67-9.073-.516-.782-1.718-1.382-2.744-1.368-.488.006-2.123.417-4.506 1.133M95.156.175c-3.182.737-6.055 2.47-7.925 4.781l-.853 1.054-1.5.098c-6.124.4-11.074 4.438-12.738 10.39-.337 1.207-.34 1.321-.345 11.89-.003 8.507.037 10.786.2 11.244.606 1.712 2.483 3.026 4.336 3.036.545.003 1.138-.04 1.318-.097l.327-.104.002 14.225c.003 15.66-.01 15.431.94 17.238.627 1.193 2.118 2.687 3.219 3.224 1.8.88 1.085.847 18.822.845 10.725-.001 16.576-.056 17.027-.16 1.956-.449 4.057-2.088 5.014-3.909.73-1.391.937-2.61.94-5.567l.002-2.553 4.314-.004c2.419-.002 4.616-.073 5.002-.161 2.735-.63 5.138-3.1 5.731-5.891.325-1.529.325-27.669 0-29.197-.596-2.808-2.982-5.259-5.736-5.892-.38-.088-2.594-.159-4.997-.161l-4.314-.004v-4.649l.517-.412c.284-.226.794-.825 1.132-1.33 2.089-3.123 1.703-7.082-.942-9.687-1.062-1.046-2.08-1.641-3.385-1.98-1.045-.272-2.903-.287-3.888-.031l-.688.178-1.069-1.067c-.588-.587-1.417-1.253-1.844-1.481-1.614-.863-3.825-1.118-5.626-.65l-.892.232-1.005-.775c-1.196-.921-3.35-2.012-4.835-2.448-1.402-.412-4.912-.538-6.261-.225M96.28 3.17c-2.87.421-5.64 2.17-7.24 4.573-.994 1.492-1.04 1.514-3.134 1.514-2.165 0-3.61.332-5.333 1.227-2.328 1.21-4.19 3.369-5.105 5.92l-.471 1.313-.044 10.29c-.025 5.658-.006 10.445.042 10.636.1.405.914.947 1.422.948.468 0 1.183-.38 1.348-.718.073-.15.168-3.272.21-6.938l.076-6.666.397-.396c.322-.321.625-.425 1.59-.545 2.791-.345 4.766-1.607 6.039-3.859.5-.884 1.305-1.688 1.927-1.924.566-.215 1.744-.17 2.522.094.382.13 1.064.552 1.516.939a10 10 0 0 0 1.815 1.174c.893.424 1.138.47 2.443.47 1.312 0 1.549-.045 2.471-.482.561-.265 1.323-.76 1.693-1.1 1.004-.925 1.799-1.23 3.211-1.234 4.339-.012 7.173 1.998 7.735 5.485.087.545.16 2.728.16 4.851l.001 3.86.447.446c.616.615 1.393.615 2.009 0l.446-.445v-6.785c0-3.86.062-6.948.143-7.162.392-1.029 1.366-1.276 2.701-.686.523.232 1.062.332 1.814.337 2.52.017 4.447-1.724 4.622-4.175.094-1.313-.233-2.331-1.047-3.254-1.4-1.587-3.524-1.988-5.54-1.045-.576.27-1.202.49-1.391.49-.53 0-1.117-.553-1.603-1.514-1.14-2.254-3.722-3.155-6.017-2.099-1.35.621-1.589.572-2.878-.591-2.707-2.443-5.717-3.43-8.997-2.949m21.37 24.074c-.044 5.621-.06 5.899-.373 6.573-.43.93-1.267 1.837-2.03 2.202l-.618.295-.002 12.466c-.001 13.392.006 13.265-.77 13.68-.186.099-.561.18-.835.18s-.649-.081-.834-.18c-.777-.415-.77-.286-.77-13.701V36.27l-.355-.09c-.617-.154-1.744-1.283-2.194-2.197l-.428-.871-.076-4.65c-.066-4.008-.113-4.715-.339-5.126-.588-1.073-1.712-1.609-3.817-1.818l-1.025-.102-.804.703c-1.695 1.48-3.723 2.24-6.004 2.25-2.324.01-4.157-.643-6.037-2.149-.528-.423-1.007-.77-1.063-.77s-.456.543-.889 1.205c-1.544 2.368-3.877 3.926-7.014 4.685-.152.037-.191 4.32-.191 20.782v20.736h23.388l.447.445c.628.628.628 1.53 0 2.158l-.447.445H93.03c-6.348 0-11.542.038-11.542.083s.133.343.296.662c.368.72 1.227 1.486 2.14 1.907.69.319.795.321 16.574.363 11.035.028 16.124-.01 16.682-.125 1.054-.218 2.137-.957 2.754-1.878.273-.407.496-.802.496-.876 0-.075-1.105-.136-2.455-.136h-2.456l-.446-.445c-.628-.627-.628-1.53 0-2.158l.447-.445h5.215V21.375h-3.038zm6.291 1.819v1.535h8.089l.499.445.499.444v27.336l-.5.445-.498.445h-8.089v3.07l4.314-.049c4.007-.045 4.364-.072 5.01-.37.974-.45 1.775-1.197 2.254-2.104l.41-.776.041-14.15.042-14.151-.407-.904a4.68 4.68 0 0 0-2.33-2.328c-.659-.304-.993-.329-5.02-.375l-4.314-.048zm-35.964 1.526c-.168.069-.442.278-.61.464-.3.333-.307.586-.351 15.147-.032 10.354.004 14.98.12 15.38.092.315.334.682.539.816.438.287 1.273.317 1.748.064.784-.42.769-.105.768-15.966 0-14.476-.006-14.762-.305-15.252-.427-.7-1.172-.954-1.909-.653m12.217 0c-.168.069-.442.278-.61.464-.3.333-.307.586-.351 15.147-.032 10.354.004 14.98.12 15.38.092.315.334.682.539.816.438.287 1.273.317 1.748.064.784-.42.769-.105.768-15.966 0-14.476-.006-14.762-.305-15.252-.427-.7-1.172-.954-1.909-.653m23.747 14.566v11.509h5.956V33.646h-5.956zm-14.584 23.728c-.52.286-.833.791-.836 1.352-.005.676.347 1.186 1.009 1.462.442.184.586.184 1.029 0 .918-.383 1.248-1.241.83-2.157-.32-.703-1.345-1.034-2.032-.657" clip-rule="evenodd"/></svg>