<svg width="140" height="78" viewBox="0 0 140 78" fill="none" xmlns="http://www.w3.org/2000/svg">
  <!-- Wine/Cocktail Icon from Vector (52).svg -->
  <g transform="translate(0,0)">
    <path fill-rule="evenodd" clip-rule="evenodd" d="M62.9065 0.266646C62.7331 0.413225 60.8278 4.03017 58.6725 8.30412L54.7536 16.075L44.8138 16.1141L34.8741 16.1533L34.7716 15.2761C34.4933 12.8935 33.334 9.80664 31.9461 7.75239C31.5851 7.21819 30.7068 6.17324 29.9944 5.43044C24.5788 -0.216365 16.0624 -1.44416 9.2968 2.44644C7.60692 3.41825 7.0457 3.94301 7.0457 4.55112C7.0457 5.10711 7.42955 5.57062 8.00578 5.71034C8.28973 5.77921 8.62234 5.64696 9.33197 5.18269C10.7512 4.25415 12.1946 3.56635 13.7027 3.1001C14.9597 2.71141 15.2427 2.682 17.7082 2.68337C20.8463 2.68505 21.8727 2.90644 24.3027 4.10559C28.5956 6.22398 31.7743 10.5613 32.3772 15.1226L32.5131 16.1511H31.3473H30.1816L30.0916 15.3881C29.9591 14.2625 29.205 12.1933 28.4813 10.9691C26.9011 8.29574 23.9901 6.0777 20.9675 5.24409C19.6468 4.87978 16.6815 4.79277 15.3379 5.07892C12.7704 5.62562 10.8675 6.6884 8.90931 8.6695C7.74048 9.85189 7.32753 10.3975 6.75615 11.5142C5.62188 13.7312 5.35067 14.9013 5.36386 17.5225C5.37401 19.5609 5.4107 19.8398 5.83654 21.1286C6.98476 24.6037 9.1167 27.0754 12.3264 28.6529C13.7869 29.3707 15.3581 29.8574 16.2301 29.8621L16.647 29.8644V31.0071V32.1499H16.0694C14.4397 32.1499 11.0288 30.8418 9.15597 29.4985C7.82629 28.5449 5.93736 26.4729 5.06778 25.0143C4.21458 23.5829 3.39549 21.3038 3.14216 19.6556C2.89915 18.0757 3.0459 15.161 3.44491 13.637C3.8089 12.2467 4.63769 10.4288 5.55684 9.00426C5.90325 8.46746 6.18659 7.89654 6.18659 7.73548C6.18659 7.57443 5.98026 7.23525 5.728 6.98171C5.35673 6.60856 5.19058 6.54045 4.8563 6.6244C4.26718 6.7722 3.97915 7.07801 3.14262 8.4443C1.76018 10.7021 1.01477 12.9741 0.716269 15.8408C-0.212733 24.7568 6.41899 33.1959 15.34 34.4502L16.647 34.634V52.1013C16.647 71.5884 16.5792 70.3064 17.7332 72.6749C18.5927 74.4392 20.1585 76.0254 21.91 76.9067C24.2468 78.0821 23.1985 78.0287 43.0253 77.9801L60.6866 77.9369L61.5621 77.6009C64.157 76.6052 66.2955 74.7767 67.3171 72.6801C68.5102 70.2312 68.4091 72.8028 68.4579 43.6897C68.4819 29.3791 68.4456 17.4486 68.3774 17.1775C68.1688 16.3491 67.5568 16.1516 65.1967 16.1514C64.0918 16.1513 63.188 16.1094 63.188 16.0585C63.188 16.0076 64.5865 13.2013 66.2958 9.82233C68.0051 6.44339 69.4036 3.58022 69.4036 3.45985C69.4036 2.92214 68.6483 2.36477 66.3564 1.21134C65.0327 0.545025 63.7858 0 63.5857 0C63.3854 0 63.0798 0.120067 62.9065 0.266646ZM60.7708 9.35425C58.9319 12.9878 57.4272 16.0059 57.4272 16.0612C57.4272 16.1166 58.125 16.1423 58.9778 16.1184L60.5283 16.075L63.5217 10.1326C65.1682 6.86423 66.517 4.13957 66.5193 4.07755C66.5214 4.01569 65.9812 3.69114 65.3187 3.35639L64.1143 2.74767L60.7708 9.35425ZM14.7441 7.6756C13.6803 8.02194 12.4846 8.6116 11.8331 9.11107L11.4914 9.37284L14.0692 11.9604L16.647 14.5479V10.9308V7.31372L16.2301 7.32058C16.0008 7.32424 15.3321 7.48407 14.7441 7.6756ZM18.9209 10.9308V14.5479L21.4898 11.9694L24.0587 9.39082L23.5743 9.0294C22.8644 8.49961 21.377 7.81456 20.3561 7.54731C18.7831 7.1356 18.9209 6.81045 18.9209 10.9308ZM9.24207 11.8481C8.49423 13.0192 7.70258 15.1312 7.70258 15.9546C7.70258 16.1095 8.46407 16.1511 11.3014 16.1511H14.9001L12.4022 13.637C11.0284 12.2543 9.85939 11.123 9.80466 11.123C9.74978 11.123 9.49661 11.4493 9.24207 11.8481ZM23.1657 13.637L20.6678 16.1511H24.2786H24.2786L27.8894 15.6559C27.6341 14.8677 27.2427 13.6885 26.9184 13.0276C26.5341 12.2441 25.8413 11.1236 25.7413 11.1233C25.6985 11.1231 24.5395 12.2543 23.1657 13.637ZM7.70258 18.8778C7.70258 19.7265 8.82002 22.4879 9.49752 23.313L9.80982 23.6934L12.3561 21.1412L14.9025 18.589H11.3025C7.8704 18.589 7.70258 18.6025 7.70258 18.8778ZM18.9209 43.6258C18.9209 60.9497 18.9716 68.9411 19.0853 69.5666C19.4752 71.7124 21.1771 73.9814 23.0661 74.8741C24.9314 75.7555 24.5232 75.7389 43.0715 75.6932L60.0802 75.6513L60.9775 75.3079C63.4431 74.3641 65.2076 72.433 65.8422 69.9843C66.0384 69.2277 66.0684 65.7505 66.0684 43.8503V18.589H63.9781H61.888L60.1907 21.9134L58.4934 25.2378L59.9689 25.4134C61.6669 25.6154 63.1829 26.0858 63.5891 26.5366C63.8453 26.8208 63.8743 27.2075 63.9166 30.9086C63.9421 33.1417 63.9219 35.1918 63.8717 35.4645C63.6786 36.5138 62.6043 36.9099 61.8926 36.1945L61.5204 35.8206V31.9409V28.0612L60.755 27.8962C58.6961 27.4524 55.8421 27.8325 52.7116 28.9675L51.8617 29.2756L52.255 30.2176C52.5741 30.9815 52.6487 31.4057 52.6499 32.4632C52.6512 33.6602 52.6056 33.8593 52.0926 34.9011C51.596 35.9092 51.1819 36.3864 48.369 39.1917C45.6737 41.8797 45.0594 42.4159 44.2284 42.8057C43.0657 43.351 41.847 43.5234 40.7795 43.2931C39.1427 42.9404 38.7112 42.618 35.239 39.1539L31.925 35.8475L29.3266 35.7603C26.938 35.6802 25.6512 35.4926 23.8075 34.9558L23.4638 34.8557L23.5043 52.0026L23.5447 69.1494L23.9995 69.7965C24.2497 70.1525 24.7272 70.5869 25.0607 70.7619C25.6652 71.0792 25.7211 71.0802 42.5953 71.0802H59.5235L60.1809 70.6212C60.5652 70.3527 60.98 69.8805 61.1793 69.4842L61.5204 68.8063V54.2317C61.5204 39.7176 61.5218 39.6555 61.8347 39.2556C62.388 38.5485 63.4751 38.7609 63.7785 39.6355C63.9872 40.2374 64.0091 67.3995 63.802 68.8387C63.5355 70.6917 62.4496 72.1781 60.7921 72.959L59.9286 73.3658H42.4947H25.0607L24.2269 72.9705C23.1636 72.4663 22.1656 71.4633 21.664 70.3946L21.2707 69.5566L21.231 50.6698C21.1955 33.7338 21.2165 31.6957 21.434 30.938C22.1523 28.4351 23.835 26.927 26.6066 26.3014C27.9091 26.0074 31.2101 25.971 33.2086 26.2287L34.5551 26.4022L36.5606 24.4062C39.0998 21.8793 39.6884 21.5602 41.8125 21.5602C43.9626 21.5602 44.5141 21.8659 47.2084 24.5506L49.3549 26.6898L50.4182 24.6582C51.0029 23.541 51.9328 21.7183 52.4846 20.6079L53.4878 18.589H36.2044H18.9209V43.6258ZM54.1014 22.5607C52.9955 24.7452 52.1223 26.5641 52.1608 26.6028C52.1993 26.6415 52.4279 26.5971 52.6687 26.5042C52.9096 26.4111 53.6865 26.1813 54.3952 25.9934L55.6838 25.6517L57.4727 22.1204L59.2616 18.589H57.6868H56.1119L54.1014 22.5607ZM14.0178 22.8313L11.4644 25.4012L11.8914 25.7388C12.5879 26.2895 14.3821 27.0929 15.494 27.3521C16.0644 27.485 16.5584 27.5663 16.5918 27.5327C16.6251 27.4991 16.6342 25.8493 16.6118 23.8665L16.5712 20.2614L14.0178 22.8313ZM40.6755 24.0228C40.0009 24.2295 39.5735 24.6012 36.7913 27.4025C33.4853 30.7313 33.2908 31.0068 33.2607 32.4038C33.2532 32.753 33.2977 33.0894 33.3594 33.1516C33.5183 33.3113 35.8023 32.8417 37.9467 32.2084C39.6529 31.7045 43.9006 30.0754 46.5487 28.9092L47.7224 28.3923L45.5634 26.2587C43.6843 24.4016 43.3121 24.1019 42.6928 23.9473C41.8093 23.7266 41.6199 23.7338 40.6755 24.0228ZM27.4381 28.5112C25.6482 28.8104 24.3109 29.7632 23.8545 31.0644C23.4457 32.2293 23.5105 32.414 24.4196 32.6795C25.7946 33.0813 27.4972 33.3596 29.2287 33.4652L30.8973 33.5671V32.5814C30.8973 31.3381 31.2157 30.2512 31.863 29.2843L32.3692 28.5284L31.6879 28.4345C30.7524 28.3056 28.415 28.3478 27.4381 28.5112ZM47.5733 31.03C42.4924 33.2422 38.1717 34.7795 35.7779 35.2269L34.8219 35.4054L37.2939 37.9076C38.7797 39.4115 40.0078 40.5237 40.3723 40.6952C41.1171 41.0458 42.3805 41.0711 43.1429 40.751C43.9074 40.43 49.632 34.7228 50.0126 33.9022C50.3979 33.0717 50.3926 31.7065 50.001 30.9352C49.8354 30.609 49.6479 30.3113 49.5841 30.2735C49.5204 30.2358 48.6155 30.5762 47.5733 31.03ZM55.1523 36.8545C54.0279 37.2244 53.061 38.072 52.6596 39.0397C52.5303 39.3513 52.4244 40.04 52.4244 40.5701C52.4244 41.3867 52.4998 41.6603 52.9171 42.3599C54.4068 44.8567 57.9113 44.7883 59.2922 42.2355C60.2855 40.3993 59.5628 38.1302 57.6731 37.1517C57.0199 36.8135 55.7367 36.6622 55.1523 36.8545ZM28.2228 37.9253C27.471 38.1176 26.7317 38.6469 26.2605 39.33C25.6735 40.1816 25.5596 41.7073 26.0166 42.6005C26.6966 43.9299 27.7645 44.5491 29.2334 44.4658C30.4745 44.3952 31.31 43.8872 31.9297 42.8264C32.6622 41.5723 32.3898 39.7266 31.3289 38.7577C30.5147 38.014 29.2259 37.6686 28.2228 37.9253ZM55.2916 39.3542C54.6275 39.8666 54.5258 40.7685 55.0614 41.3945C55.3514 41.7333 55.5524 41.8185 56.0628 41.8185C56.5733 41.8185 56.7743 41.7333 57.0643 41.3945C57.8476 40.4792 57.2579 39.1686 56.0628 39.1686C55.771 39.1686 55.424 39.2521 55.2916 39.3542ZM28.3201 40.5302C28.1534 40.6978 28.0169 40.9945 28.0169 41.1894C28.0169 41.6276 28.6048 42.2063 29.0499 42.2063C29.5134 42.2063 29.9877 41.6788 29.9877 41.1633C29.9877 40.3091 28.937 39.9102 28.3201 40.5302ZM32.9115 44.5605C32.047 44.8321 31.0745 45.426 30.4884 46.0406C29.8937 46.6641 25.8466 53.6708 25.5061 54.6664C24.7706 56.8168 25.6315 59.635 27.4222 60.9387C28.5093 61.7301 34.736 65.2745 35.5211 65.5488C37.2513 66.1531 39.5318 65.7321 40.8489 64.5651L41.1738 64.2771L41.497 65.2408C42.3544 67.7974 44.8226 69.5096 47.3236 69.2826C48.3505 69.1895 55.5562 67.09 56.6116 66.5765C57.6063 66.0926 58.5956 65.0373 59.1424 63.877C59.5769 62.9552 59.6247 62.7146 59.6181 61.481C59.6115 60.2195 59.5178 59.8005 58.4492 56.2529C57.8103 54.1318 57.1328 52.0847 56.9436 51.7039C56.4596 50.7298 55.052 49.4683 53.9836 49.0509C52.4902 48.4676 51.3082 48.5576 48.222 49.4901L45.6113 50.2789L44.9441 49.6329C44.2344 48.9454 37.5101 44.9777 36.3693 44.5732C35.5711 44.2901 33.793 44.2835 32.9115 44.5605ZM33.4745 46.8252C32.5152 47.1307 31.6796 48.2236 29.6239 51.8612C27.5291 55.5677 27.3485 56.0828 27.6942 57.3681C27.999 58.5017 28.5704 58.9699 32.3037 61.1453C34.2474 62.2779 36.1387 63.2861 36.5068 63.3856C37.7686 63.7272 39.32 63.1549 40.0468 62.0798L40.4074 61.5467L39.8979 59.8599C38.9997 56.8863 38.9698 55.7196 39.7484 54.0105C40.1985 53.0222 41.3375 51.8296 42.2253 51.4171C42.5771 51.2537 42.847 51.0594 42.8249 50.9855C42.771 50.806 36.2532 47.0301 36.2532 47.0301L35.6054 46.8031C34.992 46.5883 34.1922 46.5965 33.4745 46.8252ZM47.3957 52.1865C45.3387 52.8039 43.4517 53.415 43.2025 53.5445C42.2342 54.0476 41.5122 55.3119 41.5102 56.5069C41.5093 57.0512 43.6526 64.5209 44.0031 65.195C44.5307 66.2099 45.6793 66.8901 46.8654 66.8901C47.925 66.8901 55.0906 64.7875 55.927 64.2312C56.8217 63.6361 57.336 62.6228 57.3159 61.495C57.2952 60.3341 55.2258 53.3038 54.6452 52.422C54.1302 51.6399 52.9279 51.0402 51.902 51.0537C51.4137 51.0603 49.7795 51.4711 47.3957 52.1865Z" fill="white"/>
  </g>

  <!-- Beer/Glass Icon from Vector (53).svg -->
  <g transform="translate(71,0)">
    <path fill-rule="evenodd" clip-rule="evenodd" d="M24.1559 0.17456C20.9744 0.911583 18.1011 2.64507 16.2305 4.95614L15.3778 6.00961L13.878 6.10778C7.75392 6.50838 2.80405 10.5459 1.14024 16.4974C0.802594 17.7052 0.799235 17.819 0.795111 28.3874C0.791752 36.8949 0.832068 39.1741 0.994249 39.6316C1.60143 41.3439 3.47766 42.6577 5.33144 42.6684C5.87647 42.6714 6.4693 42.6275 6.64905 42.5705L6.9757 42.467L6.97829 56.6919C6.9812 72.3525 6.96883 72.1234 7.91809 73.9303C8.54467 75.1228 10.0362 76.6168 11.1368 77.1545C12.937 78.0336 12.2215 78.0014 29.959 77.9994C40.6843 77.998 46.5353 77.9432 46.9864 77.8395C48.9417 77.39 51.0431 75.7514 51.9998 73.9303C52.7309 72.5387 52.9366 71.3209 52.9396 68.3634L52.9422 65.8101L57.2563 65.8065C59.6747 65.8043 61.8724 65.7333 62.2577 65.6447C64.9928 65.0159 67.3965 62.5454 67.9891 59.7539C68.3135 58.2254 68.3135 32.085 67.9891 30.5565C67.3931 27.7494 65.0068 25.2981 62.2534 24.6647C61.8732 24.5772 59.659 24.5061 57.2563 24.5039L52.9422 24.5003V22.1756V19.851L53.459 19.4394C53.7432 19.2131 54.2526 18.614 54.591 18.1081C56.6796 14.9864 56.2944 11.027 53.6488 8.4222C52.5867 7.3765 51.5689 6.78093 50.2644 6.44177C49.2189 6.16998 47.3613 6.15519 46.3756 6.41082L45.6884 6.58917L44.6194 5.52213C44.0314 4.93525 43.2016 4.26866 42.7754 4.04092C41.1613 3.17829 38.9499 2.92296 37.149 3.39124L36.2573 3.62294L35.252 2.84827C34.0562 1.9268 31.9013 0.835518 30.4171 0.400011C29.015 -0.0115629 25.5052 -0.137931 24.1559 0.17456ZM25.2814 3.17021C22.4102 3.59123 19.6405 5.34043 18.0402 7.74326C17.0468 9.23483 17.0014 9.25678 14.9071 9.25678C12.742 9.25678 11.2979 9.58924 9.57441 10.4842C7.24646 11.6931 5.38382 13.8527 4.46892 16.4032L3.9978 17.7169L3.95351 28.0063C3.92923 33.6654 3.94832 38.452 3.99582 38.6433C4.09661 39.0482 4.9098 39.5899 5.41803 39.5907C5.8864 39.5915 6.60125 39.2108 6.76633 38.8729C6.83948 38.723 6.9337 35.6009 6.9757 31.9348L7.05205 25.269L7.44926 24.8727C7.77072 24.5519 8.07401 24.4481 9.0393 24.3285C11.8301 23.9828 13.805 22.7206 15.0779 20.4694C15.5775 19.5855 16.3833 18.7812 17.0053 18.5451C17.5711 18.3303 18.7485 18.3742 19.527 18.639C19.9086 18.7687 20.591 19.1913 21.0431 19.5777C21.4953 19.9643 22.3119 20.4926 22.8578 20.7517C23.7512 21.1758 23.9957 21.2229 25.3012 21.2229C26.6132 21.2229 26.8496 21.1767 27.7721 20.7405C28.333 20.4752 29.0948 19.9797 29.4648 19.6393C30.4689 18.7154 31.2636 18.4102 32.676 18.4062C37.0146 18.394 39.8491 20.4037 40.4106 23.8905C40.4984 24.4355 40.5707 26.6187 40.5713 28.7421L40.5725 32.6028L41.0189 33.0484C41.6349 33.6633 42.4116 33.6633 43.0276 33.0484L43.474 32.6028V25.8176C43.474 21.9583 43.5359 18.8702 43.6174 18.6561C44.0093 17.6271 44.9831 17.3797 46.318 17.9701C46.8415 18.2015 47.3804 18.3015 48.1318 18.3067C50.6512 18.3238 52.5786 16.5831 52.7542 14.1321C52.8483 12.8189 52.5207 11.8009 51.7068 10.8781C50.3075 9.29123 48.1825 8.89048 46.1676 9.83344C45.5911 10.1031 44.9648 10.3238 44.7756 10.3238C44.2452 10.3238 43.6593 9.76988 43.1733 8.80893C42.0336 6.55518 39.4507 5.65429 37.1562 6.71005C35.8063 7.33138 35.5672 7.28214 34.2781 6.11891C31.571 3.67584 28.561 2.68928 25.2814 3.17021ZM46.6509 27.2441C46.6066 32.8653 46.5909 33.1426 46.2783 33.8174C45.8478 34.7468 45.0112 35.6535 44.2472 36.0189L43.6303 36.314L43.6284 48.7804C43.6266 62.1716 43.6338 62.045 42.8577 62.4596C42.6723 62.5585 42.2969 62.6395 42.0233 62.6395C41.7496 62.6395 41.3742 62.5585 41.1888 62.4596C40.4124 62.0448 40.4198 62.1741 40.4198 48.7589V36.2708L40.0635 36.1815C39.447 36.0271 38.32 34.8977 37.8704 33.9838L37.4419 33.1128L37.3655 28.4636C37.2997 24.4553 37.2531 23.7485 37.0274 23.337C36.4387 22.2636 35.3146 21.7284 33.2102 21.5193L32.1854 21.4174L31.3809 22.1198C29.6859 23.6 27.658 24.3597 25.3768 24.3696C23.0534 24.3797 21.2197 23.7271 19.3402 22.2215C18.8117 21.7981 18.3331 21.4516 18.2769 21.4516C18.2205 21.4516 17.8209 21.9936 17.3884 22.6563C15.8436 25.0239 13.5106 26.5818 10.3736 27.3407C10.2221 27.3775 10.1827 31.6604 10.1827 48.1229V68.8588H21.8769H33.5712L34.0176 69.3044C34.6462 69.9318 34.6462 70.8345 34.0176 71.4619L33.5712 71.9075H22.0297C15.6818 71.9075 10.4881 71.9445 10.4881 71.9898C10.4881 72.0351 10.6214 72.3331 10.7845 72.6522C11.1525 73.3723 12.0111 74.1375 12.9237 74.559C13.6143 74.878 13.7187 74.8803 29.4981 74.9216C40.5329 74.9504 45.6225 74.9123 46.1804 74.7968C47.234 74.5785 48.3173 73.8396 48.9335 72.9192C49.2066 72.5115 49.4298 72.1171 49.4298 72.0427C49.4298 71.9683 48.3249 71.9075 46.9747 71.9075H44.5195L44.0731 71.4619C43.4446 70.8345 43.4446 69.9318 44.0731 69.3044L44.5195 68.8588H47.1274H49.7352V45.1171V21.3754H48.2162H46.6972L46.6509 27.2441ZM52.9422 29.0626V30.5977H56.9867H61.0311L61.5299 31.0425L62.0286 31.4873V45.1552V58.8231L61.5299 59.2679L61.0311 59.7127H56.9867H52.9422V61.2477V62.7826L57.2563 62.734C61.2626 62.6887 61.6201 62.6623 62.2655 62.3642C63.2404 61.914 64.0405 61.1673 64.52 60.26L64.9302 59.4841L64.9714 45.3335L65.0126 31.183L64.6061 30.2788C64.1461 29.2555 63.3248 28.4349 62.2763 27.9509C61.6175 27.6468 61.2835 27.622 57.2563 27.5764L52.9422 27.5278V29.0626ZM16.9784 30.5893C16.8104 30.658 16.5355 30.8666 16.3675 31.053C16.0671 31.3861 16.0613 31.6391 16.0166 46.2001C15.9848 56.5537 16.0212 61.1805 16.1375 61.5807C16.229 61.8954 16.4712 62.2623 16.6757 62.3962C17.1143 62.6829 17.9487 62.7132 18.4237 62.4596C19.2078 62.0405 19.1927 62.3547 19.1921 46.4939C19.1916 32.0177 19.1858 31.7316 18.8867 31.2417C18.4597 30.5426 17.7154 30.2882 16.9784 30.5893ZM29.1954 30.5893C29.0274 30.658 28.7525 30.8666 28.5845 31.053C28.2842 31.3861 28.2784 31.6391 28.2336 46.2001C28.2018 56.5537 28.2382 61.1805 28.3546 61.5807C28.446 61.8954 28.6882 62.2623 28.8927 62.3962C29.3313 62.6829 30.1657 62.7132 30.6407 62.4596C31.4248 62.0405 31.4097 62.3547 31.4091 46.4939C31.4087 32.0177 31.4029 31.7316 31.1037 31.2417C30.6767 30.5426 29.9324 30.2882 29.1954 30.5893ZM52.9422 45.1552V56.664H55.9201H58.898V45.1552V33.6464H55.9201H52.9422V45.1552ZM38.3582 68.8834C37.8377 69.169 37.5251 69.674 37.5216 70.2348C37.5173 70.9113 37.8692 71.4211 38.5309 71.697C38.9733 71.8814 39.1174 71.8814 39.5598 71.697C40.4776 71.3142 40.808 70.456 40.39 69.5405C40.0691 68.8373 39.0452 68.5062 38.3582 68.8834Z" fill="white"/>
  </g>
</svg>
