<svg xmlns="http://www.w3.org/2000/svg" width="112" height="145" fill="none" viewBox="0 0 112 145"><g filter="url(#a)"><path fill="#e1017d" fill-rule="evenodd" d="M85.687.431c-1.617.556-2.563 1.176-3.758 2.458-3.366 3.612-3.303 8.95.148 12.403 1.18 1.181 1.284 1.56.286 1.044-.823-.426-2.81-.661-4.148-.492-2.408.306-4.874 2.165-5.984 4.512-.33.696-.6 1.438-.6 1.65q.002 1.2-1.225 1.198c-2.552 0-11.739 2.083-17.223 3.904-5.275 1.753-13.75 5.308-14.706 6.169-.535.483-.461 1.252.16 1.66.514.336.616.306 3.532-1.042 9.168-4.237 18.808-7.192 26.988-8.271 1.288-.17 2.364-.31 2.392-.31.027 0 .162.357.3.792.495 1.556 2.014 3.52 3.267 4.222.3.168-.252 1.29-3.967 8.07l-4.316 7.875-2.081 1.165c-7.146 3.999-17.178 7.919-25.547 9.982l-3.437.848-1.34-.874c-1.517-.99-4.353-2.062-7.915-2.995-3.818-.999-6.727-.845-9.35.494l-.824.421.146-.81c.644-3.549 4.541-7.796 11.925-12.995 1.697-1.195 2.01-1.772 1.355-2.496-.201-.223-.53-.405-.73-.405s-1.371.707-2.604 1.571c-7.986 5.595-12.294 10.973-12.124 15.135l.05 1.235-1.656 1.528c-4.14 3.815-7.612 8.96-8.448 12.515-.623 2.65-.073 5.726 1.389 7.763 2.427 3.383 7.382 3.886 10.514 1.066 1.25-1.124 2.221-2.623 4.095-6.317 1.925-3.794 3.127-5.095 5.473-5.923.84-.297.873-.288 2.98.732 1.172.567 3.27 1.43 4.66 1.92 4.671 1.639 5.832 2.351 11.96 7.337 10.05 8.179 13.822 10.185 18.655 9.922 1.02-.055 1.99-.138 2.155-.184.22-.061 1.782 3.466 5.847 13.21 3.051 7.311 5.549 13.361 5.55 13.444.002.082-1.112.719-2.474 1.415-8.973 4.584-14.836 10.18-15.182 14.489-.144 1.8.199 2.641 1.752 4.288 2.331 2.473 4.639 3.255 9.582 3.246 6.458-.012 13.623-1.939 20.978-5.642 7.551-3.802 13.114-8.491 15.159-12.777.621-1.301.654-1.502.654-3.938 0-2.518-.012-2.584-.641-3.482-1.409-2.012-4.033-2.919-8.44-2.919-4.258 0-8.833.852-14.11 2.628-1.16.39-2.167.647-2.238.57-.167-.18-10.94-26.124-10.94-26.347 0-.093.448-.406.996-.696 1.384-.732 3.501-2.77 4.356-4.19 1.964-3.267 2.533-6.458 2.88-16.166.12-3.369.314-6.742.43-7.497s.781-3.128 1.481-5.275c3.077-9.442 3.963-13.349 4.212-18.569.103-2.147.136-4.064.074-4.26s.146-.86.462-1.477c.456-.89.593-1.491.663-2.914.103-2.104-.348-3.601-1.569-5.202-.917-1.202-.733-1.521.652-1.133.586.164 1.68.233 2.832.178 1.568-.075 2.097-.2 3.22-.753 4.472-2.206 6.38-7.478 4.329-11.962-1.82-3.976-6.86-6.158-10.962-4.746m.28 2.251c-1.438.507-3.45 2.613-3.88 4.063-1.177 3.966.89 7.791 4.742 8.779 3.12.8 6.181-.612 7.727-3.563.496-.946.578-1.352.58-2.894s-.08-1.963-.588-3c-1.493-3.04-5.297-4.542-8.58-3.385M21.152 17.417c-.182.182-.332.443-.333.58-.004.6 2.63 9.359 2.914 9.692.574.671 1.937.261 1.937-.583 0-.533-2.566-9.066-2.87-9.546-.354-.556-1.165-.626-1.648-.143m56.474.896c-4.031 1.395-5.202 6.338-2.209 9.333 2.75 2.753 7.177 2.016 8.97-1.494 1.183-2.316.818-4.584-1.036-6.44-1.688-1.688-3.564-2.147-5.725-1.4m-61.938 7.599c-.661.73-.405 1.162 2.253 3.792 2.629 2.601 3.245 2.969 3.892 2.32.676-.676.3-1.303-2.349-3.924-2.668-2.64-3.14-2.913-3.796-2.188m67.425 4.679c-.943.599-3.086 1.087-4.447 1.013l-1.191-.065-3.322 6.067c-1.828 3.337-3.28 6.066-3.228 6.066.238 0 3.453-2.295 5.324-3.8 3.194-2.572 5.759-5.4 6.796-7.495.475-.96.83-1.847.787-1.97-.047-.136-.328-.064-.719.183m-70.54 3.979c-2.997.35-4.896.664-5.112.846-.437.367-.443 1.164-.013 1.595.408.408-.181.434 6.187-.278 4.51-.505 5.403-.661 5.64-.985.64-.878.007-1.798-1.212-1.758-.396.013-2.867.274-5.49.58m68.336 4.011c-2.835 2.893-5.939 5.338-9.979 7.86l-2.494 1.557-2.472 4.537a6764 6764 0 0 1-6.027 11.043l-2.055 3.763.58.605c.625.654 3.089 1.94 4.37 2.28.781.209.806.197 1.522-.741.888-1.165 1.494-2.732 2.027-5.239.665-3.133.852-3.735 1.618-5.223 1.447-2.81 4.447-4.902 9.2-6.417 1.639-.523 1.91-.679 2.14-1.232.438-1.05 2.562-8.075 3.158-10.445.484-1.922 1.158-5.09 1.075-5.05a327 327 0 0 0-2.663 2.703M61.616 51.567c-6.307 3.125-13.974 6.005-20.442 7.68-3.073.796-3.14.826-2.635 1.153.811.527 2.442.855 3.517.707.537-.074 2.17-.528 3.627-1.01 4.352-1.436 7.08-1.207 8.515.718.282.378.68 1.21.885 1.849.204.638.556 1.527.78 1.975.378.752.43.785.672.422.507-.758 8.18-14.876 8.107-14.916-.04-.022-1.402.618-3.026 1.422M6.534 71.137c-.657.658.115 2.84 1.459 4.118 1.152 1.097 2.293 1.44 4.78 1.44 1.912 0 2.214-.05 2.477-.409.391-.535.377-.853-.055-1.286-.288-.289-.586-.329-1.595-.214-1.916.217-3.48-.188-4.376-1.133-.406-.428-.88-1.2-1.054-1.716-.25-.74-.428-.952-.845-1-.29-.034-.646.056-.79.2m64.78 4.892c-1.587 1.678-3.195 2.75-5.19 3.458-1.275.453-2.04.57-4.239.647-2.904.1-3.196.217-3.077 1.23.093.792.845.978 3.32.823 4.555-.285 7.863-1.763 10.621-4.744 1.2-1.297 1.46-1.986.948-2.499-.519-.52-1.126-.243-2.382 1.085m-38.548 5.345c-.062.062-.832.194-1.712.293-3.168.355-5.47 2.219-7.546 6.107-2.65 4.965-3.048 7.41-1.455 8.937 1.124 1.078 4.921 1.16 6.357.136 1.16-.827 1.35-1.46 1.685-5.635.366-4.536 1.172-6.9 2.929-8.584.344-.33.577-.724.52-.876-.12-.312-.607-.548-.778-.378m7.662 16.644a34 34 0 0 1-1.083.192c-1.12.182-2.594 1.578-3.438 3.255-1.306 2.597-1.44 3.765-.534 4.672.326.326.703.417 1.74.417 2.142 0 2.524-.505 2.781-3.676.153-1.885.515-2.92 1.315-3.755.457-.478.503-.626.279-.897-.262-.316-.412-.345-1.06-.208m55.238 12.564c-2.442.315-6.434 1.232-9.205 2.113-1.489.474-2.768.924-2.842 1s.107.692.402 1.368c.46 1.049.603 1.21.98 1.102.241-.071 1.246-.184 2.232-.252 2.783-.194 4.34.424 4.99 1.982.262.628.26.861-.018 1.817-.57 1.962-2.644 3.876-5.88 5.424-5.538 2.649-11.185 2.084-11.178-1.12.003-1.629 1.527-3.776 3.62-5.098l.856-.54-.537-1.217c-.295-.67-.567-1.249-.605-1.288-.121-.125-4.648 2.268-6.568 3.472-5.341 3.35-8.75 6.704-9.664 9.511-.62 1.903.049 3.019 2.278 3.797.908.317 1.746.38 4.89.369 3.315-.012 4.14-.088 6.514-.597 3.507-.752 7.902-2.173 11.618-3.756 10.298-4.388 18.237-10.897 18.237-14.954 0-1.241-.485-1.891-1.851-2.479-1.918-.826-5.03-1.072-8.269-.654m-70.887.831c-1.727.291-2.82 1.335-4.088 3.905-1.017 2.058-1.086 3.281-.228 4.02 1.101.948 3.555.575 4.101-.624.133-.292.303-1.272.378-2.178.188-2.283.434-3.122 1.16-3.949.387-.442.576-.842.495-1.052-.14-.366-.303-.377-1.818-.122m45.32 11.196c-1.176 1.22-2.047 2.91-2.05 3.978-.005 1.598 1.752 2.965 4.317 3.358 1.501.23 2.155.032 2.341-.709.2-.8-.37-1.307-1.67-1.483-1.597-.217-2.67-.694-2.67-1.187 0-.587.54-1.551 1.408-2.513.838-.928.98-1.79.37-2.237-.631-.461-.963-.333-2.046.793" clip-rule="evenodd"/></g><defs><filter id="a" width="112" height="145" x="0" y="0" color-interpolation-filters="sRGB" filterUnits="userSpaceOnUse"><feFlood flood-opacity="0" result="BackgroundImageFix"/><feColorMatrix in="SourceAlpha" result="hardAlpha" values="0 0 0 0 0 0 0 0 0 0 0 0 0 0 0 0 0 0 127 0"/><feOffset dy="4"/><feGaussianBlur stdDeviation="2"/><feComposite in2="hardAlpha" operator="out"/><feColorMatrix values="0 0 0 0 0 0 0 0 0 0 0 0 0 0 0 0 0 0 0.86 0"/><feBlend in2="BackgroundImageFix" result="effect1_dropShadow_340_60200"/><feBlend in="SourceGraphic" in2="effect1_dropShadow_340_60200" result="shape"/></filter></defs></svg>