<svg xmlns="http://www.w3.org/2000/svg" width="45" height="63" fill="none" viewBox="0 0 45 63"><path fill="#00aacb" d="M35.804 1.381 43 18.138c3.15 7.328.022 15.859-7.131 19.403L25.04 42.966a2.21 2.21 0 0 0-1.225 1.968v13.891h7.766c.897 0 1.619.722 1.597 1.619s-.788 1.575-1.663 1.575H12.748A1.583 1.583 0 0 1 11.15 60.4c.022-.897.787-1.575 1.662-1.575h7.635V44.912c0-.83-.482-1.596-1.225-1.968L8.46 37.562a15.07 15.07 0 0 1-7.11-19.424L8.549 1.38A1.62 1.62 0 0 1 10.057.375h24.237c.657 0 1.247.394 1.51 1.006M6.579 17.875a2.39 2.39 0 0 0-2.188 1.444A11.79 11.79 0 0 0 9.948 34.5l9.756 4.878a5.56 5.56 0 0 0 4.922 0l9.778-4.878c5.578-2.8 8.028-9.45 5.556-15.181-.372-.897-1.225-1.444-2.187-1.444h-1.287l1.438 3.347c.48 1.115-.044 2.406-1.138 2.865a2 2 0 0 1-.853.197 2.18 2.18 0 0 1-2.013-1.334l-2.176-5.075zm29.907 0L30.73 4.465a2.184 2.184 0 0 0-2.866-1.137c-1.093.46-1.619 1.75-1.137 2.866l5.018 11.681z"/></svg>