<svg xmlns="http://www.w3.org/2000/svg" width="80" height="80" fill="none" viewBox="0 0 80 80"><path fill="#fff" fill-rule="evenodd" d="M36.953 1.168c-11.17 1.256-20.555 8.826-24.058 19.408-1.512 4.565-1.861 9.066-1.07 13.75.288 1.695.895 4.028 1.304 5.008.276.66.274.666-.175.666-1.005 0-2.105.916-2.292 1.909-.234 1.252.029 1.67 2.331 3.689 1.427 1.252 2.772 3.062 3.693 4.968.65 1.345 1.31 3.145 1.155 3.145-.03 0-.42-.25-.868-.555-3.02-2.058-7.404-3.046-11.762-2.652-2.805.253-3.367.473-3.905 1.527-.358.703-.39 1.343-.098 2.028.273.639.663.963 2.23 1.854 3.594 2.046 6.61 5.218 8.438 8.877.302.605.55 1.134.55 1.175 0 .04-2.211.094-4.914.118-4.91.044-4.913.044-5.426.41-1.014.723-1.08 1.086-1.083 5.984-.002 2.726.058 4.532.159 4.8.22.583.878 1.26 1.47 1.513.412.176 6.391.21 37.353.21 25.674 0 36.992-.05 37.29-.162.594-.224 1.239-.867 1.585-1.58.267-.55.292-.977.292-5.015 0-2.428-.045-4.37-.1-4.314-.056.055-.22-.163-.364-.485a2.8 2.8 0 0 0-.775-.951c-.513-.366-.516-.366-5.426-.41-2.702-.024-4.913-.078-4.913-.118s.247-.57.55-1.175c1.827-3.66 4.843-6.831 8.438-8.877.712-.405 1.456-.877 1.652-1.05.501-.442.94-1.416.926-2.057-.007-.298-.049-.45-.094-.337-.05.124-.19-.036-.356-.407-.48-1.073-1.093-1.313-3.971-1.557-4.397-.374-8.678.597-11.693 2.65-.448.306-.839.556-.868.556-.156 0 .505-1.8 1.155-3.145.92-1.903 2.264-3.713 3.69-4.968 1.978-1.74 2.216-2.005 2.327-2.597.289-1.538-.825-3.001-2.284-3.001-.45 0-.452-.006-.175-.666.41-.982 1.016-3.315 1.301-5.008.79-4.685.44-9.198-1.067-13.75C63.578 9.924 54.115 2.34 42.872 1.156c-1.666-.176-4.297-.17-5.92.012m.152 2.593c-7.36.845-13.977 4.764-18.36 10.874-1.167 1.625-2.77 4.786-3.4 6.703a26.16 26.16 0 0 0-.696 13.928c.365 1.638 1.43 4.792 1.713 5.075.068.068.735.288 1.483.488 5.906 1.58 10.654 5.122 13.88 10.354l.654 1.06.182-.522c.375-1.076 2.103-4.384 3.02-5.78 1.06-1.615 3.69-4.344 4.594-4.767.682-.319 1.675-.335 2.252-.037.613.317 1.205 1.074 1.288 1.648.414 2.856.622 3.865 1.073 5.215.56 1.672 1.106 2.833 1.964 4.176l.527.827.418-.827c1.272-2.523 3.848-5.507 6.421-7.439 2.476-1.858 5.044-3.108 8.036-3.908.748-.2 1.415-.42 1.484-.488.283-.283 1.347-3.437 1.712-5.075 2.004-8.997-.875-18.352-7.57-24.593C52.156 5.43 44.591 2.9 37.105 3.76m5.162 4.215c-3.602 1.882-2.29 7.35 1.761 7.343 2.245-.004 3.882-1.647 3.89-3.903.002-.513-.1-1.18-.225-1.48-.866-2.072-3.434-3-5.426-1.96m-9.656.936c-1.196.291-2.362 1.325-2.738 2.427-.897 2.632.907 5.194 3.66 5.199 1.743.002 3.186-1.07 3.672-2.729.448-1.53.012-3.005-1.192-4.036-.962-.823-2.235-1.145-3.402-.861m10.576 1.674c-.496.496-.553.885-.222 1.524.382.74 1.376.863 1.993.246.524-.524.497-1.202-.072-1.77-.578-.578-1.121-.578-1.699 0m-10.494 1.2c-1.073 1.075-.002 2.62 1.435 2.069.295-.114.692-.837.692-1.26 0-.452-.618-1.07-1.175-1.178-.409-.078-.565-.017-.952.37m-9.527 3.721c-1.353.482-2.414 1.785-2.608 3.202-.326 2.377 1.968 4.656 4.336 4.306.927-.136 2.059-.759 2.548-1.4 1.27-1.666.99-4.24-.596-5.449-1.009-.769-2.581-1.05-3.68-.659m.588 2.581c-.358.174-.665.732-.665 1.212 0 .408.804 1.2 1.218 1.2 1.193 0 1.82-1.393.998-2.216-.396-.397-.983-.47-1.55-.196m15.178-.045c-1.148.377-2.072 1.208-2.526 2.272-.3.706-.31 2.253-.017 2.954.31.742 1.11 1.608 1.844 1.997.48.254.888.33 1.767.33 1.335 0 2.093-.322 2.89-1.23.692-.788.956-1.502.95-2.571-.007-1.501-.786-2.802-2.07-3.457-.67-.342-2.206-.502-2.838-.295m.223 2.805c-.861.74-.295 2.242.845 2.242.242 0 .622-.157.844-.348.861-.74.296-2.242-.844-2.242-.242 0-.623.157-.845.348M29.51 24.67c-.832.3-1.705 1.144-2.117 2.043-.32.7-.369.99-.308 1.842.081 1.133.342 1.742 1.046 2.447 1.573 1.572 3.916 1.58 5.479.017 1.987-1.987 1.336-5.237-1.268-6.325-.657-.274-2.106-.287-2.832-.024m-9.873 1.149c-1.994.504-3.368 2.62-2.94 4.528.223.994.501 1.462 1.276 2.144 1.504 1.324 3.604 1.3 5.116-.06 1.54-1.384 1.693-3.6.368-5.336-.733-.962-2.6-1.585-3.82-1.276m10.378 1.606c-1.153 1.153.568 2.913 1.779 1.817.397-.36.494-1.03.224-1.552-.392-.759-1.379-.89-2.003-.265m-10.092 1.004c-.47.189-.837 1.077-.65 1.57.078.205.299.482.49.616A1.25 1.25 0 0 0 21.65 29.1c-.3-.718-.965-.976-1.727-.67m44.673 14.464a20.6 20.6 0 0 0-10.757 5.45c-1.894 1.824-3.156 3.553-4.345 5.95-.576 1.163-1.156 2.128-1.359 2.26-.572.376-1.186.135-1.94-.76-2.523-2.996-4.172-6.796-4.933-11.375l-.14-.838-1.305 1.302c-.719.717-1.697 1.9-2.173 2.632-1.088 1.669-2.611 4.846-3.373 7.035-.637 1.83-1.021 2.361-1.711 2.361-.667 0-1.054-.408-1.62-1.71-2.333-5.366-7.045-9.693-12.572-11.546-1.247-.418-3.426-.904-4.072-.909-.488-.003-.483.005.77 1.208 3.043 2.922 5.09 6.968 5.89 11.65.416 2.435.404 3.051-.068 3.523-.694.695-1.473.466-2.24-.657q-3.186-4.665-9.583-5.369c-1.4-.154-4.423-.084-4.757.11-.067.038.506.458 1.272.933 4.202 2.602 7.71 6.796 9.358 11.184l.272.724h49.58l.272-.724c1.682-4.479 5.025-8.457 9.433-11.224.723-.454 1.26-.857 1.196-.895-.333-.192-3.36-.261-4.755-.108q-6.398.704-9.584 5.37c-.767 1.122-1.546 1.35-2.24.656-.476-.476-.489-1.218-.062-3.598.843-4.707 2.863-8.674 5.9-11.59.701-.673 1.253-1.243 1.226-1.265-.027-.023-.739.076-1.581.22M1.04 53.102c0 .377.03.53.066.342a2.2 2.2 0 0 0 0-.685c-.036-.189-.066-.035-.066.343m.026 19.423c0 2.514.021 3.564.047 2.333s.025-3.287 0-4.57-.047-.276-.047 2.237m2.522 0v3.885h72.82v-7.769H3.59z" clip-rule="evenodd"/></svg>