<svg xmlns="http://www.w3.org/2000/svg" width="100" height="115" fill="none" viewBox="0 0 100 115"><path fill="#00aacb" d="M49.816.764c19.107 0 34.596 15.488 34.596 34.594s-15.49 34.596-34.596 34.596-34.594-15.49-34.594-34.596S30.71.764 49.816.764m.001 18.45c-8.916 0-16.144 7.228-16.144 16.144 0 8.917 7.228 16.145 16.144 16.145 8.917 0 16.145-7.228 16.145-16.145s-7.229-16.144-16.145-16.144"/><circle cx="49.817" cy="35.359" r="9.225" fill="#00aacb"/><path fill="#00aacb" d="M22.14 69.954c12.229 0 22.142 9.913 22.142 22.14 0 12.229-9.913 22.142-22.141 22.142S0 104.323 0 92.095s9.913-22.14 22.14-22.14m0 11.809c-5.706 0-10.331 4.625-10.331 10.332 0 5.706 4.625 10.333 10.332 10.333 5.706 0 10.332-4.627 10.332-10.333S27.847 81.763 22.14 81.763"/><circle cx="22.141" cy="92.096" r="5.904" fill="#00aacb"/><path fill="#00aacb" d="M77.492 69.954c12.228 0 22.142 9.913 22.142 22.14 0 12.229-9.914 22.142-22.142 22.142s-22.14-9.913-22.14-22.141 9.912-22.14 22.14-22.14m0 11.809c-5.706 0-10.332 4.625-10.332 10.332 0 5.706 4.626 10.333 10.332 10.333s10.332-4.627 10.332-10.333-4.626-10.332-10.332-10.332"/><circle cx="77.493" cy="92.096" r="5.904" fill="#00aacb"/></svg>