<svg xmlns="http://www.w3.org/2000/svg" width="174" height="130" fill="none" viewBox="0 0 174 130"><g filter="url(#a)"><path fill="#e1017d" fill-rule="evenodd" d="M68.33.659c-7.628 2.195-13.063 8.638-15.323 18.166-.7 2.95-.764 4.109-.593 10.883.2 7.988.494 9.949 2.58 17.202 3.204 11.142 10.619 24.131 18.586 32.56 1.433 1.516 2.538 2.818 2.456 2.893-.347.32-11.147.822-11.715.545-.385-.188-1.241-2.274-2.247-5.47-1.535-4.885-2.193-6.026-3.003-5.212-.33.332-1.38 8.72-3.599 28.749-.531 4.795-1.059 8.975-1.173 9.287-.402 1.105-.84-1.795-3.49-23.124-5.742-46.195-5.147-42.153-6.185-42.004-.735.105-.838.427-1.076 3.339-.24 2.957-1.169 21.097-1.769 34.567-.136 3.062-.356 5.676-.489 5.81s-.958-.817-1.833-2.112l-1.591-2.354-6.839.261c-3.761.144-9.555.42-12.876.616-3.32.195-7.535.356-9.365.358C5.581 85.622 4 86.003 4 86.773c0 .506 8.197.438 21.063-.177 5.877-.28 11.01-.425 11.406-.321.4.105 1.461 1.478 2.385 3.085.916 1.593 2.028 3.226 2.473 3.629 1.64 1.485 1.815.625 2.463-12.105.329-6.463.706-13.841.839-16.395.132-2.555.361-4.644.509-4.644s.38.81.515 1.8c.258 1.884 4.854 38.364 6.483 51.46.518 4.17 1.034 7.88 1.146 8.245.23.753 1.104.883 1.509.225.148-.241 1-6.937 1.894-14.879C58.439 91.1 59.37 82.954 59.692 80.41c.111-.886.356-1.611.542-1.611s.69 1.138 1.117 2.53c.428 1.39.979 2.772 1.224 3.07.456.55 2.84.525 13.96-.15l3.669-.223-1.462-1.76c-5.79-6.976-13.459-20.384-16.78-29.337-1.693-4.566-3.039-10.068-3.643-14.894-.631-5.033-.274-12.797.755-16.407C62.804 8.548 72.983 2.16 82.77 6.76c3.475 1.634 7.997 6.281 10.176 10.457 2.258 4.327 4.177 10.392 4.874 15.406.597 4.297.552 5.908-.313 11.215-.427 2.617-.409 2.798.35 3.559.438.441 1.041.708 1.339.593.297-.114 1.243-1.63 2.101-3.37 3.542-7.177 13.139-15.206 22.515-18.837 8.607-3.332 19.94-4.396 26.792-2.515 11.051 3.034 14.842 9.784 10.412 18.537-3.482 6.877-9.351 13.038-17.661 18.54-7.352 4.867-11.831 7.12-30.971 15.578-18.355 8.112-25.71 13.151-30.608 20.97-2.349 3.751-4.036 10.397-3.09 12.173.24.449.563.817.72.817.155 0 .887-.81 1.626-1.8 4.118-5.522 10.608-11.229 17.203-15.128 4.603-2.721 7.727-4.134 17.463-7.896 22.823-8.819 35.498-16.014 44.175-25.076 5.084-5.31 8.076-10.25 9.431-15.572.934-3.67.93-6.799-.015-10.511-.966-3.793-2.606-6.656-5.456-9.526-5.606-5.645-13.902-8.554-22.831-8.008-12.792.783-24.53 6.284-35.76 16.759-3.948 3.682-3.675 3.772-4.036-1.332-.252-3.584-1.677-9.262-3.368-13.43C94.348 9.767 86.774 2.553 79.094.511 76.318-.226 71.16-.156 68.33.66" clip-rule="evenodd"/></g><defs><filter id="a" width="174" height="130" x="0" y="0" color-interpolation-filters="sRGB" filterUnits="userSpaceOnUse"><feFlood flood-opacity="0" result="BackgroundImageFix"/><feColorMatrix in="SourceAlpha" result="hardAlpha" values="0 0 0 0 0 0 0 0 0 0 0 0 0 0 0 0 0 0 127 0"/><feOffset dy="4"/><feGaussianBlur stdDeviation="2"/><feComposite in2="hardAlpha" operator="out"/><feColorMatrix values="0 0 0 0 0 0 0 0 0 0 0 0 0 0 0 0 0 0 0.86 0"/><feBlend in2="BackgroundImageFix" result="effect1_dropShadow_340_59965"/><feBlend in="SourceGraphic" in2="effect1_dropShadow_340_59965" result="shape"/></filter></defs></svg>