<svg xmlns="http://www.w3.org/2000/svg" width="16" height="17" fill="none" viewBox="0 0 16 17"><path fill="#fff" d="M8.003 4.906a3.585 3.585 0 0 0-3.59 3.591 3.585 3.585 0 0 0 3.59 3.59 3.585 3.585 0 0 0 3.59-3.59 3.585 3.585 0 0 0-3.59-3.59m0 5.925a2.34 2.34 0 0 1-2.334-2.334 2.337 2.337 0 0 1 2.334-2.334 2.337 2.337 0 0 1 2.334 2.334 2.34 2.34 0 0 1-2.334 2.334m4.575-6.072a.836.836 0 0 1-.837.838.838.838 0 1 1 .837-.837m2.378.85c-.053-1.121-.31-2.115-1.131-2.934-.819-.819-1.813-1.075-2.934-1.131-1.157-.066-4.622-.066-5.779 0-1.118.053-2.112.31-2.934 1.128-.822.819-1.075 1.812-1.131 2.934-.066 1.157-.066 4.622 0 5.778.053 1.122.31 2.116 1.131 2.935.822.819 1.813 1.075 2.934 1.131 1.157.066 4.622.066 5.778 0 1.122-.053 2.116-.31 2.935-1.131.819-.819 1.075-1.813 1.131-2.935.066-1.156.066-4.618 0-5.775m-1.494 7.016a2.36 2.36 0 0 1-1.33 1.331c-.923.366-3.11.282-4.129.282s-3.21.08-4.128-.282a2.36 2.36 0 0 1-1.331-1.33c-.366-.923-.282-3.11-.282-4.129s-.08-3.21.282-4.128a2.36 2.36 0 0 1 1.33-1.331c.923-.366 3.11-.282 4.129-.282s3.21-.08 4.128.282a2.36 2.36 0 0 1 1.331 1.33c.366.923.282 3.11.282 4.129s.084 3.21-.282 4.128"/></svg>