<svg xmlns="http://www.w3.org/2000/svg" width="89" height="124" fill="none" viewBox="0 0 89 124"><g filter="url(#a)"><path fill="#00aacb" fill-rule="evenodd" d="M41.213.798c-5.663 1.036-10.68 4.829-13.204 9.982-1.372 2.8-1.896 5.018-1.91 8.071-.026 6.369 2.835 11.82 8.05 15.334 2.947 1.986 5.592 2.878 9.169 3.095 12.917.78 22.4-11.86 18.284-24.37-1.844-5.602-6.828-10.276-12.545-11.766C47.399.712 42.792.51 41.213.798m14.402 16.657c-.49.425-.62.785-.782 2.185-.234 2.013-.419 2.674-1.164 4.155-1.622 3.225-5.443 5.642-8.995 5.692-1.305.018-2.16.778-2.16 1.918 0 1.8 1.848 2.352 5.207 1.557 2.582-.612 4.571-1.773 6.68-3.903 2.621-2.646 3.936-5.38 4.335-9.015.28-2.534-1.49-4.002-3.12-2.59M40.822 59.293c0 14.638.06 18.641.279 18.781.464.298 5.105.363 6.124.087l.941-.255V40.688l-.834.166c-1.077.214-4.598.214-5.675 0l-.834-.166zM16.01 52.457c-3.154.79-5.573 3.25-6.334 6.439-.128.539-1.186 8.864-2.349 18.499-2.35 19.456-2.311 18.592-.94 21.213.819 1.565 2.026 2.706 3.699 3.496l1.25.591h65.873l1.273-.601c2.58-1.218 4.47-3.758 4.763-6.399.144-1.307-4.006-35.798-4.483-37.251-.797-2.43-2.915-4.753-5.17-5.67-1.273-.518-1.323-.52-11.516-.52H51.838l-.11 13.697c-.096 11.72-.16 13.758-.446 14.12-1.232 1.563-3.15 2.165-6.899 2.165s-5.667-.602-6.899-2.165c-.285-.362-.35-2.4-.445-14.12l-.111-13.697-9.903-.038c-7.265-.028-10.2.036-11.016.24m52.196 28.85c-2.368.467-4.83 2.322-5.897 4.442-2.215 4.403-.41 9.621 4.062 11.748 1.322.629 1.706.708 3.383.695 2.488-.018 4.019-.61 5.748-2.223 5.212-4.861 2.724-13.356-4.296-14.663-1.47-.274-1.61-.274-3 0m-.343 3.978c-1.764.847-2.782 2.503-2.782 4.523 0 2.588 2.131 4.71 4.72 4.7 4.857-.021 6.657-6.189 2.596-8.896-1.212-.807-3.23-.953-4.534-.327M4.185 103.394c-.097.602-.18 2.053-.184 3.224-.008 1.863.067 2.294.6 3.438.828 1.782 1.817 2.983 3.179 3.861 2.402 1.548-.046 1.456 37.17 1.391l33.593-.059 1.492-.711c3.686-1.76 5.434-5.358 4.857-9.997a109 109 0 0 1-.228-1.909c0-.04-.566.39-1.256.957-1.636 1.342-2.77 1.993-4.468 2.564-1.376.462-1.578.465-34.415.465-32.202 0-33.067-.011-34.446-.44-1.709-.532-3.284-1.495-4.678-2.861l-1.04-1.018z" clip-rule="evenodd"/></g><defs><filter id="a" width="89" height="122.674" x="0" y=".663" color-interpolation-filters="sRGB" filterUnits="userSpaceOnUse"><feFlood flood-opacity="0" result="BackgroundImageFix"/><feColorMatrix in="SourceAlpha" result="hardAlpha" values="0 0 0 0 0 0 0 0 0 0 0 0 0 0 0 0 0 0 127 0"/><feOffset dy="4"/><feGaussianBlur stdDeviation="2"/><feComposite in2="hardAlpha" operator="out"/><feColorMatrix values="0 0 0 0 0 0 0 0 0 0 0 0 0 0 0 0 0 0 0.25 0"/><feBlend in2="BackgroundImageFix" result="effect1_dropShadow_186_25329"/><feBlend in="SourceGraphic" in2="effect1_dropShadow_186_25329" result="shape"/></filter></defs></svg>