<svg xmlns="http://www.w3.org/2000/svg" width="15" height="12" fill="none" viewBox="0 0 15 12"><path fill="#ababab" d="M14.707 4.47c.117-.087.293 0 .293.147v5.977c0 .79-.645 1.406-1.406 1.406H1.406A1.39 1.39 0 0 1 0 10.594V4.617c0-.146.146-.234.264-.146.674.527 1.523 1.172 4.511 3.34.616.439 1.67 1.406 2.725 1.406 1.025 0 2.11-.967 2.695-1.406 2.989-2.168 3.838-2.813 4.512-3.34M7.5 8.25c-.703.03-1.67-.85-2.168-1.201-3.896-2.813-4.19-3.076-5.068-3.78C.088 3.153 0 2.948 0 2.714v-.557C0 1.395.615.75 1.406.75h12.188C14.355.75 15 1.395 15 2.156v.557c0 .234-.117.44-.293.557-.879.703-1.172.966-5.068 3.779C9.14 7.4 8.174 8.279 7.5 8.25"/></svg>