<svg width="32" height="32" viewBox="0 0 32 32" fill="none" xmlns="http://www.w3.org/2000/svg">
<rect width="32" height="32" rx="16" fill="#292524"/>
<path fill-rule="evenodd" clip-rule="evenodd" d="M9.24219 9.17154C9.34667 9.08078 9.47571 9.02302 9.613 9.00558C9.75029 8.98814 9.88967 9.01179 10.0135 9.07354L22.6123 15.3733C22.7288 15.4314 22.8267 15.5207 22.8952 15.6314C22.9637 15.7421 23 15.8696 23 15.9998C23 16.1299 22.9637 16.2575 22.8952 16.3682C22.8267 16.4788 22.7288 16.5682 22.6123 16.6263L10.0135 22.926C9.88968 22.988 9.75023 23.0118 9.61284 22.9945C9.47544 22.9772 9.34627 22.9195 9.24166 22.8288C9.13706 22.738 9.06172 22.6183 9.02518 22.4847C8.98865 22.3511 8.99256 22.2097 9.03641 22.0783L10.8296 16.6998H14.6002C14.7858 16.6998 14.9638 16.626 15.0951 16.4947C15.2264 16.3635 15.3001 16.1854 15.3001 15.9998C15.3001 15.8141 15.2264 15.6361 15.0951 15.5048C14.9638 15.3736 14.7858 15.2998 14.6002 15.2998H10.8296L9.03571 9.92121C8.99208 9.7899 8.98834 9.64861 9.02497 9.51518C9.0616 9.38175 9.13764 9.26217 9.24219 9.17154Z" fill="white"/>
</svg>
