<svg xmlns="http://www.w3.org/2000/svg" width="141" height="143" fill="none" viewBox="0 0 141 143"><g filter="url(#a)"><path fill="#00aacb" fill-rule="evenodd" d="M108.994 1.394c-7.703 2.071-11.417 10.79-7.622 17.889.892 1.669 3.241 4.062 4.746 4.837.637.328 1.801.8 2.587 1.049 1.573.499 1.553.513-1.429 1.081-8.347 1.59-15.666 8.024-18.474 16.24-.477 1.395-.943 3.183-1.035 3.974l-.168 1.438 1.524 1.003c2.335 1.536 6.823 6.171 8.549 8.827 2.69 4.141 4.462 8.938 5.05 13.67.205 1.656.278 6.099.221 13.51l-.085 11.043-.859 2.469c-1.045 2.998-2.731 5.776-4.774 7.864l-1.527 1.561.072 11.769c.07 11.422.089 11.789.609 12.486.294.394.858.958 1.252 1.253.7.523 1.044.537 14.358.607l13.641.072 1.048-.59c.62-.348 1.251-.984 1.542-1.555.471-.923.493-1.837.493-20.716v-19.75l1.482-.723c3.155-1.54 5.831-4.958 6.564-8.388.222-1.04.281-6.144.216-18.709-.102-19.762-.02-18.978-2.529-24.035-2.494-5.028-6.359-8.89-11.32-11.31-2.458-1.198-6.09-2.332-7.47-2.332-1.204 0-.95-.337.684-.908 3.73-1.303 6.704-4.42 7.812-8.186.534-1.815.54-4.881.015-6.867-1.714-6.468-8.578-10.347-15.173-8.573M67.591 26.332c-3.053.74-6.185 2.994-7.662 5.513-2.14 3.652-2.254 8.769-.282 12.635.705 1.381 2.922 3.688 4.347 4.523.637.374 2.042.94 3.122 1.26 1.84.545 1.895.583.892.596-1.516.02-5.641 1.111-7.664 2.028-7.024 3.185-12.567 10.074-14.108 17.532-.227 1.1-.413 2.096-.413 2.214s.876.841 1.947 1.607c5.274 3.772 9.688 9.785 11.788 16.06 1.368 4.084 1.662 6.58 1.533 12.996-.1 5.012-.18 5.843-.7 7.34-1.027 2.965-2.587 5.635-4.469 7.649l-1.784 1.911v5.575c0 5.364.022 5.609.59 6.459 1.224 1.833.863 1.791 15.78 1.791s14.556.042 15.78-1.791l.59-.883.001-13.668.001-13.668 1.735-.898c3.71-1.918 6.084-5.421 6.61-9.756.45-3.684.14-20.504-.42-22.994-2.102-9.327-9.4-16.756-18.634-18.97-1.185-.284-2.623-.527-3.194-.54l-1.04-.024 1.339-.325c6.277-1.523 10.535-7.796 9.493-13.987C81.557 29.3 74.6 24.633 67.592 26.332M25.355 51.535c-5.372 1.447-8.918 6.207-8.92 11.975a12.23 12.23 0 0 0 9.19 11.894l1.36.353-1.3.178C15.8 77.286 7.751 84.225 4.874 93.877c-.625 2.095-.71 2.872-.821 7.455-.113 4.648-.075 5.278.414 6.885.991 3.255 3.152 5.845 6.183 7.412l1.652.854v7.24c.002 6.892.028 7.287.552 8.219.303.539.996 1.23 1.541 1.537.984.552 1.102.556 14.632.485 13.314-.07 13.657-.084 14.358-.607a7.5 7.5 0 0 0 1.253-1.253c.507-.679.54-1.114.615-8.187l.079-7.47 1.377-.675c2.16-1.06 4.416-3.318 5.48-5.488.5-1.021 1.027-2.486 1.17-3.256.343-1.851.33-7.273-.023-9.82-1.5-10.803-9.856-19.308-20.765-21.134l-1.949-.326 1.402-.36c3.007-.77 6.147-3.227 7.62-5.963 3.828-7.114-.149-16.236-7.852-18.01-1.636-.377-4.81-.317-6.437.12" clip-rule="evenodd"/></g><defs><filter id="a" width="141" height="141.072" x="0" y=".964" color-interpolation-filters="sRGB" filterUnits="userSpaceOnUse"><feFlood flood-opacity="0" result="BackgroundImageFix"/><feColorMatrix in="SourceAlpha" result="hardAlpha" values="0 0 0 0 0 0 0 0 0 0 0 0 0 0 0 0 0 0 127 0"/><feOffset dy="4"/><feGaussianBlur stdDeviation="2"/><feComposite in2="hardAlpha" operator="out"/><feColorMatrix values="0 0 0 0 0 0 0 0 0 0 0 0 0 0 0 0 0 0 0.25 0"/><feBlend in2="BackgroundImageFix" result="effect1_dropShadow_186_25008"/><feBlend in="SourceGraphic" in2="effect1_dropShadow_186_25008" result="shape"/></filter></defs></svg>