<svg xmlns="http://www.w3.org/2000/svg" width="88" height="122" fill="none" viewBox="0 0 88 122"><g filter="url(#a)"><path fill="#00aacb" d="M44 0c5.65 0 11.175 1.672 15.873 4.803a28.5 28.5 0 0 1 10.524 12.79 28.43 28.43 0 0 1 1.625 16.467 28.5 28.5 0 0 1-7.819 14.593 28.6 28.6 0 0 1-14.629 7.8 28.64 28.64 0 0 1-16.508-1.622 28.56 28.56 0 0 1-12.822-10.497A28.45 28.45 0 0 1 15.429 28.5l.028-1.237a28.47 28.47 0 0 1 8.784-19.348A28.6 28.6 0 0 1 44 0m11.429 68.4a28.6 28.6 0 0 1 20.203 8.347A28.46 28.46 0 0 1 84 96.9v5.7c0 3.023-1.204 5.923-3.347 8.061A11.44 11.44 0 0 1 72.57 114H15.43a11.44 11.44 0 0 1-8.082-3.339A11.4 11.4 0 0 1 4 102.6v-5.7c0-7.559 3.01-14.808 8.368-20.153A28.6 28.6 0 0 1 32.571 68.4z"/></g><defs><filter id="a" width="88" height="122" x="0" y="0" color-interpolation-filters="sRGB" filterUnits="userSpaceOnUse"><feFlood flood-opacity="0" result="BackgroundImageFix"/><feColorMatrix in="SourceAlpha" result="hardAlpha" values="0 0 0 0 0 0 0 0 0 0 0 0 0 0 0 0 0 0 127 0"/><feOffset dy="4"/><feGaussianBlur stdDeviation="2"/><feComposite in2="hardAlpha" operator="out"/><feColorMatrix values="0 0 0 0 0 0 0 0 0 0 0 0 0 0 0 0 0 0 0.25 0"/><feBlend in2="BackgroundImageFix" result="effect1_dropShadow_186_25033"/><feBlend in="SourceGraphic" in2="effect1_dropShadow_186_25033" result="shape"/></filter></defs></svg>