<svg width="70" height="70" viewBox="0 0 70 70" fill="none" xmlns="http://www.w3.org/2000/svg">
<path d="M56.3289 7.29805C56.1231 7.06621 55.8705 6.88074 55.5876 6.75393C55.3048 6.62712 54.9982 6.56187 54.6883 6.5625H15.3133C15.0028 6.5624 14.696 6.62836 14.413 6.756C14.13 6.88365 13.8775 7.07005 13.6721 7.30283C13.4668 7.5356 13.3133 7.80942 13.2219 8.10609C13.1305 8.40275 13.1034 8.71546 13.1422 9.02344L19.4722 61.7969C19.6055 62.8549 20.1206 63.8277 20.9207 64.5327C21.7208 65.2376 22.7508 65.626 23.8172 65.625H46.1843C47.2544 65.6253 48.2875 65.2334 49.0882 64.5234C49.8888 63.8135 50.4015 62.8347 50.5293 61.7723L56.8593 9.02344C56.8988 8.71466 56.8719 8.40102 56.7804 8.10348C56.6889 7.80594 56.535 7.53134 56.3289 7.29805ZM52.2273 10.9375L51.4343 17.5H18.5672L17.7742 10.9375H52.2273Z" fill="#00AACB"/>
</svg>
