<svg xmlns="http://www.w3.org/2000/svg" width="70" height="70" fill="none" viewBox="0 0 70 70"><path fill="#00aacb" d="M26.25 32.054a2.917 2.917 0 1 0 0-5.833 2.917 2.917 0 0 0 0 5.833m14.584 5.828a2.917 2.917 0 1 1-5.834 0 2.917 2.917 0 0 1 5.834 0M26.25 49.542a2.917 2.917 0 1 0 0-5.834 2.917 2.917 0 0 0 0 5.835m-11.667-35.95c0-4.366 3.587-8.181 8.225-7.724a60.6 60.6 0 0 1 39.206 19.916c3.12 3.479 2.15 8.645-1.397 11.214-4.614 3.348-11.492 8.333-15.41 11.18a396 396 0 0 0-.002 3.185v1.831a5.103 5.103 0 0 1-5.997 5.029c-.595 2.409-2.718 4.453-5.67 4.453-2.041 0-3.68-.977-4.693-2.377l-3.864 2.791c-4.34 3.133-10.413.033-10.41-5.325zm7.796-3.369c-1.776-.175-3.424 1.292-3.424 3.369v1.516a51.2 51.2 0 0 1 37.873 19.233l1.222-.887c1.686-1.225 1.902-3.421.706-4.754A56.23 56.23 0 0 0 22.38 10.23m-3.433 47.54a2.187 2.187 0 0 0 3.471 1.773l6.207-4.471a2.187 2.187 0 0 1 3.465 1.773c0 .788.61 1.458 1.45 1.458a1.45 1.45 0 0 0 1.464-1.458v-3.649a2.188 2.188 0 0 1 4.375 0 .723.723 0 0 0 1.238.516.73.73 0 0 0 .214-.516v-1.814c-.003-1.37-.006-2.357.015-4.343a2.19 2.19 0 0 1 .898-1.75c2.63-1.913 7.28-5.285 11.538-8.37a46.78 46.78 0 0 0-34.329-17.425z"/></svg>