<svg width="14" height="16" viewBox="0 0 14 16" fill="none" xmlns="http://www.w3.org/2000/svg">
<path fill-rule="evenodd" clip-rule="evenodd" d="M3.25 4.25C3.25 3.25544 3.64509 2.30161 4.34835 1.59835C5.05161 0.895088 6.00544 0.5 7 0.5C7.99456 0.5 8.94839 0.895088 9.65165 1.59835C10.3549 2.30161 10.75 3.25544 10.75 4.25C10.75 5.24456 10.3549 6.19839 9.65165 6.90165C8.94839 7.60491 7.99456 8 7 8C6.00544 8 5.05161 7.60491 4.34835 6.90165C3.64509 6.19839 3.25 5.24456 3.25 4.25ZM0.75 15.5V14.875C0.75 13.3832 1.34263 11.9524 2.39752 10.8975C3.45242 9.84263 4.88316 9.25 6.375 9.25H7.625C9.11684 9.25 10.5476 9.84263 11.6025 10.8975C12.6574 11.9524 13.25 13.3832 13.25 14.875V15.5H0.75Z" fill="#292524"/>
</svg>
