<svg xmlns="http://www.w3.org/2000/svg" width="544" height="605" fill="none" viewBox="0 0 544 605"><path fill="#691316" d="M393.417 458.911c3.767 23.045 7.613 46.074 11.301 69.135 8.879 55.461 16.398 111.206 36.293 164.214 7.344 19.579 17.695 37.416 30.674 53.814 4.527 5.73 9.323 8.373 16.16 4.764 8.263-4.352 15.258-2.263 22.603 2.833 8.61 5.967 18.011 10.731 26.97 16.208 2.437 1.488 6.394 1.978 5.682 6.394-1.915 5.667-6.632 6.157-11.554 6.3-1.82-.285-3.609-.902-5.461-.681-12.599 1.488-24.359-2.77-36.404-5.128-17.204-5.935-31.291-16.35-43.352-29.867-11.016-12.346-19.927-26.163-28.854-39.997-17.553-30.563-32.019-62.63-45.299-95.172-8.911-21.842-16.809-44.128-24.77-66.35-8.943-24.929-17.284-50.158-28.569-74.169-5.461-11.602-10.13-23.647-16.92-34.615-1.441-2.327-1.868-4.875-1.615-7.566 3.371-6.869 6.284-7.344 11.254-1.646 6.932 7.961 9.212 18.233 13.073 27.635 9.624 23.52 20.244 46.629 27.509 66.097-6.79-20.086-17.015-43.811-26.163-67.949-4.369-11.538-9.845-22.633-13.865-34.314-.602-1.726-1.567-3.34-2.137-5.081-1.045-3.229-2.754-6.664-.253-9.75 2.706-3.355 6.267-1.06 9.623-.538-1.741-2.833-3.973-5.081-5.92-7.55-4.352-5.508-5.793-11.254-3.941-18.376 2.074-8.056 2.707-16.461 4.005-24.691-.538-2.121-1.741-3.846-3.213-5.413-3.672-3.878-5.857-8.69-7.835-13.486-1.994-4.827-4.21-6.014-8.658-2.595-2.532 1.946-5.144 4.764-9.085 3.244a3.8 3.8 0 0 1-.855-2.057c3.657-6.711 9.671-10.447 16.54-13.122 5.445 3.198 8.057 8.69 11.206 13.771 1.203 1.931 1.821 5.08 4.575 4.748 2.896-.332 2.548-3.514 2.991-5.746.301-1.535.459-3.118 1.567-4.352 1.488-.618 2.532.126 3.34 1.203 11.997 15.796 25.941 30.057 37.084 46.549 1.915 2.833 4.195 5.524 2.232 9.275-4.21 6.616 1.883 8.579 5.318 11.713 6.379 3.039 8.389 9.18 10.304 15.131 4.416 13.675 9.085 27.287 12.266 41.342.459 2.058 1.124 4.036 2.153 5.888z"/><path fill="#451120" d="M153.736 75.499c-1.013-.95-1.535-2.09-1.25-3.498 1.725-5.635 6.79-7.091 11.443-8.452 15.068-4.416 30.342-4.606 45.679-1.314 13.201 2.833 25.641 8.12 38.399 12.346 1.44.031 2.88-.19 4.321-.127 1.456.206 2.279 1.472 3.513 2.09 24.723.933 33.824 37.527 24.992 54.668-1.551 3.024-3.308 5.952-5.033 8.88-3.118 5.318-3.862 10.794-1.345 16.556 6.426 14.688 7.138 29.946 4.463 45.52-2.849 16.54-1.836 32.004 12.045 43.938-2.58 4.179-4.796.871-6.679-.57-7.993-6.125-14.657-13.501-19.896-22.127-1.598-2.627-4.479-5.666-1.82-8.483 2.833-3.008 4.384 2.817 7.93 2.073-.333-6.489-4.115-11.459-7.313-16.714-4.289-7.043-10.493-13.549-7.439-23.03.238-.743.206-1.804-.475-2.2-4.637-2.722-9.67-1.487-14.545-1.139-3.688.269-4.21 3.292-4.432 6.378-1.298 18.092 6.584 32.542 18.044 45.569 1.915 2.168 4.099 4.067 6.141 6.109 4.194 4.21 1.757 5.635-2.628 6.268-2.405.142-4.795.063-7.122-.633-1.915-.633-3.498-1.979-5.429-2.58-16.287-6.031-27.667-16.176-28.949-34.742-.142-7.439-.475-14.862.174-22.286 2.833-8.816 11.57-13.453 15.274-21.636 3.213-3.641 7.027-4.1 11.428-2.374 4.574 1.804 8.911 1.582 11.886-2.944 3.102-4.733 3.245-10.051 1.361-15.148-1.25-3.418-4.4-3.244-7.36-1.978-2.991 1.298-4.89 3.925-7.169 6.078-2.881 2.722-5.841 3.624-8.658-.158-1.995-4.954-.57-10.193-1.361-15.243a13 13 0 0 1-.317-2.215c1.789-5.746-4.986-7.028-5.92-11.349 5.936-6.204 13.232-4.463 20.387-3.45.174-.475-.095-.776-.554-1.219-2.311-2.184-7.946-3.688-5.983-6.87 2.39-3.877 6.473.222 9.465 1.805 2.77 1.456 5.508 2.991 8.404 4.21 4.163 2.153 5.983 6.252 8.531 11.57 1.029-6.141 2.295-10.446 7.392-12.599 3.894-1.646 2.881-5.381 1.44-8.198-3.593-7.091-8.879-12.378-17.125-13.676-6.268-.98-12.504-.854-18.709.84-14.166 3.845-28.078 2.595-39.759-6.348-9.085-6.948-18.012-8.768-28.49-5.413-3.466 1.14-6.869 2.422-9.987 4.369-2.406 1.076-4.844 2.326-6.965-.523z"/><path fill="#59212c" d="M257.392 236.578c1.283-.222 2.565-.443 4.385-.776-10.288-8.895-18.313-18.993-23.679-31.133-3.956-8.927-4.051-18.265-3.846-27.698.048-2.264.602-4.638 2.96-4.97 6.489-.871 13.074-1.013 19.547.063 2.058.332 2.944 2.422 1.726 4.337-4.954 7.819.759 13.422 4.067 19.357 3.166 5.667 7.993 10.462 9.339 17.078.506 2.469 3.751 5.461-.222 7.614-3.925 2.12-4.685-1.773-6.331-3.878-.443-.57-1.124-.966-2.279-1.013 3.909 9.417 9.623 17.743 17.679 23.963 3.087 2.39 4.306 8.405 10.194 6.537 13.706 6.268 14.498 6.109 24.548-4.685 5.857 9.576 4.828 18.946-2.864 26.986-1.377 1.44-4.796 2.074-2.485 5.287 1.044 6.473-.744 8.626-6.87 8.23-5.476-.364-10.288-3.419-15.748-3.862-8.69-5.223-13.121-13.96-17.078-22.539-3.324-7.217-5.556-14.735-13.043-18.898"/><path fill="#420e1a" d="M133.271 269.5c-5.302-4.749-9.418-10.241-10.953-17.363 2.453-2.564 5.239-1.361 8.294-.665-2.786-2.295-7.487-2.501-6.996-7.423-2.77-5.398-4.875-10.969-4.369-17.221 4.242-.142 4.828 3.34 6.126 6.125 4.068 9.466 11.617 11.697 25.245 7.424.57-2.659-4.258-2.707-2.912-5.413 1.234-2.485 4.004-2.026 6.299-2.216 21.748-1.773 30.437-19.548 18.74-37.908-5.413-8.483-13.248-14.83-19.12-22.871-1.535-2.105-3.688-3.751-4.526-6.363-1.536-6.964 0-13.342 3.213-19.658 4.147 1.789 3.007 5.556 4.178 8.231 3.799 14.181 14.34 23.314 24.533 32.668 2.089 1.915 4.844 1.71 7.439.807 2.438-.854 4.749-2.263 7.534-1.741 1.33.317 2.422.95 3.087 2.2 2.057 8.168.633 16.477 1.013 24.708-.016 2.706-.538 5.254-2.264 7.439-1.06 1.25-2.437 2.105-3.798 2.991-7.028 4.701-15.417 7.012-21.985 12.536-10.257 9.797-20.022 20.101-30.215 29.962-2.295 2.216-4.321 5.713-8.563 3.735z"/><path fill="#7b3a2b" d="M150.666 166.73c10.51 11.792 24.074 21.447 28.459 37.686 4.257 15.717-7.186 30.041-23.536 30.263-2.2.031-4.385 0-6.949 0 1.71 3.941 5.777 2.01 7.487 4.526-7.819 6.569-22.222 7.202-28.759 1.33-2.216-1.994-4.084-4.131-3.609-7.423 3.419-1.631 5.745 2.073 10.066 1.757-2.579-4.29-5.887-7.661-7.486-11.887-1.757-4.622-1.045-5.983 3.45-7.233 2.628 7.027 8.547 9.338 15.084 8.879 7.423-.522 13.517-4.416 16.493-11.602 2.675-6.473-1.156-11.063-5.587-15.068-5.509-4.986-10.431-10.177-12.045-17.869-1.061-5.097-.285-9.877.775-14.752 3.213.048 2.96 2.58 2.833 4.479-.759 11.001 4.337 18.994 12.045 24.628-3.798-5.444-8.436-11.554-10.747-18.977-.997-3.197-2.342-6.695 2.026-8.753z"/><path fill="#ecdbb6" d="M257.393 236.578c7.85 0 10.43 4.527 12.361 11.697 3.039 11.253 9.94 20.687 18.123 29.06 8.294 6.141 13.105 15.083 18.708 23.377.507 2.77 3.831 2.881 4.859 5.16-1.155 1.994 1.868 3.466.681 5.476-.633.998-1.504 1.346-2.643 1.077-8.975-8.278-14.055-19.912-23.774-27.541-1.25-1.282-2.5-2.548-3.672-3.893-3.086-6.078-9.116-9.75-12.725-15.401-2.058-2.88-5.508-4.827-5.92-8.816.728-3.783-.759-5.729-4.669-6.173-2.849-.332-5.619 0-8.42.175-1.124.538-4.305-.238-3.071 1.677 3.783 5.888-1.804 7.376-4.068 10.462-1.187 1.045-2.564 1.631-4.147 1.726-3.608-.032-6.552-1.9-9.591-3.514-2.137-1.44-4.353-2.738-6.458-4.226-.063-.048-1.646-2.074-.76.364.174.491.349.965.396 1.519-.079 2.327-.696 4.464-2.152 6.284-1.947 1.567-4.448 1.314-6.648 2.026-2.881.918-5.113 2.406-4.828 6.109 2.406-.443 2.406-2.848 3.973-3.798 2.675-1.615 5.002-1.409 6.822 1.139 2.042 2.881 2.216 5.952-.459 8.5-2.628 2.501-5.983 4.194-8.215 7.154-2.136 2.026-4.811 2.469-7.581 2.612-1.9.11-3.783.316-5.572 1.076-2.215.728-4.416 1.852-6.711.269-2.12-3.371-1.677-7.518-3.355-11.032 2.406-6.442 23.172-27.92 28.917-30.753 7.123-3.514 15.211-3.799 22.333-7.249 1.662-.808 1.915-1.425 1.187-2.849 2.644-3.435 6.363-2.09 9.75-2.248l7.376.57z"/><path fill="#a43316" d="M362.046 384.742c1.551-2.454.443-4.575-1.045-6.442-10.731-13.454-21.367-26.971-32.383-40.187-2.707-3.245-4.907-6.711-7.17-10.193-1.884-.19-2.723-1.504-3.292-3.102-.38-1.599-.254-3.134.633-4.574 3.355-2.454 6.315-1.377 9.116 1.044 29.313 28.743 46.597 64.261 57.819 103.134 3.261 11.333 6.553 22.681 7.693 34.489-6.173-8.658-6.885-19.342-10.621-28.918-2.833-7.249-5.302-14.672-7.502-22.143-1.409-4.827-4.353-8.056-8.436-10.541.918-5.16-2.834-8.531-4.812-12.567"/><path fill="#f8b356" d="M161.777 40.155c2.279-3.086 2.517-6.3.237-9.433-1.725-2.358-2.089-4.638-.839-7.312 4.321-9.18 10.178-17.205 19.025-22.318 6.316-3.656 8.358 2.754 11.476 6.19-4.147 1.313-7.408 3.83-10.051 7.232-2.659 2.628-1.694 5.81-1.361 8.896-.127 1.519-.586 2.833-2.248 3.323-1.44-.237-2.738-.98-4.527-1.677 1.33 1.899 2.944 1.55 4.306 1.93 1.535-.094 2.864.159 3.244 1.963-2.611 4.511-.174 6.569 3.846 7.882 1.995 5.065-.364 9.323-2.532 13.612-11.032 2.818-21.795 6.569-32.779 9.497-1.9-1.124-2.042-2.912-1.504-4.717 1.029-3.498 3.118-7.233-3.53-7.106-1.408.031-1.756-2.343-1.994-3.878-.443-2.802-.49-5.65-1.013-8.452 1.409-4.97 3.387-8.468 8.674-3.324-.76 4.258.475 7.787 4.479 9.64 2.627 1.218 5.571 1.693 7.107-1.964z"/><path fill="#7d898d" d="M134.933 341.722c-4.495-7.946-11.349-14.435-14.404-23.283-6.489-10.32-6.346-12.266.934-22.317 4.59-6.331 9.529-12.393 13.707-19.009 2.121-2.485 4.1-5.176 7.787-5.397 1.773.269 3.087 1.218 3.926 2.801 1.124 2.817 1.06 5.666.253 8.531-2.2 4.131-3.735 8.579-6.268 12.536-3.561 5.476-2.944 10.842.317 16.208 1.899 3.118 3.973 6.172 4.432 9.955-2.976 6.964-3.514 15.258-10.684 19.975"/><path fill="#4b1119" d="M154.401 135.169c-.016-3.656-2.865-5.286-5.16-7.344-5.239-4.685-10.43-9.449-13.089-16.223 2.865-4.954 6.616-9.133 12.124-10.937 13.438-4.369 22.982-12.773 28.142-26.037 1.503-1.472 2.611-4.78 5.207-1.108.855 2.359.19 4.622-.506 6.87-3.055 7.724-7.439 14.624-13.264 20.686 1.868 1.362 4.163.475 5.935 1.567 2.738 1.615 3.989 3.831 2.786 7.012-2.517 2.849-5.698 1.947-8.769 1.52-2.073-.285-4.131-.824-6.22-.175-1.915.602-3.387 1.757-3.055 3.942.364 2.453 2.343 2.674 4.226 2.152 7.693-2.121 12.583 1.203 15.828 7.93.111 6.489-3.846 7.597-9.133 6.964-2.849-.506-3.545-3.435-5.935-5.35-1.978 2.976-3.624 6.031-5.366 9.038a4.16 4.16 0 0 1-1.551 1.551c-1.329 0-2.041-.712-2.2-2.01z"/><path fill="#e78a39" d="M177.558 26.148c1.298-.744 1.472-2.058 1.646-3.356 2.422-2.817 2.137-6.03 1.329-9.307 2.96-3.418 4.986-8.515 11.127-6.204 5.73 3.64 9.196 9.433 13.612 14.324-1.535 6.79-4.289 13.77 4.559 18.107 2.295 1.124 1.646 3.625.443 5.492-1.868 2.881-4.226 5.271-7.645 6.363-6.869.333-13.897 2.596-20.355-1.773-1.487-4.415 3.087-8.182 1.377-12.63-.474-2.88-3.798-4.654-3.102-7.993l-3.165-1.409c-.444-.585-.412-1.124.158-1.614z"/><path fill="#d0ccb5" d="M94.05 492.212c-1.456-10.889 2.928-20.734 6.489-30.405 9.497-25.752 19.279-51.44 32.653-75.546 2.912-.221 5.825-.427 7.36 2.881-1.488 10.858-7.439 19.88-12.045 29.455-4.178 8.753-6.79 18.123-10.557 27.05-6.41 14.277-13.422 28.268-19.642 42.624-.808 1.868-1.615 3.973-4.274 3.925z"/><path fill="#969791" d="M94.05 492.212c7.313-15.764 14.609-31.529 21.922-47.293 4.305 1.076 2.643 4.258 2.232 6.806-1.9 11.649-5.968 22.744-8.674 34.22-5.761 24.453-12.124 48.765-16.873 73.44-.348 1.805-1.028 3.514-1.392 5.319-.475 2.295-.776 5.175-3.688 5.318-3.197.158-4.226-2.549-4.812-5.255l.317-6.189c6.204-7.676 2.96-16.951 4.352-25.451.08-.475.127-.965.143-1.456 1.9-9.038 2.801-18.344 6.632-26.876 1.804-4.004-2.834-7.344-.65-11.174.159-.459.333-.934.507-1.393z"/><path fill="#b8bbb2" d="M82.733 564.767c1.551 1.345 3.102 2.675 5.366 4.653 3.53-16.128 6.695-31.861 10.446-47.452 4.938-20.544 10.399-40.978 15.495-61.49 1.266-5.081 4.179-10.019 1.9-15.559 3.624-9.006 7.249-18.028 10.873-27.034 3.926 4.717 1.33 9.481 0 14.15a1589 1589 0 0 0-23.124 91.722c-7.597 31.102-13.311 62.662-22.38 93.415-.586 1.884-1.251 3.767-2.264 5.477-2.184 2.453-4.638 1.788-7.138.601.411-1.582.839-3.149 1.25-4.732 3.878-9.085 7.154-18.281 4.89-28.427 2.249-5.682.143-12.061 2.834-17.664 1.852.776 1.377 3.023 2.722 4.353-.126-3.15-.854-5.951-2.2-8.61-.221-1.377-.047-2.596 1.282-3.387z"/><path fill="#f7cc64" d="M182.274 49.794c7.202.095 14.403.206 21.605.301 2.548-.348 5.144-.855 7.028 1.646-.634 4.559-4.021 4.717-7.503 4.733-4.574-.111-9.101-.87-12.061-1.092 5.144-.633 11.349 3.26 18.171 2.295 2.611.427 5.033 1.187 6.41 3.735-.079 4.432-2.532 3.989-5.413 2.643-12.694-2.152-25.372-2.216-38.129-.316-7.423 1.108-14.071 3.577-19.896 8.262-2.469-3.815-3.957-8.057-5.255-12.362.364-.601.871-.791 1.536-.522 10.842-4.29 21.494-9.26 33.507-9.29z"/><path fill="#b14c1f" d="M210.384 51.646c-2.152-.554-4.685.443-6.505-1.55 1.567-1.742 3.165-3.451 4.685-5.224 1.171-1.361 2.865-2.976.301-4.432-8.642-4.907-6.87-11.712-3.593-18.835 1.092 1.757.712 3.561.047 5.287-2.358 6.236.618 10.145 6.252 11 4.78.712 10.652 1.93 11.507-6.743.649-6.584 7.534-7.93 12.773-7.755 7.075.237 8.753 6.647 9.671 12.377.57 3.53-.158 7.265-.301 10.905-1.852.554-2.216-.522-2.2-2.026-.301.713-.063 1.44.237 2.026 1.377 2.675.792 4.733-2.152 5.382-2.849.617-4.289-1.488-5.049-3.846-1.251-3.83-1.219-7.709.111-11.729-1.615 1.9-3.15 3.83-4.733 5.714-2.881 3.435-5.207 6.727 0 10.367 1.915 1.346 3.276 3.593.744 5.904-7.771-.665-15.005-3.039-21.795-6.853z"/><path fill="#9b3d19" d="M232.638 57.85c-.079-1.63-.428-3.45-1.979-3.988-8.958-3.134-4.685-7.755-1.424-12.187 1.82-2.485 4.669-4.147 5.302-7.55.285-1.567 1.535-3.102 3.324-2.216 1.567.776 1.488 2.928.965 4.226-1.361 3.387-2.358 6.648-1.487 10.399.506 2.153.823 4.653 3.403 4.353 3.276-.38 1.614-3.087 1.472-4.986-.048-.76.11-1.52.189-2.628 1.077 1.298 1.963 2.359 2.834 3.403 1.044.665 2.089 1.314 3.134 1.979 5.745 1.74 6.948-3.514 9.734-6.331 7.011.95 7.439 5.745 5.46 10.794-2.548 6.49-5.983 12.63-9.022 18.914-8.499-2.88-16.191-7.011-21.905-14.181"/><path fill="#894232" d="M177.478 75.245c-3.182 10.463-9.006 18.962-19.421 22.966-8.199 3.166-15.131 8.041-21.89 13.375-3.577-5.84-7.328-11.633-5.872-19.04 4.448.917 2.96 5.602 5.35 8.15 3.688-5.65 8.579-9.86 14.799-12.994 4.827-2.438 11.048-4.875 9.56-12.583 2.2-3.514 6.03-3.736 9.481-4.701 4.463-1.377 7.787-.886 7.993 4.827"/><path fill="#e4d8bb" d="m142.166 272.428-5.413 5.081c-2.976.253-2.96-1.267-1.947-3.34 1.757-2.311-.886-3.15-1.535-4.669 3.403 1.124 4.511-1.773 6.157-3.593 9.972-11.032 20.291-21.716 31.703-31.292 1.662-.269 2.358.823 2.944 2.074.934 12.013 4.02 23.694 5.666 35.596-4.4 6.221-6.758.776-8.198-2.057-2.929-5.793-5.224-11.934-6.886-18.25-.364-2.057-1.076-4.051-1.123-5.349-6.664 8.436-12.71 18.17-21.368 25.799"/><path fill="#f6e7cc" d="M134.933 341.722c3.134-6.679 6.252-13.343 9.386-20.022.649-1.536 1.662-2.533 3.45-2.422 3.483 4.21 5.065 14.91 2.818 19.104-3.213 4.59-5.208 9.861-7.677 14.419 3.625-2.801 3.941-8.515 8.025-11.522 6.569-.697 6.569 2.928 4.226 7.122-2.406 4.305-5.635 8.136-9.291 11.539-4.178 2.39-5.239 8.547-10.937 9.116.57-9.101 3.356-18.217 0-27.318z"/><path fill="#4a1421" d="M306.601 300.712c-7.883-6.473-12.663-15.432-18.709-23.378.253-1.266.459-2.817 2.279-1.598 3.53 2.374 7.74 2.564 11.586 3.893 5.777 1.995 8.357-.079 8.389-5.951 6.79 2.533 6.632 7.787 5.191 13.454-1.392 5.476-5.017 9.56-8.721 13.58z"/><path fill="#b46b36" d="M160.004 75.119c4.179 2.374 3.989 5.239.586 7.993-3.023 2.453-6.062 5.255-9.592 6.616-7.059 2.707-11.491 7.771-15.036 14.197-4.115-2.817-3.229-7.945-5.682-11.364 4.891-5.777 12.314-7.407 18.344-11.285 2.216-1.425 5.825-1.725 5.097-5.777 2.152.997 4.178-.285 6.268-.38z"/><path fill="#bb7448" d="M154.401 135.169c.665.444 1.346.903 2.011 1.346 2.121 6.632 2.659 13.137-1.377 19.325-2.216-2.342-.507-5.571-2.011-8.578-3.339 6.442-2.595 12.979-2.358 19.452-3.15 7.138 1.456 12.377 4.479 17.965 2.754 5.096 7.503 9.211 8.025 15.606-13.248-8.167-18.661-20.149-18.645-34.948 3.292-10.066 6.584-20.117 9.892-30.183z"/><path fill="#b85d3e" d="M134.949 369.041c3.134-3.182 6.283-6.363 9.417-9.545q.903-.854 1.947-.189c1.409 1.772 2.264 3.64.475 5.634-1.709 1.9-3.181 3.894-.681 6.046 2.786 2.406 4.084-.712 5.872-1.915 2.216-1.503 5.366-1.155 7.218-2.991 3.45-3.419 5.587-7.534 4.258-12.726-.618-2.39-2.549-4.906.3-7.186 3.166-.522 4.321 1.678 5.429 3.973 2.469 10.842-.411 20.181-7.945 28.205-.934.839-2.042 1.362-3.245 1.71-1.519.411-3.055.791-4.574 1.187-2.802.617-5.413.253-7.756-1.488-1.962-1.757-4.131-3.371-4.938-6.078.807-4.922-6.189-.221-5.761-4.669z"/><path fill="#df8443" d="M232.638 57.85c7.344 4.67 15.243 8.469 21.906 14.182.443 1.488.871 2.992 1.314 4.48a259 259 0 0 0-3.087-1.346c-13.786-6.267-27.255-13.31-42.149-16.745-2.485-1.567-6.806 1.108-7.993-3.467 2.801-.585 6.347.554 7.771-3.292 7.898.348 14.926 3.799 22.238 6.205z"/><path fill="#b47044" d="M129.789 215.765c-4.495 1.345-2.738 4.352-1.615 6.885 1.71 3.846 4.195 7.217 7.17 10.209 1.077 1.076 2.691 2.342 1.662 3.972-1.155 1.82-3.466 1.441-5.017.776-2.865-1.203-5.477-2.976-8.199-4.495-1.424-2.137-2.073-4.844-4.511-6.252-.649-5.413 1.915-9.687 5.318-13.375 3.308-3.608 5.303-2.675 5.208 2.28z"/><path fill="#e5e5d4" d="M134.807 274.169c.063 1.456.459 2.722 1.947 3.34-2.596 6.046-6.87 11.063-11.143 15.827-6.806 7.582-9.861 15.401-5.097 25.103-9.132-7.613-9.686-10.541-3.181-20.354 5.461-8.231 10.621-16.683 17.458-23.916z"/><path fill="#d6d6c5" d="M93.544 493.605c7.739 14.214-3.672 25.42-5.983 38.05-.048-13.01 1.52-25.767 5.982-38.05"/><path fill="#dd8d39" d="M148.767 59.085c-.507.174-1.029.349-1.536.523-2.39-4.828-4.859-9.624-7.154-14.499-1.583-3.355-1.187-6.552 1.44-9.322 4.559 2.532 1.931 7.154 3.182 10.984 2.137-.76 4.463-3.007 6.489-.016 1.488 2.2 1.377 4.527-.206 6.569-1.361 1.741-2.057 3.609-2.2 5.761z"/><path fill="#909191" d="M78.096 590.091c2.279.064 3.165 1.393 3.102 3.514-.27 7.74-2.137 15.179-4.432 22.523-.522 1.678-1.884 2.342-3.577 2.406.665-9.639 2.976-19.009 4.89-28.427z"/><path fill="#aea999" d="M140.71 373.694c2.548.728 4.004 2.643 5.239 4.796 1.567 5.682-1.171 8.99-6.11 11.079-1.44-2.643-5.159-.712-6.631-3.308 2.342-4.289 3.909-9.037 7.518-12.567z"/><path fill="#c3c5bb" d="M87.402 533.111c-2.09 5.841 5.128 10.589 1.725 16.825-1.74 3.166-2.77 6.648-6.078 8.642.444-8.658.554-17.363 4.353-25.451z"/><path fill="#b75730" d="M327.906 321.288c-3.023-.411-6.046-.839-9.07-1.25-5.207-1.061-5.903-5.556-7.249-9.56-.063-1.536-2.975-2.992-.126-4.606 5.682 4.922 12.219 8.943 16.445 15.416"/><path fill="#8c5446" d="M123.632 244.065c2.485 4.637 8.341 4.621 12.171 8.547-4.985 2.564-9.18-1.647-13.485-.475-2.912-3.229-1.155-5.714 1.314-8.072"/><path fill="#919285" d="M81.45 568.154c3.388 2.216 4.37 5.587 4.385 9.37 0 1.757.3 4.052-2.216 4.21-2.643.174-2.374-2.152-2.485-3.893-.126-1.805-.142-3.609-.221-5.414.174-1.424.348-2.849.538-4.273"/><path fill="#a56732" d="M161.777 40.155c-.697 6.078-5.35 3.91-7.914 2.928-4.717-1.804-6.6-5.618-3.672-10.604 2.453 4.685 3.213 11.902 11.57 7.676z"/><path fill="#efc188" d="M258.104 42.34c-1.044 5.508-2.516 10.35-9.75 6.33 4.401-.332 5.097-6.378 9.75-6.33"/><path fill="#262746" d="M302.042 428.996c-1.171 5.208 3.277 7.962 5.129 11.855 14.102 29.535 26.606 59.718 37.401 90.646 7.819 22.38 16.429 44.492 24.754 66.698 10.447 27.841 22.713 54.907 35.724 81.592 4.431 9.085 10.224 17.537 13.801 27.113 2.343 7.392 7.566 12.995 11.792 19.231 2.327 3.419 5.619 7.091 3.086 11.428-2.564 4.4-7.407 3.054-11.475 2.738-4.653-.348-7.85-2.738-8.61-7.677-.237-1.567-.475-3.118-1.535-4.368-4.274-3.023-8.136-7.249-14.261-5.017-2.089.554-3.593 1.978-5.223 3.26-5.841 4.622-11.032 2.691-15.97-1.662-6.3-15.559-11.539-31.497-16.905-47.404-14.672-43.416-21.066-88.889-33.064-132.969-7.486-27.493-19.5-53.213-32.067-78.664-3.26-6.6-6.837-13.026-9.876-19.737-3.087-6.822-8.342-10.621-15.733-11.523-10.7-1.298-21.241-3.545-31.798-5.54-4.701-.886-8.848-.538-12.472 2.786-3.356 2.485-3.625 6.853-5.999 9.924-3.087 4.004-5.651 4.827-7.012-1.219-1.155-12.947 2.105-25.261 5.477-37.543 1.788-6.521 6.441-8.278 12.598-7.503 2.517.349 4.891 1.219 7.297 1.947 5.904 2.248 11.016.649 16.018-2.833 4.384-3.055 8.056-7.455 13.833-8.199 7.819.902 11.08 7.439 15.132 12.71 7.312 9.512 15.163 18.724 19.943 29.946z"/><path fill="#5d0a12" d="M302.043 428.996c-7.898-10.573-15.717-21.209-23.71-31.719-2.96-3.893-5.635-8.293-10.969-9.512-.332-3.292 2.438-4.479 4.416-5.856 12.188-8.532 23.789-17.807 35.454-27.034 2.106-1.662 4.068-4.305 7.455-3.324 1.551 1.029 2.137 2.849 1.393 4.147-4.558 8.119-1.963 17.616-5.286 25.989-2.659 6.695 2.88 10.715 6.062 15.21 2.089 2.96 4.732 5.54 6.236 8.943-1.931 1.82-3.403.111-4.954-.491-2.39-.918-4.907-2.959-7.234-.569-1.978 2.026-.427 4.495.428 6.632 9.227 22.76 18.692 45.409 27.683 68.265a543 543 0 0 1 13.469 38.477c1.409 4.543 5.445 8.373 4.179 15.685-3.783-7.771-7.107-13.817-9.735-20.164-10.747-25.847-21.193-51.805-31.987-77.635-1.377-3.308-3.831-6.268-6.221-9.022-3.292-3.799-5.777-3.182-6.679 1.978"/><path fill="#560912" d="M284.743 333.001a3.2 3.2 0 0 0 0 1.234c.807 4.116-2.738 6.585-3.735 10.004-7.692 13.516-17.806 25.055-29.076 35.644-1.867 1.757-3.593 3.893-6.568 3.767-5.936-5.603-10.241-12.726-16.604-17.949-.506-1.599-.031-3.086.459-4.574-.585-7.328-5.761-13.185-6.204-20.655-.491-8.358-.602-16.208 7.977-20.956 11.349 9.971 23.552 7.391 35.708 2.136 10.842-4.685 11.348-4.732 17.679 4.796 1.947 2.089-1.044 4.416.333 6.537z"/><path fill="#414f6b" d="M319.326 324.438c.713 1.155 1.409 2.327 2.121 3.482-.11 1.029-.3 2.058-.3 3.086 0 4.005-.285 9.006-4.195 10.035-4.827 1.266-5.27-4.574-7.344-7.55-3.102-4.431-6.078-8.958-9.101-13.437-1.171-.95-2.944-.396-4.004-1.615-7.091-8.594-13.691-17.569-20.655-26.258-1.457-1.82-2.897-3.688-2.612-6.268 2.374-3.593 6.41-2.279 9.655-3.308 1.219-.016 2.358.253 3.292 1.108 11.317 6.6 15.923 18.93 24.106 28.205 4.052 3.435 6.711 7.851 9.053 12.536z"/><path fill="#e4c5a0" d="M279.52 343.352c.364-3.83 3.719-5.951 5.223-9.117 4.685-.68 7.581-4.431 11.158-6.869 3.767-2.58 4.907-1.852 6.585 2.121 2.548 5.983 5.983 11.57 9.037 17.331.602 1.362.238 2.66-.728 3.546-9.765 8.879-19.642 17.632-30.769 24.818-1.329.855-2.865 1.234-4.4.364-1.757-4.606-1.314-9.275 2.722-11.95 4.907-3.245 3.847-5.888.649-9.196-1.598-3.767 1.805-7.297.523-11.048"/><path fill="#9b4a3b" d="M275.246 375.34c13.928-7.17 25.118-17.838 36.277-28.537 2.137.854 3.371 2.31 3.15 4.748-15.781 12.077-31.545 24.153-47.325 36.23-6.189 1.804-10.288 6.822-15.575 10.035-4.748 2.88-9.496 3.909-14.656 1.297 5.682-6.837 5.065-13.232-1.757-18.661-3.688-2.943-8.12-4.653-11.934-7.375-.523-.538-.855-1.187-1.029-1.915.032-2.185-.602-4.416.348-6.553 2.817-2.723 4.828-.586 6.917 1.124 7.914 3.593 12.14 10.43 15.748 17.838 1.298 1.044 1.583 2.579 1.647 4.067.253 6.094 2.801 6.268 6.837 2.723 3.799-2.454 7.74-4.717 10.905-8.041 2.881-2.627 5.968-4.954 9.386-6.837.349-.048.713-.095 1.061-.143"/><path fill="#c35a31" d="M362.046 384.742c6.805 4.463 8.452 8.8 4.811 12.567-2.722-3.767-12.915-4.669-4.811-12.567"/><path fill="#e4cfc0" d="M297.437 318.962c1.203-.175 2.675-1.045 3.07 1.092-5.254 4.321-10.493 8.642-15.748 12.947-4.226-1.488.522-3.482-.285-5.16.142-.332.269-.665.396-1.013 3.767-3.308 7.486-6.679 12.583-7.866z"/><path fill="#fab78b" d="M175.737 109.703c.427-2.786.348-5.319-3.007-6.3-.902-.522-2.406-1.361-1.694-2.2 3.941-4.638 5.366-11.349 11.475-14.198 7.186 5.034 12.821 12.251 21.51 15.195.934.317 1.868 1.203 1.631 2.374-.301 1.567-1.773 1.773-3.055 1.979-2.327.38-4.701-.602-8.516.728 8.373.965 15.353 1.788 22.302 2.928 6.252 3.007 13.358 4.907 16.207 12.377 1.647 4.226.412 8.595.792 12.868-1.029 3.783-4.448 3.071-7.075 3.577-4.685.918-9.101 2.327-12.995 5.208-2.358 1.757-4.748 3.529-4.162 6.948.617 3.577 3.276 5.081 6.473 6.062 4.179 1.282 8.167 1.171 12.235-.633 1.599-.696 4.131-2.976 4.986 1.045-3.261 7.423-9.18 12.757-14.657 18.407-5.729 5.698-12.393 9.703-20.433 11.191-1.013 0-2.042-.016-3.055-.032-5.714-.76-8.769-5.492-12.916-8.595.412-2.152 2.39-2.2 3.878-2.896 1.282-.586 1.52-1.14.079-1.868-1.725-.934-4.02-1.25-3.909-3.941 2.184-2.342 5.413-1.314 7.914-2.437 2.532-1.124 6.394-.902 6.442-5.176-2.612-3.419-5.334-6.663-9.45-8.278-.538-.221-.269-1.234-1.123-1.203.538.523.965 1.14 1.519 1.694-.918 5.429-4.242 5.619-8.436 3.925-8.943-5.571-9.022-5.666-5.856-15.448.506-1.567.522-3.055.253-4.606.411-3.909-2.928-4.574-5.287-6.078-.316-.68-.285-1.313.159-1.931 4.083-.3 9.86 2.106 9.148-5.777-2.327-4.796-6.173-9.449-1.409-14.909z"/><path fill="#783b2f" d="M177.478 75.246c-1.662-3.261-4.147-5.16-7.993-4.828 9.576-3.356 18.392-4.875 27.493 2.77 12.678 10.668 27.461 11.728 43.59 7.85 18.423-4.431 30.405.507 36.784 16.066 1.756 4.273 3.387 9.544-4.654 9.892-2.406.095-3.339 2.073-3.703 4.384-.523 3.324-1.283 6.616-2.121 10.811-4.606-5.034-4.511-12.473-10.589-15.401-9.354-7.439-19.405-13.264-33.65-14.102 4.827 2.96 8.721 4.083 11.174 7.217 1.282 1.646 3.024 3.276 1.9 5.587-1.029 2.121-3.277 2.517-5.382 2.659-19.721 1.362-44.096-15.606-49.699-34.583-2.2-1.599-1.725 1.836-3.15 1.678"/><path fill="#fbb387" d="M196.471 220.624c.586-2.311 1.172-4.606 1.757-6.917 1.077-5.951.174-11.95.538-17.901.333-5.603 3.91-7.883 9.006-5.493 4.86 2.295 8.484 5.999 10.288 11.222 2.485 16.952 12.995 26.718 28.585 31.925 1.188 1.187.998 2.833-.316 3.118-10.336 2.184-19.769 7.455-30.358 8.705-3.466-.902-6.157-2.596-6.584-6.552.174-1.298.522-2.501 1.678-2.802.981.158.728-.364.031-.174-3.371.902-7.486 4.907-9.955 1.472-2.929-4.052 2.073-8.041 3.165-12.156-4.147 7.313-7.439 15.226-12.757 21.969-6.838 1.282-11.713-3.435-10.89-10.478.713-6.094 5.208-9.971 12.109-10.51 2.722 5.809-3.593 9.529-3.324 13.755 3.482-5.318 3.672-12.821 7.043-19.183z"/><path fill="#f9a87b" d="M232.86 157.677c-6.458 1.313-12.583 4.273-19.611 1.361-4.004-1.662-5.492-4.29-6.568-7.882-1.172-3.894 1.487-5.524 3.957-7.55 6.362-5.176 13.643-7.186 21.699-6.917 1.599.538.744 2.422 1.789 3.276 3.688 2.517 5.825.159 7.708-2.548 2.01-2.881 4.543-5.096 7.771-6.347 3.894-1.504 7.234-.87 9.244 3.197 2.596 5.255.459 16.493-3.846 20.64-3.799 3.672-7.993 3.688-12.124.902-4.147-2.802-7.265-1.757-10.035 1.883z"/><path fill="#571d22" d="M180.627 73.552c5.841 9.243 11.159 18.82 21.59 24.121 9.006 4.59 18.882 6.078 28.347 8.943 1.504.459 3.276.032 4.068-1.63.712-1.488-.633-2.374-1.504-3.277-1.994-2.073-3.973-3.957-7.012-4.811-2.817-.792-5.967-1.947-7.059-6.41 15.037.506 27.968 4.067 37.227 16.286-6.046-.759-9.86-6.521-17.347-7.692 4.273 4.717 11.032 5.144 12.187 12.172-8.721-2.865-16.999-4.923-24.881.459-3.213 2.485-6.331.775-9.465-.222-7.407-.633-14.815-1.25-22.222-1.899-1.662-.143-4.084.744-4.274-2.026-.158-2.422 2.137-2.517 3.815-3.15 3.419-1.282 6.648 1.029 11.269.206-9.86-3.846-17.632-8.895-22.855-17.158-3.324-1.377-1.947-4.938-3.371-7.201.49-2.248.981-4.48 1.472-6.727z"/><path fill="#c8452c" d="M218.061 201.551c-2.786-2.675-5.477-5.492-8.421-7.993-2.184-1.852-4.701-3.15-7.819-1.836-3.387 1.425-2.026 4.353-2.247 6.727-.491 5.096.87 10.351-1.33 15.29-.142-8.832-.301-17.648-.459-26.465 6.284-4.685 13.422-7.834 20.434-11.19l-.143 25.467z"/><path fill="#b37554" d="M215.133 243.827c10.05-2.374 19.61-6.553 29.914-8.04.633-.095 1.076-1.52 1.615-2.327 1.915-.19 2.785.997 3.371 2.564-2.453 3.229-6.996.507-9.592 3.34-.665.823-1.44 1.677-2.437 1.915-17.078 4.068-32.178 12.314-46.661 21.89-.648.427-1.487.459-2.279.506-1.266-.269-2.105-1.044-2.611-2.2-.127-2.422 1.393-3.957 3.181-4.986 8.246-4.732 15.543-11.411 25.514-12.678z"/><path fill="#a0462b" d="M210.511 64.04c1.677-.776 4.922.933 4.606-2.96 13.691.443 25.324 5.54 34.757 15.51-7.249.966-12.456-4.478-18.945-6.045-6.933-1.678-13.628-4.306-20.418-6.506"/><path fill="#842507" d="M249.89 76.607c-10.541-7.503-21.795-13.438-34.758-15.511-2.042-.57-4.083-1.156-6.125-1.726-.443-1.44.016-2.089 1.567-1.756 15.432 2.548 30.009 7.201 42.181 17.568-.966.475-1.915.966-2.881 1.44z"/><path fill="#e7926c" d="M216.779 111.507c3.15.079 6.315.142 9.465.222 5.017 1.915 9.227 4.305 6.363 10.842-5.271-3.688-10.558-7.376-15.828-11.064m17.363 28.442c-.602-1.092-1.188-2.184-1.789-3.276l.285-14.087c3.086 5.556.506 11.618 1.504 17.363"/><path fill="#fac59b" d="M179.029 157.313c3.577 1.155 6.474.807 7.692-3.388v.032c7.804-2.833 7.455 5.556 11.27 8.215-2.865 6.806-9.18 6.299-14.831 6.679-2.137.142-4.637-.348-6.711-1.599 1.567 1.615 4.685.428 5.667 3.103 1.582.87 3.165 1.741 4.748 2.595-1.14 1.916-3.688 2.422-4.558 4.59 5.349 1.678 8.103 6.68 12.424 9.687-12.314 5.065-12.361 5.128-22.048-4.827-7.518-7.74-14.767-15.686-17.616-26.559.586-6.442-.253-12.979 1.377-19.342.127-.491.332-.934.601-1.361 3.388-2.169 6.189-6.395 11.096-3.102 4.795-.475 8.721-.095 6.22 6.457 1.488 1.916 0 3.387-.76 4.923-4.083 8.262-3.482 9.845 5.461 13.897z"/><path fill="#fac095" d="M215.132 243.827c-9.354 6.062-20.307 9.544-28.458 17.569-3.514 5.413-5.666 1.377-7.312-1.361-3.166-5.239-4.116-11.27-5.018-17.221-.348-2.295.222-4.78-1.646-6.679-.522-.507-1.06-.997-1.583-1.504 6.221-6.252 15.084-7.866 22.143-12.63 2.311 1.155 2.232 2.026-.427 4.764-9.592 2.501-13.359 10.478-8.278 17.3 2.073 2.785 4.321 3.592 7.281 1.519 4.954-5.635 10.984-8.721 18.677-7.898-.333 3.435 2.738 4.353 4.59 6.157z"/><path fill="#b65835" d="M192.862 226.749c.032-1.599 2.422-2.976.412-4.764a273 273 0 0 1 3.197-1.361c-.269 7.723-3.229 14.498-7.376 21.842-1.535-6.632 3.767-10.494 3.767-15.717"/><path fill="#f8efce" d="M188.462 263.105c15.939-10.953 32.526-20.481 51.979-23.741.665.395 2.785.19 1.519 1.456-1.788 1.804-4.194 3.767-6.568 4.115-14.641 2.121-26.401 7.803-34.346 21.368-2.77 4.732-9.149 7.597-12.552 12.678.491 1.472-.285 2.69-1.361 3.244-6.933 3.482-7.867 9.354-6.632 16.145-.886 3.118-2.596 3.703-5.144 1.709-1.836-1.994-2.881-4.479-2.754-7.059.253-5.477-2.928-6.49-7.312-6.347-1.267-.333-2.264-1.092-3.261-1.931-1.646-1.409-2.786-4.4-5.524-3.134-2.786 1.298-2.2 4.305-2.152 6.853.949 5.936 3.767 11.349 8.103 14.942 5.018 4.163 7.202 8.309 5.382 14.577-.269.918.411 2.026.649 3.055 1.978 5.429 3.545 10.969 5.397 16.429 3.894 11.539 4.052 23.156.095 34.726-1.282 3.752-2.802 7.566-2.089 11.491 1.994 10.906-1.124 21.922.997 32.795-.412 2.137-1.203 4.163-3.593 4.575-1.963.348-2.722-1.457-3.023-2.865-2.833-13.121-7.867-25.91-6.157-39.744 4.986-8.832 10.494-17.505 7.819-28.442-5.287-11.76-6.806-24.818-12.536-36.436-1.124-2.516-1.931-5.16-3.118-7.66-2.01-4.575-4.59-8.896-6.315-13.596-1.013-2.723-2.089-5.477-.364-8.326.111-3.26.221-6.505.316-9.766 2.865-11.332 10.193-18.945 20.26-24.264 2.263 6.585 4.305 13.264 6.948 19.674.713 1.726 1.71 6.537 5.651 2.454 1.06-5.334 4.811-7.74 9.686-8.943z"/><path fill="#c69f78" d="M179.076 297.768c-4.732-10.209 2.454-14.451 9.418-18.788 4.954 2.438 2.501 7.139 3.292 10.842 2.675 1.156 4.733 2.929 5.54 6.237 1.757-2.818-1.029-5.382.475-7.756 1.234-1.709 3.039-1.551 4.811-1.424 6.078 5.492 5.762 15.716-.759 20.069-3.483 2.327-6.569 2.232-9.576-1.393-2.707-3.26-3.973-7.106-5.952-10.636 2.248 8.215 8.674 14.134 12.03 21.763.427 2.248-.444 3.973-2.121 5.366-4.337 1.962-6.98-.871-9.513-3.546-5.492-5.793-7.486-12.947-7.645-20.734"/><path fill="#e4c7a3" d="M270.783 264.641c3.371 5.856 10.414 8.816 12.393 15.78-3.498 2.58-6.458-.317-9.544-1.061-10.906-2.58-21.574-5.935-31.371-11.601-1.614-1.172-3.735-1.963-3.419-4.575 1.251-.126 2.485-.284 3.213-1.535q8.706-2.896 7.677-12.535c3.577-.539 7.106-.824 10.747-.27 5.397.839 6.568 3.388 3.846 7.978-2.707 1.741-3.767 4.97-2.532 7.138 2.152 3.799 5.967-.016 8.99.665z"/><path fill="#c59b76" d="M210.384 285.153c.269-3.102 2.628-4.226 5.002-5.429 2.58-1.313 5.429-2.69 4.004-6.441-.617-1.646-1.282-3.72-3.656-3.419-3.419.427-3.482 3.292-3.973 5.872-.174.886-1.044 1.646-1.693 2.58-3.087-2.184-4.844-4.828-3.419-8.136 1.393-3.197 3.973-5.492 7.882-5.46 1.82 0 3.656-.016 5.477-.032 5.983 3.245 6.742 8.99 7.106 14.91a6.6 6.6 0 0 1-.649 2.232c-2.057 3.64-.949 7.676-1.377 11.506-.506 4.543-2.105 8.516-7.217 8.674-4.812.158-5.841-3.704-5.682-7.661.095-2.168-1.219-3.292-2.343-4.669-.728-1.614-.269-3.102.522-4.542z"/><path fill="#debd96" d="m210.384 285.153.332 4.891c1.077 9.386-5.207 22.428-12.868 26.67-6.077-6.125-11.364-12.836-13.975-21.193-.634-2.042-.776-5.524 2.12-5.983 2.628-.412 2.327 2.959 3.071 4.78 1.266 3.102 1.409 6.521 3.751 9.37 3.688 4.463 7.328 4.511 10.272-.618 3.119-5.429 3.562-10.889-.474-16.16 2.722.016 5.429-.047 7.771-1.741z"/><path fill="#ddb791" d="M226.339 280.5c-1.678-5.445-2.77-11.127-6.315-15.812-.269-2.263.506-4.289 1.519-6.236 3.324-1.203 4.226 2.153 6.299 3.324 2.739 2.184 4.875 4.843 6.142 8.151 1.218 4.084 1.899 8.088-1.71 11.444-2.152.886-4.178.949-5.935-.855z"/><path fill="#ba886e" d="M242.277 266.081c12.979 6.648 27.161 9.861 40.899 14.34l2.992 3.276c-1.061.064-2.121.127-3.182.174-8.578.649-16.334-2.77-24.343-4.954-3.434-1.551-6.774-3.339-10.161-4.985-2.786-1.773-6.157-2.976-6.774-6.886.189-.316.364-.649.553-.965z"/><path fill="#bd9774" d="M270.783 264.641c-.981 1.772-2.786 2.374-4.527 2.722-2.77.57-6.774 1.456-7.375-1.899-.634-3.546 1.313-7.392 3.925-10.368.506.586 1.013 1.156 1.519 1.742 2.153 2.595 4.305 5.207 6.458 7.803"/><path fill="#b08d65" d="M249.732 249.129c1.456 3.119 5.334 5.825 1.994 9.814-2.533 3.023-5.635 4.732-9.671 2.722.396-3.229 4.163-2.707 5.698-5.207-.301-2.928-4.732-2.786-5.065-6.015 1.931-2.548 4.638-1.203 7.044-1.314"/><path fill="#e6bf97" d="M197.785 288.319c2.374 3.862 4.258 7.756.364 12.092-4.511-2.089-2.406-8.262-6.378-10.588 2.01-.507 4.004-.998 6.014-1.504"/><path fill="#ba886e" d="m226.639 262.82-5.097-4.384c-1.171-1.931-3.798-2.801-3.988-6.189 4.669 1.868 8.578 4.385 12.298 7.281a2.93 2.93 0 0 1-.807 1.71c-.697.696-1.567 1.108-2.406 1.582"/><path fill="#d8ac96" d="M319.326 324.438c-3.925-3.514-6.41-8.072-9.053-12.536.427-.475.87-.949 1.298-1.44 2.421 3.181 4.843 6.378 7.249 9.56.158 1.472.332 2.928.506 4.4z"/><path fill="#ba886e" d="M238.843 263.2c1.139.966 2.279 1.915 3.434 2.881l-.49.617c-5.967 1.377-10.336-.411-12.552-6.394l.618-.76c2.991 1.219 5.998 2.438 8.99 3.656"/><path fill="#a76322" d="M180.549 29.187c1.519 2.469 6.805 3.482 3.102 7.993-2.469.047-5.303.886-6.585-2.232-1.377-3.324 1.583-4.274 3.483-5.761"/><path fill="#a14c0f" d="M180.549 13.501c4.875 3.862 5.397 7.107-1.345 9.307-2.454-3.514-2.834-6.743 1.345-9.307"/><path fill="#b05f1e" d="M177.557 26.148c-.047.538-.111 1.076-.158 1.614-2.564 1.836-4.717 1.82-6.252-1.314-.712-1.471-1.361-3.276.49-3.972 3.245-1.235 4.226 1.947 5.92 3.688z"/><path fill="#3a3b55" d="M153.958 305.587c.902 2.137 1.788 4.289 2.691 6.426-1.409 4.448-5.461 5.936-8.991 8.009l-3.323 1.662c-1.916-3.419-3.862-6.822-5.73-10.272-3.086-5.746-3.735-11.396.918-16.746 3.34 5.587 8.721 8.484 14.435 10.921"/><path fill="#511621" d="M153.958 305.587c-7.391-.222-13.453-2.2-14.435-10.921 2.248-3.451 2.137-8.231 6.078-10.716 1.092 7.867 6.094 14.23 8.373 21.637z"/><path fill="#7a7564" d="M166.161 249.921c-8.325 6.774-14.593 15.273-20.259 24.264-1.251-.586-2.485-1.172-3.735-1.757 5.397-10.605 14.292-18.44 21.826-28.648.981 2.769 1.567 4.463 2.168 6.141"/><path fill="#e49972" d="M175.737 109.703c-1.266 5.128.649 9.971 1.409 14.909-3.656-5.017-7.946-8.151-14.577-5.397-2.454 1.013-5.683 4.036-6.411-1.994-.522-4.4-.395-7.851 4.923-8.69 4.986-.791 9.639 2.311 14.64 1.187z"/><path fill="#d6745a" d="M179.14 80.279c2.77 1.63 2.881 4.495 3.371 7.201-3.45 5.192-7.534 10.004-9.797 15.923h-9.449c6.885-7.107 12.551-14.356 15.875-23.124"/><path fill="#e9d3c2" d="M168.108 132.051c-4.163-.649-7.17 2.881-11.095 3.103 1.662-3.799 2.88-7.883 5.128-11.301 1.345-2.058 4.21-2.501 4.669 1.392.206 1.789-.047 3.625 1.187 5.16.032.554.079 1.092.111 1.646"/><path fill="#9d410d" d="M191.597 24.802c-.175 2.28-1.172 4.052-3.593 4.242-1.947.143-3.799-.87-3.593-3.023.237-2.532 2.152-4.036 4.669-4.273 2.058-.19 2.453 1.377 2.501 3.07z"/><path fill="#82888b" d="M139.824 389.569c2.39-3.498 5.445-6.632 6.11-11.079 2.295 1.298 4.796 1.598 7.375 1.535 1.947 2.849.602 5.666-.364 8.278-11.047 29.994-16.951 61.222-22.744 92.513-.602 3.261-.681 6.87-3.087 9.608-3.529-.823-2.358 1.994-2.643 3.545-1.899 10.811-4.986 21.004-14.324 28-2.501 1.867-4.907 4.32-8.357 1.772.507-10.304 4.036-19.974 6.553-29.803 5.714-22.302 10.509-44.856 17.79-66.73 1.045-3.134.681-6.221.697-9.355 4.336-9.433 8.657-18.866 12.994-28.3z"/><path fill="#2b2e4e" d="M223.173 714.798c-1.108 3.403-3.482 5.761-6.331 7.724-9.402 5.081-11.459 13.327-10.557 23.267.38 4.289 1.187 8.99-1.884 12.931-.759 9.354-.934 18.819-2.516 28.031-1.029 5.951 1.234 6.869 5.998 7.059 3.008.127 6.347-1.234 8.943 1.504-11.57.38-23.077-.427-34.552-1.773-2.691-1.139-4.843-2.596-3.545-6.078-2.2-2.959-.776-6.014-.222-9.021 2.39-12.805 5.144-25.562 6.11-38.604 2.453-15.876 5.777-31.624 7.043-47.674 3.26-23.646 4.922-47.435 7.027-71.193 2.565-28.981 3.609-58.056 6.031-87.037.87-10.43-1.219-20.987 1.472-31.307.411-.871 1.124-1.377 2.089-1.504 2.026 1.488 1.71 3.245 1.44 3.799-2.041-6.759-.395-14.989-2.453-22.982.095-5.239-2.501-10.89 2.358-15.4 2.849 1.377 1.425 3.624 1.504 5.824.981-5.017-1.393-9.338-2.152-13.897.11-6.093-1.219-12.598 4.574-17.173.443 2.517 1.139 3.308 3.07.792 2.754-3.577 2.121-9.038 6.569-11.602 2.073 2.263 1.551 4.97.95 7.486-4.416 18.44-5.683 37.322-7.835 56.078-.364 3.134-1.298 6.379-.665 9.402 2.897 13.865 1.14 27.714.412 41.595-.333 6.616.379 13.058 2.485 19.421 1.82 5.508 2.405 11.301 2.231 17.126-.301 9.955-.57 19.895 4.274 29.075-1.156 4.479-4.907 8.088-4.385 13.137-1.582 5.635 4.052 9.908 2.976 15.464-1.694 2.105-4.084 3.134-6.394 4.321-2.675 1.377-3.783 3.387-2.311 6.537 5.08-1.314 6.204-7.882 11.554-8.595 4.4 2.137 2.865 5.477.633 7.503-7.581 6.869-4.59 14.371-2.564 22 4.258.19 5.239-6.109 9.797-3.925 1.282 3.83-.284 6.901-3.292 8.864-4.701 3.054-3.624 6.236-1.108 9.924 1.773 2.58 3.704 5.144 3.91 8.483-.348 1.931-.76 3.957-3.419 2.454-2.042-1.156-2.627-3.973-6.236-5.192-.443 7.898-2.422 15.337-1.029 23.093z"/><path fill="#73767f" d="M101.79 523.741c13.722-3.735 17.094-15.321 20.323-26.986.696-2.501.759-5.302 2.01-7.455.68-1.187.965.886 1.392 1.535 3.166 3.625 1.061 7.519.444 11.238-2.58 15.717-4.875 31.497-7.898 47.151-.633 3.292-1.108 6.774-3.799 9.259-3.387-.411-2.374 2.153-2.643 3.926-3.087 20.465-6.268 40.914-13.216 60.525-1.14 3.245-1.314 7.502-6.047 8.246-.411-.855-.237-3.498-1.978-1.092-4.67 6.537-12.013 9.972-18.25 17.458.982-9.212 2.944-16.144 5.825-22.855 2.121-4.527 7.392-.712 10.13-3.736-2.121-3.64-7.392 3.815-8.642-2.548.649-13.311 7.217-25.134 9.591-37.955 3.546-19.072 7.661-37.987 12.742-56.695z"/><path fill="#b6721d" d="m210.574 57.598-1.567 1.756c-7.898 1.662-14.435-4.416-22.143-4.416h15.765c2.121 2.501 5.903-.047 7.961 2.66z"/><path fill="#5c595e" d="M92.372 631.164c7.186-12.646 9.481-26.812 12.33-40.756 2.01-9.893 3.245-19.959 4.891-29.931.301-1.836-.174-5.761 3.34-1.756 2.88 3.482 1.867 7.454 1.171 11.253-3.894 21.605-7.914 43.194-12.267 64.704-1.63 4.147-1.329 9.101-5.096 12.377-2.707.649-2.928-2.073-4.337-3.213l-.412-.237.475-2.992c.713-2.706-2.437-5.254-.364-8.024a6 6 0 0 1 .253-1.425z"/><path fill="#ad5a38" d="M188.463 263.105c-3.229 2.976-6.458 5.967-9.687 8.943-3.941-11.649-6.426-23.552-6.062-35.929 3.403.475 2.675 3.292 3.102 5.461 1.187 6.172 2.897 12.171 5.192 18.027 1.25 3.182 2.849 4.179 5.666 1.773.586.57 1.187 1.14 1.773 1.71z"/><path fill="#b17350" d="M147.643 320.022c1.931-3.862 5.967-5.382 8.99-8.009 5.92 12.013 9.671 24.66 11.27 37.955-1.631-1.045-2.39-3.498-4.939-3.055-3.102 3.482-7.296 5.825-9.765 10.051-1.504 2.612-4.226 3.83-7.44 2.532h-1.424c3.181-4.115 6.489-8.135 9.481-12.393 2.564-3.624 1.345-5.318-3.039-4.732-3.704-.57-2.612-2.849-1.805-5.034.681-.775 1.362-1.535 2.042-2.31-9.417-3.118 2.833-11.159-3.403-15.005z"/><path fill="#c9a983" d="M149.004 337.338c.032 1.883-.111 3.83 1.804 5.033-1.693 5.983-4.906 10.889-10.889 15.147 2.121-7.851 5.033-14.261 9.085-20.196z"/><path fill="#f4e8ca" d="M99.938 635.596c3.909-21.7 7.866-43.4 11.696-65.131.681-3.878.887-7.819 1.298-11.744 6.22-17.965 6.664-37.069 10.779-55.461.918-4.083 1.219-8.294 1.82-12.441 3.799-18.407 7.566-36.799 11.38-55.207 3.941-18.977 10.526-37.195 16.414-55.603.886-1.234 2.041-1.915 3.624-1.598 1.488 1.551 2.738 3.26 2.865 5.46.823 14.467 5.366 28.3 7.202 42.593-.444 4.764 1.804 9.291 1.329 14.039-.253 2.548 0 6.062-3.403 6.189-3.482.126-3.102-3.467-3.799-5.904-.269-.918 1.33-2.992-1.139-2.707-.554.064-1.061 1.678-2.042 2.185-4.764-4.812-7.787-10.827-9.94-17.015-1.155-3.34-2.437-8.152 4.559-9.149 4.273-.601 3.213-4.242.744-7.47-7.028 8.151-6.015 17.79-6.901 26.923-1.267 9.433-.871 19.151-4.622 28.173-4.796.253-5.223 3.846-5.999 7.471-6.236 28.98-9.338 58.452-13.627 87.733-4.116 18.075-5.952 36.531-9.054 54.764-2.2 7.692-1.614 16.018-5.318 23.362-2.548.981-4.954 4.448-7.835.506z"/><path fill="#f3a179" d="M145.775 359.512c2.96-1.282 5.762-2.105 7.313-5.919 1.519-3.736 5.35-6.252 9.876-6.68 4.59 6.331 3.134 12.726.412 19.247-.712 1.709-1.52 1.804-3.15 2.327-3.292 1.028-7.075.902-9.37 5.112-1.82 3.355-5.176.918-6.948-1.472-1.583-2.121-4.448-5.334-.507-7.075 3.356-1.488 3.245-2.991 2.359-5.556z"/><path fill="#ccb087" d="M164.847 427.303c-2.643-16.287-5.27-32.59-7.913-48.876h3.165c2.596 12.899 5.207 25.783 7.819 38.683.222 1.076-.427 3.007 1.646 2.579 1.44-.3 1.456-1.978 1.694-3.244 1.82-9.228 5.492-17.838 8.689-26.607.95-2.611 1.583-5.603 4.495-7.043 1.931.111 2.596 1.662 3.451 2.991.728 1.441 1.329 2.929 1.25 4.59-6.822 12.077-11.887 24.977-17.553 37.591-.855 1.916-1.773 4.258-4.163 4.211-3.165-.048-.886-3.657-2.595-4.875z"/><path fill="#273854" d="M223.173 714.798c-3.308-1.504-3.83-4.527-2.896-7.328 1.551-4.638 1.171-9.307 1.345-14.008.079-1.947-.776-4.59 2.2-5.128 2.406-.427 3.751 1.551 4.986 3.229 1.044 1.44 1.867 3.039 2.833 4.543.016.031.57-.127.633-.285.19-.475.253-.998.38-1.504 2.358-.823 3.197 1.171 4.352 2.422 4.796 5.159 5.05 5.144 7.693-1.567 1.234-3.166 2.152-6.442 3.339-9.624 1.52-4.115 1.9-7.549-3.371-9.338-2.659-.902-3.561-3.704-4.495-6.141-1.187-3.102-3.245-3.83-6.189-2.643-4.226.886-5.159 8.072-9.797 6.426-4.258-1.504-1.235-7.408-3.261-10.526-3.893-6.03.206-9.56 3.34-13.596 1.725-2.232 5.651-3.925 2.026-7.597-1.678-.38-2.659-1.456-3.102-3.087-1.805-4.748-5.556-8.847-4.669-14.466 1.836-4.242 6.726-7.392 4.653-13.026-7.091-10.336-4.131-22.096-4.733-33.35-.68-12.709-6.774-24.707-4.764-37.828 3.245-21.146-2.216-42.545 1.599-63.707 2.77-15.353 5.286-30.769 7.914-46.153 4.147-4.622 8.768-5.002 14.83-3.546 11.618 2.786 23.521 4.527 35.36 6.268 6.236.918 10.003 4.954 12.504 9.718 6.568 12.504 12.519 25.34 18.55 38.113 12.662 26.781 24.105 54.195 29.978 83.191 4.875 24.027 9.86 48.037 15.622 71.827 5.713 23.583 13.2 46.755 21.604 69.563 2.264 6.125 4.132 12.377 6.189 18.581l3.134 11.064c-3.767 1.108-7.55 2.2-11.317 3.308-.538.317-.949.206-1.266-.332-8.61-6.031-25.324-4.163-31.719 3.545-5.176 6.252-23.409 6.3-30.373.016-1.757-1.583-3.593-3.181-4.875-5.128-2.723-4.147-4.385-3.182-6.711.475-3.419 5.397-6.3 5.302-8.136-.76-2.77-9.133-8.61-8.373-15.448-6.268-9.243 2.865-18.566 3.039-27.841.427-4.337-1.218-7.091-4.036-7.518-8.958-1.013-11.776-1.82-12.156-12.599-6.885z"/><path fill="#a06046" d="M213.55 441.342c-1.979 5.73-3.055 11.617-2.786 17.695.728 2.596 1.171 5.192-.285 7.724-2.501 5.16-.981 10.652-1.329 15.986.791 6.236 1.313 12.473-.254 18.677-.459.111-.902.237-1.345.396-2.896-2.643-2.469-6.221-2.374-9.513.237-8.23-1.409-16.366-.586-24.596-.364-1.045-1.266.396-.253.127.522-.143.586.047.586.554 0 1.282.095 3.292-1.33 3.086-2.944-.443-2.627-3.34-3.055-5.556-.791-10.209.918-20.259 2.375-30.278.443-2.976.823-5.587-1.045-8.104.522-9.022 3.83-17.474 5.318-26.306 5.54-6.046 12.931-6.853 20.481-7.265 1.757.523 3.609.95 3.577 3.372-8.547-1.504-11.791 2.548-13.232 10.715-1.962 11.064-4.922 21.921-4.447 33.302z"/><path fill="#f9a475" d="M231.229 397.325c-.617-1.33-1.82-1.63-3.118-1.757-4.432-1.646-8.563.095-12.789 1.06-2.706.618-6.537 1.868-7.613-1.25-1.235-3.593 2.374-5.097 5.445-6.046.744-.222 1.503-.333 2.247-.491 4.131-7.091 3.277-8.848-5.413-11.174-5.081 1.282-10.304 2.026-15.369.759-3.687-.918-7.819-2.833-1.867-6.9 7.66-3.562 15.812-3.372 23.979-3.087 2.801.095 5.081 1.156 6.806 3.356 6.22 1.662 11.032 5.698 15.938 9.528 4.844 3.783 3.419 9.512 3.72 14.467.221 3.703-3.894 2.374-6.062 3.323-2.121-.079-4.179-.38-5.904-1.788"/><path fill="#3e091b" d="M248.576 272.396c3.229 1.504 6.458 3.008 9.671 4.527 1.725 5.54 4.637 10.51 7.471 15.527a138.6 138.6 0 0 1 17.379 27.999c1.092 2.343 2.674 4.59 1.788 7.424l-.427-.048c-6.157-10.81-13.976-6.489-21.716-2.327-7.93 4.274-16.461 2.153-24.707 2.058-4.163-.047-5.366-4.511-7.028-7.74-1.994-2.991 0-5.492 1.156-7.977 2.88-6.109 5.935-12.124 9.022-18.123 2.991-5.808 5.967-11.554 5.096-18.439-.174-1.345-.206-3.34 2.311-2.881z"/><path fill="#8d422e" d="M248.577 272.396c1.361 13.612-6.933 23.932-12.077 35.328-1.82 4.036-3.672 8.072-5.508 12.092-9.497 11.554-7.107 23.315-.791 35.28 1.155 2.185 4.368 4.543.775 7.376-8.009-6.157-10.003-15.986-14.751-24.137 1.535-13.992 8.151-26.211 13.596-38.826 2.342-4.02 4.052-8.294 5.539-12.71 2.121-6.315 1.931-12.139-2.801-17.283-1.979-2.232-3.941-4.464-5.92-6.696-.269-2.026.586-2.864 2.596-2.516 3.45 3.577 7.851 5.27 12.551 6.394a2284 2284 0 0 1 6.775 5.714z"/><path fill="#f3dfc6" d="M254.781 391.041c-1.503 2.548-3.45 5.302-6.568 4.543-3.751-.918-2.311-4.622-2.517-7.329a433 433 0 0 1-.3-4.685c13.516-11.586 24.881-24.992 34.124-40.218 4.764 3.609-.506 7.677.523 11.459-2.865 7.677-5.208 15.686-13.153 20.007-4.084 1.503-6.854 4.59-9.513 7.819-1.424 1.883-2.39 4.178-4.099 5.713-4.242 3.783 2.184 1.172 1.519 2.691z"/><path fill="#b97557" d="M216.778 338.952c2.185 1.076 4.211 2.422 4.701 4.954 1.361 7.138 7.265 11.902 9.497 18.566-.443 1.092-.871 2.168-1.314 3.26-2.168.76-4.384-2.801-6.537.064-4.337.364-6.584-2.707-9.006-5.508-.38-.807-.617-1.662-.775-2.533a63 63 0 0 1-.127-13.026c.222-2.374-.032-5.35 3.577-5.777z"/><path fill="#5c6e7c" d="M284.885 327.873c-6.046-12.109-12.441-23.995-20.703-34.774.348-7.265 2.089-8.436 9.433-6.363 7.075 8.911 14.103 17.87 21.241 26.733 1.346 1.678 2.564 3.261 2.58 5.492-3.862 3.435-7.882 6.632-12.551 8.927z"/><path fill="#33283d" d="M273.616 286.736c-4.59-.031-8.816.491-9.433 6.379-2.121-5.334-8.136-9.259-5.936-16.176 8.247 2.311 16.509 4.637 24.755 6.948-2.548 2.849-6.917-.269-9.386 2.865z"/><path fill="#b98e69" d="M265.734 373.631c4.653-2.818 7.772-6.822 9.576-11.95.95-2.675 1.757-5.54 4.732-6.87 2.042 1.362 5.461 1.393 5.698 4.543.206 2.976-2.849 3.514-4.843 4.194-6.046 2.09-2.706 8.389-5.635 11.792l.095-.079c-1.804.934-3.244 2.516-5.223 3.134-4.796 1.519-6.426.047-4.384-4.764z"/><path fill="#b38359" d="M294.983 336.277c2.944 2.944 2.311 5.587 1.915 8.104-.285 1.788-.316 3.245 1.995 3.086 3.893-.269 3.814 2.185 2.785 4.495-1.044 2.343-2.437 4.068-6.03 2.818-6.299-2.2-9.481-4.796-4.511-11.301 1.535-2.01 2.438-4.495 3.846-7.186z"/><path fill="#cb9571" d="M216.779 338.952c-3.245 6.664-.649 13.739-1.488 20.56q-4.558 2.676-6.283-3.039c1.63 10.098 2.674 11.175 9.702 10.004 2.2.553 4.859.633 4.463 4.051.127.428.238.855.349 1.282-10.447-2.722-20.687-1.392-30.849 1.536-5.682-.982-3.023 3.608-3.846 5.84-.032 1.852-.016 3.688-.633 5.477a3.9 3.9 0 0 1-1.456 1.709c-.491-1.06-.966-2.105-1.456-3.166-3.435-5.286-2.723-10.652.886-15.226 3.514-4.447 4.986-8.99 3.846-14.466.301-3.546 1.852-6.379 5.746-6.094 5.983.443 5.587 6.062 7.154 9.924.601.142.918-.127.902-.807-.016-13.565-1.393-27.272 4.273-40.266.839-1.931 0-4.163 0-6.268.539-3.53 2.47-5.397 6.142-5.793 8.99-.965 11.981-4.685 11.253-13.802-.269-3.292-1.646-6.616.681-9.702l.19-.238c2.105 0 4.226.016 6.331.032 4.986 6.774-.491 12.805-1.361 19.152-1.567 7.692-5.429 14.561-9.022 21.288-3.118 5.825.174 13.264-5.508 17.996z"/><path fill="#e6c39d" d="M265.733 373.631c.222 2.421-.348 5.65 4.005 3.624 1.788-.839 3.735-1.329 5.603-1.978-2.042 4.02-6.3 5.349-9.576 7.882-3.64 2.042-7.059 2.817-9.528-1.709 2.722-3.134 4.827-7.028 9.481-7.804z"/><path fill="#cd9970" d="M256.253 381.434c2.928 1.931 6.22 1.915 9.528 1.709-2.738 3.941-6.394 6.569-11 7.898-1.694.285-3.387.57-6.031 1.013 2.849-4.052 5.176-7.344 7.487-10.62z"/><path fill="#e89476" d="M223.157 370.528c-1.535-1.06-3.087-2.105-4.622-3.165-4.827-.19-5.16-2.659-3.213-6.3 3.767-.348 4.938 3.593 7.803 4.749.57 1.567 2.849 3.134.048 4.732z"/><path fill="#3b130d" d="M196.234 130.263c-3.577-8.231-.617-11.491 11.143-12.235 4.368-.728 7.929.855 10.003 4.59 1.741 3.134.617 6.109-2.343 8.23-4.131 1.536-6.489-2.105-9.686-3.308-4.543-4.146-6.031 1.995-9.133 2.723z"/><path fill="#e7926c" d="M214.04 130.706c4.78-7.486 3.973-9.022-6.647-12.662-1.456-2.77-4.939-.76-6.87-2.738 6.157-3.245 22.523 4.178 22.302 10.478-.159 4.685-4.701 6.093-9.101 6.252-.538-.444-.681-.776-.412-1.029.222-.206.459-.301.713-.301z"/><path fill="#f3e0d7" d="M196.234 130.263c.554-4.068 2.802-6.901 6.838-7.471 3.245-.459 2.342 2.675 2.865 4.479 1.329 1.456 1.393 3.008.332 4.622-3.419-.111-7.106 1.519-10.035-1.646z"/><path fill="#a94e32" d="M182.116 170.355c-3.846-.713-7.566-1.662-11.966-6.537 10.921 4.384 19.975 6.109 27.841-1.646 3.767.395 1.789 2.01.538 3.102-4.701 4.068-10.43 5.017-16.397 5.081z"/><path fill="#be724b" d="M179.029 157.313c-10.098-1.995-11.791-5.651-6.584-13.881.918-1.457 1.266-3.277 1.884-4.939 1.741.934 2.152 2.691 1.108 3.941-5.556 6.68-2.264 11.032 3.577 14.863z"/><path fill="#c45943" d="M182.306 177.556c-4.021-7.043 2.991-3.102 4.558-4.59 1.251.206 3.023-.032 3.625.696 1.092 1.346-.728 2.074-1.551 2.834-1.931 1.788-4.29 1.519-6.632 1.06"/><path fill="#713529" d="m206.269 131.909-.332-4.622c4.827-3.909 4.542 4.321 8.103 3.419-.11.443-.221.886-.3 1.33-2.485-.048-4.97-.08-7.455-.127z"/><path fill="#b46c44" d="M186.706 153.941c-2.612 0-3.815-1.693-3.292-3.862.348-1.408 2.706-2.263 3.846-1.456 2.453 1.741-.934 3.466-.57 5.35v-.032z"/><path fill="#d36945" d="M210.542 237.67c-6.996.823-12.393 5.413-18.677 7.898 3.308-9.338 8.927-17.395 14.72-27.778.902 8.326-3.577 12.821-5.144 18.661 3.261.808 5.84-1.757 8.705-1.662 4.717.159.475 1.868.396 2.865z"/><path fill="#bc462c" d="M251.869 142.086c.269 4.052-.808 6.822-5.065 6.3-1.646-.206-5.129.443-4.163-2.96 1.013-3.514 3.181-7.139 7.027-7.708 2.992-.443 1.884 2.928 2.201 4.368"/><path fill="#e9d7b2" d="M191.549 353.165c2.564 5.635 1.694 10.637-3.023 14.688-5.049 4.337-2.406 10.194-3.276 15.353-5.319 8.642-6.806 18.804-11.08 27.857-.87 1.836-1.947 3.577-2.928 5.366-1.567-16.129-3.625-32.32 1.567-48.196 4.796-14.64-.222-28.062-4.764-41.563-.744-2.232-1.931-4.29-1.646-6.759 5.46-2.754 7.502-7.376 7.486-13.279 0-2.517-.285-5.224 1.947-7.186 1.899 1.029 3.197.918 3.229-1.662 2.042 5.191 3.735 10.573 6.252 15.527 2.2 4.337 5.144 8.468 11 8.278.285.301.57.617.871.918.158 9.465.934 19.057-5.651 27.145-.854 1.044-.965 2.358 0 3.529z"/><path fill="#c39b72" d="M175.848 299.446c-.332 5.824.855 11.712-2.184 17.331-1.82 3.356-3.767 4.511-7.249 3.134 2.627-10.905-7.645-15.495-11.412-23.282-1.25-2.58-2.453-5.129-2.596-8.057 3.625-3.134 8.99.633 12.457-3.134 6.679-2.216 10.731-1.187 9.686 7.234-.269 2.168.808 4.495 1.282 6.758z"/><path fill="#e0c39c" d="M164.879 285.438c-2.121 9.165-8.388 1.789-12.472 3.134-.617-4.083-.317-8.879 3.561-10.177 4.954-1.646 5.777 4.748 8.895 7.043z"/><path fill="#b27d5a" d="M226.148 280.738c.396 6.663 2.817 13.232.095 20.006-1.868 4.637-3.846 8.183-9.718 5.682-4.353-1.852-6.3.57-7.36 4.368-1.82 8.817-5.603 12.014-12.947 10.985l.111-.206c.506-1.614.997-3.245 1.503-4.859 7.075-7.55 9.988-17.094 12.868-26.67 3.102-1.725 5.223-1.82 3.941 2.691-.981 3.435-2.057 7.455 2.802 7.835 4.4.332 5.239-3.609 5.872-7.582.649-4.099-3.039-9.37 2.817-12.266z"/><path fill="#b57c5b" d="M231.309 299.667c-.997-6.489 2.532-12.646 1.361-19.151-.032-3.672-.079-7.328-.111-11 6.395 3.292 7.645 8.309 5.413 14.893-1.804 5.287-2.564 10.985-6.663 15.274z"/><path fill="#c8a685" d="M169.422 705.27c-4.796 1.915-4.86 9.259-11.032 9.607-3.957 1.361-6.031-2.295-9.291-3.529 1.329 3.45 4.147 5.413 6.283 7.914 6.98 8.246 6.648 19.104-1.076 26.796-2.263 2.248-4.875 6.094-8.452 3.166-2.786-2.295-2.596-6.062.079-9.07 2.723-10.43-3.482-18.708-6.806-27.619-1.535-4.115-3.957-7.898-5.967-11.824.032-2.611.032-5.223 1.013-7.708 4.036-10.114 5.223-20.655 4.748-31.465-.126-2.833-.142-5.777 1.805-8.215 4.859.095 3.434 3.989 4.036 6.648.032 1.029-.317 2.026-.301 2.152 11.649-19.436 18.44-41.516 23.283-64.276.285-1.298.87-2.469 2.026-3.261 2.58 1.219 1.947-1.234 2.548-2.247 2.01-3.403 4.131-4.337 6.553-.348 2.485 13.121-.902 26.115-.633 39.189.427 21.558-.76 43.02-4.638 64.261-.649 3.577-.839 7.391-4.194 9.829z"/><path fill="#e1cca7" d="M141.201 653.165c.349 16.35.475 32.684-8.024 47.547-10.162-13.027-10.621-13.312-22.966.617a15.46 15.46 0 0 0-3.783 8.484c-.238 2.057-.412 4.843-3.245 4.21-2.675-.602-1.757-3.593-1.456-5.382.807-4.859 1.931-9.686 3.213-14.45 2.58-9.513 3.925-19.342 7.613-28.554 2.849-5.27 3.055-11.285 4.511-16.92a4102 4102 0 0 1 10.225-38.778c1.313-4.906 3.324-9.433 6.363-13.406 1.566-2.057 3.213-5.27 6.821-2.627 1.346 2.548 1.425 5.286 1.314 8.072.681 14.862-.681 29.788 1.108 44.618.285 2.343.206 4.733-1.709 6.569z"/><path fill="#f6e8c4" d="M139.381 593.083c-9.972 8.198-10.636 20.592-13.929 31.671-4.099 13.786-7.407 27.794-11.095 41.69-.111.396-.491.713-.744 1.061-.348-.617-.696-1.235-1.06-1.852.095-1.44.205-2.881.3-4.321 1.045-19.595 8.864-37.733 12.061-56.869 5.208-22.776 8.959-45.758 10.985-69.057a3450 3450 0 0 0 5.065-65.02c2.215-11.095 2.928-22.381 4.115-33.603.206-1.028-.364.111.158-.728 1.377-2.263-.696-7.85 3.989-6.473 3.703 1.092 6.505 5.175 4.938 10.114-.396 1.234-1.029 2.39-1.773 3.45-3.83 5.429-4.147 10.969-.585 16.635 1.424 2.264 2.31 4.638 1.662 7.36-.855 2.802-4.559 4.828-2.359 8.515 4.954 6.601 1.789 13.612.902 20.418-.649 5.002-2.263 9.56 4.875 11.76 3.941 1.219 3.213 5.445 1.583 8.769-1.646 3.34-4.511 5.73-6.774 8.579-5.73 10.224-3.878 22-6.727 32.795.269 8.705-.681 17.315-1.836 25.91-.459 3.355-.776 6.853-3.751 9.211z"/><path fill="#c49c7a" d="M126.829 605.761c-4.068 18.661-8.61 37.211-13.96 55.555-.032-3.593-.934-5.761-5.033-3.308-1.979 1.171-3.514 3.276-6.173 3.102-3.371-9.338.079-17.442 4.574-25.356 1.662-7.866 3.308-15.717 4.97-23.583 3.007-5.255 7.993-6.838 13.58-7.344a4.2 4.2 0 0 1 2.058.949z"/><path fill="#a76a51" d="M202.581 465.115c.095 1.551.19 3.118.3 4.701 2.39.253.428-2.928 2.375-2.833 2.58 11.491 2.136 23.172 2.295 34.821 0 37.813-3.308 75.451-6.078 113.121-1.773 24.058-3.926 48.053-6.616 72.016-.238 2.074.063 4.242-1.488 5.968-6.695 3.07-6.679-2.264-6.901-6.031-.649-10.446-.095-20.908-.269-31.37 3.403-39.143 7.328-78.237 7.993-117.569 1.424-21.463 2.928-42.925 4.59-64.372.237-3.165-.712-7.122 3.815-8.452z"/><path fill="#b07559" d="M188.463 656.362c0 8.658-.064 17.331.016 25.989.047 4.179-1.789 9.354 4.859 10.557.047 16.002-4.116 31.418-6.569 47.056-3.276-4.574-8.088-2.754-12.409-2.991-.696-4.622 1.266-9.56-3.656-13.612-2.833-2.327.127-6.521 1.709-9.18 2.723-4.606 1.156-7.012-2.991-8.911 4.859-23.568 6.727-47.389 6.442-71.431-.174-14.609 2.659-29.107 1.614-43.764.428 0 .839-.031 1.266-.047 2.992 2.611 2.549 6.236 2.39 9.528-.823 17.094 4.511 33.761 3.372 50.871-.19 2.849.87 5.144 3.973 5.935z"/><path fill="#262746" d="M208.896 501.424c.08-6.236.159-12.456.254-18.677 3.244 8.246.443 16.746 1.646 25.847-2.802-2.548-1.33-5.049-1.9-7.154zm1.583-34.663.285-7.724c2.754 4.543.87 9.354 1.314 14.641-2.438-2.39-1.061-4.828-1.599-6.917"/><path fill="#9b9d98" d="M92.135 607.312c-.08 2.231-.808 4.115-3.261 4.495-2.026.316-2.928-.855-2.152-2.723.823-1.962.221-5.175 3.308-5.333 1.709-.095 2.073 1.931 2.105 3.561"/><path fill="#ead7b3" d="M149.257 474.834c-3.087-3.862-.332-5.239 2.754-6.474 3.53-2.643 2.738-5.366.601-8.61-5.429-8.215-4.004-14.119 4.416-19.817 3.435-2.073-.854-9.306 3.941-8.563 4.48.697 1.393 6.696 2.232 10.241.285 1.203.428 2.438.855 5.002 4.906-7.218-.016-13.359.76-19.294.838 1.266 1.662 2.516 2.817 4.273 7.407-14.087 11.269-29.566 20.719-42.228 4.368-.665 5.808 2.864 7.866 5.508 2.833 4.083 1.646 9.211 3.482 13.564 1.029 2.517 2.073 5.302-1.013 6.901-2.849 1.472-4.891-.412-6.584-2.691-1.092-1.488-1.821-4.732-4.48-2.548-2.279 1.883-1.994 4.558 0 6.98 6.458 7.803 6.458 7.851-.823 15.495-3.403 3.577-6.932 6.442-.506 11.064 4.099 2.944 2.627 9.861-1.963 14.672-2.516 2.628-6.173 4.036-8.056 7.376 5.508 2.628 6.853 5.935 4.178 10.589-1.44 2.485-3.877 4.305-4.78 7.154-2.168 5.651-1.472 13.327-10.113 14.435-2.09-.301-3.578-2.01-5.635-2.469-6.79-1.551-7.392-2.691-4.543-8.816 1.203-2.564 2.723-4.986 4.068-8.484-4.843 2.469-8.088.981-10.241-3.213z"/><path fill="#e6d2ad" d="M120.577 556.837c2.628-24.296 5.255-48.575 10.241-72.539 1.472-7.122 2.69-14.308 3.972-21.462.317-1.757-.063-4.052 2.296-4.369 2.295-.3 2.152 2.675 3.735 3.562a3.95 3.95 0 0 1 1.614 2.247c-2.295 27.857-4.352 55.73-7.692 83.492-2.738 7.755-4.938 9.18-14.15 9.085z"/><path fill="#d5b790" d="M120.577 556.837c3.815-3.102 10.589-1.63 12.314-7.977 4.305 4.352.649 9.053.143 13.343-1.725 14.688-3.609 29.392-7.883 43.637-4.938 1.488-9.607 3.561-13.96 6.315 2.612-18.534 3.878-37.29 9.386-55.318"/><path fill="#d6bf96" d="M157.044 439.933c-1.044 1.504-2.136 2.944-3.102 4.495-3.213 5.192-5.08 9.893.823 15.132 4.21 3.719 2.833 6.806-2.738 8.816.602-3.293-.633-5.762-2.564-8.531-3.53-5.05-3.783-11.286 0-15.86 4.558-5.476 4.463-9.386-1.266-13.501-.665 1.519-1.409 3.213-2.153 4.922-1.424-.554-.601-2.263-1.583-3.039.238-8.119 1.836-15.986 4.733-23.551.839-2.2 1.045-6.252 4.163-5.524 3.608.839 4.526 5.16 4.495 8.373-.032 3.007-2.105 7.281-5.651 5.761-4.637-1.994-3.055.95-3.197 2.738-.364 4.337 2.707 7.202 4.796 10.415 1.883 2.896 3.561 5.761 3.213 9.37z"/><path fill="#a68564" d="M144.477 432.352c.523 1.013 1.045 2.026 1.583 3.039-.649 11.696-1.06 23.425-3.055 35.011-2.231-1.757-.111-4.638-1.693-6.569-.174-.601-.333-1.203-.507-1.804 1.219-9.893 2.453-19.785 3.672-29.677"/><path fill="#d16143" d="M194.809 395.694c-2.121-2.136-3.466-5.064-6.426-6.331a496 496 0 0 0-1.662-2.975c.111-.538.222-1.077.333-1.599 3.672-5.54 8.452-3.26 12.377-1.013 4.337 2.485-.522 3.15-1.63 4.638 5.065 1.218 9.655-.823 14.403-1.631 3.07-.522 7.217-1.598 6.252 4.258-3.751.111-8.009-1.013-10.162 4.4 6.806.238 13.407-3.292 19.801.127-6.933.76-13.644 2.137-19.262 6.663-5.714.064-9.861-3.276-14.024-6.537"/><path fill="#ddc3a0" d="M194.809 395.694c4.828 1.852 10.004 2.96 14.024 6.537-1.266 8.579-2.96 17.063-6.236 25.151-.459 3.07 1.709 6.315-.57 9.291-2.074 6.394-5.207 12.472-5.302 19.404-.159 2.454-.887 4.733-2.026 6.885-2.802 5.54-4.068 11.555-5.619 17.49-.712 2.738-1.298 5.492-3.514 7.502-1.931 1.251-3.719 2.201-4.416 5.002-4.954 19.816-11.253 39.316-13.406 59.766a347 347 0 0 1-14.055 71.636c-1.33 4.305-1.868 11.871-6.822 10.921-5.46-1.044-3.371-8.42-2.912-13.042.855-8.578 5.065-16.619 4.432-25.498-1.741-13.264-3.72-26.496-5.556-39.744.918-8.499 3.356-16.761 3.482-25.419.032-2.738.792-6.363 4.147-7.962 9.117-1.788 11.349-8.626 12.219-16.54.38-3.482-.839-7.328 2.168-10.272 8.31-1.329 6.49-9.291 9.291-14.229 1.868 2.311.269 5.081.982 7.297.111 1.298 1.567.269.554.522-.269.063-.38-.127-.459-.554-.871-5.017.237-9.323 4.416-12.599 2.849-2.232 3.687-4.922 1.709-8.23-2.374-3.957-.617-6.632 2.485-9.45 6.901-6.283 7.566-9.417 3.134-17.869-2.517-4.796-1.947-8.041 1.883-11.697 4.543-4.337 7.756-9.86 11.143-15.115 1.425-2.2 3.862-6.268-2.327-6.395-1.867-4.067.08-8.99-2.88-12.804z"/><path fill="#d2b292" d="M201.14 434.742c2.042-2.137-1.931-5.493 1.472-7.36 3.735 1.108 3.229 3.893 2.738 6.742-1.757 10.257-3.276 20.545-2.769 30.991-3.008 8.753-1.457 17.98-2.644 26.955-1.535 11.538-2.58 23.282-2.121 35.043.143 3.577-.934 7.185-1.456 10.794-3.292 4.305-3.229 10.114-5.951 14.435-6.664 10.605-10.304 21.969-11.111 34.378-.079 1.298-.871 2.453-1.852 3.403 0 0 0-.032.016-.032-3.387.174-3.91 2.897-4.748 5.35-.222.665-.46 1.535-1.33.633-.317-.316-.285-.981-.412-1.488-3.798-4.416-1.044-9.227-.221-13.517 5.445-27.936 7.961-56.331 13.849-84.172 2.485-11.712 5.667-23.267 8.61-34.884 1.013-1.868 1.757-3.799 1.488-5.999 1.979-7.138 4.701-14.055 6.426-21.288z"/><path fill="#ef7754" d="M218.456 391.025c-1.947-6.172-5.824-2.136-8.8-1.472-5.935 1.314-11.871 3.767-17.157-1.867 2.089-2.501 4.764-.586 6.727-1.789.11-.158.205-.332.316-.49-4.115-1.188-8.151-3.736-12.472-.634l.047-6.536c4.226-2.264 8.642-.19 12.963-.459 4.195-.254 8.262-.428 12.029-2.485 8.136 2.817 10.383 7.993 6.363 15.732z"/><path fill="#ae4f29" d="M212.093 375.293c-7.755 5.856-16.635 2.136-24.992 2.928-.047-3.799.159-7.313 5.556-4.875-.839 3.07-.855 3.26 1.741 3.45 5.967.428 11.839-.395 17.695-1.503"/><path fill="#a35336" d="M215.322 361.063c0 2.644.412 5.081 3.213 6.3-2.769 3.244-6.331.934-9.211 1.488 4.21-5.619-6.11-10.32-1.267-15.733 4.527-.174-.68 10.272 7.234 6.394a6.2 6.2 0 0 0 .047 1.535z"/><path fill="#dfbd96" d="M196.218 321.779c7.044-.443 9.623-6.157 12.947-10.985 3.482 5.208.317 10.463-1.234 14.831-1.9 5.334-3.008 10.114-2.264 15.749.665 5.096.222 10.367.048 15.558-.048 1.552 1.234 4.306-1.567 4.369-2.422.047-4.622-1.662-4.337-4.559.222-2.136.776-4.305-.807-5.951-3.894-4.052-6.252-2.532-7.439 2.359-1.472-1.14-1.773-2.675-.855-4.163 5.255-8.405 3.751-18.139 5.524-27.224z"/><path fill="#eccb9c" d="M167.617 303.64c-2.01-.665-2.722-2.152-2.738-4.099-.016-1.915.475-3.989 2.516-4.115 2.628-.159 2.153 2.326 2.137 3.972 0 1.631.617 3.72-1.915 4.258z"/><path fill="#b07b5b" d="M150.46 596.47c.491 6.378-.554 12.52-2.802 18.487-2.39 6.315-1.867 12.868-.807 19.594 5.176-9.227 7.629-19.468 9.924-29.613 3.783-16.809 8.183-33.555 8.31-50.982 0-.649.791-1.282 1.203-1.931 5.476 1.124 4.954 5.192 4.242 9.086-2.849 15.653-2.406 31.877-8.358 46.961-.759 1.915-.253 3.561.539 5.254-.206 11.713-5.366 22.017-9.545 32.558-1.408 3.577-3.149 7.123-5.064 10.51-1.203 2.121-1.694 5.207-5.271 4.764-.57-2.659.776-5.714-1.646-7.993-2.659-17.284-1.915-34.679-1.63-52.042 3.735-.111 1.741 2.849 2.358 4.321.079-3.767 1.82-6.932 4.321-9.686 1.63-1.805 3.134-1.504 4.21.712z"/><path fill="#925c3e" d="M142.847 661.158c7.423-8.484 10.288-19.199 13.77-29.471 1.979-5.857 4.828-11.634 4.954-18.06-1.424-3.862.823-7.186 1.694-10.652 5.175-20.592 6.632-41.785 10.288-62.631 2.675-15.242 5.112-30.515 7.724-45.758.506-2.959 1.234-5.618 3.862-7.375 2.865-8.357 3.387-17.458 8.088-25.214-1.536 15.606-6.331 30.611-8.721 46.059-4.432 28.854-9.006 57.676-13.517 86.499-2.09 8.04-4.147 16.096-6.268 24.137-4.463 16.983-11.57 32.779-20.608 48.037-2.105-2.01-1.187-3.878-1.266-5.587z"/><path fill="#caa781" d="M150.46 596.47c-6.537-.111-5.049 6.806-8.673 9.417-1.488-1.013 0-3.83-2.216-4.764l-.19-8.04c1.614-11.982 3.799-23.9 3.466-36.072 5.635 3.324 2.469 9.054 3.387 13.549 1.741 8.547 4.464 17.015 4.226 25.894z"/><path fill="#c3a07e" d="M164.863 496.818c-.253 6.996 1.092 14.261-2.628 20.703-2.5 4.321-4.969 9.639-11.76 6.109 2.248-3.197 6.015-5.255 7.202-9.243 1.061-3.546 1.124-6.885-4.02-5.508-4.59 1.234-5.065-1.029-4.685-4.448.427-3.909.665-7.882 1.63-11.665 1.583-6.204 1.994-12.171-1.345-17.933 4.558 4.543 8.673 3.419 12.994-2.785.301 9.116-6.362 13.991-7.122 22.064 4.859-3.293 7.66-1.219 9.734 2.69z"/><path fill="#946a47" d="M141.312 463.817c2.216 1.773.87 4.448 1.693 6.569-2.959 45.41-5.175 90.914-16.16 135.359-.554.031-1.124.063-1.678.079 2.47-16.936 4.955-33.871 7.376-50.807.285-2.026.253-4.115.364-6.173 2.802-28.348 5.619-56.695 8.421-85.043z"/><path fill="#c8a685" d="M177.462 590.107c.08-7.581-1.06-17.632 2.28-22.127 7.043-9.481 7.312-22.301 16.619-30.057.918 25.103-2.833 49.921-4.29 74.865-.854 14.578-1.931 29.092-3.592 43.59-1.726.665-1.931 4.337-3.657 3.229-1.519-.966-2.358-3.941-2.469-6.078-.475-9.876.918-19.99-1.836-29.582-3.229-11.174.649-22.808-3.055-33.824z"/><path fill="#bb9974" d="M197.69 408.499c.491-2.026 1.203-3.719 3.656-1.931 2.121 1.551 2.881 3.277 1.694 6.062-3.039 7.123-8.009 12.9-13.042 18.519-2.96 3.308-4.163 5.318-1.345 9.734 5.793 9.133 4.637 14.514-4.226 20.687-3.483 2.421-3.024 4.115-1.504 6.901 1.345 2.485 3.403 5.128.237 7.692-5.808 4.685-10.019 9.892-5.84 18.408-4.638-3.688-2.311-8.136-3.166-11.966.079-2.675 2.153-4.036 3.657-5.825 4.004-4.748 3.735-5.65-2.169-8.373-2.026-.933-1.994-4.036.427-6.22 2.137-1.915 4.86-3.197 6.965-5.128 5.476-5.033 4.954-10.652-1.409-13.754-3.324-1.615-2.327-3.514-1.377-5.746 1.741-4.004 5.334-6.442 8.183-9.497 3.53-3.782 5.508-7.027-1.725-8.594-4.274-.918-3.071-4.432-2.802-7.043.301-2.834 1.266-6.157 4.654-6.49 2.991-.301 4.495 2.01 4.875 5.033.284 2.28 1.598 4.464 4.146 3.372 3.577-1.52.855-3.846.08-5.841z"/><path fill="#c29471" d="M185.139 487.226c-3.625 21.131-7.202 42.261-10.906 63.391-3.703 21.114-5.998 42.513-12.662 63.026-3.45-1.488-2.643-3.72-1.456-6.426 6.822-15.622 4.827-32.938 9.101-49.082.601-2.311-.981-4.527-2.928-6.11.934-15.178 4.384-29.835 8.816-44.317 1.598-5.208 4.083-10.178 4.052-15.86-.016-3.83 2.041-5.634 5.998-4.622z"/><path fill="#a06046" d="M201.141 434.742c-.681 7.534-2.96 14.593-6.426 21.272.791-7.502 3.213-14.514 6.426-21.272"/></svg>