<svg width="544" height="605" viewBox="0 0 544 605" fill="none" xmlns="http://www.w3.org/2000/svg">
<path d="M393.417 458.911C397.184 481.956 401.03 504.985 404.718 528.046C413.597 583.507 421.116 639.252 441.011 692.26C448.355 711.839 458.706 729.676 471.685 746.074C476.212 751.804 481.008 754.447 487.845 750.838C496.108 746.486 503.103 748.575 510.448 753.671C519.058 759.638 528.459 764.402 537.418 769.879C539.855 771.367 543.812 771.857 543.1 776.273C541.185 781.94 536.468 782.43 531.546 782.573C529.726 782.288 527.937 781.671 526.085 781.892C513.486 783.38 501.726 779.122 489.681 776.764C472.477 770.829 458.39 760.414 446.329 746.897C435.313 734.551 426.402 720.734 417.475 706.9C399.922 676.337 385.456 644.27 372.176 611.728C363.265 589.886 355.367 567.6 347.406 545.378C338.463 520.449 330.122 495.22 318.837 471.209C313.376 459.607 308.707 447.562 301.917 436.594C300.476 434.267 300.049 431.719 300.302 429.028C303.673 422.159 306.586 421.684 311.556 427.382C318.488 435.343 320.768 445.615 324.629 455.017C334.253 478.537 344.873 501.646 352.138 521.114C345.348 501.028 335.123 477.303 325.975 453.165C321.606 441.627 316.13 430.532 312.11 418.851C311.508 417.125 310.543 415.511 309.973 413.77C308.928 410.541 307.219 407.106 309.72 404.02C312.426 400.665 315.987 402.96 319.343 403.482C317.602 400.649 315.37 398.401 313.423 395.932C309.071 390.424 307.63 384.678 309.482 377.556C311.556 369.5 312.189 361.095 313.487 352.865C312.949 350.744 311.746 349.019 310.274 347.452C306.602 343.574 304.417 338.762 302.439 333.966C300.445 329.139 298.229 327.952 293.781 331.371C291.249 333.317 288.637 336.135 284.696 334.615C284.205 334.014 283.92 333.333 283.841 332.558C287.498 325.847 293.512 322.111 300.381 319.436C305.826 322.634 308.438 328.126 311.587 333.207C312.79 335.138 313.408 338.287 316.162 337.955C319.058 337.623 318.71 334.441 319.153 332.209C319.454 330.674 319.612 329.091 320.72 327.857C322.208 327.239 323.252 327.983 324.06 329.06C336.057 344.856 350.001 359.117 361.144 375.609C363.059 378.442 365.339 381.133 363.376 384.884C359.166 391.5 365.259 393.463 368.694 396.597C375.073 399.636 377.083 405.777 378.998 411.728C383.414 425.403 388.083 439.015 391.264 453.07C391.723 455.128 392.388 457.106 393.417 458.958V458.911Z" fill="#691316"/>
<path d="M153.736 75.4987C152.723 74.549 152.201 73.4094 152.486 72.0008C154.211 66.3661 159.276 64.9099 163.929 63.5487C178.997 59.1328 194.271 58.9429 209.608 62.235C222.809 65.0682 235.249 70.3547 248.007 74.5807C249.447 74.6124 250.887 74.3908 252.328 74.4541C253.784 74.6598 254.607 75.9261 255.841 76.5433C280.564 77.4772 289.665 114.071 280.833 131.212C279.282 134.236 277.525 137.164 275.8 140.092C272.682 145.41 271.938 150.886 274.455 156.648C280.881 171.336 281.593 186.594 278.918 202.168C276.069 218.708 277.082 234.172 290.963 246.106C288.383 250.285 286.167 246.977 284.284 245.536C276.291 239.411 269.627 232.035 264.388 223.409C262.79 220.782 259.909 217.743 262.568 214.926C265.401 211.918 266.952 217.743 270.498 216.999C270.165 210.51 266.383 205.54 263.185 200.285C258.896 193.242 252.692 186.736 255.746 177.255C255.984 176.512 255.952 175.451 255.271 175.055C250.634 172.333 245.601 173.568 240.726 173.916C237.038 174.185 236.516 177.208 236.294 180.294C234.996 198.386 242.878 212.836 254.338 225.863C256.253 228.031 258.437 229.93 260.479 231.972C264.673 236.182 262.236 237.607 257.851 238.24C255.446 238.382 253.056 238.303 250.729 237.607C248.814 236.974 247.231 235.628 245.3 235.027C229.013 228.996 217.633 218.851 216.351 200.285C216.209 192.846 215.876 185.423 216.525 177.999C219.358 169.183 228.095 164.546 231.799 156.363C235.012 152.722 238.826 152.263 243.227 153.989C247.801 155.793 252.138 155.571 255.113 151.045C258.215 146.312 258.358 140.994 256.474 135.897C255.224 132.479 252.074 132.653 249.114 133.919C246.123 135.217 244.224 137.844 241.945 139.997C239.064 142.719 236.104 143.621 233.287 139.839C231.292 134.885 232.717 129.646 231.926 124.596C231.751 123.868 231.656 123.124 231.609 122.381C233.398 116.635 226.623 115.353 225.689 111.032C231.625 104.828 238.921 106.569 246.076 107.582C246.25 107.107 245.981 106.806 245.522 106.363C243.211 104.179 237.576 102.675 239.539 99.4936C241.929 95.6158 246.012 99.7152 249.004 101.298C251.774 102.754 254.512 104.289 257.408 105.508C261.571 107.661 263.391 111.76 265.939 117.078C266.968 110.937 268.234 106.632 273.331 104.479C277.225 102.833 276.212 99.0979 274.771 96.2806C271.178 89.1897 265.892 83.9033 257.646 82.6054C251.378 81.6241 245.142 81.7507 238.937 83.4442C224.771 87.2904 210.859 86.04 199.178 77.0973C190.093 70.1489 181.166 68.3287 170.688 71.6842C167.222 72.8238 163.819 74.1059 160.701 76.0527C158.295 77.129 155.857 78.3794 153.736 75.5304V75.4987Z" fill="#451120"/>
<path d="M257.392 236.578C258.675 236.356 259.957 236.135 261.777 235.802C251.489 226.907 243.464 216.809 238.098 204.669C234.142 195.742 234.047 186.404 234.252 176.971C234.3 174.707 234.854 172.333 237.212 172.001C243.701 171.13 250.286 170.988 256.759 172.064C258.817 172.396 259.703 174.486 258.485 176.401C253.531 184.22 259.244 189.823 262.552 195.758C265.718 201.425 270.545 206.22 271.891 212.836C272.397 215.305 275.642 218.297 271.669 220.45C267.744 222.57 266.984 218.677 265.338 216.572C264.895 216.002 264.214 215.606 263.059 215.559C266.968 224.976 272.682 233.302 280.738 239.522C283.825 241.912 285.044 247.927 290.932 246.059C304.638 252.327 305.43 252.168 315.48 241.374C321.337 250.95 320.308 260.32 312.616 268.36C311.239 269.8 307.82 270.434 310.131 273.647C311.175 280.12 309.387 282.273 303.261 281.877C297.785 281.513 292.973 278.458 287.513 278.015C278.823 272.792 274.392 264.055 270.435 255.476C267.111 248.259 264.879 240.741 257.392 236.578Z" fill="#59212C"/>
<path d="M133.271 269.5C127.969 264.751 123.853 259.259 122.318 252.137C124.771 249.573 127.557 250.776 130.612 251.472C127.826 249.177 123.125 248.971 123.616 244.049C120.846 238.651 118.741 233.08 119.247 226.828C123.489 226.686 124.075 230.168 125.373 232.953C129.441 242.419 136.99 244.65 150.618 240.377C151.188 237.718 146.36 237.67 147.706 234.964C148.94 232.479 151.71 232.938 154.005 232.748C175.753 230.975 184.442 213.2 172.745 194.84C167.332 186.357 159.497 180.01 153.625 171.969C152.09 169.864 149.937 168.218 149.099 165.606C147.563 158.642 149.099 152.264 152.312 145.948C156.459 147.737 155.319 151.504 156.49 154.179C160.289 168.36 170.83 177.493 181.023 186.847C183.112 188.762 185.867 188.557 188.462 187.654C190.9 186.8 193.211 185.391 195.996 185.913C197.326 186.23 198.418 186.863 199.083 188.113C201.14 196.281 199.716 204.59 200.096 212.821C200.08 215.527 199.558 218.075 197.832 220.26C196.772 221.51 195.395 222.365 194.034 223.251C187.006 227.952 178.617 230.263 172.049 235.787C161.792 245.584 152.027 255.888 141.834 265.749C139.539 267.965 137.513 271.462 133.271 269.484V269.5Z" fill="#420E1A"/>
<path d="M150.666 166.73C161.176 178.522 174.74 188.177 179.125 204.416C183.382 220.133 171.939 234.457 155.589 234.679C153.389 234.71 151.204 234.679 148.64 234.679C150.35 238.62 154.417 236.689 156.127 239.205C148.308 245.774 133.905 246.407 127.368 240.535C125.152 238.541 123.284 236.404 123.759 233.112C127.178 231.481 129.504 235.185 133.825 234.869C131.246 230.579 127.938 227.208 126.339 222.982C124.582 218.36 125.294 216.999 129.789 215.749C132.417 222.776 138.336 225.087 144.873 224.628C152.296 224.106 158.39 220.212 161.366 213.026C164.041 206.553 160.21 201.963 155.779 197.958C150.27 192.972 145.348 187.781 143.734 180.089C142.673 174.992 143.449 170.212 144.509 165.337C147.722 165.385 147.469 167.917 147.342 169.816C146.583 180.817 151.679 188.81 159.387 194.444C155.589 189 150.951 182.89 148.64 175.467C147.643 172.27 146.298 168.772 150.666 166.714V166.73Z" fill="#7B3A2B"/>
<path d="M257.393 236.578C265.243 236.578 267.823 241.105 269.754 248.275C272.793 259.528 279.694 268.962 287.877 277.335C296.171 283.476 300.982 292.418 306.585 300.712C307.092 303.482 310.416 303.593 311.444 305.872C310.289 307.866 313.312 309.338 312.125 311.348C311.492 312.346 310.621 312.694 309.482 312.425C300.507 304.147 295.427 292.513 285.708 284.884C284.458 283.602 283.208 282.336 282.036 280.991C278.95 274.913 272.92 271.241 269.311 265.59C267.253 262.71 263.803 260.763 263.391 256.774C264.119 252.991 262.632 251.045 258.722 250.601C255.873 250.269 253.103 250.601 250.302 250.776C249.178 251.314 245.997 250.538 247.231 252.453C251.014 258.341 245.427 259.829 243.163 262.915C241.976 263.96 240.599 264.546 239.016 264.641C235.408 264.609 232.464 262.741 229.425 261.127C227.288 259.687 225.072 258.389 222.967 256.901C222.904 256.853 221.321 254.827 222.207 257.265C222.381 257.756 222.556 258.23 222.603 258.784C222.524 261.111 221.907 263.248 220.451 265.068C218.504 266.635 216.003 266.382 213.803 267.094C210.922 268.012 208.69 269.5 208.975 273.203C211.381 272.76 211.381 270.355 212.948 269.405C215.623 267.79 217.95 267.996 219.77 270.544C221.812 273.425 221.986 276.496 219.311 279.044C216.683 281.545 213.328 283.238 211.096 286.198C208.96 288.224 206.285 288.667 203.515 288.81C201.615 288.92 199.732 289.126 197.943 289.886C195.728 290.614 193.527 291.738 191.232 290.155C189.112 286.784 189.555 282.637 187.877 279.123C190.283 272.681 211.049 251.203 216.794 248.37C223.917 244.856 232.005 244.571 239.127 241.121C240.789 240.313 241.042 239.696 240.314 238.272C242.958 234.837 246.677 236.182 250.064 236.024C252.518 236.214 254.987 236.404 257.44 236.594L257.393 236.578Z" fill="#ECDBB6"/>
<path d="M362.046 384.742C363.597 382.288 362.489 380.167 361.001 378.3C350.27 364.846 339.634 351.329 328.618 338.113C325.911 334.868 323.711 331.402 321.448 327.92C319.564 327.73 318.725 326.416 318.156 324.818C317.776 323.219 317.902 321.684 318.789 320.244C322.144 317.79 325.104 318.867 327.905 321.288C357.218 350.031 374.502 385.549 385.724 424.422C388.985 435.755 392.277 447.103 393.417 458.911C387.244 450.253 386.532 439.569 382.796 429.993C379.963 422.744 377.494 415.321 375.294 407.85C373.885 403.023 370.941 399.794 366.858 397.309C367.776 392.149 364.024 388.778 362.046 384.742Z" fill="#A43316"/>
<path d="M161.777 40.1553C164.056 37.0689 164.294 33.8559 162.014 30.722C160.289 28.3637 159.925 26.0845 161.175 23.4096C165.496 14.2295 171.353 6.20478 180.2 1.09241C186.516 -2.56381 188.558 3.84644 191.676 7.28106C187.529 8.59477 184.268 11.1114 181.625 14.5144C178.966 17.1418 179.931 20.3232 180.264 23.4096C180.137 24.929 179.678 26.2427 178.016 26.7334C176.576 26.496 175.278 25.7521 173.489 25.0557C174.819 26.955 176.433 26.6068 177.795 26.9866C179.33 26.8917 180.659 27.1449 181.039 28.9493C178.428 33.4602 180.865 35.5178 184.885 36.8315C186.88 41.8964 184.521 46.1541 182.353 50.4434C171.321 53.2607 160.558 57.0119 149.574 59.9401C147.674 58.8163 147.532 57.0277 148.07 55.2234C149.099 51.7254 151.188 47.9901 144.54 48.1167C143.132 48.1484 142.784 45.7742 142.546 44.2389C142.103 41.4374 142.056 38.5884 141.533 35.7869C142.942 30.817 144.92 27.319 150.207 32.463C149.447 36.7207 150.682 40.2503 154.686 42.1022C157.313 43.3209 160.257 43.7957 161.793 40.1395L161.777 40.1553Z" fill="#F8B356"/>
<path d="M134.933 341.722C130.438 333.776 123.584 327.287 120.529 318.439C114.04 308.119 114.183 306.173 121.463 296.122C126.053 289.791 130.992 283.729 135.17 277.113C137.291 274.628 139.27 271.937 142.957 271.716C144.73 271.985 146.044 272.934 146.883 274.517C148.007 277.334 147.943 280.183 147.136 283.048C144.936 287.179 143.401 291.627 140.868 295.584C137.307 301.06 137.924 306.426 141.185 311.792C143.084 314.91 145.158 317.964 145.617 321.747C142.641 328.711 142.103 337.005 134.933 341.722Z" fill="#7D898D"/>
<path d="M154.401 135.169C154.385 131.513 151.536 129.883 149.241 127.825C144.002 123.14 138.811 118.376 136.152 111.602C139.017 106.648 142.768 102.469 148.276 100.665C161.714 96.2964 171.258 87.8919 176.418 74.6282C177.921 73.1562 179.029 69.8482 181.625 73.5203C182.48 75.8786 181.815 78.142 181.119 80.3895C178.064 88.1135 173.68 95.0144 167.855 101.076C169.723 102.438 172.018 101.551 173.79 102.643C176.528 104.258 177.779 106.474 176.576 109.655C174.059 112.504 170.878 111.602 167.807 111.175C165.734 110.89 163.676 110.351 161.587 111C159.672 111.602 158.2 112.757 158.532 114.942C158.896 117.395 160.875 117.616 162.758 117.094C170.451 114.973 175.341 118.297 178.586 125.024C178.697 131.513 174.74 132.621 169.453 131.988C166.604 131.482 165.908 128.553 163.518 126.638C161.54 129.614 159.894 132.669 158.152 135.676C157.773 136.341 157.25 136.847 156.601 137.227C155.272 137.227 154.56 136.515 154.401 135.217V135.169Z" fill="#4B1119"/>
<path d="M177.558 26.1477C178.856 25.4038 179.03 24.0901 179.204 22.7923C181.626 19.9749 181.341 16.7619 180.533 13.4855C183.493 10.0667 185.519 4.97019 191.66 7.28104C197.39 10.9214 200.856 16.7144 205.272 21.6052C203.737 28.3953 200.983 35.3753 209.831 39.7122C212.126 40.8359 211.477 43.3367 210.274 45.2044C208.406 48.085 206.048 50.475 202.629 51.5671C195.76 51.8995 188.732 54.1629 182.274 49.7944C180.787 45.3785 185.361 41.6115 183.651 37.1639C183.177 34.2832 179.853 32.5105 180.549 29.1709L177.384 27.7622C176.94 27.1766 176.972 26.6384 177.542 26.1477H177.558Z" fill="#E78A39"/>
<path d="M94.05 492.212C92.5938 481.323 96.9781 471.478 100.539 461.807C110.036 436.055 119.818 410.367 133.192 386.261C136.104 386.04 139.017 385.834 140.552 389.142C139.064 400 133.113 409.022 128.507 418.597C124.329 427.35 121.717 436.72 117.95 445.647C111.54 459.924 104.528 473.915 98.3077 488.271C97.5005 490.139 96.6932 492.244 94.0342 492.196L94.05 492.212Z" fill="#D0CCB5"/>
<path d="M94.0503 492.212C101.363 476.448 108.659 460.683 115.972 444.919C120.277 445.995 118.615 449.177 118.204 451.725C116.304 463.374 112.236 474.469 109.53 485.945C103.769 510.398 97.4058 534.71 92.6575 559.385C92.3093 561.19 91.6287 562.899 91.2647 564.704C90.7898 566.999 90.4891 569.879 87.5768 570.022C84.3796 570.18 83.3508 567.473 82.7651 564.767L83.0817 558.578C89.2862 550.902 86.0415 541.627 87.4343 533.127C87.5135 532.652 87.561 532.162 87.5768 531.671C89.4761 522.633 90.3783 513.327 94.2086 504.795C96.013 500.791 91.3754 497.451 93.5597 493.621C93.718 493.162 93.8921 492.687 94.0662 492.228L94.0503 492.212Z" fill="#969791"/>
<path d="M82.7329 564.767C84.2841 566.112 85.8352 567.442 88.0986 569.42C91.6281 553.292 94.7937 537.559 98.5449 521.968C103.483 501.424 108.944 480.99 114.04 460.478C115.306 455.397 118.219 450.459 115.94 444.919C119.564 435.913 123.189 426.891 126.813 417.885C130.739 422.602 128.143 427.366 126.813 432.035C118.203 462.377 110.479 492.956 103.689 523.757C96.0916 554.859 90.3777 586.419 81.3084 617.172C80.7228 619.056 80.058 620.939 79.0451 622.649C76.8608 625.102 74.4075 624.437 71.9067 623.25C72.3183 621.668 72.7456 620.101 73.1571 618.518C77.0349 609.433 80.3113 600.237 78.0479 590.091C80.2955 584.409 78.1904 578.03 80.8811 572.427C82.7329 573.203 82.2581 575.45 83.6035 576.78C83.4768 573.63 82.7488 570.829 81.4034 568.17C81.1818 566.793 81.3559 565.574 82.6855 564.783L82.7329 564.767Z" fill="#B8BBB2"/>
<path d="M182.274 49.7944C189.476 49.8894 196.677 50.0002 203.879 50.0952C206.427 49.7469 209.023 49.2405 210.907 51.7412C210.273 56.2996 206.886 56.4579 203.404 56.4738C198.83 56.363 194.303 55.6032 191.343 55.3816C196.487 54.7485 202.692 58.6422 209.514 57.6767C212.125 58.104 214.547 58.8637 215.924 61.412C215.845 65.8438 213.392 65.4006 210.511 64.0553C197.817 61.9027 185.139 61.8394 172.382 63.7387C164.959 64.8466 158.311 67.3158 152.486 72.0008C150.017 68.1863 148.529 63.9445 147.231 59.6393C147.595 59.0379 148.102 58.8479 148.767 59.117C159.609 54.8277 170.261 49.8577 182.274 49.8261V49.7944Z" fill="#F7CC64"/>
<path d="M210.384 51.6462C208.232 51.0922 205.699 52.0894 203.879 50.0951C205.446 48.354 207.044 46.6446 208.564 44.8719C209.735 43.5107 211.429 41.8963 208.865 40.4401C200.223 35.5335 201.995 28.7276 205.272 21.6051C206.364 23.362 205.984 25.1663 205.319 26.8916C202.961 33.1277 205.937 37.0372 211.571 37.8919C216.351 38.6041 222.223 39.8229 223.078 31.1493C223.727 24.5649 230.612 23.2195 235.851 23.3936C242.926 23.6311 244.604 30.0413 245.522 35.771C246.092 39.3005 245.364 43.0359 245.221 46.6763C243.369 47.2303 243.005 46.154 243.021 44.6503C242.72 45.3626 242.958 46.0907 243.258 46.6763C244.635 49.3512 244.05 51.4088 241.106 52.0577C238.257 52.675 236.817 50.5699 236.057 48.2116C234.806 44.3813 234.838 40.5035 236.168 36.4832C234.553 38.3825 233.018 40.3135 231.435 42.197C228.554 45.6317 226.228 48.9238 231.435 52.5642C233.35 53.9096 234.711 56.1571 232.179 58.468C224.408 57.8032 217.174 55.4291 210.384 51.6146V51.6462Z" fill="#B14C1F"/>
<path d="M232.638 57.8508C232.559 56.2205 232.21 54.4003 230.659 53.8622C221.701 50.7283 225.974 46.1066 229.235 41.6748C231.055 39.1899 233.904 37.5279 234.537 34.125C234.822 32.558 236.072 31.0227 237.861 31.9091C239.428 32.6846 239.349 34.8372 238.826 36.1351C237.465 39.5222 236.468 42.7828 237.339 46.5339C237.845 48.6865 238.162 51.1873 240.742 50.8866C244.018 50.5067 242.356 47.8002 242.214 45.9008C242.166 45.1411 242.324 44.3814 242.403 43.2734C243.48 44.5713 244.366 45.6318 245.237 46.6764C246.281 47.3412 247.326 47.9901 248.371 48.6549C254.116 50.3959 255.319 45.1411 258.105 42.3238C265.116 43.2734 265.544 48.0692 263.565 53.1183C261.017 59.6077 257.582 65.7489 254.543 72.0325C246.044 69.1518 238.352 65.0208 232.638 57.8508Z" fill="#9B3D19"/>
<path d="M177.478 75.2454C174.296 85.7076 168.472 94.2071 158.057 98.2115C149.858 101.377 142.926 106.252 136.167 111.586C132.59 105.746 128.839 99.9526 130.295 92.5452C134.743 93.4632 133.255 98.1482 135.645 100.696C139.333 95.0459 144.224 90.8358 150.444 87.7019C155.271 85.2644 161.492 82.8269 160.004 75.1188C162.204 71.605 166.034 71.3834 169.485 70.4179C173.948 69.0409 177.272 69.5316 177.478 75.2454Z" fill="#894232"/>
<path d="M142.166 272.428C140.362 274.121 138.557 275.815 136.753 277.509C133.777 277.762 133.793 276.242 134.806 274.169C136.563 271.858 133.92 271.019 133.271 269.5C136.674 270.624 137.782 267.727 139.428 265.907C149.4 254.875 159.719 244.191 171.131 234.615C172.793 234.346 173.489 235.438 174.075 236.689C175.009 248.702 178.095 260.383 179.741 272.285C175.341 278.506 172.983 273.061 171.543 270.228C168.614 264.435 166.319 258.294 164.657 251.978C164.293 249.921 163.581 247.927 163.534 246.629C156.87 255.065 150.824 264.799 142.166 272.428Z" fill="#E4D8BB"/>
<path d="M134.933 341.722C138.067 335.043 141.185 328.379 144.319 321.7C144.968 320.164 145.981 319.167 147.769 319.278C151.252 323.488 152.834 334.188 150.587 338.382C147.374 342.972 145.379 348.243 142.91 352.801C146.535 350 146.851 344.286 150.935 341.279C157.504 340.582 157.504 344.207 155.161 348.401C152.755 352.706 149.526 356.537 145.87 359.94C141.692 362.33 140.631 368.487 134.933 369.056C135.503 359.955 138.289 350.839 134.933 341.738V341.722Z" fill="#F6E7CC"/>
<path d="M306.601 300.712C298.718 294.239 293.938 285.28 287.892 277.334C288.145 276.068 288.351 274.517 290.171 275.736C293.701 278.11 297.911 278.3 301.757 279.629C307.534 281.624 310.114 279.55 310.146 273.678C316.936 276.211 316.778 281.465 315.337 287.132C313.945 292.608 310.32 296.692 306.616 300.712H306.601Z" fill="#4A1421"/>
<path d="M160.004 75.1189C164.183 77.4931 163.993 80.3579 160.59 83.1119C157.567 85.5652 154.528 88.3667 150.998 89.7279C143.939 92.4345 139.507 97.4994 135.962 103.925C131.847 101.108 132.733 95.9799 130.28 92.5611C135.171 86.784 142.594 85.1537 148.624 81.2759C150.84 79.8514 154.449 79.5507 153.721 75.4988C155.873 76.4959 157.899 75.2139 159.989 75.1189H160.004Z" fill="#B46B36"/>
<path d="M154.401 135.169C155.066 135.613 155.747 136.072 156.412 136.515C158.533 143.147 159.071 149.652 155.035 155.84C152.819 153.498 154.528 150.269 153.024 147.262C149.685 153.704 150.429 160.241 150.666 166.714C147.516 173.852 152.122 179.091 155.145 184.679C157.899 189.775 162.648 193.89 163.17 200.285C149.922 192.118 144.509 180.136 144.525 165.337C147.817 155.271 151.109 145.22 154.417 135.154L154.401 135.169Z" fill="#BB7448"/>
<path d="M134.949 369.041C138.083 365.859 141.232 362.678 144.366 359.496C144.968 358.927 145.617 358.863 146.313 359.307C147.722 361.079 148.577 362.947 146.788 364.941C145.079 366.841 143.607 368.835 146.107 370.987C148.893 373.393 150.191 370.275 151.979 369.072C154.195 367.569 157.345 367.917 159.197 366.081C162.647 362.662 164.784 358.547 163.455 353.355C162.837 350.965 160.906 348.449 163.755 346.169C166.921 345.647 168.076 347.847 169.184 350.142C171.653 360.984 168.773 370.323 161.239 378.347C160.305 379.186 159.197 379.709 157.994 380.057C156.475 380.468 154.939 380.848 153.42 381.244C150.618 381.861 148.007 381.497 145.664 379.756C143.702 377.999 141.533 376.385 140.726 373.678C141.533 368.756 134.537 373.457 134.965 369.009L134.949 369.041Z" fill="#B85D3E"/>
<path d="M232.638 57.8508C239.982 62.52 247.881 66.3186 254.544 72.0324C254.987 73.5203 255.415 75.0239 255.858 76.5117C254.829 76.0527 253.8 75.6095 252.771 75.1664C238.985 68.8986 225.516 61.8552 210.622 58.4206C208.137 56.8536 203.816 59.5285 202.629 54.9543C205.43 54.3687 208.976 55.5083 210.4 51.6621C218.298 52.0103 225.326 55.4608 232.638 57.8666V57.8508Z" fill="#DF8443"/>
<path d="M129.789 215.765C125.294 217.11 127.051 220.117 128.174 222.65C129.884 226.496 132.369 229.867 135.344 232.859C136.421 233.935 138.035 235.201 137.006 236.831C135.851 238.651 133.54 238.272 131.989 237.607C129.124 236.404 126.512 234.631 123.79 233.112C122.366 230.975 121.717 228.268 119.279 226.86C118.63 221.447 121.194 217.173 124.597 213.485C127.905 209.877 129.9 210.81 129.805 215.765H129.789Z" fill="#B47044"/>
<path d="M134.807 274.169C134.87 275.625 135.266 276.891 136.754 277.509C134.158 283.555 129.884 288.572 125.611 293.336C118.805 300.918 115.75 308.737 120.514 318.439C111.382 310.826 110.828 307.898 117.333 298.085C122.794 289.854 127.954 281.402 134.791 274.169H134.807Z" fill="#E5E5D4"/>
<path d="M93.5435 493.605C101.283 507.819 89.8715 519.025 87.5606 531.655C87.5131 518.645 89.0801 505.888 93.5435 493.605Z" fill="#D6D6C5"/>
<path d="M148.767 59.0853C148.26 59.2594 147.738 59.4336 147.231 59.6077C144.841 54.7802 142.372 49.9844 140.077 45.1094C138.494 41.7539 138.89 38.5567 141.517 35.7869C146.076 38.3193 143.448 42.941 144.699 46.7713C146.836 46.0116 149.162 43.7641 151.188 46.7555C152.676 48.9556 152.565 51.2822 150.982 53.324C149.621 55.0651 148.925 56.9328 148.782 59.0853H148.767Z" fill="#DD8D39"/>
<path d="M78.0956 590.091C80.3748 590.155 81.2611 591.484 81.1978 593.605C80.9287 601.345 79.0611 608.784 76.766 616.128C76.2437 617.806 74.8825 618.47 73.189 618.534C73.8537 608.895 76.1646 599.525 78.0797 590.107L78.0956 590.091Z" fill="#909191"/>
<path d="M140.71 373.694C143.258 374.422 144.714 376.337 145.949 378.49C147.516 384.172 144.778 387.48 139.839 389.569C138.399 386.926 134.68 388.857 133.208 386.261C135.55 381.972 137.117 377.224 140.726 373.694H140.71Z" fill="#AEA999"/>
<path d="M87.402 533.111C85.3127 538.952 92.5301 543.7 89.1272 549.936C87.3861 553.102 86.3573 556.584 83.0493 558.578C83.4925 549.92 83.6033 541.215 87.402 533.127V533.111Z" fill="#C3C5BB"/>
<path d="M327.906 321.288C324.883 320.877 321.86 320.449 318.836 320.038C313.629 318.977 312.933 314.482 311.587 310.478C311.524 308.942 308.612 307.486 311.461 305.872C317.143 310.794 323.68 314.815 327.906 321.288Z" fill="#B75730"/>
<path d="M123.632 244.065C126.117 248.702 131.973 248.686 135.803 252.612C130.818 255.176 126.623 250.965 122.318 252.137C119.406 248.908 121.163 246.423 123.632 244.065Z" fill="#8C5446"/>
<path d="M81.4507 568.154C84.8379 570.37 85.8192 573.741 85.835 577.524C85.835 579.281 86.1358 581.576 83.6192 581.734C80.9759 581.908 81.245 579.582 81.1342 577.841C81.0076 576.036 80.9917 574.232 80.9126 572.427C81.0867 571.003 81.2608 569.578 81.4507 568.154Z" fill="#919285"/>
<path d="M161.777 40.1552C161.08 46.2331 156.427 44.0647 153.863 43.0834C149.146 41.279 147.263 37.4645 150.191 32.4788C152.644 37.1638 153.404 44.3812 161.761 40.1552H161.777Z" fill="#A56732"/>
<path d="M258.104 42.3395C257.06 47.8476 255.588 52.6909 248.354 48.6706C252.755 48.3382 253.451 42.292 258.104 42.3395Z" fill="#EFC188"/>
<path d="M302.042 428.996C300.871 434.204 305.319 436.958 307.171 440.851C321.273 470.386 333.777 500.569 344.572 531.497C352.391 553.877 361.001 575.989 369.326 598.195C379.773 626.036 392.039 653.102 405.05 679.787C409.481 688.872 415.274 697.324 418.851 706.9C421.194 714.292 426.417 719.895 430.643 726.131C432.97 729.55 436.262 733.222 433.729 737.559C431.165 741.959 426.322 740.613 422.254 740.297C417.601 739.949 414.404 737.559 413.644 732.62C413.407 731.053 413.169 729.502 412.109 728.252C407.835 725.229 403.973 721.003 397.848 723.235C395.759 723.789 394.255 725.213 392.625 726.495C386.784 731.117 381.593 729.186 376.655 724.833C370.355 709.274 365.116 693.336 359.75 677.429C345.078 634.013 338.684 588.54 326.686 544.46C319.2 516.967 307.186 491.247 294.619 465.796C291.359 459.196 287.782 452.77 284.743 446.059C281.656 439.237 276.401 435.438 269.01 434.536C258.31 433.238 247.769 430.991 237.212 428.996C232.511 428.11 228.364 428.458 224.74 431.782C221.384 434.267 221.115 438.635 218.741 441.706C215.654 445.71 213.09 446.533 211.729 440.487C210.574 427.54 213.834 415.226 217.206 402.944C218.994 396.423 223.647 394.666 229.804 395.441C232.321 395.79 234.695 396.66 237.101 397.388C243.005 399.636 248.117 398.037 253.119 394.555C257.503 391.5 261.175 387.1 266.952 386.356C274.771 387.258 278.032 393.795 282.084 399.066C289.396 408.578 297.247 417.79 302.027 429.012L302.042 428.996Z" fill="#262746"/>
<path d="M302.043 428.996C294.145 418.423 286.326 407.787 278.333 397.277C275.373 393.384 272.698 388.984 267.364 387.765C267.032 384.473 269.802 383.286 271.78 381.909C283.968 373.377 295.569 364.102 307.234 354.875C309.34 353.213 311.302 350.57 314.689 351.551C316.24 352.58 316.826 354.4 316.082 355.698C311.524 363.817 314.119 373.314 310.796 381.687C308.137 388.382 313.676 392.402 316.858 396.897C318.947 399.857 321.59 402.437 323.094 405.84C321.163 407.66 319.691 405.951 318.14 405.349C315.75 404.431 313.233 402.39 310.906 404.78C308.928 406.806 310.479 409.275 311.334 411.412C320.561 434.172 330.026 456.821 339.017 479.677C343.986 492.323 348.482 505.175 352.486 518.154C353.895 522.697 357.931 526.527 356.665 533.839C352.882 526.068 349.558 520.022 346.93 513.675C336.183 487.828 325.737 461.87 314.943 436.04C313.566 432.732 311.112 429.772 308.722 427.018C305.43 423.219 302.945 423.836 302.043 428.996Z" fill="#5D0A12"/>
<path d="M284.743 333.001C284.664 333.412 284.664 333.824 284.743 334.235C285.55 338.351 282.005 340.82 281.008 344.239C273.316 357.755 263.202 369.294 251.932 379.883C250.065 381.64 248.339 383.776 245.364 383.65C239.428 378.047 235.123 370.924 228.76 365.701C228.254 364.102 228.729 362.615 229.219 361.127C228.634 353.799 223.458 347.942 223.015 340.472C222.524 332.114 222.413 324.264 230.992 319.516C242.341 329.487 254.544 326.907 266.7 321.652C277.542 316.967 278.048 316.92 284.379 326.448C286.326 328.537 283.335 330.864 284.712 332.985L284.743 333.001Z" fill="#560912"/>
<path d="M319.326 324.438C320.039 325.593 320.735 326.765 321.447 327.92C321.337 328.949 321.147 329.978 321.147 331.006C321.147 335.011 320.862 340.012 316.952 341.041C312.125 342.307 311.682 336.467 309.608 333.491C306.506 329.06 303.53 324.533 300.507 320.054C299.336 319.104 297.563 319.658 296.503 318.439C289.412 309.845 282.812 300.87 275.848 292.181C274.391 290.361 272.951 288.493 273.236 285.913C275.61 282.32 279.646 283.634 282.891 282.605C284.11 282.589 285.249 282.858 286.183 283.713C297.5 290.313 302.106 302.643 310.289 311.918C314.341 315.353 317 319.769 319.342 324.454L319.326 324.438Z" fill="#414F6B"/>
<path d="M279.52 343.352C279.884 339.522 283.239 337.401 284.743 334.235C289.428 333.555 292.324 329.804 295.901 327.366C299.668 324.786 300.808 325.514 302.486 329.487C305.034 335.47 308.469 341.057 311.523 346.818C312.125 348.18 311.761 349.478 310.795 350.364C301.03 359.243 291.153 367.996 280.026 375.182C278.697 376.037 277.161 376.416 275.626 375.546C273.869 370.94 274.312 366.271 278.348 363.596C283.255 360.351 282.195 357.708 278.997 354.4C277.399 350.633 280.802 347.103 279.52 343.352Z" fill="#E4C5A0"/>
<path d="M275.246 375.34C289.174 368.17 300.364 357.502 311.523 346.803C313.66 347.657 314.894 349.113 314.673 351.551C298.892 363.628 283.128 375.704 267.348 387.781C261.159 389.585 257.06 394.603 251.773 397.816C247.025 400.696 242.277 401.725 237.117 399.113C242.799 392.276 242.182 385.881 235.36 380.452C231.672 377.509 227.24 375.799 223.426 373.077C222.903 372.539 222.571 371.89 222.397 371.162C222.429 368.977 221.795 366.746 222.745 364.609C225.562 361.886 227.573 364.023 229.662 365.733C237.576 369.326 241.802 376.163 245.41 383.571C246.708 384.615 246.993 386.15 247.057 387.638C247.31 393.732 249.858 393.906 253.894 390.361C257.693 387.907 261.634 385.644 264.799 382.32C267.68 379.693 270.767 377.366 274.185 375.483C274.534 375.435 274.898 375.388 275.246 375.34Z" fill="#9B4A3B"/>
<path d="M362.046 384.742C368.851 389.205 370.498 393.542 366.857 397.309C364.135 393.542 353.942 392.64 362.046 384.742Z" fill="#C35A31"/>
<path d="M297.437 318.962C298.64 318.787 300.112 317.917 300.507 320.054C295.253 324.375 290.014 328.696 284.759 333.001C280.533 331.513 285.281 329.519 284.474 327.841C284.616 327.509 284.743 327.176 284.87 326.828C288.637 323.52 292.356 320.149 297.453 318.962H297.437Z" fill="#E4CFC0"/>
<path d="M175.737 109.703C176.164 106.917 176.085 104.384 172.73 103.403C171.828 102.881 170.324 102.042 171.036 101.203C174.977 96.5655 176.402 89.8545 182.511 87.0055C189.697 92.0387 195.332 99.2562 204.021 102.2C204.955 102.517 205.889 103.403 205.652 104.574C205.351 106.141 203.879 106.347 202.597 106.553C200.27 106.933 197.896 105.951 194.081 107.281C202.454 108.246 209.434 109.069 216.383 110.209C222.635 113.216 229.741 115.116 232.59 122.586C234.237 126.812 233.002 131.181 233.382 135.454C232.353 139.237 228.934 138.525 226.307 139.031C221.622 139.949 217.206 141.358 213.312 144.239C210.954 145.996 208.564 147.768 209.15 151.187C209.767 154.764 212.426 156.268 215.623 157.249C219.802 158.531 223.79 158.42 227.858 156.616C229.457 155.92 231.989 153.64 232.844 157.661C229.583 165.084 223.664 170.418 218.187 176.068C212.458 181.766 205.794 185.771 197.754 187.259C196.741 187.259 195.712 187.243 194.699 187.227C188.985 186.467 185.93 181.735 181.783 178.632C182.195 176.48 184.173 176.432 185.661 175.736C186.943 175.15 187.181 174.596 185.74 173.868C184.015 172.934 181.72 172.618 181.831 169.927C184.015 167.585 187.244 168.613 189.745 167.49C192.277 166.366 196.139 166.588 196.187 162.314C193.575 158.895 190.853 155.651 186.737 154.036C186.199 153.815 186.468 152.802 185.614 152.833C186.152 153.356 186.579 153.973 187.133 154.527C186.215 159.956 182.891 160.146 178.697 158.452C169.754 152.881 169.675 152.786 172.841 143.004C173.347 141.437 173.363 139.949 173.094 138.398C173.505 134.489 170.166 133.824 167.807 132.32C167.491 131.64 167.522 131.007 167.966 130.389C172.049 130.089 177.826 132.495 177.114 124.612C174.787 119.816 170.941 115.163 175.705 109.703H175.737Z" fill="#FAB78B"/>
<path d="M177.478 75.2455C175.816 71.9849 173.331 70.0856 169.485 70.418C179.061 67.0625 187.877 65.543 196.978 73.1878C209.656 83.8558 224.439 84.9162 240.568 81.0384C258.991 76.6066 270.973 81.5449 277.352 97.1036C279.108 101.377 280.739 106.648 272.698 106.996C270.292 107.091 269.359 109.069 268.995 111.38C268.472 114.704 267.712 117.996 266.874 122.191C262.268 117.157 262.363 109.718 256.285 106.79C246.931 99.3512 236.88 93.5265 222.635 92.6877C227.462 95.6475 231.356 96.7712 233.809 99.9051C235.091 101.551 236.833 103.181 235.709 105.492C234.68 107.613 232.432 108.009 230.327 108.151C210.606 109.513 186.231 92.5452 180.628 73.5677C178.428 71.9691 178.903 75.4037 177.478 75.2455Z" fill="#783B2F"/>
<path d="M196.471 220.624C197.057 218.313 197.643 216.018 198.228 213.707C199.305 207.756 198.402 201.757 198.766 195.806C199.099 190.203 202.676 187.923 207.772 190.313C212.632 192.608 216.256 196.312 218.06 201.535C220.545 218.487 231.055 228.253 246.645 233.46C247.833 234.647 247.643 236.293 246.329 236.578C235.993 238.762 226.56 244.033 215.971 245.283C212.505 244.381 209.814 242.687 209.387 238.731C209.561 237.433 209.909 236.23 211.065 235.929C212.046 236.087 211.793 235.565 211.096 235.755C207.725 236.657 203.61 240.662 201.141 237.227C198.212 233.175 203.214 229.186 204.306 225.071C200.159 232.384 196.867 240.297 191.549 247.04C184.711 248.322 179.836 243.605 180.659 236.562C181.372 230.468 185.867 226.591 192.768 226.052C195.49 231.861 189.175 235.581 189.444 239.807C192.926 234.489 193.116 226.986 196.487 220.624H196.471Z" fill="#FBB387"/>
<path d="M232.86 157.677C226.402 158.99 220.277 161.95 213.249 159.038C209.245 157.376 207.757 154.748 206.681 151.156C205.509 147.262 208.168 145.632 210.638 143.606C217 138.43 224.281 136.42 232.337 136.689C233.936 137.227 233.081 139.111 234.126 139.965C237.814 142.482 239.951 140.124 241.834 137.417C243.844 134.536 246.377 132.321 249.605 131.07C253.499 129.566 256.839 130.2 258.849 134.267C261.445 139.522 259.308 150.76 255.003 154.907C251.204 158.579 247.01 158.595 242.879 155.809C238.732 153.007 235.614 154.052 232.844 157.692L232.86 157.677Z" fill="#F9A87B"/>
<path d="M180.627 73.5518C186.468 82.7953 191.786 92.3711 202.217 97.6734C211.223 102.263 221.099 103.751 230.564 106.616C232.068 107.075 233.84 106.648 234.632 104.986C235.344 103.498 233.999 102.612 233.128 101.709C231.134 99.636 229.155 97.7525 226.116 96.8978C223.299 96.1064 220.149 94.951 219.057 90.4876C234.094 90.994 247.025 94.5553 256.284 106.774C250.238 106.015 246.424 100.253 238.937 99.082C243.21 103.799 249.969 104.226 251.124 111.254C242.403 108.389 234.125 106.331 226.243 111.713C223.03 114.198 219.912 112.488 216.778 111.491C209.371 110.858 201.963 110.241 194.556 109.592C192.894 109.449 190.472 110.336 190.282 107.566C190.124 105.144 192.419 105.049 194.097 104.416C197.516 103.134 200.745 105.445 205.366 104.622C195.506 100.776 187.734 95.7265 182.511 87.4644C179.187 86.0874 180.564 82.5262 179.14 80.2628C179.63 78.0153 180.121 75.7836 180.612 73.536L180.627 73.5518Z" fill="#571D22"/>
<path d="M218.061 201.551C215.275 198.876 212.584 196.059 209.64 193.558C207.456 191.706 204.939 190.408 201.821 191.722C198.434 193.147 199.795 196.075 199.574 198.449C199.083 203.545 200.444 208.8 198.244 213.739C198.102 204.907 197.943 196.091 197.785 187.274C204.069 182.589 211.207 179.44 218.219 176.084C218.171 184.568 218.124 193.067 218.076 201.551H218.061Z" fill="#C8452C"/>
<path d="M215.133 243.827C225.183 241.453 234.743 237.274 245.047 235.787C245.68 235.692 246.123 234.267 246.662 233.46C248.577 233.27 249.447 234.457 250.033 236.024C247.58 239.253 243.037 236.531 240.441 239.364C239.776 240.187 239.001 241.041 238.004 241.279C220.926 245.347 205.826 253.593 191.343 263.169C190.695 263.596 189.856 263.628 189.064 263.675C187.798 263.406 186.959 262.631 186.453 261.475C186.326 259.053 187.846 257.518 189.634 256.489C197.88 251.757 205.177 245.078 215.148 243.811L215.133 243.827Z" fill="#B37554"/>
<path d="M210.511 64.0394C212.188 63.2638 215.433 64.9732 215.117 61.0796C228.808 61.5228 240.441 66.6193 249.874 76.5908C242.625 77.5563 237.418 72.1115 230.929 70.5446C223.996 68.8669 217.301 66.2394 210.511 64.0394Z" fill="#A0462B"/>
<path d="M249.89 76.6068C239.349 69.1044 228.095 63.169 215.132 61.0956C213.09 60.5258 211.049 59.9401 209.007 59.3703C208.564 57.93 209.023 57.2811 210.574 57.6135C226.006 60.1617 240.583 64.8151 252.755 75.1823C251.789 75.6571 250.84 76.1478 249.874 76.6226L249.89 76.6068Z" fill="#842507"/>
<path d="M216.779 111.507C219.929 111.586 223.094 111.649 226.244 111.729C231.261 113.644 235.471 116.034 232.607 122.571C227.336 118.883 222.049 115.195 216.779 111.507Z" fill="#E7926C"/>
<path d="M234.142 139.949C233.54 138.857 232.954 137.765 232.353 136.673C232.448 131.972 232.543 127.287 232.638 122.586C235.724 128.142 233.144 134.204 234.142 139.949Z" fill="#E7926C"/>
<path d="M179.029 157.313C182.606 158.468 185.503 158.12 186.721 153.925V153.957C194.525 151.124 194.176 159.513 197.991 162.172C195.126 168.978 188.811 168.471 183.16 168.851C181.023 168.993 178.523 168.503 176.449 167.252C178.016 168.867 181.134 167.68 182.116 170.355C183.698 171.225 185.281 172.096 186.864 172.95C185.724 174.866 183.176 175.372 182.306 177.54C187.655 179.218 190.409 184.22 194.73 187.227C182.416 192.292 182.369 192.355 172.682 182.4C165.164 174.66 157.915 166.714 155.066 155.841C155.652 149.399 154.813 142.862 156.443 136.499C156.57 136.008 156.775 135.565 157.044 135.138C160.432 132.969 163.233 128.743 168.14 132.036C172.935 131.561 176.861 131.941 174.36 138.493C175.848 140.409 174.36 141.88 173.6 143.416C169.517 151.678 170.118 153.261 179.061 157.313H179.029Z" fill="#FAC59B"/>
<path d="M215.132 243.827C205.778 249.889 194.825 253.371 186.674 261.396C183.16 266.809 181.008 262.773 179.362 260.035C176.196 254.796 175.246 248.765 174.344 242.814C173.996 240.519 174.566 238.034 172.698 236.135C172.176 235.628 171.638 235.138 171.115 234.631C177.336 228.379 186.199 226.765 193.258 222.001C195.569 223.156 195.49 224.027 192.831 226.765C183.239 229.266 179.472 237.243 184.553 244.065C186.626 246.85 188.874 247.657 191.834 245.584C196.788 239.949 202.818 236.863 210.511 237.686C210.178 241.121 213.249 242.039 215.101 243.843L215.132 243.827Z" fill="#FAC095"/>
<path d="M192.862 226.749C192.894 225.15 195.284 223.773 193.274 221.985C194.334 221.526 195.411 221.067 196.471 220.624C196.202 228.347 193.242 235.122 189.095 242.466C187.56 235.834 192.862 231.972 192.862 226.749Z" fill="#B65835"/>
<path d="M188.462 263.105C204.401 252.152 220.988 242.624 240.441 239.364C241.106 239.759 243.226 239.554 241.96 240.82C240.172 242.624 237.766 244.587 235.392 244.935C220.751 247.056 208.991 252.738 201.046 266.303C198.276 271.035 191.897 273.9 188.494 278.981C188.985 280.453 188.209 281.671 187.133 282.225C180.2 285.707 179.266 291.579 180.501 298.37C179.615 301.488 177.905 302.073 175.357 300.079C173.521 298.085 172.476 295.6 172.603 293.02C172.856 287.543 169.675 286.53 165.291 286.673C164.024 286.34 163.027 285.581 162.03 284.742C160.384 283.333 159.244 280.342 156.506 281.608C153.72 282.906 154.306 285.913 154.354 288.461C155.303 294.397 158.121 299.81 162.457 303.403C167.475 307.566 169.659 311.712 167.839 317.98C167.57 318.898 168.25 320.006 168.488 321.035C170.466 326.464 172.033 332.004 173.885 337.464C177.779 349.003 177.937 360.62 173.98 372.19C172.698 375.942 171.178 379.756 171.891 383.681C173.885 394.587 170.767 405.603 172.888 416.476C172.476 418.613 171.685 420.639 169.295 421.051C167.332 421.399 166.573 419.594 166.272 418.186C163.439 405.065 158.405 392.276 160.115 378.442C165.101 369.61 170.609 360.937 167.934 350C162.647 338.24 161.128 325.182 155.398 313.564C154.274 311.048 153.467 308.404 152.28 305.904C150.27 301.329 147.69 297.008 145.965 292.308C144.952 289.585 143.876 286.831 145.601 283.982C145.712 280.722 145.822 277.477 145.917 274.216C148.782 262.884 156.11 255.271 166.177 249.952C168.44 256.537 170.482 263.216 173.125 269.626C173.838 271.352 174.835 276.163 178.776 272.08C179.836 266.746 183.587 264.34 188.462 263.137V263.105Z" fill="#F8EFCE"/>
<path d="M179.076 297.768C174.344 287.559 181.53 283.317 188.494 278.98C193.448 281.418 190.995 286.119 191.786 289.822C194.461 290.978 196.519 292.751 197.326 296.059C199.083 293.241 196.297 290.677 197.801 288.303C199.035 286.594 200.84 286.752 202.612 286.879C208.69 292.371 208.374 302.595 201.853 306.948C198.37 309.275 195.284 309.18 192.277 305.555C189.57 302.295 188.304 298.449 186.325 294.919C188.573 303.134 194.999 309.053 198.355 316.682C198.782 318.93 197.911 320.655 196.234 322.048C191.897 324.01 189.254 321.177 186.721 318.502C181.229 312.709 179.235 305.555 179.076 297.768Z" fill="#C69F78"/>
<path d="M270.783 264.641C274.154 270.497 281.197 273.457 283.176 280.421C279.678 283.001 276.718 280.104 273.632 279.36C262.726 276.78 252.058 273.425 242.261 267.759C240.647 266.587 238.526 265.796 238.842 263.184C240.093 263.058 241.327 262.9 242.055 261.649C247.859 259.718 250.418 255.54 249.732 249.114C253.309 248.575 256.838 248.29 260.479 248.844C265.876 249.683 267.047 252.232 264.325 256.822C261.618 258.563 260.558 261.792 261.793 263.96C263.945 267.759 267.76 263.944 270.783 264.625V264.641Z" fill="#E4C7A3"/>
<path d="M210.384 285.153C210.653 282.051 213.012 280.927 215.386 279.724C217.966 278.411 220.815 277.034 219.39 273.283C218.773 271.637 218.108 269.563 215.734 269.864C212.315 270.291 212.252 273.156 211.761 275.736C211.587 276.622 210.717 277.382 210.068 278.316C206.981 276.132 205.224 273.488 206.649 270.18C208.042 266.983 210.622 264.688 214.531 264.72C216.351 264.72 218.187 264.704 220.008 264.688C225.991 267.933 226.75 273.678 227.114 279.598C227.035 280.373 226.814 281.117 226.465 281.83C224.408 285.47 225.516 289.506 225.088 293.336C224.582 297.879 222.983 301.852 217.871 302.01C213.059 302.168 212.03 298.306 212.189 294.349C212.284 292.181 210.97 291.057 209.846 289.68C209.118 288.066 209.577 286.578 210.368 285.138L210.384 285.153Z" fill="#C59B76"/>
<path d="M210.384 285.153C210.495 286.784 210.606 288.414 210.716 290.044C211.793 299.43 205.509 312.472 197.848 316.714C191.771 310.589 186.484 303.878 183.873 295.521C183.239 293.479 183.097 289.997 185.993 289.538C188.621 289.126 188.32 292.497 189.064 294.318C190.33 297.42 190.473 300.839 192.815 303.688C196.503 308.151 200.143 308.199 203.087 303.07C206.206 297.641 206.649 292.181 202.613 286.91C205.335 286.926 208.042 286.863 210.384 285.169V285.153Z" fill="#DEBD96"/>
<path d="M226.339 280.5C224.661 275.055 223.569 269.373 220.024 264.688C219.755 262.425 220.53 260.399 221.543 258.452C224.867 257.249 225.769 260.605 227.842 261.776C230.581 263.96 232.717 266.619 233.984 269.927C235.202 274.011 235.883 278.015 232.274 281.371C230.122 282.257 228.096 282.32 226.339 280.516V280.5Z" fill="#DDB791"/>
<path d="M242.277 266.081C255.256 272.729 269.438 275.942 283.176 280.421C284.173 281.513 285.171 282.605 286.168 283.697C285.107 283.761 284.047 283.824 282.986 283.871C274.408 284.52 266.652 281.101 258.643 278.917C255.209 277.366 251.869 275.578 248.482 273.932C245.696 272.159 242.325 270.956 241.708 267.046C241.897 266.73 242.072 266.397 242.261 266.081H242.277Z" fill="#BA886E"/>
<path d="M270.783 264.641C269.802 266.413 267.997 267.015 266.256 267.363C263.486 267.933 259.482 268.819 258.881 265.464C258.247 261.918 260.194 258.072 262.806 255.096C263.312 255.682 263.819 256.252 264.325 256.838C266.478 259.433 268.63 262.045 270.783 264.641Z" fill="#BD9774"/>
<path d="M249.732 249.129C251.188 252.248 255.066 254.954 251.726 258.943C249.193 261.966 246.091 263.675 242.055 261.665C242.451 258.436 246.218 258.958 247.753 256.458C247.452 253.53 243.021 253.672 242.688 250.443C244.619 247.895 247.326 249.24 249.732 249.129Z" fill="#B08D65"/>
<path d="M197.785 288.319C200.159 292.181 202.043 296.075 198.149 300.411C193.638 298.322 195.743 292.149 191.771 289.823C193.781 289.316 195.775 288.825 197.785 288.319Z" fill="#E6BF97"/>
<path d="M226.639 262.82C224.945 261.364 223.236 259.892 221.542 258.436C220.371 256.505 217.744 255.635 217.554 252.247C222.223 254.115 226.132 256.632 229.852 259.528C229.773 260.193 229.504 260.747 229.045 261.238C228.348 261.934 227.478 262.346 226.639 262.82Z" fill="#BA886E"/>
<path d="M319.326 324.438C315.401 320.924 312.916 316.366 310.273 311.902C310.7 311.427 311.143 310.953 311.571 310.462C313.992 313.643 316.414 316.84 318.82 320.022C318.978 321.494 319.152 322.95 319.326 324.422V324.438Z" fill="#D8AC96"/>
<path d="M238.843 263.2C239.982 264.166 241.122 265.115 242.277 266.081L241.787 266.698C235.82 268.075 231.451 266.287 229.235 260.304C229.441 260.051 229.647 259.797 229.853 259.544C232.844 260.763 235.851 261.982 238.843 263.2Z" fill="#BA886E"/>
<path d="M180.549 29.1866C182.068 31.6558 187.354 32.6688 183.651 37.1797C181.182 37.2272 178.348 38.066 177.066 34.948C175.689 31.6241 178.649 30.6745 180.549 29.1866Z" fill="#A76322"/>
<path d="M180.549 13.5013C185.424 17.3633 185.946 20.608 179.204 22.8081C176.75 19.2943 176.37 16.0654 180.549 13.5013Z" fill="#A14C0F"/>
<path d="M177.557 26.1478C177.51 26.6859 177.446 27.2241 177.399 27.7622C174.835 29.5982 172.682 29.5824 171.147 26.4485C170.435 24.9765 169.786 23.1722 171.637 22.4757C174.882 21.2412 175.863 24.4225 177.557 26.1636V26.1478Z" fill="#B05F1E"/>
<path d="M153.958 305.587C154.86 307.724 155.746 309.876 156.649 312.013C155.24 316.461 151.188 317.949 147.658 320.022C146.55 320.576 145.443 321.13 144.335 321.684C142.419 318.265 140.473 314.862 138.605 311.412C135.519 305.666 134.87 300.016 139.523 294.666C142.863 300.253 148.244 303.15 153.958 305.587Z" fill="#3A3B55"/>
<path d="M153.958 305.587C146.567 305.365 140.505 303.387 139.523 294.666C141.771 291.215 141.66 286.435 145.601 283.95C146.693 291.817 151.695 298.18 153.974 305.587H153.958Z" fill="#511621"/>
<path d="M166.161 249.921C157.836 256.695 151.568 265.194 145.902 274.185C144.651 273.599 143.417 273.013 142.167 272.428C147.564 261.823 156.459 253.988 163.993 243.78C164.974 246.549 165.56 248.243 166.161 249.921Z" fill="#7A7564"/>
<path d="M175.737 109.703C174.471 114.831 176.386 119.674 177.146 124.612C173.49 119.595 169.2 116.461 162.569 119.215C160.115 120.228 156.886 123.251 156.158 117.221C155.636 112.821 155.763 109.37 161.081 108.531C166.067 107.74 170.72 110.842 175.721 109.718L175.737 109.703Z" fill="#E49972"/>
<path d="M179.14 80.2787C181.91 81.9089 182.021 84.7738 182.511 87.4803C179.061 92.6718 174.977 97.4835 172.714 103.403C169.881 103.403 167.063 103.403 163.265 103.403C170.15 96.2964 175.816 89.0473 179.14 80.2787Z" fill="#D6745A"/>
<path d="M168.108 132.051C163.945 131.402 160.938 134.932 157.013 135.154C158.675 131.355 159.893 127.271 162.141 123.853C163.486 121.795 166.351 121.352 166.81 125.245C167.016 127.034 166.763 128.87 167.997 130.405C168.029 130.959 168.076 131.497 168.108 132.051Z" fill="#E9D3C2"/>
<path d="M191.597 24.8024C191.422 27.0816 190.425 28.8543 188.004 29.0442C186.057 29.1867 184.205 28.1737 184.411 26.0211C184.648 23.4887 186.563 21.985 189.08 21.7476C191.138 21.5577 191.533 23.1246 191.581 24.8182L191.597 24.8024Z" fill="#9D410D"/>
<path d="M139.824 389.569C142.214 386.071 145.269 382.937 145.934 378.49C148.229 379.788 150.73 380.088 153.309 380.025C155.256 382.874 153.911 385.691 152.945 388.303C141.898 418.297 135.994 449.525 130.201 480.816C129.599 484.077 129.52 487.686 127.114 490.424C123.585 489.601 124.756 492.418 124.471 493.969C122.572 504.78 119.485 514.973 110.147 521.969C107.646 523.836 105.24 526.289 101.79 523.741C102.297 513.437 105.826 503.767 108.343 493.938C114.057 471.636 118.852 449.082 126.133 427.208C127.178 424.074 126.814 420.987 126.83 417.853C131.166 408.42 135.487 398.987 139.824 389.553V389.569Z" fill="#82888B"/>
<path d="M223.173 714.798C222.065 718.201 219.691 720.559 216.842 722.522C207.44 727.603 205.383 735.849 206.285 745.789C206.665 750.078 207.472 754.779 204.401 758.72C203.642 768.074 203.467 777.539 201.885 786.751C200.856 792.702 203.119 793.62 207.883 793.81C210.891 793.937 214.23 792.576 216.826 795.314C205.256 795.694 193.749 794.887 182.274 793.541C179.583 792.402 177.431 790.945 178.729 787.463C176.529 784.504 177.953 781.449 178.507 778.442C180.897 765.637 183.651 752.88 184.617 739.838C187.07 723.962 190.394 708.214 191.66 692.164C194.92 668.518 196.582 644.729 198.687 620.971C201.252 591.99 202.296 562.915 204.718 533.934C205.588 523.504 203.499 512.947 206.19 502.627C206.601 501.756 207.314 501.25 208.279 501.123C210.305 502.611 209.989 504.368 209.719 504.922C207.678 498.163 209.324 489.933 207.266 481.94C207.361 476.701 204.765 471.05 209.624 466.54C212.473 467.917 211.049 470.164 211.128 472.364C212.109 467.347 209.735 463.026 208.976 458.467C209.086 452.374 207.757 445.869 213.55 441.294C213.993 443.811 214.689 444.602 216.62 442.086C219.374 438.509 218.741 433.048 223.189 430.484C225.262 432.747 224.74 435.454 224.139 437.97C219.723 456.41 218.456 475.292 216.304 494.048C215.94 497.182 215.006 500.427 215.639 503.45C218.536 517.315 216.779 531.164 216.051 545.045C215.718 551.661 216.43 558.103 218.536 564.466C220.356 569.974 220.941 575.767 220.767 581.592C220.466 591.547 220.197 601.487 225.041 610.667C223.885 615.146 220.134 618.755 220.656 623.804C219.074 629.439 224.708 633.712 223.632 639.268C221.938 641.373 219.548 642.402 217.238 643.589C214.563 644.966 213.455 646.976 214.927 650.126C220.007 648.812 221.131 642.244 226.481 641.531C230.881 643.668 229.346 647.008 227.114 649.034C219.533 655.903 222.524 663.405 224.55 671.034C228.808 671.224 229.789 664.925 234.347 667.109C235.629 670.939 234.063 674.01 231.055 675.973C226.354 679.027 227.431 682.209 229.947 685.897C231.72 688.477 233.651 691.041 233.857 694.38C233.509 696.311 233.097 698.337 230.438 696.834C228.396 695.678 227.811 692.861 224.202 691.642C223.759 699.54 221.78 706.979 223.173 714.735V714.798Z" fill="#2B2E4E"/>
<path d="M101.79 523.741C115.512 520.006 118.884 508.42 122.113 496.755C122.809 494.254 122.872 491.453 124.123 489.3C124.803 488.113 125.088 490.186 125.515 490.835C128.681 494.46 126.576 498.354 125.959 502.073C123.379 517.79 121.084 533.57 118.061 549.224C117.428 552.516 116.953 555.998 114.262 558.483C110.875 558.072 111.888 560.636 111.619 562.409C108.532 582.874 105.351 603.323 98.4025 622.934C97.2629 626.179 97.0888 630.436 92.3563 631.18C91.9448 630.325 92.1189 627.682 90.3778 630.088C85.7086 636.625 78.3646 640.06 72.1284 647.546C73.1097 638.334 75.0724 631.402 77.953 624.691C80.074 620.164 85.3446 623.979 88.0828 620.955C85.9619 617.315 80.6912 624.77 79.4409 618.407C80.0898 605.096 86.6583 593.273 89.0325 580.452C92.5779 561.38 96.6931 542.465 101.774 523.757L101.79 523.741Z" fill="#73767F"/>
<path d="M210.574 57.5975C210.052 58.1832 209.53 58.7688 209.007 59.3544C201.109 61.0163 194.572 54.9385 186.864 54.9385C192.119 54.9385 197.374 54.9385 202.629 54.9385C204.75 57.4393 208.532 54.891 210.59 57.5975H210.574Z" fill="#B6721D"/>
<path d="M92.3722 631.164C99.558 618.518 101.853 604.352 104.702 590.408C106.712 580.515 107.947 570.449 109.593 560.477C109.894 558.641 109.419 554.716 112.933 558.721C115.813 562.203 114.8 566.175 114.104 569.974C110.21 591.579 106.19 613.168 101.837 634.678C100.207 638.825 100.508 643.779 96.7407 647.055C94.0342 647.704 93.8126 644.982 92.4039 643.842L91.9924 643.605C92.1507 642.608 92.3089 641.611 92.4672 640.613C93.1795 637.907 90.0297 635.359 92.1032 632.589C92.1348 632.098 92.214 631.623 92.3564 631.164H92.3722Z" fill="#5C595E"/>
<path d="M188.463 263.105C185.234 266.081 182.005 269.072 178.776 272.048C174.835 260.399 172.35 248.496 172.714 236.119C176.117 236.594 175.389 239.411 175.816 241.58C177.003 247.752 178.713 253.751 181.008 259.607C182.258 262.789 183.857 263.786 186.674 261.38C187.26 261.95 187.861 262.52 188.447 263.09L188.463 263.105Z" fill="#AD5A38"/>
<path d="M147.643 320.022C149.574 316.16 153.61 314.64 156.633 312.013C162.553 324.026 166.304 336.673 167.903 349.968C166.272 348.923 165.513 346.47 162.964 346.913C159.862 350.395 155.668 352.738 153.199 356.964C151.695 359.576 148.973 360.794 145.759 359.496H145.047H144.335C147.516 355.381 150.824 351.361 153.816 347.103C156.38 343.479 155.161 341.785 150.777 342.371C147.073 341.801 148.165 339.522 148.972 337.337C149.653 336.562 150.334 335.802 151.014 335.027C141.597 331.909 153.847 323.868 147.611 320.022H147.643Z" fill="#B17350"/>
<path d="M149.004 337.338C149.036 339.221 148.893 341.168 150.808 342.371C149.115 348.354 145.902 353.26 139.919 357.518C142.04 349.667 144.952 343.257 149.004 337.322V337.338Z" fill="#C9A983"/>
<path d="M99.9375 635.596C103.847 613.896 107.804 592.196 111.634 570.465C112.315 566.587 112.521 562.646 112.932 558.721C119.152 540.756 119.596 521.652 123.711 503.26C124.629 499.177 124.93 494.966 125.531 490.819C129.33 472.412 133.097 454.02 136.911 435.612C140.852 416.635 147.437 398.417 153.325 380.009C154.211 378.775 155.366 378.094 156.949 378.411C158.437 379.962 159.687 381.671 159.814 383.871C160.637 398.338 165.18 412.171 167.016 426.464C166.572 431.228 168.82 435.755 168.345 440.503C168.092 443.051 168.345 446.565 164.942 446.692C161.46 446.818 161.84 443.225 161.143 440.788C160.874 439.87 162.473 437.796 160.004 438.081C159.45 438.145 158.943 439.759 157.962 440.266C153.198 435.454 150.175 429.439 148.022 423.251C146.867 419.911 145.585 415.099 152.581 414.102C156.854 413.501 155.794 409.86 153.325 406.632C146.297 414.783 147.31 424.422 146.424 433.555C145.157 442.988 145.553 452.706 141.802 461.728C137.006 461.981 136.579 465.574 135.803 469.199C129.567 498.179 126.465 527.651 122.176 556.932C118.06 575.007 116.224 593.463 113.122 611.696C110.922 619.388 111.508 627.714 107.804 635.058C105.256 636.039 102.85 639.506 99.9692 635.564L99.9375 635.596Z" fill="#F4E8CA"/>
<path d="M145.775 359.512C148.735 358.23 151.537 357.407 153.088 353.593C154.607 349.857 158.438 347.341 162.964 346.913C167.554 353.244 166.098 359.639 163.376 366.16C162.664 367.869 161.856 367.964 160.226 368.487C156.934 369.515 153.151 369.389 150.856 373.599C149.036 376.954 145.68 374.517 143.908 372.127C142.325 370.006 139.46 366.793 143.401 365.052C146.757 363.564 146.646 362.061 145.76 359.496L145.775 359.512Z" fill="#F3A179"/>
<path d="M164.847 427.303C162.204 411.016 159.577 394.713 156.934 378.427C157.994 378.427 159.039 378.427 160.099 378.427C162.695 391.326 165.306 404.21 167.918 417.11C168.14 418.186 167.491 420.117 169.564 419.689C171.004 419.389 171.02 417.711 171.258 416.445C173.078 407.217 176.75 398.607 179.947 389.838C180.897 387.227 181.53 384.235 184.442 382.795C186.373 382.906 187.038 384.457 187.893 385.786C188.621 387.227 189.222 388.715 189.143 390.376C182.321 402.453 177.256 415.353 171.59 427.967C170.735 429.883 169.817 432.225 167.427 432.178C164.262 432.13 166.541 428.521 164.832 427.303H164.847Z" fill="#CCB087"/>
<path d="M223.173 714.798C219.865 713.294 219.343 710.271 220.277 707.47C221.828 702.832 221.448 698.163 221.622 693.462C221.701 691.515 220.846 688.872 223.822 688.334C226.228 687.907 227.573 689.885 228.808 691.563C229.852 693.003 230.675 694.602 231.641 696.106C231.657 696.137 232.211 695.979 232.274 695.821C232.464 695.346 232.527 694.823 232.654 694.317C235.012 693.494 235.851 695.488 237.006 696.739C241.802 701.898 242.056 701.883 244.699 695.172C245.933 692.006 246.851 688.73 248.038 685.548C249.558 681.433 249.938 677.999 244.667 676.21C242.008 675.308 241.106 672.506 240.172 670.069C238.985 666.967 236.927 666.239 233.983 667.426C229.757 668.312 228.824 675.498 224.186 673.852C219.928 672.348 222.951 666.444 220.925 663.326C217.032 657.296 221.131 653.766 224.265 649.73C225.99 647.498 229.916 645.805 226.291 642.133C224.613 641.753 223.632 640.677 223.189 639.046C221.384 634.298 217.633 630.199 218.52 624.58C220.356 620.338 225.246 617.188 223.173 611.554C216.082 601.218 219.042 589.458 218.44 578.204C217.76 565.495 211.666 553.497 213.676 540.376C216.921 519.23 211.46 497.831 215.275 476.669C218.045 461.316 220.561 445.9 223.189 430.516C227.336 425.894 231.957 425.514 238.019 426.97C249.637 429.756 261.54 431.497 273.379 433.238C279.615 434.156 283.382 438.192 285.883 442.956C292.451 455.46 298.402 468.296 304.433 481.069C317.095 507.85 328.538 535.264 334.411 564.26C339.286 588.287 344.271 612.297 350.033 636.087C355.746 659.67 363.233 682.842 371.637 705.65C373.901 711.775 375.769 718.027 377.826 724.231C378.871 727.919 379.915 731.607 380.96 735.295C377.193 736.403 373.41 737.495 369.643 738.603C369.105 738.92 368.694 738.809 368.377 738.271C359.767 732.24 343.053 734.108 336.658 741.816C331.482 748.068 313.249 748.116 306.285 741.832C304.528 740.249 302.692 738.651 301.41 736.704C298.687 732.557 297.025 733.522 294.699 737.179C291.28 742.576 288.399 742.481 286.563 736.419C283.793 727.286 277.953 728.046 271.115 730.151C261.872 733.016 252.549 733.19 243.274 730.578C238.937 729.36 236.183 726.542 235.756 721.62C234.743 709.844 233.936 709.464 223.157 714.735L223.173 714.798Z" fill="#273854"/>
<path d="M213.55 441.342C211.571 447.072 210.495 452.959 210.764 459.037C211.492 461.633 211.935 464.229 210.479 466.761C207.978 471.921 209.498 477.413 209.15 482.747C209.941 488.983 210.463 495.22 208.896 501.424C208.437 501.535 207.994 501.661 207.551 501.82C204.655 499.177 205.082 495.599 205.177 492.307C205.414 484.077 203.768 475.941 204.591 467.711C204.227 466.666 203.325 468.107 204.338 467.838C204.86 467.695 204.924 467.885 204.924 468.392C204.924 469.674 205.019 471.684 203.594 471.478C200.65 471.035 200.967 468.138 200.539 465.922C199.748 455.713 201.457 445.663 202.914 435.644C203.357 432.668 203.737 430.057 201.869 427.54C202.391 418.518 205.699 410.066 207.187 401.234C212.727 395.188 220.118 394.381 227.668 393.969C229.425 394.492 231.277 394.919 231.245 397.341C222.698 395.837 219.454 399.889 218.013 408.056C216.051 419.12 213.091 429.977 213.566 441.358L213.55 441.342Z" fill="#A06046"/>
<path d="M231.229 397.325C230.612 395.995 229.409 395.695 228.111 395.568C223.679 393.922 219.548 395.663 215.322 396.628C212.616 397.246 208.785 398.496 207.709 395.378C206.474 391.785 210.083 390.281 213.154 389.332C213.898 389.11 214.657 388.999 215.401 388.841C219.532 381.75 218.678 379.993 209.988 377.667C204.907 378.949 199.684 379.693 194.619 378.426C190.932 377.508 186.8 375.593 192.752 371.526C200.412 367.964 208.564 368.154 216.731 368.439C219.532 368.534 221.812 369.595 223.537 371.795C229.757 373.457 234.569 377.493 239.475 381.323C244.319 385.106 242.894 390.835 243.195 395.79C243.416 399.493 239.301 398.164 237.133 399.113C235.012 399.034 232.954 398.733 231.229 397.325Z" fill="#F9A475"/>
<path d="M248.576 272.396C251.805 273.9 255.034 275.404 258.247 276.923C259.972 282.463 262.884 287.433 265.718 292.45C272.619 301.092 278.427 310.43 283.097 320.449C284.189 322.792 285.771 325.039 284.885 327.873L284.458 327.825C278.301 317.015 270.482 321.336 262.742 325.498C254.812 329.772 246.281 327.651 238.035 327.556C233.872 327.509 232.669 323.045 231.007 319.816C229.013 316.825 231.007 314.324 232.163 311.839C235.043 305.73 238.098 299.715 241.185 293.716C244.176 287.908 247.152 282.162 246.281 275.277C246.107 273.932 246.075 271.937 248.592 272.396H248.576Z" fill="#3E091B"/>
<path d="M248.577 272.396C249.938 286.008 241.644 296.328 236.5 307.724C234.68 311.76 232.828 315.796 230.992 319.816C221.495 331.37 223.885 343.131 230.201 355.096C231.356 357.281 234.569 359.639 230.976 362.472C222.967 356.315 220.973 346.486 216.225 338.335C217.76 324.343 224.376 312.124 229.821 299.509C232.163 295.489 233.873 291.215 235.36 286.799C237.481 280.484 237.291 274.66 232.559 269.516C230.58 267.284 228.618 265.052 226.639 262.82C226.37 260.794 227.225 259.956 229.235 260.304C232.685 263.881 237.086 265.574 241.786 266.698C244.05 268.598 246.297 270.497 248.561 272.412L248.577 272.396Z" fill="#8D422E"/>
<path d="M254.781 391.041C253.278 393.589 251.331 396.343 248.213 395.584C244.462 394.666 245.902 390.962 245.696 388.255C245.585 386.688 245.49 385.137 245.396 383.57C258.912 371.984 270.277 358.578 279.52 343.352C284.284 346.961 279.014 351.029 280.043 354.811C277.178 362.488 274.835 370.497 266.89 374.818C262.806 376.321 260.036 379.408 257.377 382.637C255.953 384.52 254.987 386.815 253.278 388.35C249.036 392.133 255.462 389.522 254.797 391.041H254.781Z" fill="#F3DFC6"/>
<path d="M216.778 338.952C218.963 340.028 220.989 341.374 221.479 343.906C222.84 351.044 228.744 355.808 230.976 362.472C230.533 363.564 230.105 364.64 229.662 365.732C227.494 366.492 225.278 362.931 223.125 365.796C218.788 366.16 216.541 363.089 214.119 360.288C213.739 359.481 213.502 358.626 213.344 357.755C212.853 353.418 212.806 349.066 213.217 344.729C213.439 342.355 213.185 339.379 216.794 338.952H216.778Z" fill="#B97557"/>
<path d="M284.885 327.873C278.839 315.764 272.444 303.878 264.182 293.099C264.53 285.834 266.271 284.663 273.615 286.736C280.69 295.647 287.718 304.606 294.856 313.469C296.202 315.147 297.42 316.73 297.436 318.961C293.574 322.396 289.554 325.593 284.885 327.888V327.873Z" fill="#5C6E7C"/>
<path d="M273.616 286.736C269.026 286.705 264.8 287.227 264.183 293.115C262.062 287.781 256.047 283.856 258.247 276.939C266.494 279.25 274.756 281.576 283.002 283.887C280.454 286.736 276.085 283.618 273.616 286.752V286.736Z" fill="#33283D"/>
<path d="M265.734 373.631C270.387 370.813 273.506 366.809 275.31 361.681C276.26 359.006 277.067 356.141 280.042 354.811C282.084 356.173 285.503 356.204 285.74 359.354C285.946 362.33 282.891 362.868 280.897 363.548C274.851 365.638 278.191 371.937 275.262 375.34L275.357 375.261C273.553 376.195 272.113 377.777 270.134 378.395C265.338 379.914 263.708 378.442 265.75 373.631H265.734Z" fill="#B98E69"/>
<path d="M294.983 336.277C297.927 339.221 297.294 341.864 296.898 344.381C296.613 346.169 296.582 347.626 298.893 347.467C302.786 347.198 302.707 349.652 301.678 351.962C300.634 354.305 299.241 356.03 295.648 354.78C289.349 352.58 286.167 349.984 291.137 343.479C292.672 341.469 293.575 338.984 294.983 336.293V336.277Z" fill="#B38359"/>
<path d="M216.779 338.952C213.534 345.616 216.13 352.691 215.291 359.512C212.252 361.296 210.158 360.283 209.008 356.473C210.638 366.571 211.682 367.648 218.71 366.477C220.91 367.03 223.569 367.11 223.173 370.528C223.3 370.956 223.411 371.383 223.522 371.81C213.075 369.088 202.835 370.418 192.673 373.346C186.991 372.364 189.65 376.954 188.827 379.186C188.795 381.038 188.811 382.874 188.194 384.663C187.877 385.375 187.387 385.945 186.738 386.372C186.247 385.312 185.772 384.267 185.282 383.206C181.847 377.92 182.559 372.554 186.168 367.98C189.682 363.533 191.154 358.99 190.014 353.514C190.315 349.968 191.866 347.135 195.76 347.42C201.743 347.863 201.347 353.482 202.914 357.344C203.515 357.486 203.832 357.217 203.816 356.537C203.8 342.972 202.423 329.265 208.089 316.271C208.928 314.34 208.089 312.108 208.089 310.003C208.628 306.473 210.559 304.606 214.231 304.21C223.221 303.245 226.212 299.525 225.484 290.408C225.215 287.116 223.838 283.792 226.165 280.706L226.355 280.468C228.46 280.468 230.581 280.484 232.686 280.5C237.672 287.274 232.195 293.305 231.325 299.652C229.758 307.344 225.896 314.213 222.303 320.94C219.185 326.765 222.477 334.204 216.795 338.936L216.779 338.952Z" fill="#CB9571"/>
<path d="M265.733 373.631C265.955 376.052 265.385 379.281 269.738 377.255C271.526 376.416 273.473 375.926 275.341 375.277C273.299 379.297 269.041 380.626 265.765 383.159C262.125 385.201 258.706 385.976 256.237 381.45C258.959 378.316 261.064 374.422 265.718 373.646L265.733 373.631Z" fill="#E6C39D"/>
<path d="M256.253 381.434C259.181 383.365 262.473 383.349 265.781 383.143C263.043 387.084 259.387 389.712 254.781 391.041C253.087 391.326 251.394 391.611 248.75 392.054C251.599 388.002 253.926 384.71 256.237 381.434H256.253Z" fill="#CD9970"/>
<path d="M223.157 370.528C221.622 369.468 220.07 368.423 218.535 367.363C213.708 367.173 213.375 364.704 215.322 361.063C219.089 360.715 220.26 364.656 223.125 365.812C223.695 367.379 225.974 368.946 223.173 370.544L223.157 370.528Z" fill="#E89476"/>
<path d="M196.234 130.263C192.657 122.032 195.617 118.772 207.377 118.028C211.745 117.3 215.306 118.883 217.38 122.618C219.121 125.752 217.997 128.727 215.037 130.848C210.906 132.384 208.548 128.743 205.351 127.54C200.808 123.394 199.32 129.535 196.218 130.263H196.234Z" fill="#3B130D"/>
<path d="M214.04 130.706C218.82 123.22 218.013 121.684 207.393 118.044C205.937 115.274 202.454 117.284 200.523 115.306C206.68 112.061 223.046 119.484 222.825 125.784C222.666 130.469 218.124 131.877 213.724 132.036C213.186 131.592 213.043 131.26 213.312 131.007C213.534 130.801 213.771 130.706 214.025 130.706H214.04Z" fill="#E7926C"/>
<path d="M196.234 130.263C196.788 126.195 199.036 123.362 203.072 122.792C206.317 122.333 205.414 125.467 205.937 127.271C207.266 128.727 207.33 130.279 206.269 131.893C202.85 131.782 199.163 133.412 196.234 130.247V130.263Z" fill="#F3E0D7"/>
<path d="M182.116 170.355C178.27 169.642 174.55 168.693 170.15 163.818C181.071 168.202 190.125 169.927 197.991 162.172C201.758 162.567 199.78 164.182 198.529 165.274C193.828 169.342 188.099 170.291 182.132 170.355H182.116Z" fill="#A94E32"/>
<path d="M179.029 157.313C168.931 155.318 167.238 151.662 172.445 143.432C173.363 141.975 173.711 140.155 174.329 138.493C176.07 139.427 176.481 141.184 175.437 142.434C169.881 149.114 173.173 153.466 179.014 157.297L179.029 157.313Z" fill="#BE724B"/>
<path d="M182.306 177.556C178.285 170.513 185.297 174.454 186.864 172.966C188.115 173.172 189.887 172.934 190.489 173.662C191.581 175.008 189.761 175.736 188.938 176.496C187.007 178.284 184.648 178.015 182.306 177.556Z" fill="#C45943"/>
<path d="M206.269 131.909C206.158 130.374 206.047 128.823 205.937 127.287C210.764 123.378 210.479 131.608 214.04 130.706C213.93 131.149 213.819 131.592 213.74 132.036C211.255 131.988 208.77 131.956 206.285 131.909H206.269Z" fill="#713529"/>
<path d="M186.706 153.941C184.094 153.941 182.891 152.248 183.414 150.079C183.762 148.671 186.12 147.816 187.26 148.623C189.713 150.364 186.326 152.089 186.69 153.973V153.941H186.706Z" fill="#B46C44"/>
<path d="M210.542 237.67C203.546 238.493 198.149 243.083 191.865 245.568C195.173 236.23 200.792 228.173 206.585 217.79C207.487 226.116 203.008 230.611 201.441 236.451C204.702 237.259 207.281 234.694 210.146 234.789C214.863 234.948 210.621 236.657 210.542 237.654V237.67Z" fill="#D36945"/>
<path d="M251.869 142.086C252.138 146.138 251.061 148.908 246.804 148.386C245.158 148.18 241.675 148.829 242.641 145.426C243.654 141.912 245.822 138.287 249.668 137.718C252.66 137.275 251.552 140.646 251.869 142.086Z" fill="#BC462C"/>
<path d="M191.549 353.165C194.113 358.8 193.243 363.802 188.526 367.853C183.477 372.19 186.12 378.047 185.25 383.206C179.931 391.848 178.444 402.01 174.17 411.063C173.3 412.899 172.223 414.64 171.242 416.429C169.675 400.3 167.617 384.109 172.809 368.233C177.605 353.593 172.587 340.171 168.045 326.67C167.301 324.438 166.114 322.38 166.399 319.911C171.859 317.157 173.901 312.535 173.885 306.632C173.885 304.115 173.6 301.408 175.832 299.446C177.731 300.475 179.029 300.364 179.061 297.784C181.103 302.975 182.796 308.357 185.313 313.311C187.513 317.648 190.457 321.779 196.313 321.589C196.598 321.89 196.883 322.206 197.184 322.507C197.342 331.972 198.118 341.564 191.533 349.652C190.679 350.696 190.568 352.01 191.533 353.181L191.549 353.165Z" fill="#E9D7B2"/>
<path d="M175.848 299.446C175.516 305.27 176.703 311.158 173.664 316.777C171.844 320.133 169.897 321.288 166.415 319.911C169.042 309.006 158.77 304.416 155.003 296.629C153.753 294.049 152.55 291.5 152.407 288.572C156.032 285.438 161.397 289.205 164.864 285.438C171.543 283.222 175.595 284.251 174.55 292.672C174.281 294.84 175.358 297.167 175.832 299.43L175.848 299.446Z" fill="#C39B72"/>
<path d="M164.879 285.438C162.758 294.603 156.491 287.227 152.407 288.572C151.79 284.489 152.09 279.693 155.968 278.395C160.922 276.749 161.745 283.143 164.863 285.438H164.879Z" fill="#E0C39C"/>
<path d="M226.148 280.738C226.544 287.401 228.965 293.97 226.243 300.744C224.375 305.381 222.397 308.927 216.525 306.426C212.172 304.574 210.225 306.996 209.165 310.794C207.345 319.611 203.562 322.808 196.218 321.779L196.329 321.573C196.835 319.959 197.326 318.328 197.832 316.714C204.907 309.164 207.82 299.62 210.7 290.044C213.802 288.319 215.923 288.224 214.641 292.735C213.66 296.17 212.584 300.19 217.443 300.57C221.843 300.902 222.682 296.961 223.315 292.988C223.964 288.889 220.276 283.618 226.132 280.722L226.148 280.738Z" fill="#B27D5A"/>
<path d="M231.309 299.667C230.312 293.178 233.841 287.021 232.67 280.516C232.638 276.844 232.591 273.188 232.559 269.516C238.954 272.808 240.204 277.825 237.972 284.409C236.168 289.696 235.408 295.394 231.309 299.683V299.667Z" fill="#B57C5B"/>
<path d="M169.422 705.27C164.626 707.185 164.562 714.529 158.39 714.877C154.433 716.238 152.359 712.582 149.099 711.348C150.428 714.798 153.246 716.761 155.382 719.262C162.362 727.508 162.03 738.366 154.306 746.058C152.043 748.306 149.431 752.152 145.854 749.224C143.068 746.929 143.258 743.162 145.933 740.154C148.656 729.724 142.451 721.446 139.127 712.535C137.592 708.42 135.17 704.637 133.16 700.711C133.192 698.1 133.192 695.488 134.173 693.003C138.209 682.889 139.396 672.348 138.921 661.538C138.795 658.705 138.779 655.761 140.726 653.323C145.585 653.418 144.16 657.312 144.762 659.971C144.794 661 144.445 661.997 144.461 662.123C156.11 642.687 162.901 620.607 167.744 597.847C168.029 596.549 168.614 595.378 169.77 594.586C172.35 595.805 171.717 593.352 172.318 592.339C174.328 588.936 176.449 588.002 178.871 591.991C181.356 605.112 177.969 618.106 178.238 631.18C178.665 652.738 177.478 674.2 173.6 695.441C172.951 699.018 172.761 702.832 169.406 705.27H169.422Z" fill="#C8A685"/>
<path d="M141.201 653.165C141.55 669.515 141.676 685.849 133.177 700.712C123.015 687.685 122.556 687.4 110.211 701.329C108.2 703.592 106.792 706.568 106.428 709.813C106.19 711.87 106.016 714.656 103.183 714.023C100.508 713.421 101.426 710.43 101.727 708.641C102.534 703.782 103.658 698.955 104.94 694.191C107.52 684.678 108.865 674.849 112.553 665.637C115.402 660.367 115.608 654.352 117.064 648.717C120.404 635.77 123.822 622.855 127.289 609.939C128.602 605.033 130.613 600.506 133.652 596.533C135.218 594.476 136.865 591.263 140.473 593.906C141.819 596.454 141.898 599.192 141.787 601.978C142.468 616.84 141.106 631.766 142.895 646.596C143.18 648.939 143.101 651.329 141.186 653.165H141.201Z" fill="#E1CCA7"/>
<path d="M139.381 593.083C129.409 601.281 128.745 613.675 125.452 624.754C121.353 638.54 118.045 652.548 114.357 666.444C114.246 666.84 113.866 667.157 113.613 667.505C113.265 666.888 112.917 666.27 112.553 665.653C112.648 664.213 112.758 662.772 112.853 661.332C113.898 641.737 121.717 623.599 124.914 604.463C130.122 581.687 133.873 558.705 135.899 535.406C137.798 513.738 139.476 492.07 140.964 470.386C143.179 459.291 143.892 448.005 145.079 436.783C145.285 435.755 144.715 436.894 145.237 436.055C146.614 433.792 144.541 428.205 149.226 429.582C152.929 430.674 155.731 434.757 154.164 439.696C153.768 440.93 153.135 442.086 152.391 443.146C148.561 448.575 148.244 454.115 151.806 459.781C153.23 462.045 154.116 464.419 153.468 467.141C152.613 469.943 148.909 471.969 151.109 475.656C156.063 482.257 152.898 489.268 152.011 496.074C151.362 501.076 149.748 505.634 156.886 507.834C160.827 509.053 160.099 513.279 158.469 516.603C156.823 519.943 153.958 522.333 151.695 525.182C145.965 535.406 147.817 547.182 144.968 557.977C145.237 566.682 144.287 575.292 143.132 583.887C142.673 587.242 142.356 590.74 139.381 593.098V593.083Z" fill="#F6E8C4"/>
<path d="M126.829 605.761C122.761 624.422 118.219 642.972 112.869 661.316C112.837 657.723 111.935 655.555 107.836 658.008C105.857 659.179 104.322 661.284 101.663 661.11C98.2915 651.772 101.742 643.668 106.237 635.754C107.899 627.888 109.545 620.037 111.207 612.171C114.214 606.916 119.2 605.333 124.787 604.827C125.563 604.953 126.243 605.27 126.845 605.776L126.829 605.761Z" fill="#C49C7A"/>
<path d="M202.581 465.115C202.676 466.666 202.771 468.233 202.881 469.816C205.271 470.069 203.309 466.888 205.256 466.983C207.836 478.474 207.392 490.155 207.551 501.804C207.551 539.617 204.243 577.255 201.473 614.925C199.7 638.983 197.547 662.978 194.857 686.941C194.619 689.015 194.92 691.183 193.369 692.909C186.674 695.979 186.69 690.645 186.468 686.878C185.819 676.432 186.373 665.97 186.199 655.508C189.602 616.365 193.527 577.271 194.192 537.939C195.616 516.476 197.12 495.014 198.782 473.567C199.019 470.402 198.07 466.445 202.597 465.115H202.581Z" fill="#A76A51"/>
<path d="M188.463 656.362C188.463 665.02 188.399 673.693 188.479 682.351C188.526 686.53 186.69 691.705 193.338 692.908C193.385 708.91 189.222 724.326 186.769 739.964C183.493 735.39 178.681 737.21 174.36 736.973C173.664 732.351 175.626 727.413 170.704 723.361C167.871 721.034 170.831 716.84 172.413 714.181C175.136 709.575 173.569 707.169 169.422 705.27C174.281 681.702 176.149 657.881 175.864 633.839C175.69 619.23 178.523 604.732 177.478 590.075C177.906 590.075 178.317 590.044 178.744 590.028C181.736 592.639 181.293 596.264 181.134 599.556C180.311 616.65 185.645 633.317 184.506 650.427C184.316 653.276 185.376 655.571 188.479 656.362H188.463Z" fill="#B07559"/>
<path d="M208.896 501.424C208.976 495.188 209.055 488.968 209.15 482.747C212.394 490.993 209.593 499.493 210.796 508.594C207.994 506.046 209.466 503.545 208.896 501.44V501.424Z" fill="#262746"/>
<path d="M210.479 466.761C210.574 464.181 210.669 461.617 210.764 459.037C213.518 463.58 211.634 468.391 212.078 473.678C209.64 471.288 211.017 468.85 210.479 466.761Z" fill="#262746"/>
<path d="M92.1346 607.312C92.0554 609.543 91.3273 611.427 88.874 611.807C86.8481 612.123 85.9459 610.952 86.7215 609.084C87.5445 607.122 86.943 603.909 90.0295 603.751C91.7389 603.656 92.1029 605.682 92.1346 607.312Z" fill="#9B9D98"/>
<path d="M149.257 474.834C146.17 470.972 148.925 469.595 152.011 468.36C155.541 465.717 154.749 462.994 152.612 459.75C147.183 451.535 148.608 445.631 157.028 439.933C160.463 437.86 156.174 430.627 160.969 431.37C165.449 432.067 162.362 438.066 163.201 441.611C163.486 442.814 163.629 444.049 164.056 446.613C168.962 439.395 164.04 433.254 164.816 427.319C165.654 428.585 166.478 429.835 167.633 431.592C175.04 417.505 178.902 402.026 188.352 389.364C192.72 388.699 194.16 392.228 196.218 394.872C199.051 398.955 197.864 404.083 199.7 408.436C200.729 410.953 201.773 413.738 198.687 415.337C195.838 416.809 193.796 414.925 192.103 412.646C191.011 411.158 190.282 407.914 187.623 410.098C185.344 411.981 185.629 414.656 187.623 417.078C194.081 424.881 194.081 424.929 186.8 432.573C183.397 436.15 179.868 439.015 186.294 443.637C190.393 446.581 188.921 453.498 184.331 458.309C181.815 460.937 178.158 462.345 176.275 465.685C181.783 468.313 183.128 471.62 180.453 476.274C179.013 478.759 176.576 480.579 175.673 483.428C173.505 489.079 174.201 496.755 165.56 497.863C163.47 497.562 161.982 495.853 159.925 495.394C153.135 493.843 152.533 492.703 155.382 486.578C156.585 484.014 158.105 481.592 159.45 478.094C154.607 480.563 151.362 479.075 149.209 474.881L149.257 474.834Z" fill="#EAD7B3"/>
<path d="M120.577 556.837C123.205 532.541 125.832 508.262 130.818 484.298C132.29 477.176 133.508 469.99 134.79 462.836C135.107 461.079 134.727 458.784 137.086 458.467C139.381 458.167 139.238 461.142 140.821 462.029C141.628 462.583 142.166 463.327 142.435 464.276C140.14 492.133 138.083 520.006 134.743 547.768C132.005 555.523 129.805 556.948 120.593 556.853L120.577 556.837Z" fill="#E6D2AD"/>
<path d="M120.577 556.837C124.392 553.735 131.166 555.207 132.891 548.86C137.196 553.212 133.54 557.913 133.034 562.203C131.309 576.891 129.425 591.595 125.151 605.84C120.213 607.328 115.544 609.401 111.191 612.155C113.803 593.621 115.069 574.865 120.577 556.837Z" fill="#D5B790"/>
<path d="M157.044 439.933C156 441.437 154.908 442.877 153.942 444.428C150.729 449.62 148.862 454.321 154.765 459.56C158.975 463.279 157.598 466.366 152.027 468.376C152.629 465.083 151.394 462.614 149.463 459.845C145.933 454.795 145.68 448.559 149.463 443.985C154.021 438.509 153.926 434.599 148.197 430.484C147.532 432.003 146.788 433.697 146.044 435.406C144.62 434.852 145.443 433.143 144.461 432.367C144.699 424.248 146.297 416.381 149.194 408.816C150.033 406.616 150.239 402.564 153.357 403.292C156.965 404.131 157.883 408.452 157.852 411.665C157.82 414.672 155.747 418.946 152.201 417.426C147.564 415.432 149.146 418.376 149.004 420.164C148.64 424.501 151.711 427.366 153.8 430.579C155.683 433.475 157.361 436.34 157.013 439.949L157.044 439.933Z" fill="#D6BF96"/>
<path d="M144.477 432.352C145 433.365 145.522 434.378 146.06 435.391C145.411 447.087 145 458.816 143.005 470.402C140.774 468.645 142.894 465.764 141.312 463.833C141.138 463.232 140.979 462.63 140.805 462.029C142.024 452.136 143.258 442.244 144.477 432.352Z" fill="#A68564"/>
<path d="M194.809 395.694C192.688 393.558 191.343 390.63 188.383 389.363C187.829 388.366 187.275 387.369 186.721 386.388C186.832 385.85 186.943 385.311 187.054 384.789C190.726 379.249 195.506 381.529 199.431 383.776C203.768 386.261 198.909 386.926 197.801 388.414C202.866 389.632 207.456 387.591 212.204 386.783C215.274 386.261 219.421 385.185 218.456 391.041C214.705 391.152 210.447 390.028 208.294 395.441C215.1 395.679 221.701 392.149 228.095 395.568C221.162 396.328 214.451 397.705 208.833 402.231C203.119 402.295 198.972 398.955 194.809 395.694Z" fill="#D16143"/>
<path d="M194.809 395.694C199.637 397.546 204.813 398.654 208.833 402.231C207.567 410.81 205.873 419.294 202.597 427.382C202.138 430.452 204.306 433.697 202.027 436.673C199.953 443.067 196.82 449.145 196.725 456.077C196.566 458.531 195.838 460.81 194.699 462.962C191.897 468.502 190.631 474.517 189.08 480.452C188.368 483.19 187.782 485.944 185.566 487.954C183.635 489.205 181.847 490.155 181.15 492.956C176.196 512.772 169.897 532.272 167.744 552.722C165.576 577.097 160.891 600.996 153.689 624.358C152.359 628.663 151.821 636.229 146.867 635.279C141.407 634.235 143.496 626.859 143.955 622.237C144.81 613.659 149.02 605.618 148.387 596.739C146.646 583.475 144.667 570.243 142.831 556.995C143.749 548.496 146.187 540.234 146.313 531.576C146.345 528.838 147.105 525.213 150.46 523.614C159.577 521.826 161.809 514.988 162.679 507.074C163.059 503.592 161.84 499.746 164.847 496.802C173.157 495.473 171.337 487.511 174.138 482.573C176.006 484.884 174.407 487.654 175.12 489.87C175.231 491.168 176.687 490.139 175.674 490.392C175.405 490.455 175.294 490.265 175.215 489.838C174.344 484.821 175.452 480.515 179.631 477.239C182.48 475.007 183.318 472.317 181.34 469.009C178.966 465.052 180.723 462.377 183.825 459.559C190.726 453.276 191.391 450.142 186.959 441.69C184.442 436.894 185.012 433.649 188.842 429.993C193.385 425.656 196.598 420.133 199.985 414.878C201.41 412.678 203.847 408.61 197.658 408.483C195.791 404.416 197.738 399.493 194.778 395.679L194.809 395.694Z" fill="#DDC3A0"/>
<path d="M201.14 434.742C203.182 432.605 199.209 429.249 202.612 427.382C206.347 428.49 205.841 431.275 205.35 434.124C203.593 444.381 202.074 454.669 202.581 465.115C199.573 473.868 201.124 483.095 199.937 492.07C198.402 503.608 197.357 515.352 197.816 527.113C197.959 530.69 196.882 534.298 196.36 537.907C193.068 542.212 193.131 548.021 190.409 552.342C183.745 562.947 180.105 574.311 179.298 586.72C179.219 588.018 178.427 589.173 177.446 590.123C177.446 590.123 177.446 590.091 177.462 590.091C174.075 590.265 173.552 592.988 172.714 595.441C172.492 596.106 172.254 596.976 171.384 596.074C171.067 595.758 171.099 595.093 170.972 594.586C167.174 590.17 169.928 585.359 170.751 581.069C176.196 553.133 178.712 524.738 184.6 496.897C187.085 485.185 190.267 473.63 193.21 462.013C194.223 460.145 194.967 458.214 194.698 456.014C196.677 448.876 199.399 441.959 201.124 434.726L201.14 434.742Z" fill="#D2B292"/>
<path d="M218.456 391.025C216.509 384.853 212.632 388.889 209.656 389.553C203.721 390.867 197.785 393.32 192.499 387.686C194.588 385.185 197.263 387.1 199.226 385.897C199.336 385.739 199.431 385.565 199.542 385.407C195.427 384.219 191.391 381.671 187.07 384.773C187.086 382.589 187.101 380.405 187.117 378.237C191.343 375.973 195.759 378.047 200.08 377.778C204.275 377.524 208.342 377.35 212.109 375.293C220.245 378.11 222.492 383.286 218.472 391.025H218.456Z" fill="#EF7754"/>
<path d="M212.093 375.293C204.338 381.149 195.458 377.429 187.101 378.221C187.054 374.422 187.26 370.908 192.657 373.346C191.818 376.416 191.802 376.606 194.398 376.796C200.365 377.224 206.237 376.401 212.093 375.293Z" fill="#AE4F29"/>
<path d="M215.322 361.063C215.322 363.707 215.734 366.144 218.535 367.363C215.766 370.607 212.204 368.297 209.324 368.851C213.534 363.232 203.214 358.531 208.057 353.118C212.584 352.944 207.377 363.39 215.291 359.512C215.243 360.034 215.259 360.541 215.338 361.047L215.322 361.063Z" fill="#A35336"/>
<path d="M196.218 321.779C203.262 321.336 205.841 315.622 209.165 310.794C212.647 316.002 209.482 321.257 207.931 325.625C206.031 330.959 204.923 335.739 205.667 341.374C206.332 346.47 205.889 351.741 205.715 356.932C205.667 358.484 206.949 361.238 204.148 361.301C201.726 361.348 199.526 359.639 199.811 356.742C200.033 354.606 200.587 352.437 199.004 350.791C195.11 346.739 192.752 348.259 191.565 353.15C190.093 352.01 189.792 350.475 190.71 348.987C195.965 340.582 194.461 330.848 196.234 321.763L196.218 321.779Z" fill="#DFBD96"/>
<path d="M167.617 303.64C165.607 302.975 164.895 301.488 164.879 299.541C164.863 297.626 165.354 295.552 167.395 295.426C170.023 295.267 169.548 297.752 169.532 299.398C169.532 301.029 170.149 303.118 167.617 303.656V303.64Z" fill="#ECCB9C"/>
<path d="M150.46 596.47C150.951 602.848 149.906 608.99 147.658 614.957C145.268 621.272 145.791 627.825 146.851 634.551C152.027 625.324 154.48 615.083 156.775 604.938C160.558 588.129 164.958 571.383 165.085 553.956C165.085 553.307 165.876 552.674 166.288 552.025C171.764 553.149 171.242 557.217 170.53 561.111C167.681 576.764 168.124 592.988 162.172 608.072C161.413 609.987 161.919 611.633 162.711 613.326C162.505 625.039 157.345 635.343 153.166 645.884C151.758 649.461 150.017 653.007 148.102 656.394C146.899 658.515 146.408 661.601 142.831 661.158C142.261 658.499 143.607 655.444 141.185 653.165C138.526 635.881 139.27 618.486 139.555 601.123C143.29 601.012 141.296 603.972 141.913 605.444C141.992 601.677 143.733 598.512 146.234 595.758C147.864 593.953 149.368 594.254 150.444 596.47H150.46Z" fill="#B07B5B"/>
<path d="M142.847 661.158C150.27 652.674 153.135 641.959 156.617 631.687C158.596 625.83 161.445 620.053 161.571 613.627C160.147 609.765 162.394 606.441 163.265 602.975C168.44 582.383 169.897 561.19 173.553 540.344C176.228 525.102 178.665 509.829 181.277 494.586C181.783 491.627 182.511 488.968 185.139 487.211C188.004 478.854 188.526 469.753 193.227 461.997C191.691 477.603 186.896 492.608 184.506 508.056C180.074 536.91 175.5 565.732 170.989 594.555C168.899 602.595 166.842 610.651 164.721 618.692C160.258 635.675 153.151 651.471 144.113 666.729C142.008 664.719 142.926 662.851 142.847 661.142V661.158Z" fill="#925C3E"/>
<path d="M150.46 596.47C143.923 596.359 145.411 603.276 141.787 605.887C140.299 604.874 141.787 602.057 139.571 601.123C139.507 598.448 139.444 595.773 139.381 593.083C140.995 581.101 143.18 569.183 142.847 557.011C148.482 560.335 145.316 566.065 146.234 570.56C147.975 579.107 150.698 587.575 150.46 596.454V596.47Z" fill="#CAA781"/>
<path d="M164.863 496.818C164.61 503.814 165.955 511.079 162.235 517.521C159.735 521.842 157.266 527.16 150.475 523.63C152.723 520.433 156.49 518.375 157.677 514.387C158.738 510.841 158.801 507.502 153.657 508.879C149.067 510.113 148.592 507.85 148.972 504.431C149.399 500.522 149.637 496.549 150.602 492.766C152.185 486.562 152.596 480.595 149.257 474.833C153.815 479.376 157.93 478.252 162.251 472.048C162.552 481.164 155.889 486.039 155.129 494.112C159.988 490.819 162.789 492.893 164.863 496.802V496.818Z" fill="#C3A07E"/>
<path d="M141.312 463.817C143.528 465.59 142.182 468.265 143.005 470.386C140.046 515.796 137.83 561.3 126.845 605.745C126.291 605.776 125.721 605.808 125.167 605.824C127.637 588.888 130.122 571.953 132.543 555.017C132.828 552.991 132.796 550.902 132.907 548.844C135.709 520.496 138.526 492.149 141.328 463.801L141.312 463.817Z" fill="#946A47"/>
<path d="M177.462 590.107C177.542 582.526 176.402 572.475 179.742 567.98C186.785 558.499 187.054 545.679 196.361 537.923C197.279 563.026 193.528 587.844 192.071 612.788C191.217 627.366 190.14 641.88 188.479 656.378C186.753 657.043 186.548 660.715 184.822 659.607C183.303 658.641 182.464 655.666 182.353 653.529C181.878 643.653 183.271 633.539 180.517 623.947C177.288 612.773 181.166 601.139 177.462 590.123V590.107Z" fill="#C8A685"/>
<path d="M197.69 408.499C198.181 406.473 198.893 404.78 201.346 406.568C203.467 408.119 204.227 409.845 203.04 412.63C200.001 419.753 195.031 425.53 189.998 431.149C187.038 434.457 185.835 436.467 188.653 440.883C194.446 450.016 193.29 455.397 184.427 461.57C180.944 463.991 181.403 465.685 182.923 468.471C184.268 470.956 186.326 473.599 183.16 476.163C177.352 480.848 173.141 486.055 177.32 494.571C172.682 490.883 175.009 486.435 174.154 482.605C174.233 479.93 176.307 478.569 177.811 476.78C181.815 472.032 181.546 471.13 175.642 468.407C173.616 467.474 173.648 464.371 176.069 462.187C178.206 460.272 180.929 458.99 183.034 457.059C188.51 452.026 187.988 446.407 181.625 443.305C178.301 441.69 179.298 439.791 180.248 437.559C181.989 433.555 185.582 431.117 188.431 428.062C191.961 424.28 193.939 421.035 186.706 419.468C182.432 418.55 183.635 415.036 183.904 412.425C184.205 409.591 185.17 406.268 188.558 405.935C191.549 405.634 193.053 407.945 193.433 410.968C193.717 413.248 195.031 415.432 197.579 414.34C201.156 412.82 198.434 410.494 197.659 408.499H197.69Z" fill="#BB9974"/>
<path d="M185.139 487.226C181.514 508.357 177.937 529.487 174.233 550.617C170.53 571.731 168.235 593.13 161.571 613.643C158.121 612.155 158.928 609.923 160.115 607.217C166.937 591.595 164.942 574.279 169.216 558.135C169.817 555.824 168.235 553.608 166.288 552.025C167.222 536.847 170.672 522.19 175.104 507.708C176.702 502.5 179.187 497.53 179.156 491.848C179.14 488.018 181.197 486.214 185.154 487.226H185.139Z" fill="#C29471"/>
<path d="M201.141 434.742C200.46 442.276 198.181 449.335 194.715 456.014C195.506 448.512 197.928 441.5 201.141 434.742Z" fill="#A06046"/>
</svg>
