<svg xmlns="http://www.w3.org/2000/svg" width="44" height="78" fill="none" viewBox="0 0 44 78"><path fill="#fff" fill-rule="evenodd" d="M18.661.224c-1.631.258-3.696.855-5.203 1.503-2.204.949-4.856 2.684-5.294 3.463-.296.528-.008 1.254.596 1.504.517.214.609.172 2.583-1.166 4.44-3.01 10.222-3.966 15.57-2.577C34.292 4.87 39.87 10.99 41.136 18.556c.52 3.108.117 7.186-.993 10.05-2.235 5.768-7.287 10.297-13.202 11.834-9.053 2.352-18.34-1.968-22.441-10.438-1.228-2.536-1.835-5.28-1.834-8.285.001-4.174 1.166-7.861 3.566-11.287.5-.715.851-1.377.851-1.61 0-.567-.52-1.06-1.119-1.06-.614 0-1.127.507-2.225 2.202-1.528 2.36-2.63 5.17-3.142 8.015-.352 1.957-.35 5.38.003 7.378 1.67 9.442 9.21 16.636 18.774 17.914 1.985.265 5.372.094 7.378-.373 8.613-2.005 15.145-8.878 16.672-17.54.357-2.027.357-5.287 0-7.313A21.89 21.89 0 0 0 24.848.154c-1.569-.218-4.58-.184-6.187.07m1.066 11.429c-1.254.27-3.187 1.226-4.244 2.1-2.422 2.005-3.724 4.784-3.724 7.946 0 4.013 2.132 7.428 5.76 9.227 5.799 2.877 12.79-.364 14.483-6.713.351-1.317.351-3.71 0-5.027-1.233-4.623-5.346-7.792-10.066-7.755-.67.005-1.664.105-2.209.222m.838 2.194c-3.86.838-6.474 4.009-6.474 7.852 0 3.458 2.142 6.433 5.444 7.563 1.443.493 3.512.493 4.956 0 1.978-.677 3.654-2.102 4.547-3.867 2.65-5.237-.836-11.337-6.64-11.62-.673-.034-1.497-.001-1.833.072m-.185 2.351c-3.376 1.102-5.041 4.852-3.535 7.964.52 1.075 1.577 2.122 2.699 2.674.932.459 1.134.5 2.469.5s1.536-.041 2.468-.5c2.848-1.402 4.056-4.796 2.703-7.59-.52-1.076-1.579-2.13-2.682-2.674-.828-.407-1.204-.497-2.237-.536-.767-.03-1.488.033-1.885.162m.683 2.225c-.815.245-1.506.805-1.95 1.579-1.421 2.478.615 5.48 3.431 5.057 1.564-.235 2.82-1.73 2.82-3.36 0-2.242-2.192-3.911-4.301-3.276M2.843 40.524c-1.613.807-2.502 2.23-2.515 4.027-.013 1.917-.083 1.828 7.21 9.142 6.051 6.067 6.572 6.631 7.039 7.617l.504 1.065.051 2.894c.047 2.687.074 2.92.37 3.238.253.272.483.343 1.129.343h.811v4.239c0 4.234 0 4.24.353 4.57.343.322.458.331 4.239.331 3.866 0 3.888-.002 4.218-.352.323-.345.331-.45.331-4.57V68.85h.811c.646 0 .877-.07 1.13-.343.295-.318.322-.551.37-3.238l.05-2.894.491-1.037c.415-.875.902-1.453 3.11-3.694 2.24-2.273 2.62-2.725 2.62-3.123 0-.606-.476-1.073-1.11-1.091-.452-.013-.765.252-3.26 2.758-1.518 1.525-2.78 2.714-2.803 2.643-.224-.672-1.395-2.253-2.322-3.137-1.156-1.102-3.007-2.231-3.657-2.231s-2.501 1.129-3.658 2.231c-.925.882-2.097 2.465-2.32 3.134-.064.192-12.8-12.609-13.103-13.17-.564-1.042-.19-2.386.836-3.012.553-.337 1.483-.397 1.992-.129.183.097 2.68 1.743 5.55 3.659 7.194 4.802 7.462 4.926 10.703 4.926 3.22 0 3.388-.077 10.559-4.836 5.374-3.567 5.97-3.924 6.55-3.924 1.596.002 2.659 1.616 2.075 3.151-.09.236-1.255 1.528-2.59 2.872-2.221 2.237-2.426 2.49-2.426 2.985 0 .664.426 1.097 1.08 1.097.4 0 .839-.373 3.115-2.646 2.92-2.916 3.299-3.489 3.33-5.022.036-1.863-.857-3.386-2.478-4.225-.826-.428-1.114-.497-2.052-.494-.729.002-1.296.096-1.71.284-.34.155-2.986 1.86-5.88 3.791s-5.614 3.689-6.044 3.907a7.89 7.89 0 0 1-7.059 0c-.43-.218-3.15-1.976-6.044-3.907-2.894-1.93-5.54-3.636-5.88-3.79q-.618-.282-1.699-.285c-.905-.003-1.232.072-2.016.464m18.123 15.997c-1.468.98-2.44 2.252-3.087 4.038-.269.742-.339 1.353-.399 3.454l-.073 2.551h9.211l-.073-2.551c-.06-2.1-.13-2.712-.399-3.454-.646-1.785-1.619-3.058-3.087-4.038-.51-.342-.982-.62-1.046-.62s-.536.278-1.047.62m-1.239 15.756v3.428h4.571V68.85h-4.571z" clip-rule="evenodd"/></svg>