<svg xmlns="http://www.w3.org/2000/svg" width="79" height="79" fill="none" viewBox="0 0 79 79"><path fill="#fff" fill-rule="evenodd" d="M11.28.256c-.877.17-1.345.395-1.79.86-.949.993-5.204 7.192-5.359 7.808-.173.688-.072 1.296.534 3.203 1.18 3.715 3.9 7.8 7.007 10.53 2.88 2.53 6.595 4.942 7.612 4.942.838 0 1.426-1.164.995-1.97-.08-.149-.817-.672-1.638-1.161-2.38-1.42-3.942-2.6-5.728-4.324-2.004-1.936-3.318-3.656-4.444-5.819-.762-1.463-1.763-4.106-1.763-4.657 0-.121 1.04-1.688 2.311-3.482l2.312-3.26 1.136-.107c2.813-.263 6.917.523 10.042 1.925 3.682 1.653 8.305 5.295 11.451 9.023 1.265 1.499 2.004 1.751 2.74.934.616-.685.472-1.231-.681-2.59C30.879 6.067 24.523 1.969 18.178.612c-1.45-.31-5.94-.541-6.899-.355m57.865.065c-1.74.437-3.575 1.988-4.36 3.687-.898 1.943-1.156 5.018-.695 8.271.693 4.888.34 8.117-1.23 11.238-.593 1.179-.662 1.954-.215 2.401.672.672 1.632.535 2.107-.3.143-.251.385-.457.538-.457.259-.001 4.559.493 6.008.691.637.087.65.1.89.955.134.477.508 1.725.831 2.773 3.83 12.423 3.33 22.705-1.454 29.89-1.259 1.891-3.263 4.02-3.672 3.901-.16-.046-1.96-.273-4.001-.504l-3.712-.42-.353-.466c-.194-.257-.64-.999-.99-1.65s-.764-1.251-.918-1.334c-.874-.468-1.977.15-1.977 1.107 0 .517.924 2.275 1.948 3.706.757 1.058 1.184 1.18 6.147 1.755 5.377.623 5.068.689 7.195-1.528 4.863-5.066 7.198-12.12 6.915-20.89-.147-4.583-.856-8.526-2.549-14.176-1.386-4.628-1.442-4.927-1.43-7.622.013-2.72.23-3.738 1.567-7.337 1.081-2.911 1.406-4.227 1.499-6.077.088-1.739-.148-3.16-.705-4.251-.553-1.085-1.782-2.26-2.986-2.855C72.56.343 72.26.27 71.08.224c-.739-.029-1.61.015-1.935.097m.745 2.574c-1.964.48-3.016 1.975-3.32 4.717-.137 1.247-.112 1.91.172 4.438.183 1.635.331 3.218.33 3.517l-.002.544 2.47.278c1.376.155 2.49.217 2.516.142s.324-.925.665-1.89c1.33-3.77 1.693-4.98 1.856-6.198.306-2.292-.297-4.063-1.685-4.943-1.098-.696-1.937-.865-3.002-.605M41.139 4.2c-.793.43-.793.695-.006 5.317.687 4.035.745 4.268 1.144 4.61.231.2.557.362.724.362.536 0 1.195-.444 1.304-.879.129-.508-1.118-8.305-1.426-8.921-.198-.395-.737-.726-1.161-.711-.1.003-.36.103-.58.222M12.835 5.446c-.108.044-.88 1.04-1.715 2.215-1.707 2.403-1.813 2.746-1.072 3.487.878.878 1.404.585 3.034-1.689l1.039-1.448.751.045c1.17.07 2.298.31 3.924.835 1.384.446 1.527.465 1.902.255.85-.477 1.008-1.455.343-2.12-.878-.877-7.012-2.059-8.206-1.58m38.715.104c-.451.25-4.602 7.175-4.602 7.677 0 .451.772 1.262 1.201 1.262.804 0 1.093-.347 3.167-3.798 1.136-1.89 2.101-3.658 2.145-3.928.065-.402-.004-.575-.385-.955-.496-.497-.956-.575-1.526-.258M38.26 17.308c-8.144 1.395-14.835 7.062-17.46 14.787-.564 1.66-.569 2.289-.022 2.76.998.858 1.859.3 2.45-1.59 2.118-6.756 7.877-11.84 14.999-13.236 1.792-.352 5.284-.352 7.076 0 6.686 1.311 12.155 5.828 14.585 12.043 2.258 5.778 1.644 12.2-1.683 17.587-1.557 2.52-4.904 5.56-7.6 6.9-1.06.527-1.371.88-1.371 1.553 0 .655.365 1.125.996 1.284.475.119 1.997-.599 3.758-1.772 5.096-3.396 8.557-8.75 9.602-14.857.4-2.343.323-6.075-.172-8.233-.694-3.026-1.93-5.826-3.616-8.19-1.088-1.526-3.416-3.907-4.852-4.965-2.919-2.15-6.57-3.63-10.196-4.134-1.559-.217-5.06-.183-6.495.063m28.65 1.927c-.005.282-.169 1.13-.364 1.885-.196.755-.34 1.39-.32 1.413.03.033 4.78.629 5.112.642.042.002.087-.88.101-1.96l.026-1.961-1.626-.176c-.894-.097-1.918-.216-2.274-.265l-.648-.09zm-21.638 3.271c-.698.302-1.473 1.055-1.869 1.815-1.003 1.93.381 4.985 2.75 6.066 1 .457 2.612.455 3.482-.004 1.806-.953 2.416-3.118 1.451-5.147-1.072-2.254-3.873-3.57-5.814-2.73M4.8 23.85c-2.953.936-4.836 3.686-4.606 6.728.214 2.845 2.153 5.377 6.441 8.412 3.323 2.353 5.042 4.115 6.313 6.471.757 1.404 1.171 2.506 2.151 5.72 4.554 14.942 12.853 24.431 23.356 26.707 1.827.395 2.553.402 3.278.027.782-.404 6.883-5.696 7.265-6.302.276-.437.31-.72.29-2.475-.088-8.267-5.458-16.622-14.764-22.973-2.42-1.652-4.107-2.604-8.231-4.646-4.4-2.178-5.119-2.626-6.744-4.21-1.509-1.47-2.54-2.982-4.22-6.189-1.465-2.799-1.92-3.491-3.159-4.816-1.755-1.877-3.416-2.675-5.527-2.658-.678.006-1.508.098-1.843.204m41.233 1.31c-.794.795.08 2.5 1.478 2.886 1.867.515 1.854-2.051-.015-2.9-.802-.364-1.088-.36-1.463.015M5.106 26.586c-1.526.712-2.525 2.451-2.294 3.993.27 1.8 1.937 3.832 4.809 5.863.88.622 1.977 1.433 2.438 1.803.46.37.925.706 1.03.747.153.058 1.772-1.238 3.666-2.934.16-.144.1-.35-.323-1.079a124 124 0 0 1-1.61-2.959c-1.342-2.536-2.392-3.955-3.563-4.818-1.439-1.059-2.778-1.257-4.153-.616m47.46 4.265c-1.758.657-2.696 2.424-2.278 4.292.624 2.788 3.47 4.612 6.017 3.855.89-.264 1.96-1.371 2.219-2.295.395-1.41-.04-3.06-1.149-4.354-1.08-1.261-3.46-2.003-4.81-1.498m-10.23.951c-3.383 1.761-1.883 7.066 2.26 7.994 2.289.513 4.329-1.175 4.332-3.584.005-3.256-3.852-5.836-6.592-4.41m10.74 1.773c-.502.502-.016 1.92.888 2.589 1.064.787 2.256.347 2.075-.766-.107-.663-.484-1.201-1.163-1.663-.55-.374-1.5-.459-1.8-.16m-9.707.728c-.582.644.017 2.164 1.046 2.653.783.371 1.41.321 1.71-.136.86-1.312-1.717-3.665-2.756-2.517M14.811 39.48c-.866.744-1.613 1.392-1.66 1.44-.047.046.156.38.452.741a19 19 0 0 1 1.131 1.595l.594.94 2.015-1.751 2.014-1.75-.876-.73c-.482-.402-1.097-.982-1.367-1.29-.27-.307-.544-.556-.61-.554s-.827.614-1.693 1.359m4.242 4.965c-1.649 1.438-2.506 2.288-2.49 2.468.053.581 2.062 6.648 2.859 8.633 1.66 4.138 4.03 8.311 6.348 11.176 3.733 4.614 8.592 7.713 13.575 8.659l1.231.233L43.61 73l3.034-2.614v-1.329c0-3.726-1.566-8.115-4.237-11.879-.562-.792-1.9-2.347-2.972-3.454-2.698-2.785-5.523-4.98-9.242-7.177-1.445-.853-8.302-4.322-8.512-4.305-.062.005-1.245.997-2.628 2.204m51.299 5.142c-.288.252-.494.724-.774 1.775-.509 1.915-1.248 3.579-2.279 5.128-.468.704-.904 1.312-.967 1.351-.063.04-.9-.026-1.86-.146-2.323-.288-2.475-.28-2.944.154-.626.58-.513 1.68.212 2.069.474.253 5.129.77 5.538.614.675-.257 2.377-2.577 3.434-4.68.787-1.566 1.542-3.833 1.65-4.956.075-.782.046-.9-.311-1.258-.495-.495-1.167-.515-1.7-.051M29.419 64.135a1.37 1.37 0 0 0-.915 1.323c0 .574.095.705 1.494 2.078 2.25 2.206 4.778 3.77 7.642 4.73 2.12.71 2.064.727 4.376-1.287 2.186-1.904 2.391-2.23 1.92-3.036-.316-.54-.88-.802-1.425-.661-.2.051-1.037.678-1.858 1.393s-1.514 1.3-1.539 1.3c-.277 0-2.075-.75-3.127-1.305-1.695-.894-2.824-1.738-4.358-3.258-1.165-1.155-1.708-1.468-2.21-1.278" clip-rule="evenodd"/></svg>