<svg xmlns="http://www.w3.org/2000/svg" width="15" height="15" fill="none" viewBox="0 0 15 15"><path fill="#ababab" d="M7.5.11a7.264 7.264 0 0 1 7.266 7.265A7.264 7.264 0 0 1 7.5 14.641 7.264 7.264 0 0 1 .234 7.375 7.264 7.264 0 0 1 7.5.109m0 13.124a5.86 5.86 0 0 0 5.86-5.859c0-3.223-2.637-5.86-5.86-5.86a5.86 5.86 0 0 0-5.86 5.86 5.84 5.84 0 0 0 5.86 5.86m1.787-3.046L6.797 8.37c-.088-.059-.117-.176-.117-.264V3.273c0-.175.146-.351.351-.351h.938c.176 0 .351.176.351.351v4.16l1.934 1.436c.176.117.205.322.088.498l-.557.733c-.117.175-.322.205-.498.088"/></svg>