<svg xmlns="http://www.w3.org/2000/svg" width="100" height="100" fill="none" viewBox="0 0 100 100"><g filter="url(#a)"><path fill="#00aacb" fill-rule="evenodd" d="M43.748.279A46.4 46.4 0 0 0 17.96 12.884C8.951 21.608 4 33.344 4 45.974c0 7.36 1.45 13.689 4.63 20.208 6.905 14.156 20.377 23.69 36.181 25.605 2.686.325 8.25.27 11.17-.11 13.25-1.729 25.098-9.168 32.521-20.416C93.432 63.79 96 55.13 96 45.975c0-7.334-1.461-13.711-4.63-20.208C84.896 12.494 72.571 3.183 57.99.551 54.689-.045 47.07-.191 43.749.279m2.689 18.264c-10.353 1.424-19.319 8.785-22.56 18.522-1.095 3.29-1.4 5.23-1.4 8.91 0 7.717 2.607 14.02 8.058 19.48 7.542 7.553 18.18 10.051 28.368 6.661 4.002-1.332 7.337-3.436 10.562-6.663 5.45-5.454 8.058-11.76 8.058-19.479s-2.609-14.025-8.058-19.478c-4.067-4.07-8.544-6.485-14.174-7.646-2.086-.43-6.774-.593-8.854-.307m1.187 8.103c-2.228.483-4.014 1.482-5.74 3.21-2.32 2.325-3.323 4.74-3.327 8.023-.004 2.668.838 5.279 2.242 6.95l.542.643-.973.954c-4.4 4.314-4.345 10.847.13 15.325 4.13 4.134 10.8 4.988 16.305 2.088 1.665-.877 3.91-3.127 4.8-4.811 2.26-4.273 1.488-9.211-1.971-12.602l-.973-.954.542-.644c1.404-1.67 2.246-4.28 2.242-6.95-.004-3.282-1.006-5.697-3.328-8.023-1.754-1.756-3.522-2.73-5.847-3.221-1.838-.388-2.81-.385-4.644.012m1.37 6.78c-3.583.878-4.745 5.41-2.02 7.874 3.106 2.808 7.866.36 7.516-3.864-.22-2.662-2.93-4.64-5.496-4.01m-.98 16.309c-6.207 1.672-4.597 8.829 1.986 8.829 2.452 0 4.446-.997 5.403-2.7 2.063-3.674-2.49-7.45-7.39-6.13" clip-rule="evenodd"/></g><defs><filter id="a" width="100" height="100" x="0" y="0" color-interpolation-filters="sRGB" filterUnits="userSpaceOnUse"><feFlood flood-opacity="0" result="BackgroundImageFix"/><feColorMatrix in="SourceAlpha" result="hardAlpha" values="0 0 0 0 0 0 0 0 0 0 0 0 0 0 0 0 0 0 127 0"/><feOffset dy="4"/><feGaussianBlur stdDeviation="2"/><feComposite in2="hardAlpha" operator="out"/><feColorMatrix values="0 0 0 0 0 0 0 0 0 0 0 0 0 0 0 0 0 0 0.25 0"/><feBlend in2="BackgroundImageFix" result="effect1_dropShadow_294_30039"/><feBlend in="SourceGraphic" in2="effect1_dropShadow_294_30039" result="shape"/></filter></defs></svg>