<svg xmlns="http://www.w3.org/2000/svg" width="81" height="80" fill="none" viewBox="0 0 81 80"><path fill="#fff" fill-rule="evenodd" d="m56.332 5.367-4.365 4.355-.81-.41c-3.465-1.758-8.387-2.96-12.137-2.967-1.407-.002-1.586.03-1.867.331-.387.416-.398 1.048-.027 1.507.26.322.45.36 2.33.463 3.502.195 7.131 1.1 10.284 2.564l1.39.646.09 1.09c.05.6.136 1.969.19 3.043l.1 1.953-1.05-.677c-7.633-4.924-17.302-4.951-24.843-.07-4.246 2.747-7.53 6.95-9.194 11.766-.9 2.605-1.137 4.146-1.135 7.393.001 2.544.052 3.199.354 4.553.672 3.017 1.808 5.694 3.499 8.244 1.181 1.783 4.266 4.852 6.103 6.072 9.014 5.983 20.686 4.996 28.399-2.4 3.484-3.343 5.674-7.254 6.69-11.946.454-2.097.492-6.632.072-8.706-.66-3.269-1.77-5.928-3.683-8.826l-.29-.44 2.583.104c1.42.057 2.774.141 3.007.187.35.069.533.3 1.041 1.31.34.674.882 2.022 1.205 2.996 1.937 5.817 1.93 11.98-.02 17.747-.525 1.55-.589 1.87-.44 2.227.167.403.703.761 1.14.761.694 0 1.338-1.32 2.13-4.365 1.001-3.854 1.213-8.661.55-12.469-.413-2.368-1.153-4.882-2.005-6.813-.343-.777-.702-1.602-.797-1.833-.169-.412-.086-.505 4.204-4.805 2.406-2.412 4.374-4.485 4.373-4.607-.005-.531-.217-.935-.592-1.13-.272-.14-1.627-.272-4.166-.404l-3.763-.197-1.058-1.074-1.057-1.074-.173-3.58c-.095-1.97-.205-3.736-.245-3.927a1.22 1.22 0 0 0-1.163-.948c-.438 0-.951.46-4.854 4.355m.43 2.922-3.304 3.31.144 2.21c.08 1.215.146 2.277.148 2.36.001.083 1.513-1.357 3.36-3.2l3.357-3.35-.1-2.209c-.055-1.215-.146-2.259-.2-2.32-.056-.061-1.588 1.379-3.405 3.2M31.51 6.966c-8.991 2.026-16.568 8.03-20.554 16.288-4.672 9.681-3.887 20.913 2.083 29.783 2.029 3.014 4.108 5.193 7.152 7.496.742.56 1.334 1.12 1.325 1.253-.008.131-.857 3.212-1.886 6.844-1.87 6.595-1.872 6.606-1.688 7.43.248 1.11.953 2.01 1.99 2.545.726.374.963.422 1.783.36.655-.048 1.16-.194 1.636-.474 1.154-.676 1.357-1.084 2.518-5.078l.322-1.104h23.587l.321 1.104c1.162 3.994 1.364 4.402 2.518 5.078.477.28.982.426 1.636.475.82.06 1.057.013 1.783-.361 1.06-.546 1.748-1.438 1.983-2.572.176-.85.172-.867-1.754-7.656l-1.93-6.804.328-.218c2.12-1.408 4.587-3.623 6.261-5.623 1.512-1.805 3.035-4.078 3.035-4.53 0-.56-.567-1.136-1.116-1.133-.635.003-.697.054-1.472 1.216-2.624 3.934-6.244 7.294-10.217 9.486-2.32 1.279-5.588 2.393-8.676 2.958-2.054.375-6.962.368-9.058-.013-6.837-1.245-12.844-4.782-17.098-10.07-10.114-12.57-7.243-31.284 6.185-40.315 3.124-2.101 6.925-3.669 10.335-4.263 1.595-.278 2.194-1.192 1.34-2.046-.451-.451-.879-.46-2.672-.056m18.318 16.48c-6.472 6.475-11.768 11.86-11.768 11.97 0 .313.274.743.539.844.133.051.427-.005.652-.124.225-.12 5.617-5.43 11.983-11.802L62.809 12.75l-.521-.537c-.286-.295-.56-.537-.606-.537-.048 0-5.381 5.297-11.854 11.77m11.635-6.16-3.335 3.346 1.659.094c.912.052 1.972.123 2.355.158l.697.064 3.333-3.335c1.834-1.835 3.302-3.365 3.264-3.4-.038-.037-1.097-.112-2.354-.17l-2.285-.103zm-25.078-1.4c-5.049.468-9.69 2.688-13.137 6.284-2.79 2.91-4.52 6.195-5.39 10.233-.388 1.803-.396 5.953-.015 7.761 1.381 6.55 5.335 11.678 11.313 14.67 1.206.605 3.815 1.423 5.39 1.691 2.916.497 6.566.26 9.44-.61 4.122-1.249 8.402-4.362 10.789-7.846 4.123-6.02 4.82-13.596 1.857-20.2-.513-1.143-1.932-3.549-2.093-3.549-.059 0-.88.776-1.826 1.725l-1.72 1.725.61 1.131c1.305 2.42 1.859 4.597 1.867 7.335.003.945-.073 2.165-.168 2.71-.57 3.254-2.286 6.445-4.657 8.663-7.812 7.308-20.235 4.899-24.783-4.806-.812-1.735-.877-2.202-.375-2.704.215-.216.557-.392.759-.392.413 0 1.17.531 1.17.82 0 .418 1.499 3.144 2.243 4.08 1.824 2.29 4.398 3.896 7.453 4.647 1.542.379 4.486.338 6.071-.084 1.72-.458 3.768-1.488 5.104-2.57 2.127-1.72 3.431-3.649 4.354-6.436.397-1.198.43-1.477.435-3.732.007-2.779-.153-3.573-1.15-5.707l-.603-1.29-1.836 1.837-1.836 1.836.24.806c1.03 3.468-.275 7.194-3.222 9.204-1.323.902-2.545 1.326-4.107 1.426-1.605.103-2.875-.145-4.289-.837-2.703-1.323-4.578-4.365-4.589-7.441-.004-1.078.512-2.983 1.073-3.963 1.052-1.839 2.812-3.242 4.866-3.88 1.348-.419 3.383-.418 4.725 0l.988.31 1.814-1.813 1.815-1.812-.52-.32c-.92-.563-2.825-1.22-4.281-1.474-5.582-.976-11.277 1.865-13.892 6.929-.86 1.666-1.294 3.186-1.448 5.083-.142 1.74-.352 2.096-1.236 2.096-.56 0-.923-.257-1.11-.786-.145-.413.17-3.146.505-4.385.41-1.512 1.607-3.95 2.547-5.188 1.766-2.326 4.36-4.271 7.029-5.274 4.22-1.586 9.26-1.192 13.042 1.019l1.048.612 1.723-1.718c.948-.945 1.724-1.761 1.724-1.814 0-.36-3.754-2.355-5.59-2.971-2.294-.77-5.94-1.232-8.121-1.03m-.161 14.749c-2.309.85-3.72 2.485-4.123 4.774-.448 2.545 1.037 5.27 3.483 6.392 1.212.555 3.336.584 4.647.061 2.302-.917 4.018-3.768 3.692-6.135l-.105-.761-1.698 1.653c-2.034 1.98-2.656 2.262-4.102 1.86-1.205-.335-2.236-1.7-2.236-2.961 0-.981.472-1.732 2.102-3.341.842-.832 1.497-1.57 1.454-1.638-.122-.198-2.516-.124-3.114.096M21.946 68.92c-.945 3.33-1.716 6.238-1.714 6.461.008.618.153.878.626 1.123.6.31.973.278 1.442-.125.35-.3.639-1.169 2.122-6.36l1.717-6.013-1.085-.564c-.596-.31-1.153-.567-1.237-.57s-.926 2.718-1.87 6.048m28.97-5.478-1.086.564 1.706 6.003c1.496 5.26 1.759 6.047 2.123 6.36.46.395.858.448 1.36.18.485-.258.703-.6.714-1.117.014-.628-3.39-12.569-3.58-12.56-.084.003-.64.26-1.238.57m-22.672 1.582c-.235.716-1.304 4.663-1.304 4.814 0 .144 2.483.185 11.045.185 8.932 0 11.045-.037 11.045-.197 0-.182-.325-1.368-1.086-3.966-.25-.855-.351-1.023-.562-.94-.791.31-4.007 1.013-5.558 1.214-2.072.269-5.25.303-7.118.077-2.124-.257-3.432-.537-6.129-1.311-.147-.043-.297.013-.333.124" clip-rule="evenodd"/></svg>