<svg xmlns="http://www.w3.org/2000/svg" width="38" height="38" fill="none" viewBox="0 0 38 38"><path fill="#006e8c" fill-rule="evenodd" d="M24.412 8.935a1.98 1.98 0 0 0-2.122-.88l-2.847.655a2 2 0 0 1-.886 0l-2.847-.654a1.98 1.98 0 0 0-2.122.879l-1.551 2.476a2 2 0 0 1-.626.627L8.935 13.59a1.98 1.98 0 0 0-.879 2.118l.654 2.85c.067.291.067.594 0 .885l-.654 2.849a1.98 1.98 0 0 0 .879 2.12l2.476 1.551c.253.159.467.372.627.626l1.552 2.476a1.98 1.98 0 0 0 2.12.879l2.847-.654c.291-.067.595-.067.886 0l2.849.654a1.98 1.98 0 0 0 2.12-.879l1.552-2.476c.158-.254.372-.467.625-.626l2.478-1.551a1.98 1.98 0 0 0 .877-2.122l-.652-2.847a2 2 0 0 1 0-.887l.654-2.848a1.98 1.98 0 0 0-.878-2.12l-2.478-1.552a2 2 0 0 1-.625-.625zm-.797 6.534a.792.792 0 0 0-1.361-.806l-4.14 7.008-2.5-2.394a.79.79 0 0 0-1.359.583.8.8 0 0 0 .264.56l3.22 3.086a.792.792 0 0 0 1.23-.17z" clip-rule="evenodd"/></svg>