<svg xmlns="http://www.w3.org/2000/svg" width="81" height="80" fill="none" viewBox="0 0 81 80"><path fill="#fff" fill-rule="evenodd" d="M28.263 12.17c-.555.136-1.324.838-1.613 1.473-.219.484-.285.994-.287 2.227-.001.88.067 1.85.152 2.156.196.704 1.174 1.603 1.892 1.737l.542.102v2.556h-4.202l-.19-.724c-.399-1.512-1.389-3.208-2.654-4.545-1.437-1.518-2.949-2.51-4.807-3.155-1.12-.388-1.621-.47-3.235-.53-2.288-.087-3.772.219-5.707 1.173-2.828 1.395-4.8 3.703-5.892 6.89-.446 1.306-.487 1.589-.496 3.405-.008 1.622.053 2.195.334 3.168.604 2.087 1.538 3.697 3.01 5.194 1.527 1.55 3.77 2.765 5.924 3.206l.929.19-.01 3.033c-.008 2.52-.068 3.315-.352 4.703-1.06 5.162-3.79 9.334-7.962 12.165-1.75 1.188-2.188 2.02-1.797 3.416.163.582.453.968 1.516 2.018 2.866 2.83 6.315 4.744 10.189 5.656 2.137.503 2.677.312 4.126-1.462 3.506-4.29 6.465-10.547 7.644-16.163l.333-1.587h8.286c6.008 0 8.378.048 8.62.177.469.25.703.597.708 1.052.018 1.44 1.023 2.965 2.367 3.592l.761.355h12.416c13.679-.001 13.466.012 15.297-.948 1.241-.65 2.671-2.113 3.284-3.356.372-.757.663-1.859 1.237-4.68.412-2.03.749-3.892.749-4.138 0-.997-.95-2.154-1.93-2.35l-.432-.087V30.22l.596-.08c.787-.105 1.306-.503 1.739-1.33.297-.568.34-.822.266-1.59-.183-1.921-1.473-3.651-3.264-4.375l-.86-.348-14.13-.043-14.13-.042V19.83l6.056-.005c6.377-.005 6.34 0 6.716-.709.24-.449.221-2.23-.032-3.183-.328-1.231-1.148-2.337-2.266-3.053-1.288-.825-1.201-.821-15.724-.802-7.376.01-13.549.051-13.717.092m.686 3.776v1.295h22.09v-2.59h-22.09zm24.68-.02v1.315h3.999l-.098-.487c-.129-.645-.428-1.08-1.087-1.583-.447-.34-.744-.427-1.679-.487l-1.135-.073zm-42.504.341c-2.655.713-4.784 2.489-5.936 4.952-1.667 3.561-.978 7.411 1.83 10.23 1.947 1.955 4.33 2.85 7.071 2.657 4.627-.327 8.314-4.236 8.349-8.85.02-2.742-.773-4.677-2.69-6.57-1.34-1.322-2.498-1.999-4.152-2.423-1.163-.299-3.351-.297-4.472.004m.434 2.585c-3.089.95-5.038 4.032-4.545 7.186.22 1.406.803 2.54 1.847 3.586 3.159 3.168 8.463 2.222 10.394-1.854.445-.939.477-1.121.477-2.683 0-1.568-.031-1.742-.485-2.7-1.135-2.396-3.348-3.786-5.99-3.762-.544.005-1.308.107-1.698.227m19.98 2.272v1.297h13.114l-.045-1.257-.044-1.257-6.513-.04-6.512-.04zm-19.729.437c-.904.421-1.789 1.351-2.069 2.173-.265.781-.24 2.131.052 2.821.576 1.356 2.154 2.417 3.595 2.417 2.103 0 3.833-1.751 3.829-3.877-.005-2.866-2.851-4.727-5.407-3.534m13.275 3.945c-.403 2.884-.716 3.904-1.725 5.627-.997 1.701-2.934 3.472-4.847 4.43-.826.414-2.618.978-3.351 1.054-.433.046-.457.084-.457.734v.685l26.508.044c19.015.032 26.672-.003 27.09-.123.92-.266 1.017-.67 1.019-4.22 0-2.843.021-3.057.36-3.784.408-.878 1.418-1.817 2.218-2.064.299-.092 1.594-.203 2.878-.247l2.335-.08-.098-.4c-.256-1.036-.987-1.772-1.994-2.005-.345-.08-10.992-.14-25.232-.143l-24.635-.003zm5.473 2.263c-.864.207-1.541.787-1.844 1.58-.324.848-.241 1.45.388 2.8.815 1.752 1.375 2.558 2.04 2.94l.625.357 8.912.048c4.902.026 9.269.004 9.705-.048q1.456-.176 2.135-1.375c.486-.857.44-1.57-.191-2.938-.872-1.892-1.426-2.705-2.112-3.098l-.624-.358-9.217-.026c-5.332-.015-9.47.035-9.817.118m23.636.2c-.15.114-.335.424-.41.69-.126.437.008.78 1.38 3.52 1.589 3.176 1.684 3.293 2.636 3.227.495-.034 1.008-.649 1.008-1.207 0-.554-2.378-5.496-2.936-6.103-.363-.394-1.238-.46-1.678-.127m5.098.136c-.564.601-.43 1.129 1.022 4.03 1.37 2.735 1.677 3.181 2.227 3.239.797.082 1.24-.195 1.443-.905.123-.428-.008-.772-1.237-3.255-.757-1.526-1.519-2.93-1.693-3.118-.438-.472-1.314-.467-1.762.01m-28.058 2.24c0 .086.275.704.611 1.372l.611 1.216h8.91c4.901 0 8.909-.052 8.906-.115-.003-.062-.294-.662-.648-1.333l-.642-1.218-8.874-.04c-6.014-.026-8.874.012-8.874.118m41.05.372c-.37.37-.374.404-.374 3.178 0 1.542-.044 3.122-.097 3.51l-.097.707h.711c.947 0 1.732-.343 1.921-.84.084-.22.152-1.631.152-3.138 0-3.415-.138-3.791-1.39-3.791-.277 0-.597.145-.826.374m-57.655 10.22c0 .129-.074.9-.163 1.714-.434 3.944-1.638 7.354-3.684 10.432-1.118 1.681-3.685 4.3-5.256 5.36-.607.41-1.104.809-1.104.885 0 .232 1.667 1.783 2.893 2.692 1.531 1.136 3.27 2.024 5.2 2.657 2.547.836 2.415.846 3.277-.249 4.65-5.9 7.462-13.662 7.919-21.86l.104-1.866h-3.809l-.103 1.486c-.406 5.877-2.71 11.825-6.52 16.83-1.416 1.86-1.984 2.403-2.519 2.403-.913 0-1.627-.982-1.247-1.717.096-.187.58-.834 1.074-1.437 3.837-4.68 6.142-10.415 6.588-16.384l.088-1.18h-1.37c-1.13 0-1.368.04-1.368.234m11.676 1.708c-.055 1.068-.143 2.233-.196 2.59l-.095.647H35.5v-5.18h-5.824l.232.354c.293.448.351.828.209 1.37-.14.533-.971.935-1.504.727-.483-.188-1.243-1.029-1.631-1.803-.178-.356-.381-.648-.45-.648-.07 0-.171.874-.227 1.943m11.785.637v2.58l2.475.06c1.362.033 2.614.11 2.784.171.268.097.386-.049.914-1.134.333-.685.741-1.34.906-1.456.445-.312 1.079-.257 1.514.132.682.609.646.958-.288 2.825-.794 1.584-.843 1.745-.7 2.277.083.315.191.827.24 1.137a1.4 1.4 0 0 0 .488.88c.398.313.467.314 12.832.273l12.433-.042 1.017-.5c1.207-.594 2.115-1.553 2.535-2.676.161-.432.546-2.053.855-3.603s.597-2.973.642-3.161l.08-.343h-7.769l.142.633c.303 1.35-.434 3.052-1.69 3.898-1.164.784-2.65.819-3.985.092-.684-.372-.803-.394-1.1-.207-1.595 1.01-3.376.95-4.716-.16-1.069-.885-1.649-2.701-1.257-3.935l.102-.32H38.09zm21.272-2.264c-.297.233-.401.454-.401.848 0 .708.197 1.04.756 1.271 1.31.543 2.375-1.258 1.261-2.134-.494-.388-1.11-.383-1.616.015m5.152.058c-1.01 1.01.159 2.657 1.422 2.005.487-.253.843-.992.689-1.431-.338-.96-1.429-1.256-2.11-.574M50.38 43.463c-.45.261-1.964 3.486-1.85 3.941.206.826.993 1.227 1.773.904.58-.24 2.176-3.334 2.034-3.942-.196-.839-1.24-1.32-1.957-.903" clip-rule="evenodd"/></svg>