<svg xmlns="http://www.w3.org/2000/svg" width="81" height="80" fill="none" viewBox="0 0 81 80"><path fill="#fff" fill-rule="evenodd" d="M36.199 1.515q-7.85 1.092-13.766 5.738c-8.756 6.875-12.56 18.224-9.701 28.932.412 1.544 1.296 3.993 1.744 4.83.131.245-.002.333-1.065.707-2.392.84-4.264 2.144-4.965 3.46-.27.507-.34.909-.34 1.974-.002 1.208.045 1.423.486 2.204.42.746 1.006 1.325 1.99 1.967.138.091.276.49.325.945l.084.787H9.39c-1.471 0-1.687.04-2.653.498-1.464.694-2.375 1.585-3.082 3.02-.588 1.19-.588 1.192-.576 3.164.011 1.788.06 2.113.513 3.445.558 1.636 1.017 2.504 2.03 3.838 1.152 1.517 3.133 3.08 4.733 3.732q.518.211.432.439c-.048.124-.132.81-.187 1.525-.139 1.813.172 2.709 1.345 3.875.705.7 1.115.958 2.06 1.295 3.078 1.099 5.655 1.53 9.13 1.53 3.474 0 6.051-.431 9.129-1.53 2.063-.736 3.462-2.498 3.462-4.359 0-.352-.255-2.411-.567-4.576-.474-3.283-.572-4.416-.59-6.846-.013-1.602.037-3.535.11-4.297l.133-1.386 1.126.127c.62.069 2.224.126 3.566.126s2.946-.057 3.566-.126l1.126-.127.133 1.386c.073.762.123 2.695.111 4.297-.018 2.437-.114 3.553-.59 6.846-.313 2.165-.569 4.224-.569 4.576 0 1.861 1.4 3.623 3.463 4.36 3.078 1.097 5.654 1.53 9.129 1.53s6.051-.433 9.129-1.53c.945-.338 1.355-.596 2.06-1.296 1.173-1.166 1.484-2.062 1.345-3.875-.055-.714-.138-1.399-.185-1.521q-.086-.222.586-.525c4.11-1.849 6.93-6.02 7.163-10.592.074-1.448.04-1.807-.258-2.682-.99-2.91-3.48-4.583-6.508-4.376-1.215.084-1.24.078-1.15-.255.05-.187.091-.558.092-.825.002-.406.127-.565.765-.979a4.56 4.56 0 0 0 1.82-5.275c-.523-1.535-2.458-3.034-5.111-3.962l-1.192-.416.672-1.682c.805-2.017 1.37-3.929 1.74-5.894.384-2.041.384-7.319 0-9.36-1.315-6.983-4.953-13.003-10.415-17.237-3.37-2.612-7.144-4.337-11.481-5.249-1.533-.322-2.463-.41-4.812-.458-1.601-.032-3.372.005-3.934.083m.578 2.524c-8.593.998-15.933 6.126-19.786 13.82-3.378 6.75-3.503 14.887-.332 21.654l.603 1.287 1.244-.152c.685-.084 1.267-.169 1.294-.19s-.23-.593-.572-1.273c-.816-1.624-1.493-3.568-1.945-5.583-.485-2.17-.527-6.7-.08-8.796.95-4.46 2.919-8.251 5.89-11.346 2.44-2.542 4.83-4.171 7.99-5.445 2.853-1.15 5.308-1.623 8.445-1.623 5.89-.002 11.34 2.19 15.593 6.273 2.761 2.65 4.691 5.67 5.852 9.16.945 2.84 1.118 3.97 1.109 7.23-.007 2.39-.071 3.2-.356 4.516-.423 1.96-1.12 3.971-1.946 5.614-.342.68-.6 1.253-.572 1.273.027.021.609.106 1.293.19l1.244.152.594-1.268c3.178-6.79 3.06-14.89-.318-21.648-2.504-5.009-6.33-8.842-11.321-11.34-4.23-2.118-9.341-3.038-13.923-2.505m-.342 5.107c-7.22 1.164-13.422 6.273-15.861 13.066-1.987 5.532-1.4 11.885 1.563 16.957l.713 1.22h.904c2.017 0 4.49.98 6.087 2.411 1.066.956 1.615 1.202 3.044 1.365.68.077 1.494.248 1.808.38 1.537.642 2.76 1.976 3.24 3.534.261.845.306.894.923 1.028.38.082.916.082 1.296 0 .617-.134.661-.183.922-1.028.48-1.558 1.703-2.892 3.24-3.534.315-.132 1.13-.303 1.809-.38 1.429-.163 1.977-.41 3.044-1.365 1.596-1.431 4.07-2.412 6.084-2.412h.9l.652-1.095c3.02-5.085 3.633-11.503 1.63-17.08-1.979-5.514-6.591-10.109-12.161-12.116-2.867-1.033-6.907-1.423-9.837-.95m1.81 4.8v2.518h2.518v-5.036h-2.518zm0 10.305v5.268l2.539 3.192a417 417 0 0 0 2.663 3.328c.107.12 1.891-1.178 1.999-1.453.021-.056-1.023-1.428-2.322-3.049l-2.361-2.947v-9.607h-2.518zm-16.37 4.805v1.259h5.037v-2.518h-5.036zm30.22 0v1.259h5.037v-2.518h-5.037zm-13.85 15.11v2.518h2.518v-5.037h-2.518zm-17.786-1.151c-1.477.111-4.215.546-5.318.843-1.429.386-3.431 1.385-4.02 2.006-1.253 1.321-.194 3.338 1.752 3.338.96 0 1.246.207 1.698 1.229.677 1.532 1.702 2.32 3.256 2.505.542.064.928.215 1.17.456.357.357.36.397.36 4.452 0 4.338.057 4.726.733 5.035.586.266.825.215 1.325-.286l.46-.46v-7.121l.387-.386c.243-.244.566-.387.873-.387.562 0 1.259.602 1.259 1.087 0 .757.64 1.431 1.357 1.431.133 0 .448-.207.701-.46l.46-.46v-2.222c0-1.907.044-2.308.314-2.836.483-.949 1.277-1.47 2.338-1.535 1.106-.068 1.93.359 2.59 1.34.745 1.111 1.644 1.4 2.58.828 1.177-.717 1.289-2.192.271-3.565-.503-.678-1.336-1.03-2.777-1.176-1.515-.152-2.559-.62-3.82-1.713-2.108-1.824-3.858-2.252-7.949-1.943m33.41.123c-1.233.349-2.268.925-3.294 1.831-1.217 1.076-2.271 1.549-3.796 1.702-1.44.146-2.274.498-2.777 1.176-1.017 1.373-.905 2.848.27 3.565.937.571 1.837.283 2.582-.828 1.283-1.91 3.907-1.806 4.928.195.27.528.313.928.313 2.836v2.222l.46.46c.254.253.569.46.701.46.718 0 1.358-.674 1.358-1.43 0-.486.697-1.088 1.259-1.088.306 0 .63.143.873.387l.386.386v7.121l.46.46c.5.5.74.552 1.325.285.677-.308.733-.696.733-5.034 0-4.055.004-4.095.36-4.452.242-.242.629-.392 1.17-.456 1.554-.184 2.58-.973 3.257-2.505.451-1.022.737-1.229 1.698-1.229 1.932 0 3.008-2.022 1.766-3.318-.603-.63-2.617-1.643-4.01-2.018-2.879-.776-8.432-1.18-10.022-.728m-24.333 8.688c-.058.057-.106 1.023-.106 2.146 0 2.555-.157 3.11-1.175 4.132-.914.918-1.828 1.256-3.073 1.136l-.788-.075v1.572c0 2.066-.197 2.68-1.175 3.663-.925.929-1.85 1.267-3.07 1.123-.933-.11-1.48-.38-2.193-1.08-1.04-1.02-1.11-1.36-1.114-5.422l-.003-3.64-.714-.199c-.392-.11-1.11-.478-1.595-.818l-.883-.618.094.6c.77 4.939.725 10.247-.13 15.111l-.088.502 1.697.548c5.248 1.694 10.552 1.693 15.83-.002l1.696-.546-.088-.502c-.69-3.929-.875-8.454-.49-12.07.142-1.342.297-2.631.345-2.866.076-.37.017-.455-.447-.649-.684-.286-1.641-1.126-1.94-1.702-.231-.449-.393-.542-.59-.344m7.909.479c-.21.321-.683.813-1.052 1.094l-.671.51.592.121c.326.067 1.761.122 3.19.122 1.428 0 2.863-.055 3.19-.122l.592-.12-.671-.511c-.37-.28-.843-.773-1.052-1.094l-.38-.584h-3.358zm11.297.028c-.457.69-1.216 1.324-1.893 1.581-.377.144-.431.235-.356.601.048.238.205 1.53.347 2.872.384 3.616.2 8.141-.49 12.07l-.089.502 1.748.565c2.571.832 4.96 1.2 7.785 1.202 3.271.002 5.255-.31 8.228-1.293l1.46-.483-.087-.497c-.692-3.943-.874-8.461-.485-12.066.144-1.342.305-2.71.356-3.04l.094-.6-.882.617c-.485.34-1.203.708-1.596.818l-.713.2-.001 3.481c0 2.052-.072 3.74-.175 4.111-.233.847-1.575 2.188-2.421 2.422-1.503.415-2.68.104-3.783-1-.98-.98-1.175-1.59-1.175-3.675v-1.588l-.784.093c-1.075.127-2.074-.187-2.897-.911-1.114-.981-1.265-1.443-1.356-4.142-.05-1.497-.141-2.369-.251-2.405-.095-.032-.358.222-.584.565M8.123 55.729c-.89.318-1.695 1.035-2.144 1.91-.334.652-.392.97-.38 2.107.027 2.47.985 4.696 2.818 6.543 1.24 1.249 2.562 2.114 2.755 1.802.065-.106.166-.592.224-1.08.096-.813.075-.909-.256-1.124-1.734-1.132-2.918-3.092-3.069-5.08-.082-1.093-.051-1.282.344-2.09.49-1.003 1.454-1.741 2.489-1.907.437-.07.577-.157.513-.323a1.3 1.3 0 0 1-.087-.366c0-.185-1.508-.625-2.114-.616-.266.004-.757.105-1.093.224m60.302.012c-.411.131-.748.302-.748.379s-.039.242-.087.367c-.063.166.076.253.514.323 1.034.166 1.998.904 2.488 1.907.396.808.427.997.344 2.09-.15 1.988-1.334 3.948-3.069 5.08-.33.215-.352.311-.256 1.124.155 1.3.215 1.346 1.11.83 1.336-.768 2.94-2.536 3.67-4.044.997-2.06 1.343-4.295.87-5.632-.718-2.038-2.793-3.078-4.836-2.424m-57.567 3.85c-.173.173-.315.478-.315.68 0 .637.453 1.9.857 2.389l.39.472.004-1.574c.005-2.297-.192-2.712-.936-1.968m56.447.039c-.053.195-.094 1.062-.092 1.928l.004 1.574.39-.472c.404-.49.858-1.752.858-2.39 0-.402-.505-.994-.848-.994-.12 0-.26.159-.312.354M13.118 72.892c-.18.469.127 1.394.63 1.897.365.365.92.637 2 .984 2.663.853 3.997 1.04 7.387 1.04s4.723-.187 7.386-1.04c1.081-.347 1.636-.62 2-.984.756-.755.944-2.308.252-2.08-3.843 1.26-5.775 1.582-9.56 1.59-3.704.01-6.04-.344-8.887-1.343-1.036-.363-1.092-.366-1.208-.064m32.738 0c-.18.469.127 1.394.63 1.897.365.365.92.637 2 .984 2.663.853 3.997 1.04 7.387 1.04s4.724-.187 7.386-1.04c1.081-.347 1.636-.62 2-.984.756-.755.944-2.308.252-2.08-3.843 1.26-5.775 1.582-9.56 1.59-3.704.01-6.04-.344-8.887-1.343-1.036-.363-1.092-.366-1.208-.064" clip-rule="evenodd"/></svg>