<svg width="197" height="117" viewBox="0 0 197 117" fill="none" xmlns="http://www.w3.org/2000/svg">
<g filter="url(#filter0_d_340_59980)">
<path fill-rule="evenodd" clip-rule="evenodd" d="M169.541 0.210557C168.589 0.33172 167.508 0.732066 166.848 1.20773C166.498 1.45975 166.23 1.71088 163.263 4.57154C162.253 5.5445 160.341 7.37858 159.013 8.64717C154.394 13.0594 153.377 14.0345 153.185 14.2375C153.079 14.3498 151.877 15.5045 150.513 16.8036C147.982 19.2153 146.923 20.2306 145.33 21.7765C144.834 22.2575 142.632 24.367 140.436 26.4644C138.24 28.5617 136.025 30.6835 135.512 31.1794C134.538 32.1231 133.41 33.2068 132.001 34.5557C131.54 34.9962 130.323 36.167 129.296 37.1575C128.269 38.148 125.965 40.3562 124.177 42.0647C121.177 44.9308 120.255 45.8161 119.195 46.8495C118.788 47.2472 114.224 51.6095 113.792 52.0149C113.426 52.358 113.045 52.9816 112.838 53.5747C112.736 53.8664 112.652 54.1086 112.652 54.1131C112.651 54.1175 112.209 54.0089 111.669 53.8718C109.969 53.44 109.078 53.335 107.113 53.3347C105.617 53.3345 105.301 53.3528 104.547 53.4835C99.346 54.3856 95.9545 58.0365 94.6651 64.1217C94.4127 65.3127 94.3046 66.1052 94.189 67.6129C94.0835 68.9882 94.0807 69.0037 93.8944 69.22L93.7063 69.4384L93.744 70.2474C93.7648 70.6923 93.7982 71.6919 93.8182 72.4689C93.9095 76.0136 94.0407 76.6291 94.8675 77.3924C95.4229 77.9052 95.924 78.0931 96.8492 78.1356C98.7103 78.2212 100.093 77.3769 100.411 75.9607C100.545 75.3645 100.738 71.9668 100.738 70.2041L100.738 69.416L100.484 69.1404C99.7546 68.352 97.829 67.9527 96.0801 68.2275C95.6962 68.2878 95.3721 68.3272 95.36 68.3151C95.3386 68.2937 95.4339 67.5741 95.5882 66.5937C95.7859 65.3372 96.2517 63.7236 96.755 62.5521C98.2801 59.0022 100.85 56.8463 104.469 56.0807C105.234 55.9188 105.373 55.9097 107.049 55.9112C108.672 55.9126 108.898 55.9267 109.759 56.0806C110.275 56.173 111.139 56.3658 111.679 56.5091C112.218 56.6524 112.668 56.7697 112.679 56.7697C112.69 56.7697 112.734 56.9503 112.777 57.171C112.879 57.6899 113.36 59.2347 113.611 59.8483C113.718 60.1112 113.8 60.3331 113.792 60.3413C113.784 60.3495 113.05 61.0879 112.16 61.9821C110.391 63.761 110.277 63.915 110.098 64.78C109.953 65.4803 110.006 67.1972 110.195 67.8779C110.664 69.575 111.75 71.588 113.252 73.5455C113.599 73.9977 113.626 74.0547 113.539 74.1555C113.487 74.2167 113.275 74.469 113.068 74.7162C112.506 75.3879 110.567 77.665 110.525 77.702C110.505 77.7196 110.028 78.2831 109.464 78.954C108.9 79.625 108.408 80.206 108.371 80.2452C108.335 80.2843 108.101 80.557 107.854 80.8513C107.606 81.1455 107.213 81.6047 106.981 81.8717C106.338 82.6122 104.526 84.7489 104.346 84.9787C104.259 85.0907 104.031 85.3363 103.839 85.5246L103.491 85.8668L103.523 86.3148C103.551 86.7094 103.542 86.758 103.451 86.722C103.175 86.6144 102.097 86.5592 101.483 86.6215C99.9787 86.774 98.8857 87.3471 97.7539 88.5765C97.4502 88.9064 97.0426 89.2857 96.848 89.4193C96.2513 89.8291 95.9276 89.7189 94.8393 88.7361C93.7639 87.7649 91.9914 86.9117 90.2424 86.5233C89.5144 86.3616 89.3205 86.3447 88.2141 86.3463C86.5758 86.3487 85.5245 86.5368 84.2217 87.0605C82.7138 87.6668 81.2016 88.8516 80.1857 90.2228C79.6226 90.983 78.9737 91.5004 78.5771 91.5056C78.4073 91.5078 78.1725 91.1759 78.0151 90.7116C77.9354 90.4761 77.7732 90.1124 77.6547 89.9034C77.5362 89.6943 77.4185 89.4567 77.3932 89.3754C77.3679 89.2941 77.205 88.9473 77.0312 88.6048C75.6777 85.938 73.2076 84.299 69.9911 83.933C67.9457 83.7003 65.5226 84.1523 63.5573 85.133C61.331 86.244 59.3121 88.1838 57.6688 90.7908C57.2403 91.4706 57.0525 91.7964 56.1265 93.4654C55.44 94.7026 54.9349 95.2953 54.567 95.2953C54.192 95.2953 54.0556 95.009 53.8333 93.7543C53.7738 93.4188 53.6839 92.9999 53.6336 92.8233C53.5832 92.6467 53.4548 92.1084 53.3481 91.6272C52.4611 87.6233 50.4877 84.8379 47.6021 83.5171C46.4234 82.9775 45.2553 82.7122 43.8449 82.6635C42.1421 82.6049 40.7814 82.8135 38.922 83.4184C37.965 83.7297 36.3604 84.5006 35.6207 85.0045C33.8261 86.2269 32.6785 87.4926 31.2385 89.8375C30.9909 90.2407 30.4157 90.9979 30.0068 91.4588C29.952 91.5207 29.8202 91.5712 29.714 91.5712C29.6067 91.5712 29.5208 91.6054 29.5208 91.6482C29.5208 91.9068 28.9449 90.7342 28.3319 89.2276C28.0057 88.4258 27.5813 87.6513 27.1055 86.9899C26.5171 86.1718 26.2721 85.8566 26.2244 85.8566C26.1958 85.8566 26.1724 85.8289 26.1724 85.7952C26.1724 85.6958 24.9014 84.4872 24.2784 83.994C23.4773 83.36 22.6799 82.8797 21.665 82.4199C20.6541 81.9619 20.2535 81.8248 19.1537 81.5606C17.8591 81.2497 16.9144 81.151 15.6122 81.1907C14.1593 81.235 13.8688 81.2791 12.3139 81.6919C7.98778 82.8403 4.83927 86.1294 4.11705 90.2549C3.96347 91.1321 3.96058 92.6892 4.111 93.4654C4.47384 95.3369 5.25131 96.9107 6.35448 98.0067C7.06762 98.7152 7.44128 98.9566 8.41161 99.3356C9.727 99.8494 10.738 100.004 11.8289 99.8563C14.2532 99.5294 16.0436 98.0159 16.4929 95.9137C16.6104 95.3637 16.5739 94.3061 16.4172 93.7222C16.3603 93.5103 16.182 93.0727 16.0209 92.7496C15.6966 92.0994 15.6934 91.9532 15.9999 91.7952C16.2933 91.644 16.587 91.6805 17.0894 91.9312C17.833 92.3022 18.8898 93.4464 19.1282 94.1388C19.2428 94.4715 19.5323 96.225 19.6372 97.2216C19.8888 99.6116 20.3115 101.269 21.0365 102.71C22.363 105.346 24.591 107.143 27.4603 107.891C28.8155 108.245 30.8609 108.23 32.2707 107.856C34.0814 107.376 35.7882 106.302 36.9766 104.895C38.0149 103.665 38.7699 102.248 39.3714 100.4C39.5868 99.7381 40.3128 97.9775 40.6289 97.3501C41.235 96.1476 42.054 95.3233 42.6897 95.276C42.8464 95.2644 42.8749 95.3004 43.0106 95.6806C43.0924 95.9102 43.2232 96.5314 43.301 97.0611C43.5454 98.7239 43.7744 99.7916 44.0938 100.758C45.2309 104.198 48.3504 106.862 52.1868 107.668C52.6197 107.758 53.037 107.782 54.1829 107.782C55.7453 107.782 56.4702 107.685 57.5957 107.322C58.777 106.942 60.1032 106.221 61.0348 105.452C61.5248 105.047 62.6934 103.808 63.1363 103.224C63.5742 102.646 64.3355 101.488 64.5497 101.074C64.7939 100.602 66.9947 97.6104 67.5659 96.9742L67.8168 96.6946L67.957 97.4557C68.4411 100.084 69.0545 101.5 70.3649 103.014C70.9334 103.671 72.1008 104.548 73.0176 105.006C74.1509 105.573 75.2516 105.796 76.6517 105.742C78.3752 105.677 79.7175 105.239 81.4145 104.187C82.2705 103.657 83.0847 102.973 84.3827 101.695C85.0379 101.049 85.7334 100.394 85.9281 100.238C86.1229 100.082 86.6498 99.6289 87.0988 99.2304C87.548 98.8319 87.9271 98.5058 87.9413 98.5058C87.9556 98.5058 88.0774 98.6653 88.212 98.8601C88.3466 99.0551 88.6937 99.4379 88.9833 99.7109C90.5096 101.15 92.4507 101.896 94.7822 101.939C96.2931 101.967 97.4498 101.758 98.8677 101.201C100.41 100.595 101.768 99.6645 103.221 98.2188C104.122 97.323 106.005 95.3099 106.506 94.7084C106.891 94.2457 107.288 93.4596 107.445 92.8474C107.692 91.8864 107.595 90.5518 107.222 89.7748L107.075 89.4672L107.262 89.2578C107.429 89.0713 107.446 89.016 107.412 88.7527C107.391 88.5901 107.243 88.2037 107.083 87.894C106.922 87.5842 106.791 87.3183 106.791 87.3029C106.791 87.2876 106.886 87.2572 107.002 87.2355C107.132 87.2112 107.352 87.0676 107.572 86.8634C109.044 85.4974 110.043 84.5809 110.493 84.1825C110.67 84.0261 110.844 83.8673 110.88 83.8297C110.915 83.792 111.104 83.6344 111.299 83.4794C111.493 83.3245 111.785 83.0808 111.947 82.9379C112.108 82.7951 112.451 82.5193 112.709 82.325C113.145 81.9962 113.355 81.833 113.525 81.6923C113.563 81.6608 113.777 81.4941 114.001 81.3219C114.225 81.1497 114.542 80.902 114.705 80.7716C114.868 80.6411 115.218 80.3992 115.484 80.2341C115.75 80.0689 115.988 79.9011 116.014 79.8613C116.04 79.8214 116.062 79.8124 116.063 79.8413C116.063 79.8702 116.148 79.8341 116.251 79.761C116.353 79.688 116.464 79.6282 116.496 79.6282C116.528 79.6282 116.612 79.5777 116.682 79.5159C116.868 79.3533 117.094 79.233 117.094 79.2969C117.094 79.327 117.035 79.4199 116.962 79.5032C116.89 79.5864 116.771 79.7498 116.699 79.8661C116.627 79.9825 116.542 80.0777 116.509 80.0777C116.476 80.0777 116.45 80.1103 116.45 80.1501C116.45 80.2129 115.894 81.0078 115.71 81.2083C115.674 81.2475 115.486 81.4642 115.292 81.6899C114.42 82.7018 112.458 84.5596 109.962 86.7354C109.05 87.5303 108.246 88.2412 108.176 88.3151L108.047 88.4495L108.176 88.3589C108.246 88.3091 108.436 88.1519 108.597 88.0095C108.758 87.8672 108.967 87.6876 109.06 87.6106C109.602 87.1614 111.683 85.411 111.846 85.267C111.952 85.1728 112.447 84.754 112.945 84.3364C114.446 83.0783 116.717 81.1652 117.094 80.8406C117.289 80.673 117.775 80.2606 118.175 79.924L118.903 79.312L119.548 79.7913C121.655 81.3548 123.547 82.3483 125.175 82.7456C125.73 82.881 125.971 82.9028 126.916 82.9029C128.074 82.9029 128.499 82.837 129.024 82.5758C129.193 82.4919 129.933 81.8088 130.973 80.7772L132.651 79.1138L132.905 79.2349C133.443 79.4908 134.999 79.977 135.832 80.1488C136.625 80.3127 136.797 80.3264 137.796 80.3062C139.233 80.2771 139.784 80.1214 140.569 79.522C140.747 79.3862 142.251 77.8593 143.912 76.1288C145.573 74.3984 147.703 72.188 148.645 71.2168C149.587 70.2456 151.066 68.7142 151.932 67.8137C152.797 66.9132 153.957 65.7141 154.51 65.149C155.062 64.584 157.22 62.3447 159.304 60.1728C161.389 58.0009 163.188 56.1372 163.301 56.0313C163.415 55.9253 164.572 54.7262 165.872 53.3666C167.173 52.0069 168.328 50.8044 168.438 50.6944C168.847 50.2881 171.692 47.339 174.626 44.2809C177.741 41.0338 178.676 40.0646 180.233 38.47C180.733 37.9579 182.18 36.4554 183.448 35.1311C184.716 33.8068 185.873 32.6061 186.018 32.463C186.164 32.3198 186.559 31.9153 186.897 31.564C187.234 31.2128 188.221 30.1885 189.09 29.288C192.001 26.2716 191.952 26.3276 192.337 25.5328C192.525 25.1437 192.725 24.6376 192.782 24.4081C193.761 20.4172 191.391 14.4828 186.73 9.25465C185.922 8.34789 184.251 6.70849 183.385 5.97201C178.677 1.96771 173.303 -0.268574 169.541 0.210557ZM162.438 46.1776C162.36 46.2496 162.297 46.334 162.297 46.365C162.297 46.4524 161.857 46.7029 161.783 46.6574C161.727 46.6232 161.708 46.6818 161.72 46.8516C161.723 46.907 161.539 47.074 161.474 47.074C161.441 47.074 161.335 47.1476 161.237 47.2374C161.14 47.3273 160.979 47.4172 160.878 47.4372C160.778 47.4572 160.629 47.5354 160.548 47.6109C160.467 47.6865 160.379 47.7414 160.353 47.733C160.327 47.7245 160.321 47.7584 160.34 47.8083C160.36 47.8605 160.315 47.9309 160.234 47.9744C160.138 48.0255 160.106 48.0271 160.136 47.9794C160.22 47.8434 160.036 47.9103 159.888 48.0693C159.806 48.1576 159.691 48.2298 159.633 48.2298C159.575 48.2298 159.528 48.2578 159.528 48.292C159.528 48.3262 159.484 48.3374 159.431 48.3169C159.361 48.2903 159.345 48.3092 159.373 48.3832C159.41 48.4792 159.367 48.496 159.108 48.4852C159.09 48.4845 158.996 48.5567 158.9 48.6458C158.803 48.7348 158.701 48.8077 158.672 48.8077C158.576 48.8077 158.176 49.1598 158.176 49.2449C158.176 49.2911 158.151 49.3135 158.12 49.2946C158.043 49.2473 157.832 49.4906 157.881 49.5697C157.903 49.6049 157.89 49.6521 157.853 49.6748C157.816 49.6976 157.794 49.6817 157.804 49.6397C157.814 49.5976 157.771 49.5546 157.709 49.5442C157.647 49.5338 157.596 49.562 157.596 49.6068C157.596 49.6515 157.422 49.8148 157.209 49.9695C156.948 50.1587 156.834 50.2819 156.858 50.346C156.878 50.3983 156.876 50.4227 156.854 50.4002C156.786 50.3325 156.437 50.4828 156.437 50.5797C156.437 50.6293 156.397 50.6698 156.349 50.6698C156.3 50.6698 156.064 50.8504 155.825 51.0711C155.062 51.7749 155.003 51.8255 154.943 51.8255C154.911 51.8255 154.905 51.8589 154.93 51.8997C154.959 51.9467 154.948 51.9563 154.898 51.926C154.853 51.898 154.76 51.9405 154.676 52.0284C154.596 52.1111 154.396 52.2924 154.232 52.4314C154.067 52.5704 153.951 52.7125 153.972 52.7473C153.995 52.7835 153.968 52.794 153.91 52.7718C153.852 52.7496 153.761 52.7859 153.697 52.8572C153.635 52.9254 153.605 52.9813 153.631 52.9813C153.657 52.9813 153.54 53.1126 153.372 53.2729C153.2 53.4378 153.028 53.5498 152.978 53.5306C152.927 53.5109 152.907 53.5249 152.931 53.5634C152.978 53.6404 152.65 53.9443 152.518 53.9444C152.465 53.9445 152.491 53.8922 152.583 53.8122L152.735 53.68L152.563 53.784C152.469 53.8411 152.375 53.931 152.354 53.9837C152.334 54.0379 152.345 54.0625 152.381 54.0403C152.416 54.0187 152.444 54.0245 152.443 54.053C152.439 54.1199 151.72 54.6219 151.656 54.6018C151.63 54.5934 151.608 54.6161 151.608 54.6521C151.608 54.6882 151.538 54.7495 151.452 54.7884C151.367 54.8273 151.282 54.9171 151.263 54.9881C151.239 55.0813 151.192 55.1075 151.096 55.0826C151.013 55.0607 150.979 55.0731 151.006 55.116C151.029 55.1533 150.995 55.2229 150.929 55.2705C150.864 55.3181 150.835 55.3571 150.865 55.3571C150.896 55.3571 150.815 55.4471 150.685 55.5571C150.556 55.6672 150.469 55.79 150.491 55.83C150.517 55.8758 150.501 55.8739 150.448 55.8249C150.38 55.7627 150.333 55.7823 150.213 55.9212C150.13 56.0171 150.063 56.1162 150.063 56.1416C150.063 56.167 150.019 56.1711 149.966 56.1508C149.913 56.1305 149.869 56.1475 149.869 56.1887C149.869 56.2299 149.841 56.2459 149.806 56.2243C149.771 56.2028 149.756 56.2227 149.772 56.2687C149.79 56.3165 149.715 56.3952 149.599 56.4524C149.486 56.5074 149.382 56.5909 149.366 56.6379C149.347 56.694 149.366 56.7058 149.42 56.6724C149.473 56.6396 149.487 56.647 149.459 56.6927C149.434 56.732 149.377 56.7497 149.331 56.7322C149.285 56.7145 149.057 56.9016 148.818 57.1524C148.582 57.401 148.367 57.6045 148.34 57.6047C148.259 57.6052 147.873 57.9911 147.872 58.0732C147.872 58.1244 147.852 58.1204 147.815 58.0614C147.771 57.9917 147.749 58.002 147.715 58.1096C147.691 58.1849 147.636 58.2465 147.593 58.2465C147.55 58.2465 147.473 58.3083 147.421 58.3838C147.19 58.7182 147.012 58.8933 146.934 58.8633C146.88 58.8427 146.863 58.865 146.885 58.924C146.907 58.9804 146.882 59.017 146.822 59.017C146.767 59.017 146.704 59.0748 146.682 59.1454C146.659 59.216 146.6 59.2738 146.549 59.2738C146.498 59.2738 146.457 59.3172 146.457 59.3702C146.457 59.4231 146.435 59.4631 146.408 59.4589C146.24 59.4324 146.142 59.4761 146.176 59.5628C146.201 59.628 146.172 59.6591 146.088 59.6591C146.02 59.6591 145.879 59.7634 145.776 59.891C145.402 60.3511 144.785 60.8867 144.69 60.833C144.652 60.8117 144.643 60.8186 144.671 60.8483C144.726 60.9086 144.411 61.2643 144.303 61.2643C144.265 61.2643 144.176 61.3422 144.105 61.4374C143.915 61.6947 143.625 61.9616 143.487 62.0051C143.42 62.0262 143.366 62.0799 143.366 62.1244C143.366 62.1688 143.261 62.2896 143.133 62.3929C143.005 62.4961 142.75 62.7251 142.568 62.9017C142.095 63.3583 141.832 63.5759 141.753 63.5759C141.715 63.5759 141.698 63.5992 141.716 63.6278C141.755 63.6908 141.411 64.0253 141.307 64.0253C141.266 64.0253 141.25 64.0522 141.27 64.0849C141.29 64.1177 141.248 64.1631 141.176 64.1859C141.105 64.2086 141.062 64.2541 141.083 64.2868C141.103 64.3195 141.092 64.3464 141.058 64.3464C141.024 64.3464 140.928 64.4181 140.845 64.5058C140.762 64.5935 140.662 64.6657 140.624 64.6663C140.585 64.6669 140.44 64.8081 140.302 64.9799C140.163 65.1518 139.992 65.319 139.921 65.3515C139.85 65.3839 139.799 65.4456 139.808 65.4885C139.817 65.5313 139.785 65.5664 139.737 65.5664C139.688 65.5664 139.542 65.667 139.411 65.7899L139.174 66.0134L138.855 65.7762C138.68 65.6457 138.536 65.5206 138.536 65.4982C138.536 65.4621 138.295 65.3498 137.841 65.1741C137.623 65.0896 137.442 65.1046 137.442 65.207C137.442 65.2565 137.67 65.6394 137.948 66.0578C139.522 68.4209 140.249 69.7906 141.309 72.3917L141.46 72.7639L141.588 72.5201C141.68 72.3444 141.724 72.1071 141.744 71.6709C141.772 71.0766 141.798 70.9957 142.034 70.7789C142.369 70.4718 142.534 70.3021 142.939 69.8496C143.182 69.5774 143.421 69.3547 143.47 69.3547C143.519 69.3547 143.552 69.3308 143.543 69.3017C143.534 69.2725 143.628 69.1474 143.752 69.0236C143.876 68.8998 144.311 68.4423 144.718 68.0069C145.125 67.5715 145.567 67.1055 145.7 66.9713C145.833 66.837 145.941 66.7036 145.941 66.6746C145.941 66.6457 146.378 66.1751 146.911 65.6287C147.444 65.0824 148.059 64.4374 148.279 64.1954C148.498 63.9534 148.903 63.525 149.178 63.2432C149.453 62.9615 149.658 62.6999 149.635 62.662C149.611 62.624 149.619 62.6096 149.652 62.6301C149.685 62.6506 149.784 62.5764 149.871 62.4652C149.959 62.354 150.119 62.1756 150.228 62.0687C150.336 61.9618 150.558 61.7247 150.721 61.5419C150.883 61.359 151.036 61.229 151.06 61.253C151.084 61.2769 151.094 61.2627 151.082 61.2214C151.07 61.1802 151.191 61.0031 151.35 60.8279C151.51 60.6527 151.814 60.3117 152.026 60.07C152.239 59.8284 152.551 59.4925 152.719 59.3238C152.887 59.155 153.011 59.017 152.993 59.017C152.976 59.017 153.048 58.9344 153.154 58.8335C153.26 58.7326 153.346 58.6181 153.346 58.5792C153.346 58.5402 153.399 58.4566 153.464 58.3935C153.529 58.3303 153.736 58.0908 153.925 57.8612C154.114 57.6317 154.344 57.3693 154.436 57.2783C154.64 57.0752 154.827 56.8253 154.827 56.7566C154.827 56.7284 154.86 56.7055 154.899 56.7055C154.938 56.7055 155.027 56.633 155.097 56.5443C155.167 56.4557 155.255 56.4024 155.293 56.4258C155.334 56.4509 155.344 56.4383 155.317 56.3951C155.291 56.3533 155.392 56.1901 155.552 56.016C155.706 55.8478 155.91 55.6141 156.006 55.4966C156.101 55.3791 156.18 55.3069 156.18 55.3361C156.18 55.3653 156.232 55.3118 156.294 55.2172C156.357 55.1226 156.514 54.9312 156.643 54.7918C156.827 54.594 156.862 54.5205 156.803 54.4567C156.744 54.3939 156.745 54.3853 156.806 54.4196C156.912 54.479 157.146 54.3492 157.146 54.2311C157.146 54.1794 157.173 54.1371 157.206 54.1371C157.239 54.1371 157.284 54.0793 157.307 54.0087C157.329 53.938 157.389 53.8802 157.44 53.8802C157.49 53.8802 157.532 53.8242 157.532 53.7556C157.532 53.687 157.563 53.6119 157.601 53.5886C157.639 53.5653 157.653 53.5043 157.634 53.4531C157.614 53.4018 157.623 53.3752 157.653 53.394C157.738 53.4463 157.989 53.2012 158 53.0554C158.005 52.9842 158.034 52.9414 158.065 52.9601C158.095 52.9789 158.136 52.9335 158.156 52.8594C158.175 52.7851 158.214 52.7245 158.241 52.7245C158.269 52.7245 158.323 52.6356 158.361 52.527C158.399 52.4184 158.454 52.3443 158.483 52.3623C158.512 52.3802 158.578 52.3684 158.63 52.3359C158.705 52.2884 158.698 52.2758 158.594 52.2709C158.5 52.2665 158.492 52.2549 158.562 52.2278C158.615 52.2074 158.711 52.1302 158.775 52.0562C159.087 51.6951 159.51 51.2191 159.629 51.0944C159.703 51.0177 159.753 50.9249 159.741 50.888C159.728 50.8511 159.777 50.768 159.848 50.7033C159.92 50.6386 159.981 50.5396 159.984 50.4832C159.988 50.4086 159.998 50.4041 160.023 50.4668C160.058 50.5532 160.145 50.4392 160.294 50.1147C160.329 50.0389 160.381 49.9667 160.41 49.9542C160.482 49.923 160.973 49.1445 161.079 48.8926C161.126 48.7803 161.182 48.699 161.203 48.7118C161.224 48.7245 161.268 48.7152 161.302 48.6911C161.401 48.6201 161.656 48.0941 161.62 48.0354C161.601 48.0059 161.732 47.8281 161.91 47.6403C162.109 47.4298 162.272 47.1813 162.335 46.9923C162.404 46.7838 162.518 46.6212 162.689 46.4839C162.999 46.2352 162.969 46.1784 162.622 46.3587C162.478 46.4332 162.361 46.4816 162.361 46.4663C162.361 46.4509 162.456 46.3505 162.571 46.2428C162.711 46.1116 162.747 46.0472 162.679 46.047C162.624 46.0468 162.515 46.1056 162.438 46.1776ZM156.587 50.5706C156.587 50.6221 156.612 50.649 156.642 50.6304C156.672 50.6119 156.68 50.5698 156.66 50.5369C156.608 50.4529 156.587 50.4624 156.587 50.5706ZM155.89 51.0543C155.868 51.0907 155.894 51.1014 155.951 51.0796C156.063 51.0369 156.083 50.9908 155.99 50.9908C155.957 50.9908 155.912 51.0194 155.89 51.0543ZM120.89 51.8332C121.049 51.9031 121.321 52.007 121.496 52.0641C121.671 52.1212 122.516 52.5171 123.373 52.9439C124.726 53.6178 124.926 53.7004 124.891 53.5728C124.843 53.3948 124.375 52.9101 124.129 52.7838C124.032 52.7335 123.879 52.6273 123.791 52.5479C123.703 52.4685 123.571 52.4034 123.498 52.4034C123.425 52.4034 123.331 52.3691 123.289 52.327C123.247 52.285 123.176 52.2446 123.131 52.2372C123.087 52.2299 122.818 52.1454 122.535 52.0495C122.166 51.9245 121.896 51.8762 121.585 51.879C121.342 51.8811 121.051 51.8417 120.927 51.7899C120.591 51.6502 120.56 51.6873 120.89 51.8332ZM116.257 63.4702C116.257 63.4828 116.637 63.7212 117.101 64C118.139 64.6229 118.122 64.6127 118.804 65.0848C119.109 65.2967 119.424 65.5134 119.502 65.5664C120.169 66.0155 120.745 66.4806 121.767 67.3943C122.124 67.7133 122.53 68.0717 122.669 68.191C123.262 68.7 123.824 69.2639 124.57 70.1003C125.008 70.5908 125.453 71.09 125.56 71.2097C125.667 71.3295 125.784 71.4597 125.819 71.4991C125.854 71.5386 126.028 71.7439 126.205 71.9555C126.382 72.167 126.59 72.4124 126.667 72.5008C126.803 72.6573 126.945 72.8599 127.523 73.721C127.852 74.2103 127.904 74.2879 128.385 74.9959C128.585 75.291 128.749 75.5547 128.749 75.582C128.749 75.6092 128.792 75.6672 128.845 75.7109C128.897 75.7545 128.927 75.8128 128.909 75.8405C128.892 75.8681 128.922 75.9072 128.975 75.9275C129.027 75.9477 129.071 76.0064 129.071 76.058C129.071 76.1096 129.111 76.192 129.16 76.2412C129.21 76.2903 129.328 76.4831 129.422 76.6695C129.517 76.8559 129.608 76.9948 129.625 76.9781C129.675 76.9287 129.371 76.1794 128.995 75.4225C128.179 73.7791 126.603 71.5886 125.083 69.9824C124.791 69.6743 124.496 69.3512 124.428 69.2644C124.218 68.9988 122.19 67.1618 121.47 66.5855C120.115 65.5009 118.342 64.3738 117.049 63.7747C116.379 63.4642 116.257 63.4173 116.257 63.4702ZM99.2523 71.5432C99.2496 71.5932 99.2364 71.6919 99.223 71.7626C99.1515 72.1388 99.021 73.5159 98.9613 74.5236C98.9142 75.3186 98.8895 75.4106 98.6461 75.699C98.4925 75.8811 98.4357 75.9041 98.139 75.9041C97.8098 75.9041 97.5785 76.0021 97.406 76.2147C97.192 76.4784 97.4381 76.834 97.9073 76.9391C98.0703 76.9756 98.2511 77.0765 98.3578 77.1905C98.5717 77.4188 98.7153 77.4288 99.0063 77.2358C99.3194 77.0281 99.5682 76.4905 99.6092 75.9332C99.6888 74.8496 99.711 73.2073 99.6461 73.2073C99.6081 73.2073 99.5792 73.0573 99.5792 72.8595C99.5792 72.6682 99.5484 72.5014 99.5106 72.4889C99.4729 72.4763 99.4332 72.3552 99.4225 72.2196C99.4117 72.0841 99.3629 71.9479 99.314 71.917C99.2465 71.8744 99.245 71.8606 99.3077 71.8599C99.3583 71.8593 99.3822 71.7974 99.3692 71.7008C99.345 71.5208 99.2598 71.4058 99.2523 71.5432ZM14.9039 84.2948C14.9039 84.3631 14.9446 84.3841 15.0326 84.3611C15.1035 84.3427 15.1614 84.3555 15.1614 84.3896C15.1614 84.4237 15.1888 84.4346 15.2223 84.414C15.2558 84.3934 15.4586 84.3716 15.673 84.3656C15.8874 84.3596 16.0629 84.3304 16.0629 84.3007C16.0629 84.2711 16.1209 84.2777 16.1917 84.3155C16.2918 84.3689 16.3205 84.3643 16.3205 84.2949C16.3205 84.2242 16.1719 84.2044 15.6122 84.2002C15.0118 84.1957 14.9039 84.2101 14.9039 84.2948ZM13.2941 84.325C12.5244 84.4102 10.8928 84.9217 10.2354 85.2839C10.0584 85.3814 9.7592 85.5453 9.57059 85.6481C9.38199 85.7508 9.06563 85.9915 8.86763 86.1828C8.66956 86.3742 8.5324 86.4874 8.5628 86.4344C8.61051 86.3514 8.60317 86.3503 8.50922 86.4262C8.44927 86.4747 8.40027 86.5677 8.40027 86.6328C8.40027 86.6979 8.29183 86.8593 8.15932 86.9915C8.0268 87.1236 7.95648 87.2082 8.0031 87.1795C8.07258 87.1367 8.0731 87.1509 8.00581 87.2583C7.96067 87.3304 7.90059 87.375 7.87226 87.3575C7.84392 87.34 7.82074 87.3562 7.82074 87.3933C7.82074 87.5102 7.59969 87.9755 7.54418 87.9755C7.51501 87.9755 7.51108 88.0076 7.53542 88.0469C7.55976 88.0861 7.54508 88.1396 7.50278 88.1657C7.46047 88.1917 7.41765 88.2535 7.40767 88.3029C7.3756 88.4612 7.28474 88.6484 7.21848 88.6926C7.18313 88.7161 7.14405 88.8015 7.13169 88.8824C7.11932 88.9632 7.07367 89.0518 7.03033 89.0793C6.96922 89.118 6.97012 89.1295 7.03419 89.1303C7.1011 89.1311 7.10142 89.1589 7.03587 89.2757C6.99131 89.3551 6.9483 89.4924 6.94038 89.5807C6.90934 89.927 6.84598 90.1586 6.78229 90.1586C6.72531 90.1586 6.72634 90.2488 6.78802 90.6562C6.78938 90.6651 6.83085 90.6723 6.88017 90.6723C7.00541 90.6723 7.06053 90.8501 6.98114 90.9979C6.91816 91.1153 6.8152 91.1499 6.5973 91.1267C6.53941 91.1205 6.52653 91.1368 6.5651 91.1672C6.64372 91.2293 6.66697 92.4168 6.5886 92.3685C6.50232 92.3153 6.52292 92.4986 6.61339 92.5895C6.67792 92.6543 6.6736 92.6627 6.59195 92.6317C6.52621 92.6068 6.48996 92.6282 6.48996 92.6921C6.48996 92.7466 6.52556 92.7912 6.56903 92.7912C6.61288 92.7912 6.64392 92.8626 6.63876 92.9516C6.63368 93.0399 6.60052 93.1126 6.5651 93.1132C6.52969 93.1137 6.54218 93.1404 6.59292 93.1724C6.64759 93.2069 6.6879 93.3437 6.69202 93.5085C6.69582 93.6613 6.74855 93.8848 6.80908 94.005C6.9519 94.2884 6.95738 94.5532 6.81932 94.5003C6.65036 94.4357 6.7812 94.5765 7.08153 94.7826C7.27779 94.9172 7.41179 94.9663 7.51353 94.9408C7.61282 94.916 7.70915 94.9486 7.80825 95.0407C7.93427 95.1578 7.98379 95.1676 8.15236 95.109C8.30375 95.0564 8.37844 95.0609 8.47561 95.1289C8.58713 95.2067 8.62113 95.1994 8.76473 95.0667C8.91457 94.9283 8.92146 94.8983 8.85204 94.6885C8.81058 94.5632 8.75082 94.4606 8.71927 94.4606C8.68772 94.4606 8.67857 94.4173 8.69892 94.3643C8.71933 94.3113 8.70394 94.268 8.66473 94.268C8.62551 94.268 8.59345 94.2959 8.59345 94.3302C8.59345 94.367 8.5364 94.3712 8.45307 94.3405C8.37039 94.31 8.27741 94.1872 8.22699 94.0419C8.1221 93.7398 7.96826 93.5617 7.81224 93.5617C7.65416 93.5617 7.45448 93.2591 7.54985 93.164C7.60052 93.1135 7.68565 93.1251 7.85584 93.2057C8.01752 93.2821 8.1125 93.2964 8.15796 93.2511C8.23936 93.17 8.16878 92.9601 8.07876 93.0157C8.04309 93.0376 8.01392 93.0274 8.01392 92.9929C8.01392 92.9585 8.05017 92.9156 8.09441 92.8977C8.15693 92.8724 8.15532 92.8515 8.08733 92.804C8.02834 92.7627 8.00742 92.646 8.02332 92.4468C8.03961 92.2426 8.02042 92.1407 7.96157 92.1181C7.90716 92.0973 7.89106 92.0331 7.91714 91.9407C7.94908 91.8275 7.94322 91.8169 7.89035 91.8923C7.83208 91.9753 7.82261 91.9731 7.82171 91.8762C7.82119 91.8144 7.78455 91.7634 7.74025 91.7629C7.685 91.7622 7.68913 91.7433 7.75326 91.7029C7.80471 91.6704 7.87715 91.6586 7.91424 91.6765C7.9514 91.6945 7.9315 91.668 7.87013 91.6178C7.80877 91.5676 7.74792 91.4715 7.73491 91.4044C7.7219 91.3372 7.68893 91.2306 7.66163 91.1675C7.60754 91.0425 7.79473 90.7771 7.89389 90.8382C7.92461 90.8571 7.97947 90.7947 8.01585 90.6993C8.09737 90.4855 8.05114 90.4188 7.95082 90.6056C7.86814 90.7597 7.6559 90.7361 7.51488 90.5572C7.41037 90.4246 7.41333 90.3814 7.53555 90.2595C7.6709 90.1245 7.79943 90.1323 7.92911 90.2833C8.03427 90.4058 8.03781 90.4051 8.12165 90.2439C8.2324 90.0311 8.22937 89.9685 8.10162 89.8278C8.00297 89.7191 8.00606 89.7079 8.14959 89.6549C8.23395 89.6238 8.3042 89.5583 8.30568 89.5092C8.31051 89.3464 8.48417 88.8744 8.53923 88.8744C8.56904 88.8744 8.59345 88.8191 8.59345 88.7513C8.59345 88.6836 8.62712 88.6171 8.66821 88.6034C8.76299 88.5719 8.75919 87.9866 8.66357 87.8913C8.48392 87.7121 8.70163 87.4054 8.9214 87.5281C8.97594 87.5585 9.10066 87.5979 9.19847 87.6156C9.35675 87.6442 9.36692 87.6361 9.29075 87.5424C9.24367 87.4845 9.23717 87.4563 9.27632 87.4796C9.31541 87.503 9.41638 87.4488 9.50073 87.3594L9.65398 87.1967L9.48405 87.2611C9.33054 87.3193 9.30652 87.3072 9.23569 87.1368C9.15198 86.9352 9.22861 86.7555 9.39835 86.7555C9.44278 86.7555 9.51522 86.7122 9.55933 86.6592C9.68334 86.5101 9.94568 86.5345 9.94568 86.6951C9.94568 86.7725 9.9742 86.8097 10.0144 86.7849C10.0523 86.7616 10.0671 86.7006 10.0474 86.6494C10.0276 86.5981 10.0369 86.5719 10.0679 86.5909C10.1423 86.6368 10.2804 86.4685 10.2188 86.4072C10.1926 86.381 10.2 86.3654 10.2354 86.3725C10.3856 86.4027 10.5298 86.3655 10.493 86.306C10.4711 86.2707 10.4839 86.2418 10.5214 86.2418C10.5589 86.2418 10.5896 86.2102 10.5896 86.1714C10.5896 86.1328 10.6497 86.0169 10.7233 85.9139C10.8354 85.7568 10.8951 85.7296 11.0935 85.7449C11.3269 85.7629 11.4866 85.6758 11.7401 85.3924C11.8152 85.3084 11.8521 85.3006 11.8919 85.3603C11.9306 85.4184 11.9765 85.4012 12.0657 85.2952C12.1324 85.2161 12.247 85.1422 12.3203 85.1311C12.3937 85.1199 12.4737 85.0907 12.4982 85.0663C12.5228 85.0419 12.6258 85.0218 12.7273 85.0218C12.8303 85.0218 12.9278 84.9801 12.9481 84.9273C12.9682 84.8752 13.086 84.8137 13.21 84.7905C13.3727 84.7601 13.4113 84.7322 13.3487 84.6905C13.2912 84.6522 13.3172 84.6454 13.4257 84.6703C13.5424 84.6972 13.6237 84.6703 13.7084 84.5771C13.7921 84.4847 13.8731 84.4575 13.9825 84.4848C14.0904 84.5119 14.1678 84.487 14.2363 84.4036C14.3198 84.3018 14.3296 84.3001 14.3007 84.3925C14.2773 84.467 14.2948 84.4908 14.3557 84.4674C14.4048 84.4487 14.4287 84.391 14.4088 84.3393C14.3701 84.2387 14.1033 84.2353 13.2941 84.325ZM16.8356 84.3119C16.8356 84.3451 16.893 84.3614 16.963 84.3479C17.0331 84.3344 17.1073 84.3505 17.1278 84.3837C17.1484 84.4169 17.2142 84.4429 17.2741 84.4417C17.3534 84.44 17.3392 84.4145 17.222 84.3476C17.0366 84.242 16.8356 84.2234 16.8356 84.3119ZM17.5945 84.388C17.7109 84.4214 17.7889 84.4766 17.7678 84.5106C17.7468 84.5446 17.7585 84.5724 17.7939 84.5724C17.8293 84.5724 17.875 84.5453 17.8956 84.5123C17.9504 84.4237 18.1878 84.4576 18.1878 84.5539C18.1878 84.5994 18.2095 84.632 18.2361 84.6264C18.2627 84.6208 18.3371 84.6391 18.4014 84.667C18.5598 84.7358 18.7106 84.5936 18.5737 84.5046C18.5208 84.4703 18.4269 84.4544 18.3649 84.4692C18.303 84.484 18.2522 84.4705 18.2522 84.4392C18.2522 84.4079 18.1653 84.3923 18.0591 84.4046C17.9528 84.417 17.8659 84.402 17.8659 84.3713C17.8659 84.3406 17.7573 84.3182 17.6244 84.3213L17.3829 84.3271L17.5945 84.388ZM17.5319 84.4878C17.5783 84.5064 17.6339 84.5041 17.6553 84.4827C17.6766 84.4614 17.6386 84.4463 17.5708 84.449C17.4958 84.4521 17.4805 84.4673 17.5319 84.4878ZM18.7167 84.6045C18.728 84.6751 18.7802 84.7357 18.8328 84.7391C18.8853 84.7425 18.9768 84.7664 19.036 84.7922C19.137 84.8362 19.3075 84.8773 19.4352 84.8885C19.4661 84.8912 19.4517 84.9422 19.403 85.0017C19.3264 85.0958 19.3285 85.1049 19.4195 85.071C19.4772 85.0494 19.5558 85.0632 19.5941 85.1014C19.6325 85.1397 19.742 85.1793 19.8376 85.1894C19.9331 85.1996 20.0352 85.2455 20.0645 85.2915C20.0937 85.3374 20.1181 85.3508 20.1186 85.3214C20.1191 85.2918 20.2546 85.3429 20.4195 85.4348C20.5931 85.5316 20.7761 85.5882 20.8541 85.5693C20.9282 85.5514 20.9501 85.5541 20.9027 85.5754C20.815 85.6149 20.9744 85.7388 21.2317 85.8313C21.3108 85.8597 21.3264 85.8955 21.2826 85.9482C21.236 86.0041 21.2707 86.0206 21.4146 86.0106C21.6512 85.9943 21.654 85.9917 21.7022 85.7516C21.7393 85.5663 21.7255 85.5529 21.3004 85.3635C20.6166 85.0588 20.4554 85.0057 20.3711 85.0577C20.3249 85.0861 20.3095 85.079 20.3334 85.0405C20.3735 84.9758 19.1916 84.617 18.9283 84.6139C18.8575 84.6131 18.7763 84.5817 18.7478 84.5442C18.7175 84.5043 18.7046 84.5293 18.7167 84.6045ZM40.9182 84.6921C40.8296 84.7213 40.7063 84.7378 40.6442 84.7287C40.5769 84.7188 40.5486 84.7402 40.5743 84.7816C40.6016 84.8257 40.5783 84.8361 40.5102 84.81C40.4465 84.7857 40.4027 84.8008 40.4021 84.8473C40.4014 84.9019 40.3842 84.8991 40.3455 84.838C40.3149 84.7898 40.2791 84.7754 40.266 84.8059C40.2528 84.8364 40.1497 84.9095 40.0369 84.9683C39.8453 85.0683 39.8341 85.0683 39.8685 84.9683C39.8956 84.8893 39.8783 84.8949 39.802 84.9897C39.7453 85.0604 39.6979 85.1666 39.6968 85.2258C39.6956 85.2851 39.6163 85.3951 39.5204 85.4703C39.3281 85.6212 39.1052 85.6033 38.902 85.4207C38.8269 85.3532 38.7696 85.3395 38.741 85.3822C38.68 85.4735 38.4713 85.5447 38.4713 85.4743C38.4713 85.4427 38.3862 85.5018 38.2822 85.6055C38.1632 85.7242 38.0976 85.8519 38.1052 85.9502C38.1117 86.0361 38.0882 86.1051 38.0527 86.1035C38.0173 86.1019 37.9947 86.0772 38.0025 86.0486C38.0184 85.9901 37.9421 85.9998 37.1996 86.1506C37.1199 86.1668 37.0547 86.2101 37.0547 86.2468C37.0547 86.2835 37.0882 86.293 37.129 86.2678C37.1734 86.2405 37.186 86.2501 37.1601 86.2916C37.1364 86.33 37.044 86.3481 36.9548 86.332L36.7926 86.3027L36.9978 86.6958C37.1659 87.018 37.1867 87.0993 37.1128 87.146C36.9759 87.2322 36.9048 87.1841 36.8483 86.9667C36.7914 86.7476 36.6858 86.682 36.4778 86.7362C36.346 86.7706 36.3495 86.7808 36.5506 86.9482C36.7256 87.094 36.762 87.1689 36.762 87.3842C36.762 87.701 36.5932 87.9113 36.3389 87.9113C36.1059 87.9113 35.8956 87.6857 35.8956 87.4357V87.2412L35.609 87.5311C34.7571 88.3927 33.6002 90.367 33.8551 90.5241C33.9581 90.5876 34.295 90.5487 34.4146 90.4596C34.4677 90.42 34.4899 90.4127 34.4639 90.4433C34.4379 90.474 34.4661 90.535 34.5265 90.5791C34.618 90.6459 34.6556 90.637 34.7529 90.525C34.8171 90.4512 34.8552 90.3534 34.8377 90.3076C34.82 90.2618 34.877 90.1476 34.9643 90.0537C35.0515 89.9598 35.1229 89.8458 35.1229 89.8004C35.1229 89.755 35.1747 89.7014 35.2381 89.6813C35.313 89.6576 35.3525 89.583 35.3508 89.4683C35.3491 89.3513 35.3782 89.2981 35.4368 89.3105C35.57 89.3386 35.7739 89.126 35.7339 89.0005C35.675 88.8156 35.8083 88.5727 35.9874 88.5385C36.0786 88.5212 36.1532 88.5318 36.1532 88.5623C36.1532 88.6782 36.2645 88.6105 36.3379 88.45C36.3911 88.3336 36.4507 88.292 36.5332 88.3135C36.6214 88.3365 36.6445 88.3157 36.6228 88.233C36.6033 88.1588 36.6399 88.1095 36.7323 88.0854C36.8086 88.0655 36.8862 87.9913 36.9048 87.9204C36.924 87.8472 36.9753 87.8058 37.0237 87.8243C37.0831 87.8471 37.1033 87.8069 37.0905 87.6908C37.0764 87.5629 37.091 87.5403 37.154 87.5925C37.2166 87.6443 37.2603 87.5858 37.3416 87.3418C37.3999 87.1667 37.492 87.0066 37.5462 86.9858C37.7191 86.9197 37.9231 86.9451 38.0761 87.0519C38.1853 87.1282 38.2435 87.1367 38.2964 87.084C38.3359 87.0446 38.348 87.0123 38.3232 87.0123C38.2984 87.0123 38.3288 86.9601 38.3908 86.8962C38.4528 86.8323 38.5547 86.7924 38.6172 86.8076C38.6811 86.8231 38.8008 86.7655 38.8907 86.6758C39.0032 86.5636 39.0983 86.5255 39.2117 86.5471C39.3058 86.565 39.3728 86.548 39.3728 86.5062C39.3728 86.4667 39.4325 86.4344 39.5054 86.4344C39.5783 86.4344 39.62 86.4055 39.5982 86.3702C39.5743 86.3318 39.6567 86.3056 39.8036 86.3051C39.9949 86.3043 40.0276 86.289 39.9523 86.2357C39.8776 86.1827 39.8949 86.1757 40.0289 86.2048C40.1241 86.2254 40.22 86.2133 40.2419 86.1779C40.2639 86.1424 40.3654 86.1134 40.4674 86.1134C40.5695 86.1134 40.6709 86.0845 40.6928 86.0492C40.7147 86.0139 40.8323 85.985 40.9542 85.985C41.0761 85.985 41.1758 85.9538 41.1758 85.9157C41.1758 85.872 41.2474 85.862 41.3689 85.8887C41.4792 85.9128 41.5621 85.9045 41.5621 85.8691C41.5621 85.7595 41.8357 85.7129 42.5924 85.6933C42.9997 85.6828 43.5617 85.6589 43.8414 85.6401C44.2105 85.6153 44.4127 85.6321 44.5785 85.7012C44.7042 85.7535 44.8429 85.7827 44.8869 85.7659C44.9307 85.7491 44.9806 85.7699 44.9978 85.812C45.0151 85.8542 45.0314 85.8381 45.0342 85.7763C45.0424 85.5963 45.2784 85.4071 45.495 85.4071C45.7831 85.4071 46.0695 85.7107 46.0695 86.0159C46.0695 86.1563 46.0954 86.2335 46.1344 86.2094C46.1701 86.1874 46.2171 86.2159 46.239 86.2726C46.2734 86.3623 46.2923 86.3638 46.3834 86.2846C46.441 86.2344 46.6427 86.1794 46.8317 86.1623C47.1576 86.1328 47.1866 86.1428 47.3951 86.3569C47.6433 86.6117 47.6762 86.7555 47.4862 86.7555C47.3988 86.7555 47.3574 86.7127 47.3574 86.6225C47.3574 86.4725 47.182 86.2669 47.1129 86.3358C47.0882 86.3605 47.1138 86.4145 47.1701 86.4558C47.2895 86.5434 47.367 86.8704 47.2809 86.9234C47.2187 86.9618 47.5724 87.3334 47.6712 87.3334C47.7028 87.3334 47.7446 87.3941 47.7641 87.4683C47.7841 87.5446 47.8299 87.5843 47.8697 87.5598C47.9084 87.536 47.9323 87.5403 47.9227 87.5694C47.8974 87.6467 48.3629 88.2356 48.4112 88.1874C48.4337 88.165 48.452 88.2078 48.452 88.2827C48.452 88.3574 48.493 88.4416 48.543 88.4699C48.5931 88.4981 48.6438 88.6079 48.6557 88.7139C48.6712 88.8508 48.71 88.9039 48.7901 88.8976C48.92 88.8873 48.9413 88.9744 48.8223 89.029C48.7781 89.0492 48.8084 89.0493 48.8898 89.029C48.9712 89.0088 49.0798 89.027 49.1312 89.0696C49.2283 89.1499 49.258 89.3977 49.1799 89.4755C49.0926 89.5627 49.1088 89.7091 49.2057 89.7091C49.2724 89.7091 49.2933 89.7505 49.2705 89.8372C49.2426 89.9439 49.2614 89.9592 49.3826 89.9289C49.4727 89.9063 49.5685 89.9326 49.634 89.998C49.7733 90.1368 49.7676 90.1962 49.6041 90.3103C49.5215 90.368 49.4876 90.4362 49.5175 90.4845C49.5513 90.539 49.54 90.5473 49.4813 90.5111C49.4163 90.471 49.4088 90.4877 49.4497 90.5815C49.4792 90.6491 49.5095 90.7838 49.517 90.881C49.5245 90.9781 49.5342 91.1001 49.5387 91.1522C49.5431 91.2042 49.6269 91.2882 49.7249 91.3388C49.8783 91.4179 49.9206 91.4181 50.0271 91.3404C50.2121 91.2055 50.4389 91.2309 50.6531 91.4107C50.7583 91.499 50.8748 91.5712 50.9121 91.5712C50.998 91.5712 50.9383 91.1828 50.7566 90.5585C50.6492 90.1894 50.5857 90.0749 50.4539 90.0121C50.2627 89.921 50.1944 89.6641 50.3459 89.6061C50.4237 89.5763 50.4308 89.5399 50.3781 89.4417C50.3408 89.3723 50.2996 89.2597 50.2864 89.1915C50.2502 89.0042 49.8507 88.3642 49.7924 88.4002C49.7643 88.4175 49.7604 88.382 49.7837 88.3214C49.8148 88.2408 49.8033 88.2253 49.7408 88.2638C49.6836 88.2991 49.6709 88.2916 49.7023 88.241C49.7296 88.1971 49.6139 87.9963 49.4246 87.7591C48.8928 87.0927 48.1625 86.5263 47.1404 85.9878C46.5022 85.6515 45.2588 85.1906 45.1577 85.2529C45.128 85.2712 45.1037 85.2627 45.1037 85.2339C45.1037 85.1538 44.6418 85.0256 43.7192 84.8494C42.8398 84.6815 41.2253 84.5909 40.9182 84.6921ZM19.6984 85.0261C19.675 85.0638 19.6698 85.1084 19.6866 85.1252C19.7035 85.142 19.7345 85.1112 19.7555 85.0567C19.799 84.9436 19.7619 84.9237 19.6984 85.0261ZM68.6067 85.4718C68.6067 85.5175 68.5536 85.5274 68.4623 85.4985C68.3343 85.4579 68.3279 85.4647 68.4052 85.5577C68.5311 85.7089 68.4444 86.0902 68.2563 86.2131C67.8885 86.4534 67.5448 86.0533 67.7569 85.6318C67.8433 85.4603 67.8433 85.448 67.7569 85.5194C67.6388 85.6171 67.4037 85.6392 67.1981 85.5719C67.0923 85.5372 67.0588 85.5437 67.0892 85.5928C67.1135 85.632 67.1026 85.6675 67.0651 85.672C67.0276 85.6764 66.939 85.6872 66.8681 85.696C66.7973 85.7049 66.7086 85.7157 66.6712 85.7201C66.6337 85.7245 66.6178 85.7521 66.6359 85.7813C66.6541 85.8106 66.5616 85.8299 66.4305 85.8242C66.2993 85.8185 66.1341 85.8365 66.0632 85.8641C65.9387 85.9125 65.9392 85.9156 66.0793 85.9571C66.159 85.9807 66.2242 86.0255 66.2242 86.0567C66.2242 86.0878 66.269 86.1134 66.3239 86.1134C66.3787 86.1134 66.4946 86.1899 66.5815 86.2833C66.7469 86.4613 66.7838 86.5336 66.6749 86.4665C66.6395 86.4447 66.6106 86.4575 66.6106 86.4949C66.6106 86.5322 66.6558 86.5629 66.7109 86.5629C66.7661 86.5629 66.7934 86.5918 66.7715 86.6271C66.7015 86.74 66.6095 86.6964 66.5342 86.5147C66.4939 86.4176 66.4657 86.3164 66.4714 86.29C66.4771 86.2635 66.4222 86.2418 66.3494 86.2418C66.2766 86.2418 66.1317 86.1487 66.0274 86.0349C65.9223 85.9201 65.8379 85.8677 65.8379 85.9172C65.8379 85.9662 65.8184 85.987 65.7947 85.9633C65.771 85.9397 65.6913 85.9587 65.6176 86.0057C65.544 86.0525 65.3988 86.0857 65.295 86.0794C65.1082 86.0679 65.1076 86.0688 65.2437 86.1709C65.3192 86.2276 65.4553 86.3262 65.546 86.39C65.8087 86.5748 65.9338 86.8008 65.8376 86.9163C65.7179 87.0602 65.6454 87.0336 65.5702 86.8184C65.4845 86.5731 65.3051 86.4692 65.1295 86.5629C64.9963 86.634 64.7432 86.5533 64.7432 86.4396C64.7432 86.4097 64.6705 86.3713 64.5816 86.3544C64.4509 86.3295 64.434 86.3403 64.493 86.4111C64.5508 86.4807 64.5344 86.5002 64.413 86.5062C64.329 86.5105 64.2385 86.5105 64.212 86.5062C64.1854 86.5021 64.1709 86.5347 64.1798 86.5789C64.1886 86.623 64.1524 86.6592 64.0993 86.6592C64.0462 86.6592 63.9792 86.6959 63.9505 86.7408C63.9217 86.7857 63.871 86.8056 63.8378 86.7852C63.8045 86.7647 63.7773 86.7947 63.7773 86.8518C63.7773 86.909 63.7503 86.9391 63.7174 86.9188C63.6844 86.8984 63.6392 86.9113 63.6169 86.9473C63.5945 86.9833 63.5129 87.0024 63.4353 86.9898C63.3578 86.9772 63.3306 86.9792 63.3747 86.9943C63.4895 87.0335 63.3253 87.1852 63.0391 87.3045C62.8868 87.3679 62.8114 87.4416 62.8114 87.5268C62.8114 87.597 62.7752 87.6589 62.7309 87.6642C62.6867 87.6696 62.6191 87.6773 62.5808 87.6813C62.3099 87.7098 61.1969 89.4268 60.6241 90.6999C60.4433 91.1018 60.4403 91.1211 60.5736 91.028C60.6515 90.9736 60.8237 90.9291 60.9564 90.9291C61.1443 90.9291 61.1894 90.9079 61.1606 90.8328C61.1401 90.7798 61.1575 90.7365 61.1991 90.7365C61.2457 90.7365 61.2588 90.6867 61.2334 90.6066C61.1586 90.3718 61.2602 90.1124 61.4591 90.0302C61.5611 89.9881 61.6732 89.9712 61.7081 89.9927C61.7944 90.046 62.1118 89.8957 62.0846 89.8144C62.0614 89.7449 62.2624 89.5165 62.3468 89.5165C62.3746 89.5165 62.4486 89.4298 62.5114 89.3239C62.5742 89.2179 62.6657 89.1312 62.7148 89.1312C62.764 89.1312 62.8469 89.0703 62.8992 88.9959C62.957 88.9135 63.0255 88.8797 63.0738 88.9095C63.1233 88.94 63.1369 88.932 63.1098 88.8882C63.0856 88.8491 63.1707 88.7378 63.3016 88.6375C63.431 88.5383 63.583 88.4065 63.6393 88.3447C63.6955 88.2828 63.7662 88.2323 63.7962 88.2323C63.862 88.2323 63.9769 88.1119 64.0741 87.9407C64.1134 87.8715 64.2148 87.8086 64.2995 87.8008C64.6559 87.7681 64.7695 87.7364 64.7941 87.6628C64.8141 87.6028 64.8438 87.604 64.9228 87.6678C65.0005 87.7305 65.0137 87.7312 64.9771 87.6705C64.9464 87.6195 64.9668 87.5902 65.033 87.5902C65.0903 87.5902 65.1188 87.5606 65.0964 87.5244C65.0739 87.4882 65.0794 87.4653 65.1087 87.4735C65.1379 87.4818 65.3294 87.4247 65.5344 87.3467C65.7394 87.2688 65.9894 87.205 66.09 87.205C66.1905 87.205 66.3089 87.1616 66.353 87.1086C66.3971 87.0557 66.4748 87.0123 66.5256 87.0123C66.5766 87.0123 66.6003 86.9834 66.5784 86.9481C66.5257 86.8632 66.5849 86.8668 66.7306 86.9576C66.8279 87.0182 66.876 87.0045 66.9994 86.8814C67.0948 86.7863 67.1592 86.7593 67.1753 86.8077C67.215 86.9264 67.3831 86.8973 67.3842 86.7715C67.385 86.6845 67.3977 86.6788 67.4402 86.7457C67.4834 86.8136 67.7093 86.8282 68.4856 86.8136C69.0303 86.8033 69.5302 86.7687 69.5965 86.7367C69.6799 86.6964 69.7035 86.7001 69.6732 86.7491C69.6453 86.794 69.7009 86.8226 69.8264 86.8277C70.1022 86.839 70.1351 86.8455 70.1897 86.9C70.2754 86.9855 70.3365 86.9518 70.4229 86.7715C70.54 86.5271 70.7756 86.501 70.8604 86.7231C70.9008 86.8293 70.9025 86.9339 70.8648 87.0041C70.8164 87.0943 70.8414 87.1296 70.9936 87.187C71.0975 87.226 71.1824 87.2389 71.1825 87.2154C71.1828 87.1398 71.6477 87.1371 71.7384 87.2122C71.7868 87.2522 71.8263 87.3536 71.8263 87.4375C71.8263 87.5304 71.8641 87.5902 71.9229 87.5902C71.976 87.5902 72.0195 87.6191 72.0195 87.6544C72.0195 87.6897 72.0608 87.7186 72.1114 87.7186C72.162 87.7186 72.266 87.7981 72.3426 87.8952C72.4192 87.9924 72.501 88.0722 72.5244 88.0727C72.6188 88.0749 72.7275 88.1807 72.6928 88.2367C72.6725 88.2696 72.6865 88.2965 72.724 88.2965C72.7615 88.2965 72.7922 88.3368 72.7922 88.386C72.7922 88.4868 72.9684 88.5813 73.1141 88.5585C73.1814 88.548 73.1717 88.5756 73.0819 88.6495C73.0111 88.7078 72.9906 88.7364 73.0365 88.7131C73.1368 88.6621 73.3215 88.7996 73.2681 88.8857C73.2473 88.9193 73.2732 88.9954 73.3256 89.055C73.378 89.1146 73.4409 89.2288 73.4653 89.3088C73.4897 89.3887 73.5367 89.4376 73.5695 89.4174C73.6024 89.3971 73.6293 89.455 73.6293 89.5462C73.6293 89.722 73.6992 89.7661 74.1829 89.895C74.5015 89.9798 74.8031 90.2383 74.7486 90.3797C74.6956 90.5175 74.4769 90.5051 74.3479 90.3568C74.2891 90.2893 74.1731 90.2142 74.0902 90.1901C73.9662 90.154 73.944 90.1673 73.9652 90.2647C73.9794 90.33 74.0328 90.374 74.0838 90.3627C74.1568 90.3465 74.1599 90.359 74.0984 90.4214C74.037 90.4837 74.0482 90.5248 74.151 90.6137C74.2228 90.6759 74.2834 90.7506 74.2856 90.7798C74.2905 90.8439 74.3288 90.9695 74.4117 91.1921C74.4459 91.2838 74.4545 91.4355 74.4309 91.5292C74.396 91.668 74.4102 91.6994 74.5077 91.6987C74.603 91.6978 74.6088 91.6859 74.5364 91.6402C74.46 91.592 74.4635 91.5649 74.5584 91.4703C74.6443 91.3845 74.6831 91.3768 74.7209 91.4378C74.7583 91.4981 74.78 91.4928 74.8095 91.4161C74.8311 91.3601 74.8951 91.3144 74.9519 91.3144C75.1366 91.3144 75.2109 91.1613 75.2089 90.7846C75.2078 90.5816 75.2303 90.4154 75.259 90.4154C75.2876 90.4154 75.2897 90.3809 75.2635 90.3386C75.1908 90.2215 75.1891 89.7733 75.2613 89.7733C75.2963 89.7733 75.3032 89.7516 75.2766 89.7252C75.2501 89.6987 75.1945 89.6769 75.1532 89.6768C75.1119 89.6766 75.0771 89.6181 75.0758 89.5467C75.0729 89.391 74.891 89.1145 74.8308 89.1745C74.8075 89.1978 74.7839 89.1759 74.7785 89.1259C74.7731 89.0758 74.7654 89.0047 74.7613 88.9677C74.7572 88.9308 74.6958 88.8269 74.6248 88.7369C74.5205 88.6047 74.4744 88.5867 74.3845 88.6432C74.2423 88.7326 74.0559 88.6264 74.028 88.44C74.0064 88.2957 74.2099 88.1891 74.3531 88.2696C74.3977 88.2947 74.3108 88.2075 74.1601 88.0757C74.0093 87.944 73.9054 87.8049 73.9292 87.7665C73.9559 87.7233 73.9348 87.7112 73.8733 87.7347C73.8085 87.7595 73.7494 87.7186 73.7031 87.6172C73.649 87.4988 73.6509 87.4606 73.7111 87.4567C73.7547 87.454 73.7104 87.4226 73.6128 87.3871C73.5152 87.3515 73.4515 87.2963 73.4713 87.2644C73.491 87.2325 73.4665 87.222 73.4168 87.241C73.3646 87.261 73.2806 87.206 73.2181 87.1108C73.1265 86.9714 73.0894 86.9568 72.9778 87.0164C72.8749 87.0713 72.8211 87.0644 72.7331 86.9851C72.6712 86.9291 72.6156 86.8402 72.6098 86.7873C72.6038 86.7345 72.5942 86.6483 72.5883 86.5957C72.5813 86.5335 72.527 86.5092 72.4329 86.5262C72.3228 86.5461 72.279 86.5154 72.2493 86.3971C72.2254 86.3022 72.1634 86.2418 72.09 86.2418C71.8981 86.2418 71.5874 86.0882 71.6148 86.0069C71.6286 85.966 71.6049 85.911 71.5622 85.8846C71.5128 85.8542 71.5012 85.8637 71.5304 85.9108C71.5557 85.9516 71.5456 85.985 71.5081 85.985C71.4707 85.985 71.44 85.9561 71.44 85.9208C71.44 85.8855 71.3948 85.8566 71.3396 85.8566C71.2801 85.8566 71.2579 85.8867 71.2851 85.9307C71.3138 85.977 71.3027 85.9874 71.2557 85.9583C71.2142 85.9328 71.1964 85.8858 71.2162 85.854C71.2359 85.8221 71.1559 85.7997 71.0383 85.8041C70.9208 85.8085 70.7674 85.7836 70.6976 85.7487C70.6278 85.714 70.4548 85.6792 70.3132 85.6716C70.1716 85.664 70.0305 85.6325 69.9995 85.6016C69.9686 85.5708 69.8985 85.5627 69.8439 85.5835C69.7889 85.6046 69.7616 85.5941 69.7828 85.56C69.8057 85.523 69.6059 85.4951 69.2797 85.4897C68.9821 85.4848 68.7089 85.4625 68.6726 85.4402C68.6364 85.4178 68.6067 85.4321 68.6067 85.4718ZM42.8735 85.5494C42.8564 85.577 42.9745 85.5997 43.1359 85.5997C43.2973 85.5997 43.4295 85.5883 43.4295 85.5744C43.4295 85.5239 42.9039 85.5004 42.8735 85.5494ZM70.1199 85.5355C70.035 85.5719 70.024 85.5919 70.0877 85.5942C70.1408 85.5962 70.2278 85.5697 70.2809 85.5355C70.3986 85.4597 70.2969 85.4597 70.1199 85.5355ZM21.9525 85.9025C21.8853 86.3 21.8868 86.3388 21.9685 86.3228C22.0159 86.3136 22.0311 86.3481 22.0071 86.4105C21.9751 86.4936 21.9973 86.505 22.1221 86.4698C22.241 86.4361 22.2544 86.4416 22.1801 86.4934C22.0969 86.5516 22.0991 86.561 22.1962 86.5619C22.2582 86.5624 22.3089 86.5957 22.3089 86.6357C22.3089 86.735 22.6163 87.0123 22.7264 87.0123C22.8387 87.0123 23.0937 87.3625 23.0314 87.4312C23.0059 87.4594 23.0182 87.4635 23.0588 87.4403C23.0993 87.4172 23.1491 87.4415 23.1695 87.4943C23.1897 87.5471 23.2621 87.5902 23.3302 87.5902C23.4101 87.5902 23.469 87.6499 23.4963 87.7583C23.5196 87.8508 23.5552 87.9099 23.5754 87.8898C23.6373 87.828 24.0438 88.3598 24.0073 88.4549C23.9825 88.519 24.0105 88.5342 24.1068 88.5091C24.1954 88.486 24.2407 88.5046 24.2407 88.5643C24.2407 88.6196 24.32 88.6605 24.4457 88.67C24.7867 88.696 24.9326 88.9225 24.7397 89.1264C24.6753 89.1945 24.6753 89.2174 24.7397 89.2409C24.784 89.2571 24.8202 89.3113 24.8202 89.3613C24.8202 89.4113 24.8488 89.4523 24.8838 89.4523C24.9187 89.4523 24.9866 89.5462 25.0348 89.661C25.0829 89.7757 25.1702 89.9093 25.2288 89.9577C25.2874 90.0062 25.3353 90.0857 25.3353 90.1343C25.3353 90.183 25.3643 90.2228 25.3997 90.2228C25.4352 90.2228 25.4641 90.1922 25.4641 90.1548C25.4641 90.1174 25.4936 90.105 25.5295 90.1271C25.5655 90.1493 25.5784 90.1944 25.5579 90.2272C25.5376 90.2601 25.5499 90.287 25.5853 90.287C25.6207 90.287 25.6648 90.2625 25.6834 90.2326C25.7019 90.2027 25.8111 90.1756 25.9261 90.1723C26.0775 90.168 26.1092 90.1828 26.0411 90.2258C25.9612 90.2762 25.9628 90.2852 26.0519 90.286C26.1095 90.2866 26.1927 90.2437 26.2368 90.1907C26.3022 90.1121 26.2986 90.0944 26.2172 90.0944C26.1623 90.0944 26.0589 90.0202 25.9872 89.9294C25.882 89.796 25.8693 89.7314 25.9211 89.5923C25.9563 89.4976 26.0295 89.3865 26.0838 89.3453C26.1722 89.278 26.1719 89.2543 26.0806 89.1154C26.0246 89.0302 25.9983 88.9411 26.022 88.9174C26.0457 88.8938 26.036 88.8744 26.0003 88.8744C25.9647 88.8744 25.9009 88.7986 25.8586 88.706C25.7892 88.5543 25.7706 88.5469 25.6711 88.632C25.4152 88.851 25.1183 88.7966 25.0094 88.5108C24.9547 88.3673 24.9669 88.3039 25.078 88.154L25.2132 87.9717L25.0672 87.797C24.8583 87.5472 24.2401 87.0442 23.5701 86.5789C23.0068 86.1877 22.7047 86.0706 22.783 86.2739C22.8033 86.3269 22.7864 86.3702 22.7453 86.3702C22.7043 86.3702 22.7229 86.4083 22.7867 86.4549C22.8928 86.5322 22.894 86.5482 22.8001 86.6418C22.6675 86.7741 22.4759 86.7219 22.37 86.5246C22.2948 86.3844 22.3038 86.3505 22.46 86.1878L22.6338 86.007L22.3138 85.8332L21.9936 85.6595L21.9525 85.9025ZM41.9975 85.7735C42.0776 85.7889 42.1935 85.7883 42.2551 85.7722C42.3166 85.7562 42.2511 85.7436 42.1094 85.7443C41.9678 85.745 41.9174 85.7582 41.9975 85.7735ZM11.2899 86.0191C11.2854 86.0356 11.2778 86.0709 11.2728 86.0973C11.2678 86.1238 11.2428 86.1783 11.2172 86.2184C11.1882 86.2638 11.231 86.3029 11.3309 86.3219C11.4633 86.3471 11.4911 86.3273 11.4911 86.2077C11.4911 86.0873 11.3156 85.9229 11.2899 86.0191ZM69.8777 86.1994C69.6444 86.3049 69.5752 86.3688 69.588 86.4665C69.6089 86.6264 69.8436 86.6693 69.9564 86.5338C70.0046 86.4759 70.1416 86.4344 70.285 86.4344C70.5578 86.4344 70.6313 86.3681 70.5705 86.177C70.5173 86.0099 70.2793 86.0176 69.8777 86.1994ZM8.89396 86.4131C8.81985 86.4869 8.84702 86.5629 8.9476 86.5629C9.00073 86.5629 9.04419 86.5195 9.04419 86.4665C9.04419 86.3662 8.96801 86.3392 8.89396 86.4131ZM9.11618 86.611C9.13582 86.7348 9.09751 86.7547 8.9637 86.69C8.82551 86.6232 8.82455 86.6246 8.94232 86.7188C9.03428 86.7923 9.08772 86.7994 9.1516 86.7466C9.25276 86.6628 9.26435 86.5629 9.17297 86.5629C9.13756 86.5629 9.11199 86.5846 9.11618 86.611ZM68.6591 86.7351C68.7055 86.7537 68.7611 86.7514 68.7824 86.7301C68.8038 86.7087 68.7658 86.6936 68.698 86.6964C68.6229 86.6994 68.6077 86.7147 68.6591 86.7351ZM62.6397 87.5553C62.6397 87.6067 62.6638 87.6339 62.6934 87.6157C62.7229 87.5975 62.747 87.5555 62.747 87.5222C62.747 87.489 62.7229 87.4618 62.6934 87.4618C62.6638 87.4618 62.6397 87.5039 62.6397 87.5553ZM86.9584 88.1025C85.2206 88.5065 83.8809 89.4338 82.2716 91.3465C82.0042 91.6643 81.7523 91.9532 81.7118 91.9886C81.5837 92.1002 81.0915 92.8554 81.1468 92.8554C81.2344 92.8554 81.4291 93.2272 81.3544 93.2519C81.3145 93.2652 81.3293 93.3257 81.3911 93.4019C81.448 93.4721 81.4763 93.4935 81.4539 93.4493C81.4315 93.4052 81.4376 93.3691 81.4674 93.3691C81.4973 93.3691 81.575 93.2792 81.6401 93.1693C81.7301 93.0173 81.7716 92.9904 81.8139 93.0569C81.8445 93.105 81.8699 93.114 81.8705 93.0769C81.871 93.0398 81.8376 92.9758 81.7963 92.9346C81.739 92.8774 81.7505 92.8485 81.8446 92.813C81.9769 92.7629 82.1677 92.5985 82.0935 92.5985C82.0689 92.5985 82.0846 92.5555 82.1284 92.5029C82.1722 92.4504 82.2298 92.4208 82.2565 92.4372C82.2832 92.4536 82.3568 92.41 82.4201 92.3402C82.5532 92.1936 82.507 92.1665 82.3653 92.3079C82.2816 92.3913 82.2658 92.391 82.2326 92.3046C82.2111 92.2488 82.2223 92.2235 82.2585 92.2458C82.2935 92.2674 82.3222 92.2549 82.3222 92.2179C82.3222 92.181 82.4201 92.11 82.5397 92.0602C82.6593 92.0103 82.7772 91.9373 82.8017 91.8978C82.8262 91.8583 82.8699 91.8406 82.8989 91.8584C82.9279 91.8763 82.9503 91.8551 82.9487 91.8113C82.9409 91.5969 82.9832 91.527 83.1863 91.4179C83.3084 91.3524 83.4238 91.2313 83.4451 91.1465C83.4664 91.0622 83.5067 90.9933 83.5347 90.9933C83.5628 90.9933 83.6427 90.9405 83.7122 90.8758C83.7818 90.8112 83.9176 90.7067 84.0142 90.6437C84.1106 90.5806 84.1896 90.4941 84.1896 90.4515C84.1896 90.4089 84.3168 90.3106 84.4722 90.2332C84.6277 90.1558 84.7904 90.0498 84.8337 89.9978C84.877 89.9457 84.9382 89.919 84.9695 89.9383C85.001 89.9577 85.0266 89.9429 85.0266 89.9055C85.0266 89.8682 85.0687 89.8375 85.12 89.8375C85.1714 89.8375 85.2366 89.7984 85.2649 89.7506C85.3503 89.6063 85.5936 89.5109 85.7658 89.554C85.8726 89.5807 85.9281 89.5679 85.9281 89.5166C85.9281 89.4737 85.969 89.4542 86.0188 89.4732C86.0767 89.4954 86.1236 89.4518 86.1486 89.3527C86.1953 89.1671 86.4113 89.0979 86.6551 89.1903C86.8117 89.2497 86.8304 89.2419 86.8371 89.1136C86.8428 89.0049 86.8516 88.9976 86.874 89.0831C86.8965 89.1687 86.9712 89.1954 87.1885 89.1954C87.3453 89.1954 87.4735 89.2234 87.4735 89.2577C87.4735 89.2918 87.5218 89.3014 87.5807 89.2789C87.6495 89.2525 87.6722 89.2631 87.6442 89.3083C87.597 89.3844 87.8223 89.483 87.914 89.4265C87.9768 89.3878 88.2536 89.6804 88.2025 89.7314C88.1841 89.7496 88.226 89.7498 88.2954 89.7317C88.374 89.7112 88.4364 89.7371 88.4607 89.8002C88.4822 89.8561 88.5441 89.9018 88.5984 89.9018C88.6526 89.9018 88.697 89.9324 88.697 89.9697C88.697 90.0071 88.726 90.0199 88.7614 89.9981C88.7968 89.9762 88.8258 90.0051 88.8258 90.0623C88.8258 90.1194 88.8531 90.1493 88.8866 90.1287C88.92 90.1081 89.2101 90.3469 89.5312 90.6592C89.8524 90.9716 90.1293 91.2131 90.1466 91.1959C90.1638 91.1786 90.178 91.2003 90.178 91.2441C90.178 91.3417 90.337 91.507 90.431 91.507C90.4689 91.507 90.5 91.5534 90.5 91.6102C90.5 91.682 90.5343 91.7003 90.6126 91.6706C90.703 91.6363 90.7094 91.6438 90.6448 91.7087C90.5557 91.7982 90.5377 91.8964 90.6126 91.8847C90.6392 91.8804 90.6827 91.8841 90.7092 91.8927C90.7358 91.9012 90.7938 91.9125 90.838 91.9177C90.8823 91.923 90.9108 91.9737 90.9014 92.0304C90.8739 92.196 91.1583 92.2384 91.2644 92.0846C91.4415 91.8278 91.7748 92.0005 91.6972 92.3088C91.6749 92.3975 91.6154 92.4701 91.565 92.4701C91.5146 92.4701 91.4526 92.5063 91.4271 92.5504C91.4016 92.5946 91.4035 92.6102 91.4313 92.5853C91.4591 92.5603 91.5885 92.5941 91.7189 92.6604C91.8493 92.7268 92.0123 92.7761 92.0812 92.7701C92.1776 92.7616 92.2034 92.7959 92.1935 92.9196C92.1808 93.0791 92.1812 93.0792 92.251 92.9371C92.3317 92.7729 92.4924 92.7049 92.654 92.7668C92.7365 92.7984 92.7592 92.8644 92.7409 93.0206C92.7264 93.1441 92.744 93.2269 92.7832 93.2201C92.8201 93.2137 92.8406 93.2519 92.8288 93.3049C92.817 93.3578 92.8286 93.3799 92.8546 93.354C92.8807 93.3281 92.9372 93.3549 92.9803 93.4138C93.0519 93.5113 93.0653 93.5084 93.1339 93.3806C93.1832 93.2886 93.1861 93.2379 93.1423 93.2326C93.1056 93.2282 93.0395 93.221 92.9951 93.2166C92.9509 93.2121 92.9049 93.1395 92.8929 93.055C92.8756 92.9329 92.8935 92.9101 92.9805 92.9434C93.0606 92.974 93.0799 92.9592 93.0526 92.8882C93.0321 92.8348 93.031 92.7912 93.0501 92.7912C93.1116 92.7912 93.2688 92.9724 93.2688 93.0435C93.2688 93.1402 93.3744 93.1296 93.3843 93.032C93.3888 92.9879 93.4105 92.8771 93.4326 92.786C93.4616 92.6667 93.4257 92.551 93.3049 92.3734C93.1914 92.2066 93.1602 92.1121 93.2089 92.0821C93.2508 92.0563 93.2053 92.0187 93.1003 91.9924C93.0009 91.9675 92.7939 91.8626 92.6402 91.7592C92.4866 91.6558 92.3398 91.5712 92.314 91.5712C92.2883 91.5712 92.2014 91.5252 92.121 91.4691C91.9967 91.3822 91.9873 91.3511 92.0584 91.2604C92.1345 91.1633 92.1311 91.1624 92.0204 91.2493C91.9104 91.3357 91.8899 91.3312 91.8033 91.2011C91.7507 91.1221 91.6644 91.0575 91.6114 91.0575C91.5481 91.0575 91.5263 91.0152 91.5476 90.9339C91.5704 90.8474 91.5533 90.8205 91.4911 90.8444C91.4422 90.863 91.4136 90.897 91.4275 90.9198C91.4414 90.9426 91.3192 90.9692 91.1559 90.9789C90.9678 90.99 90.8093 91.0431 90.7233 91.1236C90.5512 91.2848 90.248 91.2748 90.2914 91.1092C90.3079 91.0463 90.4167 90.936 90.5331 90.8643C90.8743 90.654 90.8604 90.4796 90.5026 90.4796C90.439 90.4796 90.3483 90.4332 90.301 90.3764C90.2285 90.2892 90.2317 90.261 90.3217 90.1953C90.417 90.1259 90.4188 90.0905 90.3392 89.8652C90.2901 89.7264 90.2181 89.6205 90.179 89.6298C90.1401 89.6391 90.067 89.5524 90.0168 89.4371C89.9666 89.3219 89.9244 89.2502 89.9229 89.278C89.9216 89.3057 89.8586 89.2954 89.783 89.255C89.6731 89.1964 89.6634 89.1703 89.7347 89.1253C89.8059 89.0803 89.8016 89.0688 89.7132 89.068C89.6414 89.0674 89.6155 89.0331 89.6395 88.9707C89.66 88.9177 89.6446 88.8744 89.6054 88.8744C89.5662 88.8744 89.5341 88.9033 89.5341 88.9386C89.5341 89.0401 89.3981 89.0135 89.284 88.8897C89.1298 88.7223 88.7159 88.4249 88.6369 88.4249C88.5991 88.4249 88.5682 88.4009 88.5682 88.3715C88.5682 88.342 88.532 88.3146 88.4877 88.3106C88.3308 88.2964 87.9243 88.1359 87.9243 88.0882C87.9243 88.0615 87.8832 88.0397 87.833 88.0397C87.7829 88.0397 87.7322 88.0151 87.7204 87.985C87.7086 87.9549 87.3657 88.0078 86.9584 88.1025ZM35.2716 88.53C35.221 88.6615 35.3147 88.8152 35.4836 88.8775C35.5953 88.9187 35.6146 88.896 35.6273 88.7084C35.6395 88.5282 35.6236 88.4987 35.5328 88.5334C35.4591 88.5616 35.4388 88.5508 35.4703 88.5001C35.4984 88.4547 35.4762 88.4249 35.4145 88.4249C35.3581 88.4249 35.2939 88.4722 35.2716 88.53ZM101.09 88.5195C100.065 88.7421 99.527 89.1791 98.3896 90.7141C98.2286 90.9313 97.8549 91.3374 97.5591 91.6167C97.2542 91.9044 96.9011 92.3174 96.7438 92.5701C96.5912 92.8153 96.4272 93.0623 96.3792 93.1191C96.3054 93.2064 96.3071 93.2347 96.3902 93.3035C96.4442 93.3482 96.4884 93.438 96.4884 93.5031C96.4884 93.6316 96.2659 93.7835 96.167 93.7225C96.1334 93.7018 96.0887 93.7655 96.0679 93.8641C96.047 93.9626 96.0026 94.0934 95.9694 94.1547C95.8811 94.3176 95.8908 94.3323 96.086 94.3312C96.3505 94.3298 96.4687 94.2386 96.3661 94.1152C96.2673 93.9966 96.3265 93.8741 96.4583 93.9245C96.5102 93.9444 96.5528 93.927 96.5528 93.8858C96.5528 93.8447 96.5849 93.8307 96.6241 93.8549C96.6737 93.8855 96.6689 93.9155 96.608 93.954C96.56 93.9844 96.5511 94.0096 96.5883 94.0102C96.6927 94.0117 97.0024 93.8565 97.003 93.8025C97.0033 93.776 97.047 93.7543 97.1001 93.7543C97.1533 93.7543 97.1967 93.711 97.1967 93.658C97.1967 93.605 97.1629 93.5617 97.1216 93.5617C97.0803 93.5617 97.0616 93.5465 97.0802 93.528C97.1547 93.4537 97.3159 93.5764 97.279 93.6794C97.2579 93.7383 97.2606 93.7686 97.2851 93.7469C97.3095 93.7252 97.3426 93.64 97.3585 93.5576C97.3744 93.4751 97.4319 93.3828 97.4862 93.3525C97.6294 93.2726 97.8405 93.0355 97.8109 92.9877C97.7969 92.9653 97.8704 92.9094 97.9741 92.8636C98.0777 92.8179 98.1626 92.7537 98.1626 92.7211C98.1626 92.6224 98.4994 92.2775 98.5956 92.2775C98.645 92.2775 98.6674 92.2486 98.6455 92.2133C98.6236 92.178 98.6365 92.1491 98.6739 92.1491C98.7114 92.1491 98.7421 92.1192 98.7421 92.0827C98.7421 92.0462 98.8301 91.9306 98.9375 91.8259C99.045 91.7211 99.1005 91.6354 99.0609 91.6354C99.0213 91.6354 99.1 91.5159 99.2358 91.3699C99.4593 91.1295 99.6563 90.9095 99.9323 90.592C99.986 90.5302 100.03 90.4382 100.03 90.3876C100.03 90.337 100.086 90.2779 100.155 90.2562C100.223 90.2344 100.366 90.119 100.471 89.9997C100.576 89.8803 100.682 89.8022 100.706 89.8261C100.731 89.8501 100.741 89.8262 100.729 89.7729C100.706 89.6714 100.95 89.3881 101.06 89.3881C101.096 89.3881 101.125 89.3286 101.125 89.2559C101.125 89.1713 101.152 89.1404 101.2 89.1701C101.252 89.2019 101.261 89.1806 101.231 89.1025C101.198 89.0145 101.212 88.9979 101.295 89.0295C101.428 89.0805 101.62 88.8848 101.589 88.7299C101.576 88.6681 101.597 88.6176 101.635 88.6176C101.673 88.6176 101.704 88.5742 101.704 88.5212C101.704 88.4072 101.609 88.407 101.09 88.5195ZM107.623 88.7941L107.467 88.9707L107.644 88.8151C107.81 88.6696 107.851 88.6176 107.8 88.6176C107.789 88.6176 107.709 88.697 107.623 88.7941ZM89.5029 89.3869C89.4379 89.4586 89.4038 89.5364 89.4271 89.5597C89.4506 89.583 89.4697 89.5639 89.4697 89.5174C89.4697 89.468 89.523 89.4939 89.5972 89.5793C89.705 89.7032 89.7309 89.7103 89.7637 89.625C89.8153 89.4909 89.7765 89.3081 89.6904 89.2795C89.6524 89.2668 89.568 89.3152 89.5029 89.3869ZM26.2617 89.6088C26.2109 89.7406 26.2824 89.921 26.3652 89.8699C26.4008 89.8479 26.43 89.7756 26.43 89.7091C26.43 89.5509 26.3112 89.4801 26.2617 89.6088ZM11.6888 90.4674C11.6863 90.5136 11.6586 90.5356 11.6271 90.5162C11.5958 90.4969 11.5343 90.5241 11.4905 90.5767C11.4467 90.6292 11.4301 90.6723 11.4536 90.6723C11.4771 90.6723 11.4224 90.7517 11.332 90.8488C11.2416 90.946 11.1517 91.0832 11.1322 91.1538C11.1127 91.2245 11.0636 91.3492 11.0231 91.4309C10.9645 91.5495 10.9687 91.5915 11.0433 91.6386C11.121 91.6876 11.1176 91.6978 11.0237 91.6987C10.9286 91.6995 10.9381 91.7304 11.0827 91.8923C11.1774 91.9982 11.281 92.0849 11.3132 92.0849C11.4079 92.0849 11.5532 91.9118 11.5041 91.8576C11.4792 91.8301 11.5024 91.8225 11.5555 91.8406C11.6086 91.8589 11.71 91.8157 11.7808 91.7447C11.8543 91.6712 11.8681 91.6358 11.813 91.6626C11.7599 91.6883 11.7788 91.6543 11.855 91.5869C11.9765 91.4796 11.9869 91.4292 11.9392 91.1807C11.8771 90.8575 11.6957 90.3405 11.6888 90.4674ZM99.5475 90.8C99.5249 90.8363 99.5508 90.8471 99.6081 90.8252C99.7196 90.7825 99.74 90.7365 99.6474 90.7365C99.6141 90.7365 99.5691 90.7651 99.5475 90.8ZM60.0783 91.8364C59.9772 92.0967 59.8245 92.4497 59.7389 92.6209C59.5911 92.9165 59.5889 92.9383 59.6942 93.0543C59.8482 93.2241 59.9354 93.2067 59.8873 93.0159C59.8608 92.9104 59.8739 92.8554 59.9255 92.8554C59.9865 92.8554 59.9868 92.8382 59.9267 92.7783C59.7439 92.5961 59.9218 92.2775 60.2065 92.2775C60.4021 92.2775 60.5962 91.9561 60.4739 91.8348C60.4314 91.7927 60.3665 91.6693 60.3294 91.5607L60.2622 91.3632L60.0783 91.8364ZM50.6445 91.8236C50.5242 91.9921 50.1723 92.1298 49.9538 92.0939C49.8978 92.0847 49.8945 92.1407 49.941 92.3087C49.9757 92.4338 49.9878 92.5621 49.9681 92.5941C49.9098 92.688 50.0564 92.9996 50.1432 92.9664C50.1947 92.9468 50.2228 92.9991 50.2228 93.1143C50.2228 93.2123 50.201 93.2792 50.1745 93.2628C50.0876 93.2092 50.1238 93.365 50.255 93.6091C50.394 93.8677 50.441 94.1296 50.3157 93.947C50.2657 93.8739 50.2535 93.9053 50.2655 94.0763C50.2743 94.2004 50.2609 94.335 50.2358 94.3755C50.1704 94.481 50.2448 94.6356 50.3776 94.6703C50.4713 94.6947 50.4927 94.7775 50.4992 95.1421C50.5115 95.8362 50.6193 96.4506 50.729 96.4521C50.7727 96.4527 50.7667 96.4756 50.714 96.5089C50.6655 96.5396 50.6378 96.6008 50.6525 96.6449C50.6718 96.7025 50.7122 96.6924 50.7958 96.609C50.8598 96.5451 50.9745 96.4859 51.0504 96.4774C51.1265 96.4688 51.2032 96.459 51.2209 96.4555C51.2386 96.452 51.2096 96.4211 51.1565 96.3869C51.0806 96.3381 51.0788 96.3244 51.1483 96.3237C51.2181 96.3229 51.2204 96.3031 51.1595 96.2299C51.045 96.0925 51.1038 95.8501 51.2692 95.7777C51.4935 95.6796 51.4913 95.5596 51.228 93.5617C51.1141 92.6965 51.0052 91.9256 50.9862 91.8487C50.9327 91.6319 50.7889 91.6214 50.6445 91.8236ZM97.8594 91.8119C97.5529 92.0117 97.4923 92.2133 97.7387 92.2133C97.8243 92.2133 97.9055 92.1799 97.9191 92.1391C97.9328 92.0982 98.0728 92.0476 98.2303 92.0267C98.4828 91.9931 98.5168 91.9695 98.5168 91.828C98.5168 91.5909 98.2099 91.5834 97.8594 91.8119ZM82.7085 91.7638C82.6505 91.8012 82.6425 91.8264 82.6886 91.8271C82.7308 91.8276 82.7832 91.7991 82.8051 91.7638C82.8545 91.6841 82.8322 91.6841 82.7085 91.7638ZM98.4202 92.0849C98.367 92.1191 98.3526 92.1471 98.388 92.1471C98.4234 92.1471 98.4958 92.1191 98.549 92.0849C98.6021 92.0507 98.6166 92.0227 98.5811 92.0227C98.5457 92.0227 98.4733 92.0507 98.4202 92.0849ZM99.7651 93.2216C99.6648 93.237 99.5678 93.311 99.525 93.4046C99.4833 93.4958 99.3986 93.5617 99.323 93.5617C99.2515 93.5617 99.1929 93.5937 99.1929 93.6328C99.1929 93.6719 99.1549 93.6893 99.1086 93.6716C99.0623 93.6539 98.9576 93.7231 98.8761 93.8253C98.7944 93.9275 98.6857 94.0112 98.6345 94.0112C98.5833 94.0112 98.5592 94.0401 98.5811 94.0754C98.603 94.1107 98.5757 94.1396 98.5206 94.1396C98.4654 94.1396 98.4202 94.1927 98.4202 94.2577C98.4202 94.3227 98.3446 94.4102 98.2522 94.4522C98.1329 94.5063 98.0934 94.564 98.1162 94.6509C98.1354 94.7237 98.1093 94.7883 98.0522 94.8102C97.995 94.8321 97.9722 94.8889 97.9959 94.9505C98.0264 95.0297 98.0055 95.0461 97.9071 95.0205C97.7987 94.9921 97.7885 95.0055 97.8422 95.1056C97.8772 95.1709 97.9121 95.2981 97.9195 95.3883C97.927 95.4784 97.9575 95.5522 97.9873 95.5522C98.0171 95.5522 98.0232 95.5815 98.001 95.6174C97.946 95.706 97.8241 95.6236 97.8625 95.5238C97.8793 95.48 97.8672 95.4035 97.8357 95.3537C97.7928 95.2862 97.778 95.3026 97.7772 95.4187C97.7767 95.5042 97.8185 95.6207 97.8701 95.6776C97.9547 95.7708 98.0484 95.6979 98.8198 94.9398C99.2906 94.4771 99.8579 93.9668 100.081 93.8058C100.37 93.5959 100.457 93.5022 100.386 93.4751C100.332 93.4543 100.288 93.3931 100.288 93.339C100.288 93.2041 100.175 93.2146 100.138 93.353C100.113 93.4482 100.101 93.4433 100.061 93.3209C100.036 93.2415 99.9966 93.1807 99.9741 93.1861C99.9517 93.1913 99.8577 93.2073 99.7651 93.2216ZM59.2434 93.8506C59.2212 93.9389 59.175 94.0112 59.1408 94.0112C59.0669 94.0112 58.7286 94.6682 58.6629 94.9393C58.6376 95.0437 58.5603 95.1686 58.4912 95.2168C58.3365 95.325 57.9629 96.0472 58.0168 96.1342C58.0384 96.169 58.0321 96.1895 58.0029 96.1798C57.9737 96.1701 57.9451 96.1879 57.9392 96.2192C57.9334 96.2506 57.89 96.3036 57.8426 96.3372C57.7818 96.3803 57.8005 96.3885 57.9066 96.3651C58.0213 96.3399 58.0478 96.3549 58.0193 96.429C57.9988 96.4823 57.982 96.5379 57.982 96.5527C57.982 96.5675 57.9386 96.5795 57.8855 96.5795C57.8323 96.5795 57.7889 96.6059 57.7889 96.6381C57.7889 96.7045 57.9108 96.6966 58.0296 96.6226C58.0858 96.5875 58.0969 96.6054 58.067 96.6831C58.0368 96.7613 58.048 96.7788 58.1055 96.7433C58.15 96.7159 58.1734 96.6435 58.1573 96.5824C58.14 96.5164 58.1831 96.437 58.2634 96.387C58.3967 96.304 58.3968 96.3022 58.2708 96.2531C58.2005 96.2257 58.1809 96.2013 58.2273 96.1988C58.2742 96.1963 58.2912 96.1614 58.2657 96.1201C58.2379 96.0754 58.2479 96.0634 58.2908 96.0898C58.3571 96.1307 58.5388 95.8927 58.5129 95.7991C58.5065 95.776 58.5423 95.7232 58.5924 95.6818C58.6582 95.6273 58.6672 95.5639 58.6249 95.4532C58.5859 95.3508 58.5904 95.2852 58.6384 95.2556C58.6804 95.2297 58.6923 95.2403 58.667 95.281C58.6433 95.3193 58.6507 95.3673 58.6837 95.3876C58.7166 95.4078 58.7361 95.3747 58.7272 95.314C58.7112 95.2048 58.7453 95.1457 58.964 94.9055C59.0902 94.7668 59.1128 94.6877 59.0075 94.7525C58.9696 94.776 58.9765 94.7343 59.0231 94.66C59.0696 94.5856 59.1263 94.5248 59.1491 94.5248C59.2292 94.5248 59.2541 94.2779 59.1819 94.1998C59.1268 94.1402 59.1287 94.1319 59.1894 94.166C59.2428 94.1961 59.2699 94.1655 59.2699 94.0749C59.2699 93.9999 59.2999 93.8826 59.3365 93.8143C59.3748 93.7431 59.3777 93.6901 59.3435 93.6901C59.3107 93.6901 59.2656 93.7624 59.2434 93.8506ZM96.4223 94.0723C96.4623 94.1466 96.5224 94.1904 96.556 94.1697C96.6449 94.1149 96.6329 94.0883 96.4835 94.0085C96.3608 93.9431 96.3558 93.9484 96.4223 94.0723ZM8.2071 94.6754C8.2071 94.8058 8.4465 94.995 8.55777 94.9524C8.69042 94.9017 8.62204 94.751 8.4259 94.6619C8.22249 94.5695 8.2071 94.5705 8.2071 94.6754ZM51.0277 96.5627C51.0277 96.5991 51.2051 96.7722 51.2425 96.7722C51.2594 96.7722 51.2593 96.7192 51.2423 96.6545C51.2169 96.5574 51.0277 96.4766 51.0277 96.5627ZM25.8308 97.3954C25.8039 97.438 25.7424 97.4577 25.6939 97.4392C25.5815 97.3961 25.5016 97.5185 25.6018 97.5802C25.6521 97.6113 25.6598 97.5987 25.6251 97.5427C25.5899 97.4859 25.5981 97.4741 25.6505 97.5064C25.707 97.5412 25.7089 97.577 25.6575 97.6387C25.6054 97.7013 25.6466 97.9712 25.8161 98.6764C25.9421 99.2006 26.0641 99.6728 26.0871 99.7258C26.1348 99.8352 26.1529 99.8935 26.1644 99.9758C26.1688 100.007 26.22 100.051 26.2781 100.074C26.3708 100.109 26.3728 100.1 26.2942 100C26.2127 99.8967 26.2149 99.8943 26.3173 99.9744C26.3793 100.023 26.43 100.102 26.43 100.151C26.43 100.23 26.4724 100.251 26.5999 100.234C26.6225 100.231 26.6637 100.265 26.6916 100.31C26.7323 100.376 26.7623 100.375 26.8452 100.306C26.9019 100.26 26.9668 100.24 26.9896 100.262C27.0124 100.285 26.9972 100.304 26.9559 100.304C26.8193 100.304 26.8777 100.403 27.09 100.531C27.2536 100.629 27.4222 100.658 27.8627 100.661C28.4427 100.666 28.598 100.607 28.2008 100.533C28.0768 100.509 27.9754 100.47 27.9754 100.444C27.9754 100.371 28.6921 99.8328 28.7896 99.8328C28.8617 99.8328 28.8602 99.8063 28.7814 99.6863C28.7218 99.5957 28.7094 99.5249 28.7488 99.5006C28.852 99.4371 28.8216 99.3233 28.7126 99.3651C28.6553 99.387 28.6294 99.3762 28.652 99.3398C28.6736 99.3049 28.6606 99.2763 28.6231 99.2763C28.5857 99.2763 28.5549 99.2425 28.5549 99.2011C28.5549 99.1598 28.507 99.0731 28.4484 99.0085C28.3698 98.922 28.3642 98.8911 28.4269 98.8911C28.4737 98.8911 28.4934 98.8725 28.4706 98.8498C28.4479 98.8271 28.3887 98.8421 28.3392 98.8831C28.2657 98.9439 28.2491 98.9253 28.2491 98.7824C28.2491 98.6692 28.1954 98.5722 28.0976 98.5083C28.0142 98.454 27.901 98.3662 27.846 98.3132C27.7335 98.2047 27.4992 98.0843 27.2832 98.0239C27.2035 98.0017 27.1383 97.9421 27.1383 97.8915C27.1383 97.7851 27.0363 97.7687 26.9763 97.8654C26.9528 97.9033 26.8556 97.8459 26.7471 97.7302C26.578 97.5496 26.5272 97.5388 26.5516 97.6885C26.5592 97.735 26.2658 97.6878 26.1532 97.6244C26.1249 97.6085 26.1381 97.5475 26.1823 97.4888C26.2502 97.3988 26.2487 97.3947 26.1726 97.4624C26.045 97.5758 25.9281 97.5619 25.902 97.4303C25.8863 97.3513 25.8652 97.3409 25.8308 97.3954ZM58.7547 98.4378C58.7547 98.4858 58.7129 98.5036 58.6535 98.4808C58.5212 98.4302 58.2877 98.556 58.3444 98.6474C58.3697 98.6882 58.359 98.7002 58.3191 98.6757C58.2811 98.6522 58.2114 98.6706 58.1643 98.7166C58.1172 98.7626 57.9917 98.8357 57.8855 98.8792C57.5352 99.0224 56.7586 99.8332 56.7586 100.055C56.7586 100.124 56.7151 100.196 56.662 100.216C56.6089 100.237 56.5654 100.295 56.5654 100.346C56.5654 100.398 56.5392 100.424 56.507 100.404C56.4749 100.384 56.465 100.43 56.485 100.506C56.5079 100.594 56.4965 100.629 56.4541 100.603C56.3605 100.546 56.3136 100.843 56.3937 100.988C56.4522 101.093 56.4475 101.096 56.3514 101.018C56.2547 100.939 56.2435 100.95 56.2435 101.127C56.2435 101.235 56.2737 101.342 56.3107 101.365C56.5527 101.514 57.7507 100.194 58.4971 98.9554C58.6744 98.6613 58.8049 98.406 58.7871 98.3883C58.7693 98.3705 58.7547 98.3928 58.7547 98.4378ZM28.7803 99.5974C28.8022 99.6327 28.8473 99.6616 28.8807 99.6616C28.9141 99.6616 28.9413 99.6327 28.9413 99.5974C28.9413 99.5621 28.8961 99.5332 28.8409 99.5332C28.7857 99.5332 28.7584 99.5621 28.7803 99.5974ZM26.4944 100.012C26.4944 100.029 26.5596 100.077 26.6393 100.119C26.7706 100.189 26.7759 100.186 26.6958 100.089C26.6135 99.99 26.4944 99.9445 26.4944 100.012ZM27.3128 100.432C27.2883 100.526 27.3109 100.561 27.3959 100.561C27.4809 100.561 27.5035 100.526 27.4789 100.432C27.4604 100.361 27.4231 100.304 27.3959 100.304C27.3687 100.304 27.3314 100.361 27.3128 100.432ZM28.5763 101.154C28.5439 101.199 28.4772 101.315 28.428 101.413C28.3739 101.52 28.3213 101.562 28.2948 101.52C28.2676 101.476 28.2388 101.495 28.219 101.57C28.19 101.68 28.2066 101.685 28.404 101.624C28.5265 101.585 28.6378 101.5 28.6599 101.427C28.6813 101.357 28.7435 101.248 28.7979 101.187C28.8882 101.084 28.8854 101.074 28.7659 101.074C28.694 101.074 28.6086 101.11 28.5763 101.154ZM29.1394 101.371C29.0573 101.456 28.9567 101.518 28.9158 101.509C28.8749 101.499 28.7585 101.557 28.6573 101.636C28.556 101.716 28.5133 101.781 28.5623 101.781C28.6178 101.782 28.6264 101.8 28.585 101.83C28.5138 101.88 28.5139 101.926 28.586 102.145C28.6159 102.236 28.6664 102.272 28.7298 102.248C28.8111 102.217 28.8153 102.233 28.7545 102.346C28.6927 102.462 28.7039 102.497 28.8275 102.577C28.9078 102.628 29.0604 102.691 29.1667 102.716C29.2729 102.741 29.4069 102.802 29.4644 102.851C29.5558 102.93 29.5936 102.921 29.7635 102.778C29.8705 102.689 29.9876 102.615 30.0238 102.615C30.06 102.615 30.0998 102.585 30.1123 102.548C30.1341 102.482 30.2762 102.438 30.4967 102.428C30.5736 102.424 30.5933 102.384 30.5671 102.284C30.5411 102.185 30.5533 102.16 30.6101 102.195C30.6686 102.231 30.6671 102.204 30.6041 102.095C30.4716 101.863 30.3965 101.799 30.2781 101.817C30.2179 101.826 30.1751 101.8 30.1828 101.761C30.1906 101.721 30.1048 101.642 29.9922 101.584C29.8795 101.527 29.7202 101.437 29.638 101.385C29.3707 101.214 29.2931 101.212 29.1394 101.371ZM51.9429 101.937C51.8758 102.083 51.8894 102.114 52.091 102.267C52.2131 102.36 52.4715 102.5 52.6653 102.579C53.0333 102.728 53.7322 102.798 53.7322 102.686C53.7322 102.521 53.0744 102.066 52.7622 102.014C52.7114 102.006 52.6118 101.968 52.5409 101.929C52.4701 101.891 52.3231 101.841 52.2144 101.818C52.0452 101.781 52.006 101.799 51.9429 101.937Z" fill="#E1017D"/>
</g>
<defs>
<filter id="filter0_d_340_59980" x="0" y="0.146484" width="197" height="116" filterUnits="userSpaceOnUse" color-interpolation-filters="sRGB">
<feFlood flood-opacity="0" result="BackgroundImageFix"/>
<feColorMatrix in="SourceAlpha" type="matrix" values="0 0 0 0 0 0 0 0 0 0 0 0 0 0 0 0 0 0 127 0" result="hardAlpha"/>
<feOffset dy="4"/>
<feGaussianBlur stdDeviation="2"/>
<feComposite in2="hardAlpha" operator="out"/>
<feColorMatrix type="matrix" values="0 0 0 0 0 0 0 0 0 0 0 0 0 0 0 0 0 0 0.86 0"/>
<feBlend mode="normal" in2="BackgroundImageFix" result="effect1_dropShadow_340_59980"/>
<feBlend mode="normal" in="SourceGraphic" in2="effect1_dropShadow_340_59980" result="shape"/>
</filter>
</defs>
</svg>
