<svg xmlns="http://www.w3.org/2000/svg" width="197" height="117" fill="none" viewBox="0 0 197 117"><g filter="url(#a)"><path fill="#e1017d" fill-rule="evenodd" d="M169.541.21c-.952.122-2.033.522-2.693.998-.35.252-.618.503-3.585 3.364-1.01.973-2.922 2.807-4.25 4.075-4.619 4.412-5.636 5.387-5.828 5.59-.106.113-1.308 1.268-2.672 2.567a685 685 0 0 0-5.183 4.973c-.496.48-2.698 2.59-4.894 4.687a1972 1972 0 0 0-4.924 4.715c-.974.944-2.102 2.028-3.511 3.377-.461.44-1.678 1.611-2.705 2.602s-3.331 3.198-5.119 4.907a646 646 0 0 0-4.982 4.785c-.407.397-4.971 4.76-5.403 5.165-.366.343-.747.967-.954 1.56-.102.291-.186.534-.186.538-.001.005-.443-.104-.983-.241-1.7-.432-2.591-.537-4.556-.537-1.496 0-1.812.018-2.566.148-5.201.903-8.593 4.554-9.882 10.639-.252 1.19-.36 1.983-.476 3.49-.105 1.376-.108 1.392-.295 1.608l-.188.218.038.81c.02.444.054 1.444.074 2.22.091 3.546.223 4.161 1.05 4.924.555.513 1.056.701 1.981.744 1.861.085 3.244-.76 3.562-2.175.134-.596.327-3.994.327-5.757v-.788l-.254-.276c-.73-.788-2.655-1.187-4.404-.912-.384.06-.708.1-.72.087-.021-.021.074-.74.228-1.721.198-1.257.664-2.87 1.167-4.042q2.287-5.324 7.714-6.471c.765-.162.904-.171 2.58-.17 1.623.002 1.849.016 2.71.17.516.092 1.38.285 1.92.428.539.143.989.26 1 .26s.055.181.098.402c.102.519.583 2.064.834 2.677.107.263.189.485.181.493l-1.632 1.641c-1.769 1.779-1.883 1.933-2.062 2.798-.145.7-.092 2.417.097 3.098.469 1.697 1.555 3.71 3.057 5.668.347.452.374.509.287.61-.052.06-.264.313-.471.56a316 316 0 0 1-2.543 2.986c-.02.018-.497.581-1.061 1.252s-1.056 1.252-1.093 1.291c-.036.04-.27.312-.517.606-.248.294-.641.754-.873 1.02a240 240 0 0 0-2.635 3.108 7 7 0 0 1-.507.546l-.348.342.032.448c.028.394.019.443-.072.407-.276-.108-1.354-.163-1.968-.1-1.504.152-2.597.725-3.73 1.954-.303.33-.71.71-.905.843-.597.41-.92.3-2.009-.683-1.075-.971-2.848-1.824-4.597-2.213-.728-.161-.922-.178-2.028-.177-1.638.003-2.69.19-3.992.715-1.508.606-3.02 1.79-4.036 3.162-.563.76-1.212 1.277-1.609 1.283-.17.002-.404-.33-.562-.794-.08-.236-.242-.6-.36-.809a4 4 0 0 1-.262-.528 10 10 0 0 0-.362-.77c-1.353-2.667-3.823-4.306-7.04-4.672-2.045-.233-4.468.22-6.434 1.2-2.226 1.111-4.245 3.05-5.888 5.658-.429.68-.616 1.005-1.542 2.674-.687 1.238-1.192 1.83-1.56 1.83-.375 0-.511-.286-.734-1.54a13 13 0 0 0-.2-.932c-.05-.176-.178-.715-.285-1.196-.887-4.004-2.86-6.79-5.746-8.11-1.179-.54-2.347-.805-3.757-.853-1.703-.06-3.064.15-4.923.754-.957.312-2.562 1.083-3.301 1.586-1.795 1.223-2.943 2.489-4.383 4.834-.247.403-.822 1.16-1.231 1.62a.44.44 0 0 1-.293.113c-.107 0-.193.034-.193.077 0 .259-.576-.914-1.19-2.42a11 11 0 0 0-1.226-2.238c-.588-.818-.833-1.133-.88-1.133-.03 0-.053-.028-.053-.062 0-.1-1.27-1.308-1.894-1.801a12 12 0 0 0-2.613-1.574c-1.01-.458-1.412-.595-2.511-.86-1.295-.31-2.24-.409-3.542-.37-1.453.045-1.743.09-3.298.502-4.326 1.148-7.475 4.437-8.197 8.563-.154.877-.156 2.434-.006 3.21.363 1.872 1.14 3.446 2.243 4.542.714.708 1.087.95 2.058 1.329 1.315.513 2.326.668 3.417.52 2.424-.327 4.215-1.84 4.664-3.942.117-.55.08-1.608-.076-2.192a7 7 0 0 0-.396-.972c-.324-.65-.328-.797-.021-.955.293-.151.587-.115 1.09.136.743.371 1.8 1.515 2.038 2.208.115.333.404 2.086.51 3.083.25 2.39.673 4.047 1.398 5.488 1.327 2.636 3.555 4.433 6.424 5.181 1.355.354 3.4.339 4.81-.035 1.811-.48 3.518-1.554 4.707-2.961 1.038-1.23 1.793-2.647 2.394-4.495.216-.662.942-2.422 1.258-3.05.606-1.202 1.425-2.027 2.06-2.074.157-.012.186.024.322.405.081.23.212.85.29 1.38.244 1.663.473 2.73.793 3.697 1.137 3.44 4.256 6.104 8.093 6.91.433.09.85.114 1.996.114 1.562 0 2.287-.097 3.413-.46 1.181-.38 2.507-1.101 3.439-1.87.49-.405 1.658-1.644 2.101-2.228.438-.578 1.2-1.736 1.414-2.15.244-.472 2.445-3.464 3.016-4.1l.25-.28.141.762c.484 2.628 1.098 4.044 2.408 5.558.568.657 1.736 1.534 2.653 1.992 1.133.567 2.234.79 3.634.736 1.723-.065 3.066-.503 4.763-1.555.855-.53 1.67-1.214 2.968-2.492.655-.646 1.35-1.301 1.545-1.457s.722-.61 1.17-1.008c.45-.398.83-.724.843-.724.015 0 .136.16.271.354.135.195.482.578.771.85 1.527 1.44 3.468 2.186 5.8 2.229 1.51.028 2.667-.181 4.085-.738 1.542-.606 2.9-1.536 4.353-2.982.901-.896 2.784-2.91 3.285-3.51.385-.463.782-1.25.939-1.862.247-.96.15-2.295-.223-3.072l-.147-.308.187-.21c.167-.186.184-.241.15-.504-.021-.163-.169-.55-.329-.859a9 9 0 0 1-.292-.591c0-.015.095-.046.211-.067.13-.025.35-.168.57-.373a223 223 0 0 1 2.921-2.68c.177-.157.351-.316.387-.353.035-.038.224-.196.419-.35a21 21 0 0 0 .648-.542c.161-.143.504-.419.762-.613.436-.329.646-.492.816-.633.038-.031.252-.198.476-.37s.541-.42.704-.55.513-.373.779-.538.504-.333.53-.373.048-.049.049-.02c0 .03.085-.007.188-.08.102-.073.213-.133.245-.133s.116-.05.186-.112c.186-.163.412-.283.412-.22 0 .031-.059.124-.132.207a3 3 0 0 0-.263.363c-.072.117-.157.212-.19.212s-.059.032-.059.072c0 .063-.556.858-.74 1.058-.036.04-.224.256-.418.482-.872 1.012-2.834 2.87-5.33 5.045a94 94 0 0 0-1.786 1.58l-.129.135.129-.091c.07-.05.26-.207.421-.35.161-.142.37-.321.463-.398.542-.45 2.623-2.2 2.786-2.344.106-.094.601-.513 1.099-.93a909 909 0 0 0 5.23-4.413l.728-.612.645.48c2.107 1.563 3.999 2.556 5.627 2.954.555.135.796.157 1.741.157 1.158 0 1.583-.066 2.108-.327.169-.084.909-.767 1.949-1.799l1.678-1.663.254.12c.538.257 2.094.743 2.927.915.793.164.965.177 1.964.157 1.437-.029 1.988-.185 2.773-.784.178-.136 1.682-1.663 3.343-3.393a1696 1696 0 0 1 4.733-4.912c.942-.971 2.421-2.503 3.287-3.403.865-.9 2.025-2.1 2.578-2.665s2.71-2.804 4.794-4.976a603 603 0 0 1 3.997-4.142c.114-.106 1.271-1.305 2.571-2.664a616 616 0 0 1 2.566-2.673c.409-.406 3.254-3.355 6.188-6.413a790 790 0 0 1 5.607-5.811c.5-.512 1.947-2.015 3.215-3.339a383 383 0 0 1 2.57-2.668c.146-.143.541-.548.879-.899l2.193-2.276c2.911-3.016 2.862-2.96 3.247-3.755.188-.39.388-.895.445-1.125.979-3.99-1.391-9.925-6.052-15.153-.808-.907-2.479-2.547-3.345-3.283-4.708-4.004-10.082-6.24-13.844-5.761m-7.103 45.968c-.078.072-.141.156-.141.187 0 .087-.44.338-.514.292-.056-.034-.075.025-.063.195.003.055-.181.222-.246.222-.033 0-.139.074-.237.163a.9.9 0 0 1-.359.2.8.8 0 0 0-.33.174c-.081.076-.169.13-.195.122s-.032.025-.013.075c.02.053-.025.123-.106.166q-.143.078-.098.005c.084-.136-.1-.069-.248.09-.082.089-.197.16-.255.16s-.105.029-.105.063-.044.045-.097.025c-.07-.027-.086-.008-.058.066.037.096-.006.113-.265.102-.018 0-.112.072-.208.16-.097.09-.199.163-.228.163-.096 0-.496.352-.496.437 0 .046-.025.069-.056.05-.077-.048-.288.196-.239.275.022.035.009.082-.028.105s-.059.007-.049-.035-.033-.085-.095-.096-.113.018-.113.063c0 .044-.174.208-.387.362-.261.19-.375.313-.351.377.02.052.018.077-.004.054-.068-.067-.417.083-.417.18 0 .05-.04.09-.088.09-.049 0-.285.18-.524.401-.763.704-.822.755-.882.755-.032 0-.038.033-.013.074q.043.07-.032.026c-.045-.028-.138.014-.222.102-.08.083-.28.264-.444.403-.165.14-.281.282-.26.316.023.036-.004.047-.062.025s-.149.014-.213.085c-.062.068-.092.124-.066.124s-.091.132-.259.292c-.172.165-.344.277-.394.258s-.071-.006-.047.032c.047.077-.281.381-.413.381-.053 0-.027-.052.065-.132l.152-.132-.172.104c-.094.057-.188.147-.209.2s-.009.078.027.056.063-.015.062.013c-.004.067-.723.569-.787.549-.026-.009-.048.014-.048.05s-.07.097-.156.136-.17.13-.189.2c-.024.093-.071.12-.167.095-.083-.022-.117-.01-.09.033.023.037-.011.107-.077.154-.065.048-.094.087-.064.087.031 0-.05.09-.18.2-.129.11-.216.233-.194.273q.038.069-.043-.005c-.068-.062-.115-.043-.235.096-.083.096-.15.195-.15.22 0 .026-.044.03-.097.01s-.097-.004-.097.038c0 .04-.028.057-.063.035s-.05-.001-.034.045c.018.047-.057.126-.173.183-.113.055-.217.139-.233.186q-.028.085.054.034.08-.048.039.02a.11.11 0 0 1-.128.04c-.046-.017-.274.17-.513.42-.236.249-.451.453-.478.453-.081 0-.467.386-.468.468q0 .076-.057-.012c-.044-.07-.066-.059-.1.049-.024.075-.079.136-.122.136s-.12.062-.172.138c-.231.334-.409.51-.487.48q-.081-.03-.049.06c.022.056-.003.093-.063.093-.055 0-.118.058-.14.128s-.082.129-.133.129a.094.094 0 0 0-.092.096c0 .053-.022.093-.049.089-.168-.027-.266.017-.232.104q.038.097-.088.096c-.068 0-.209.104-.312.232-.374.46-.991.996-1.086.942q-.059-.03-.019.015c.055.06-.26.416-.368.416-.038 0-.127.078-.198.173-.19.258-.48.525-.618.568-.067.021-.121.075-.121.12 0 .044-.105.165-.233.268s-.383.332-.565.509c-.473.456-.736.674-.815.674-.038 0-.055.023-.037.052.039.063-.305.397-.409.397-.041 0-.057.027-.037.06s-.022.078-.094.1c-.071.024-.114.07-.093.102.02.032.009.06-.025.06s-.13.071-.213.159-.183.16-.221.16-.184.142-.322.314c-.139.172-.31.339-.381.371-.071.033-.122.095-.113.138.009.042-.023.077-.071.077-.049 0-.195.101-.326.224l-.237.223-.319-.237c-.175-.13-.319-.255-.319-.278 0-.036-.241-.148-.695-.324-.218-.084-.399-.07-.399.033 0 .05.228.432.506.85 1.574 2.364 2.301 3.734 3.361 6.335l.151.372.128-.244c.092-.176.136-.413.156-.85.028-.593.054-.674.29-.891.335-.307.5-.477.905-.93.243-.272.482-.494.531-.494s.082-.024.073-.053c-.009-.03.085-.155.209-.278s.559-.582.966-1.017c.407-.436.849-.901.982-1.036.133-.134.241-.267.241-.296 0-.03.437-.5.97-1.046a78 78 0 0 0 1.368-1.434c.219-.242.624-.67.899-.952s.48-.543.457-.581c-.024-.038-.016-.052.017-.032s.132-.054.219-.165c.088-.111.248-.29.357-.396s.33-.344.493-.527.315-.313.339-.289.034.01.022-.032c-.012-.04.109-.218.268-.393s.464-.516.676-.758.525-.578.693-.746.292-.307.274-.307.055-.083.161-.184.192-.215.192-.254.053-.122.118-.185c.065-.064.272-.303.461-.533s.419-.492.511-.583c.204-.203.391-.453.391-.521 0-.029.033-.051.072-.051s.128-.073.198-.162c.07-.088.158-.142.196-.118.041.025.051.012.024-.03-.026-.043.075-.206.235-.38a15 15 0 0 0 .454-.52c.095-.117.174-.19.174-.16s.052-.024.114-.119a4 4 0 0 1 .349-.425c.184-.198.219-.272.16-.335s-.058-.072.003-.037c.106.059.34-.07.34-.189 0-.052.027-.094.06-.094s.078-.058.101-.128c.022-.071.082-.129.133-.129.05 0 .092-.056.092-.124 0-.069.031-.144.069-.167s.052-.085.033-.136c-.02-.051-.011-.078.019-.059.085.052.336-.193.347-.339.005-.07.034-.114.065-.095.03.019.071-.026.091-.1.019-.075.058-.136.085-.136s.082-.088.12-.197.093-.183.122-.165.095.006.147-.026c.075-.048.068-.06-.036-.065-.094-.005-.102-.016-.032-.043a.7.7 0 0 0 .213-.172c.312-.36.735-.837.854-.962.074-.076.124-.17.112-.206-.013-.037.036-.12.107-.185.072-.064.133-.163.136-.22.004-.074.014-.079.039-.016.035.086.122-.028.271-.352.035-.076.087-.148.116-.16.072-.032.563-.81.669-1.062.047-.113.103-.194.124-.181.021.012.065.003.099-.02.099-.072.354-.598.318-.657-.019-.03.112-.207.29-.395.199-.21.362-.459.425-.648.069-.208.183-.37.354-.508.31-.249.28-.306-.067-.125-.144.074-.261.123-.261.107 0-.015.095-.116.21-.223q.21-.196.108-.196c-.055 0-.164.059-.241.13m-5.851 4.393c0 .051.025.078.055.06a.07.07 0 0 0 .018-.094c-.052-.084-.073-.075-.073.034m-.697.483c-.022.037.004.047.061.026.112-.043.132-.09.039-.09-.033 0-.078.03-.1.064m-35 .78c.159.07.431.173.606.23s1.02.453 1.877.88c1.353.674 1.553.756 1.518.629-.048-.178-.516-.663-.762-.79a2 2 0 0 1-.338-.235c-.088-.08-.22-.145-.293-.145a.34.34 0 0 1-.209-.076.35.35 0 0 0-.158-.09 9 9 0 0 1-.596-.187c-.369-.125-.639-.174-.95-.171-.243.002-.534-.037-.658-.09-.336-.139-.367-.102-.037.044m-4.633 11.636c0 .013.38.251.844.53 1.038.623 1.021.613 1.703 1.085.305.212.62.428.698.481.667.45 1.243.915 2.265 1.828.357.32.763.678.902.797.593.509 1.155 1.073 1.901 1.91l.99 1.109.259.29c.035.039.209.244.386.456.177.211.385.456.462.545.136.156.278.359.856 1.22.329.49.381.567.862 1.275.2.295.364.559.364.586s.043.085.096.129c.052.043.082.102.064.13-.017.027.013.066.066.087.052.02.096.078.096.13s.04.134.089.183c.05.05.168.242.262.428.095.187.186.326.203.31.05-.05-.254-.8-.63-1.556-.816-1.644-2.392-3.834-3.912-5.44a18 18 0 0 1-.655-.719c-.21-.265-2.238-2.102-2.958-2.678-1.355-1.085-3.128-2.212-4.421-2.811-.67-.31-.792-.358-.792-.305m-17.005 8.073c-.002.05-.016.149-.029.22-.072.376-.202 1.753-.262 2.76-.047.796-.072.888-.315 1.176-.153.182-.21.205-.507.205-.33 0-.56.098-.733.31-.214.264.032.62.501.725a.95.95 0 0 1 .45.252c.215.228.358.238.65.045.312-.208.561-.746.602-1.303.08-1.083.102-2.726.037-2.726-.038 0-.067-.15-.067-.347 0-.192-.03-.359-.068-.371s-.078-.134-.088-.27c-.011-.135-.06-.271-.109-.302-.067-.043-.069-.056-.006-.057.05 0 .074-.063.061-.16-.024-.18-.11-.294-.117-.157M14.904 84.295c0 .068.04.09.129.066.07-.018.128-.005.128.029s.028.045.061.024c.034-.02.237-.042.451-.048s.39-.036.39-.065.058-.023.129.014c.1.054.128.05.128-.02s-.148-.09-.708-.095c-.6-.004-.708.01-.708.095m-1.61.03c-.77.085-2.401.597-3.059.959l-.664.364a4 4 0 0 0-.703.535c-.198.191-.336.304-.305.251.048-.083.04-.084-.054-.008a.3.3 0 0 0-.109.207c0 .065-.108.226-.24.359-.133.132-.204.216-.157.188.07-.043.07-.03.003.078-.045.072-.105.117-.134.1-.028-.018-.051-.002-.051.035 0 .117-.221.582-.277.582-.029 0-.033.033-.009.072.025.04.01.093-.032.119a.24.24 0 0 0-.095.137c-.032.158-.123.345-.19.39-.035.023-.074.109-.086.19-.013.08-.058.169-.102.196-.06.039-.06.05.004.051.067.001.067.029.002.146a.9.9 0 0 0-.096.305c-.03.346-.094.578-.158.578-.057 0-.056.09.006.497.001.01.043.016.092.016.125 0 .18.178.101.326-.063.117-.166.152-.384.129q-.088-.007-.032.04c.079.062.102 1.25.024 1.201-.087-.053-.066.13.024.222.065.064.06.073-.021.042q-.1-.037-.102.06c0 .055.036.1.079.1s.075.07.07.16c-.005.088-.038.16-.074.161-.035 0-.023.027.028.06.055.034.095.17.099.335.004.153.057.377.117.497.143.283.148.548.01.495-.169-.064-.038.076.263.283.196.134.33.183.432.158q.147-.038.294.1c.126.117.176.127.344.068.152-.053.226-.048.324.02.111.078.145.07.289-.062.15-.139.156-.169.087-.378-.041-.126-.101-.228-.133-.228-.031 0-.04-.044-.02-.097s.005-.096-.034-.096c-.04 0-.072.028-.072.062 0 .037-.057.041-.14.01-.083-.03-.176-.153-.226-.298-.105-.302-.259-.48-.415-.48-.158 0-.358-.303-.262-.398.05-.05.136-.039.306.042.162.076.257.09.302.045.081-.081.01-.29-.08-.235-.035.022-.064.011-.064-.023s.036-.077.08-.095c.063-.026.061-.046-.007-.094q-.088-.06-.064-.357c.017-.204-.003-.306-.061-.329-.055-.02-.07-.085-.045-.177.032-.114.026-.124-.027-.049-.058.083-.067.081-.068-.016 0-.062-.037-.113-.082-.113q-.082 0 .013-.06c.052-.033.124-.044.161-.026s.018-.009-.044-.06a.44.44 0 0 1-.135-.213 1.4 1.4 0 0 0-.073-.236c-.054-.126.133-.39.232-.33.03.02.085-.043.122-.139.081-.213.035-.28-.065-.093-.083.154-.295.13-.436-.049-.105-.132-.102-.176.02-.297.136-.136.264-.128.394.023.105.123.109.122.193-.04.11-.212.107-.274-.02-.415-.099-.109-.096-.12.048-.173.084-.031.154-.097.156-.146.005-.163.178-.635.233-.635.03 0 .054-.055.054-.123 0-.067.034-.134.075-.148.095-.031.091-.616-.004-.712-.18-.179.038-.486.257-.363.055.03.18.07.277.088.159.028.169.02.093-.074-.047-.058-.054-.086-.015-.062.04.023.14-.031.225-.12l.153-.163-.17.064c-.153.058-.177.046-.248-.124-.084-.202-.007-.382.162-.382.045 0 .117-.043.161-.096.124-.149.387-.125.387.036 0 .078.028.115.068.09.038-.023.053-.084.033-.136-.02-.05-.01-.077.02-.058.075.046.213-.122.152-.184-.026-.026-.019-.042.016-.034.15.03.295-.008.258-.067-.022-.035-.01-.064.028-.064a.07.07 0 0 0 .069-.07c0-.04.06-.155.133-.258.112-.157.172-.184.37-.17.234.019.394-.068.647-.352.075-.084.112-.091.152-.032s.085.041.174-.065a.5.5 0 0 1 .254-.164.4.4 0 0 0 .178-.065c.025-.024.128-.044.23-.044s.2-.042.22-.095c.02-.052.138-.113.262-.137.163-.03.201-.058.139-.1q-.087-.057.077-.02c.116.027.198 0 .282-.093.084-.092.165-.12.274-.092.108.027.186.002.254-.081.084-.102.094-.104.065-.011q-.036.11.055.074a.1.1 0 0 0 .053-.128c-.039-.1-.306-.104-1.115-.014m3.542-.013c0 .033.057.05.127.036s.144.002.165.036c.02.033.086.059.146.058.08-.002.065-.027-.052-.094-.185-.106-.386-.125-.386-.036m.759.076c.116.033.194.089.173.123s-.01.061.026.061a.14.14 0 0 0 .102-.06c.054-.088.292-.054.292.042 0 .045.021.078.048.072a.4.4 0 0 1 .165.041c.159.069.31-.073.173-.162a.3.3 0 0 0-.21-.036c-.061.015-.112.002-.112-.03 0-.031-.087-.047-.193-.034s-.193-.003-.193-.034c0-.03-.109-.053-.242-.05l-.241.006zm-.063.1c.046.018.102.016.123-.005s-.016-.037-.084-.034q-.114.006-.04.039m1.185.117c.011.07.063.13.116.134a.7.7 0 0 1 .203.053c.101.044.271.085.4.096.03.003.016.054-.033.114-.077.094-.075.103.017.069.057-.022.136-.008.174.03a.5.5 0 0 0 .244.088c.095.01.197.057.226.103.03.045.054.059.055.03 0-.03.136.02.3.113.174.097.357.153.435.134.074-.018.096-.015.049.006-.088.04.071.164.329.256.079.029.094.064.05.117-.046.056-.011.073.133.063.236-.017.239-.02.287-.26.037-.185.023-.198-.402-.388-.683-.304-.845-.357-.929-.305q-.07.041-.038-.018c.04-.064-1.141-.423-1.405-.426-.07 0-.152-.032-.18-.07-.03-.04-.043-.015-.031.06m22.201.087a.7.7 0 0 1-.274.037c-.067-.01-.095.011-.07.053q.04.066-.064.028c-.063-.024-.107-.01-.108.037q0 .082-.056-.009c-.031-.048-.067-.063-.08-.032-.013.03-.116.103-.23.162-.19.1-.202.1-.168 0 .028-.079.01-.073-.066.022a.5.5 0 0 0-.105.236c-.001.06-.08.17-.177.244-.192.151-.415.133-.618-.05-.075-.067-.132-.08-.161-.038-.061.091-.27.163-.27.092 0-.031-.085.028-.189.132-.119.118-.184.246-.177.344.007.086-.017.155-.052.153-.036-.001-.058-.026-.05-.054.015-.059-.06-.05-.803.102-.08.016-.145.06-.145.096s.033.046.074.02c.044-.026.057-.017.031.025-.024.038-.116.056-.205.04l-.162-.03.205.394c.168.322.189.403.115.45-.137.086-.208.038-.265-.18s-.162-.284-.37-.23c-.132.035-.129.045.073.212.175.146.211.22.211.436 0 .317-.169.527-.423.527-.233 0-.443-.225-.443-.475v-.195l-.287.29c-.852.862-2.009 2.836-1.754 2.993.103.064.44.025.56-.064.053-.04.075-.047.049-.017-.026.031.002.092.063.136.091.067.129.058.226-.054.064-.074.102-.172.085-.217-.018-.046.039-.16.126-.254s.159-.208.159-.254c0-.045.052-.099.115-.119.075-.023.114-.098.113-.213q-.003-.176.086-.157c.133.028.337-.185.297-.31-.059-.185.074-.428.253-.463.092-.017.166-.006.166.024 0 .116.111.049.185-.112.053-.116.113-.158.195-.136.088.023.111.002.09-.081q-.03-.112.11-.148a.26.26 0 0 0 .172-.165c.019-.073.07-.114.119-.096.06.023.08-.017.066-.133-.014-.128.001-.15.064-.099.063.052.106-.006.188-.25.058-.175.15-.335.204-.356a.58.58 0 0 1 .53.066c.11.076.167.085.22.032.04-.04.052-.072.027-.072s.006-.052.068-.116.164-.104.226-.088c.064.015.184-.043.274-.132.112-.112.207-.15.32-.129.095.018.162.001.162-.04 0-.04.06-.073.132-.073s.115-.028.093-.064c-.024-.038.059-.064.206-.065.19 0 .224-.016.148-.07-.074-.052-.057-.06.077-.03.095.02.191.008.213-.027s.123-.065.225-.065.204-.028.226-.064c.022-.035.14-.064.261-.064.122 0 .222-.031.222-.07 0-.043.071-.053.193-.026.11.024.193.016.193-.02 0-.11.274-.156 1.03-.176.408-.01.97-.034 1.25-.053.369-.025.57-.008.736.061.126.053.265.082.309.065a.087.087 0 0 1 .11.046c.018.042.034.026.037-.036.008-.18.244-.369.461-.369.288 0 .575.304.575.609 0 .14.025.218.064.193.036-.022.083.007.105.064.034.09.053.09.144.012.058-.05.26-.106.449-.123.326-.03.355-.02.563.195.248.255.281.398.091.398q-.13.002-.129-.132c0-.15-.175-.356-.244-.287-.025.025 0 .079.057.12.12.087.197.414.11.467-.061.039.292.41.391.41.032 0 .074.061.093.135.02.077.066.116.106.092.038-.024.062-.02.053.01-.026.077.44.666.488.617.023-.022.041.02.041.096 0 .074.041.159.091.187s.1.138.113.244c.015.137.054.19.134.184.13-.01.151.076.032.131-.044.02-.014.02.068 0 .081-.02.19-.002.241.04.097.08.127.329.049.406-.087.088-.071.234.026.234q.099-.001.064.128c-.027.107-.009.122.113.092a.27.27 0 0 1 .251.069c.14.139.134.198-.03.312-.082.058-.116.126-.087.174q.052.082-.036.027c-.065-.04-.072-.023-.031.07.03.068.06.203.067.3l.022.271c.004.052.088.136.186.187.153.079.196.08.302.001.185-.135.412-.11.626.07.105.089.222.161.26.161.085 0 .025-.388-.156-1.013-.108-.369-.171-.483-.303-.546-.191-.091-.26-.348-.108-.406.078-.03.085-.066.032-.164a1 1 0 0 1-.092-.25c-.036-.188-.435-.828-.494-.792-.028.017-.032-.018-.008-.079.03-.08.02-.096-.043-.057q-.085.053-.039-.023c.028-.044-.088-.245-.277-.482-.532-.666-1.262-1.233-2.285-1.771-.638-.337-1.881-.797-1.982-.735-.03.018-.054.01-.054-.02q0-.12-1.385-.384c-.88-.168-2.494-.258-2.8-.157m-21.22.334c-.023.038-.028.082-.011.1.016.016.047-.015.069-.07.043-.112.006-.132-.058-.03m48.909.446c0 .046-.053.055-.145.027-.128-.041-.134-.034-.057.059.126.15.04.532-.149.655-.368.24-.711-.16-.5-.581.087-.172.087-.184 0-.113-.117.098-.352.12-.558.053q-.157-.052-.109.02c.025.04.014.076-.024.08l-.394.048c-.037.005-.053.032-.035.061.018.03-.074.049-.206.043a1.1 1.1 0 0 0-.367.04c-.124.048-.124.052.016.093.08.024.145.069.145.1 0 .03.045.056.1.056s.17.077.258.17c.165.178.202.25.093.183-.035-.021-.064-.008-.064.029s.045.068.1.068.082.029.06.064c-.07.113-.162.07-.237-.112a.7.7 0 0 1-.063-.225c.006-.027-.049-.048-.122-.048-.072 0-.217-.093-.322-.207-.105-.115-.19-.167-.19-.118s-.019.07-.042.046c-.024-.023-.104-.004-.177.043a.63.63 0 0 1-.323.073c-.187-.011-.187-.01-.051.092.075.057.211.155.302.219.263.185.388.41.292.526-.12.144-.193.118-.268-.098-.085-.245-.265-.349-.44-.255-.134.071-.387-.01-.387-.123 0-.03-.072-.069-.161-.086-.131-.025-.148-.014-.089.057.058.07.041.09-.08.095a2 2 0 0 1-.201 0c-.027-.004-.041.029-.032.073s-.028.08-.08.08a.2.2 0 0 0-.15.082c-.028.045-.079.065-.112.044-.034-.02-.06.01-.06.067s-.028.087-.06.067c-.034-.02-.079-.008-.101.028s-.104.055-.182.043c-.077-.013-.104-.01-.06.004.114.04-.05.191-.336.31q-.228.096-.228.223c0 .07-.036.132-.08.137l-.15.017c-.271.029-1.384 1.746-1.957 3.019-.18.402-.184.421-.05.328a.8.8 0 0 1 .382-.099c.188 0 .233-.021.205-.096-.02-.053-.004-.096.038-.096.047 0 .06-.05.034-.13-.074-.235.027-.495.226-.577.102-.042.214-.059.25-.037.085.053.403-.097.376-.179-.024-.07.177-.297.262-.297.028 0 .102-.087.164-.193s.155-.193.204-.193.132-.06.184-.135c.058-.082.127-.116.175-.087q.076.046.036-.02c-.024-.04.06-.151.192-.251.129-.1.281-.232.337-.293.056-.062.127-.113.157-.113.066 0 .18-.12.278-.291a.32.32 0 0 1 .225-.14c.357-.033.47-.065.495-.138.02-.06.05-.059.129.005.078.063.09.063.054.002-.03-.05-.01-.08.056-.08.057 0 .086-.03.063-.066s-.017-.059.013-.05.22-.05.425-.127c.205-.078.455-.142.556-.142.1 0 .219-.043.263-.096s.122-.097.173-.097.074-.029.052-.064c-.052-.085.007-.081.153.01.097.06.145.046.268-.077.096-.095.16-.122.176-.073.04.118.208.09.21-.037 0-.087.013-.092.055-.025.043.068.27.082 1.046.068.544-.01 1.044-.045 1.11-.077q.125-.06.077.012c-.028.045.028.074.153.079.276.011.31.017.364.072.085.085.147.052.233-.129.117-.244.353-.27.437-.048.04.106.043.21.005.281-.049.09-.024.126.129.183.103.039.188.052.189.028 0-.075.465-.078.555-.003.049.04.088.142.088.225 0 .093.038.153.097.153.053 0 .096.03.096.064 0 .036.042.065.092.065.051 0 .155.08.232.176.076.097.158.177.181.178.095.002.204.108.169.164-.02.033-.007.06.031.06.037 0 .068.04.068.089 0 .1.176.195.322.172q.102-.017-.032.091c-.07.059-.091.087-.045.064.1-.05.284.087.231.173-.02.033.005.11.058.169a.8.8 0 0 1 .14.254c.024.08.07.129.104.108.032-.02.06.038.06.13 0 .175.07.22.553.348.318.085.62.343.566.485-.053.138-.272.125-.401-.023a.64.64 0 0 0-.258-.167c-.124-.036-.146-.023-.125.075.014.065.068.109.119.098.073-.016.076-.004.014.058-.061.063-.05.104.053.193.072.062.132.137.135.166.004.064.043.19.126.412a.7.7 0 0 1 .019.337c-.035.139-.02.17.077.17.095-.001.1-.013.028-.059-.076-.048-.073-.075.022-.17.086-.085.125-.093.163-.032.037.06.059.055.088-.022a.17.17 0 0 1 .143-.102c.185 0 .259-.153.257-.53-.001-.202.021-.369.05-.369s.03-.034.004-.076c-.072-.117-.074-.566-.002-.566.035 0 .042-.021.016-.048a.2.2 0 0 0-.124-.048c-.041 0-.076-.059-.077-.13-.003-.156-.185-.432-.245-.373-.023.024-.047.002-.053-.048l-.017-.158a.8.8 0 0 0-.136-.231c-.105-.132-.15-.15-.24-.094-.143.09-.33-.017-.357-.203-.022-.144.182-.25.325-.17.045.025-.042-.062-.193-.194-.15-.132-.255-.271-.23-.31q.038-.066-.057-.031-.1.036-.17-.118c-.054-.118-.052-.156.008-.16.044-.003 0-.034-.098-.07-.098-.035-.162-.09-.142-.123.02-.031-.005-.042-.054-.023-.052.02-.136-.035-.199-.13-.092-.14-.129-.154-.24-.095-.103.055-.157.048-.245-.03a.4.4 0 0 1-.123-.199l-.022-.191q-.012-.094-.155-.07c-.11.02-.154-.01-.184-.129-.024-.095-.086-.155-.159-.155-.192 0-.503-.154-.475-.235.014-.041-.01-.096-.053-.122q-.075-.045-.032.026c.026.04.016.074-.022.074-.037 0-.068-.029-.068-.064s-.045-.064-.1-.064c-.06 0-.082.03-.055.074q.043.07-.03.027c-.04-.025-.059-.072-.039-.104s-.06-.054-.178-.05a.9.9 0 0 1-.34-.055 1.3 1.3 0 0 0-.385-.077c-.141-.008-.282-.04-.314-.07-.03-.031-.1-.04-.155-.019s-.082.011-.061-.023c.023-.037-.177-.065-.503-.07-.298-.005-.571-.027-.607-.05-.037-.022-.066-.008-.066.032m-25.733.077c-.018.028.1.05.262.05.161 0 .293-.01.293-.025 0-.05-.525-.074-.556-.025m27.246-.014q-.128.056-.032.06a.4.4 0 0 0 .193-.06c.118-.075.016-.075-.161 0m-48.168.368c-.067.397-.065.436.016.42.048-.01.063.025.04.088-.033.083-.01.094.114.059.119-.034.132-.028.058.023-.083.059-.08.068.016.069.062 0 .113.034.113.074 0 .099.307.376.417.376.113 0 .368.35.305.42q-.035.041.028.008c.04-.023.09.002.11.054.02.053.093.096.161.096.08 0 .139.06.166.168.024.093.06.152.08.132.061-.062.468.47.431.565-.024.064.003.08.1.054q.133-.034.134.055c0 .056.079.097.205.106.34.026.487.252.294.456-.065.069-.065.091 0 .115.044.016.08.07.08.12s.029.091.064.091.103.094.15.209a.9.9 0 0 0 .195.297c.058.048.106.128.106.176 0 .049.03.089.065.089s.064-.03.064-.068.03-.05.066-.028c.035.022.048.067.028.1s-.008.06.027.06.08-.025.098-.054c.019-.03.128-.057.243-.06.152-.005.183.01.115.053-.08.05-.078.06.01.06a.28.28 0 0 0 .186-.095c.065-.079.062-.097-.02-.097-.055 0-.158-.074-.23-.165-.105-.133-.118-.198-.066-.337a.65.65 0 0 1 .163-.247c.088-.067.088-.09-.003-.23-.056-.085-.083-.174-.059-.198.024-.023.014-.043-.022-.043s-.1-.075-.141-.168c-.07-.152-.088-.16-.188-.074-.256.219-.553.165-.662-.121-.054-.144-.042-.207.069-.357l.135-.182-.146-.175c-.209-.25-.827-.753-1.497-1.218-.563-.391-.865-.508-.787-.305.02.053.003.096-.038.096-.04 0-.022.038.042.085.106.077.107.093.013.187-.133.132-.324.08-.43-.117-.075-.14-.066-.175.09-.337l.174-.181-.32-.174-.32-.174zm20.046-.13c.08.016.196.015.257 0 .062-.017-.004-.03-.146-.029-.141.001-.192.014-.111.03m-30.708.246-.017.078a.5.5 0 0 1-.056.121c-.029.046.014.085.114.104.132.025.16.005.16-.114s-.175-.285-.201-.189m58.588.18c-.234.106-.303.17-.29.267.02.16.256.203.368.068.049-.058.186-.1.329-.1.273 0 .346-.066.285-.257-.053-.167-.29-.16-.692.022m-60.984.214c-.074.074-.047.15.054.15a.097.097 0 0 0 .096-.097c0-.1-.076-.127-.15-.053m.222.198c.02.124-.018.144-.152.079-.138-.067-.14-.065-.022.029.092.073.146.08.21.028.1-.084.112-.184.021-.184-.035 0-.061.022-.057.048m59.543.124c.046.019.102.016.123-.005s-.016-.036-.084-.034q-.114.007-.039.04m-6.02.82c0 .052.025.079.054.06a.12.12 0 0 0 .054-.093c0-.033-.024-.06-.054-.06s-.053.042-.053.093m24.32.547c-1.738.404-3.078 1.332-4.687 3.245-.268.317-.52.606-.56.642-.128.111-.62.866-.565.866.087 0 .282.372.207.397-.04.013-.025.074.037.15.057.07.085.091.063.047s-.016-.08.013-.08c.03 0 .108-.09.173-.2.09-.152.132-.179.174-.112.03.048.056.057.057.02 0-.037-.033-.101-.075-.142-.057-.058-.046-.087.049-.122.132-.05.323-.215.249-.215-.025 0-.01-.043.034-.095s.102-.082.129-.066c.026.017.1-.027.163-.097.133-.146.087-.174-.055-.032-.083.083-.1.083-.132-.003-.022-.056-.01-.082.025-.06s.064.01.064-.027.098-.108.218-.158.237-.123.262-.162c.024-.04.068-.057.097-.04s.051-.003.05-.047c-.008-.214.034-.284.237-.393.122-.066.238-.187.26-.272.02-.084.06-.153.089-.153s.108-.052.177-.117c.07-.065.206-.17.302-.232.097-.063.176-.15.176-.193 0-.042.127-.14.282-.218.156-.077.318-.183.362-.235s.104-.079.135-.06.058.005.058-.032c0-.038.042-.069.093-.069a.19.19 0 0 0 .145-.086c.085-.145.329-.24.5-.197q.162.04.163-.037c0-.043.041-.063.09-.044.059.022.106-.021.13-.12.047-.186.263-.255.507-.163.157.06.175.052.182-.076.006-.11.015-.116.037-.03.023.085.097.111.315.111.156 0 .285.028.285.063 0 .034.048.043.107.02q.104-.038.063.03c-.047.076.178.175.27.118.063-.038.34.254.288.305-.018.019.024.019.093 0 .079-.02.141.006.166.07.021.055.083.1.137.1s.099.031.099.069c0 .037.029.05.064.028s.065.007.065.064.027.087.06.067c.034-.02.324.218.645.53s.598.554.616.537c.017-.017.031.004.031.048 0 .098.159.263.253.263.038 0 .069.046.069.103 0 .072.034.09.113.06.09-.034.096-.026.032.039-.09.09-.107.187-.032.176.026-.005.07 0 .096.008.027.008.085.02.129.025s.073.056.063.112c-.027.166.257.208.363.055.178-.257.51-.084.433.224-.022.088-.082.161-.132.161a.18.18 0 0 0-.138.08c-.025.045-.024.06.004.035s.157.01.288.075c.13.067.293.116.362.11.097-.008.122.026.112.15-.012.16-.012.16.058.017.08-.164.241-.232.403-.17.083.031.105.097.087.254-.015.123.003.206.042.2.037-.007.058.03.046.084-.012.053 0 .075.026.049s.082 0 .125.06c.072.097.085.094.154-.033q.075-.14.008-.148l-.147-.016c-.044-.005-.09-.078-.102-.162-.017-.122 0-.145.088-.112.08.031.099.016.072-.055-.02-.053-.022-.097-.003-.097.062 0 .219.181.219.252 0 .097.105.087.115-.011.005-.044.026-.155.049-.246.029-.12-.007-.235-.128-.413q-.17-.247-.096-.29c.042-.027-.004-.064-.109-.09a2 2 0 0 1-.46-.234c-.153-.103-.3-.188-.326-.188a.6.6 0 0 1-.193-.102c-.124-.087-.134-.118-.063-.209.076-.097.073-.098-.038-.01-.11.086-.13.081-.217-.049-.052-.079-.139-.143-.192-.143q-.095-.001-.063-.124c.022-.087.005-.114-.057-.09-.049.019-.077.053-.064.076.014.023-.108.05-.271.059-.188.011-.347.064-.433.145-.172.16-.475.15-.432-.015.017-.063.126-.173.242-.245.341-.21.327-.384-.03-.384a.3.3 0 0 1-.202-.104c-.073-.087-.07-.115.02-.18.096-.07.098-.105.018-.33-.049-.14-.12-.245-.16-.236-.039.01-.112-.078-.162-.193s-.093-.187-.094-.159-.064.017-.14-.023c-.11-.059-.12-.085-.048-.13.07-.045.067-.056-.022-.057-.072 0-.097-.035-.073-.097.02-.053.005-.097-.035-.097-.039 0-.07.03-.07.065 0 .101-.137.075-.251-.05-.154-.167-.568-.464-.647-.464-.038 0-.069-.024-.069-.053 0-.03-.036-.057-.08-.061-.157-.015-.564-.175-.564-.223 0-.026-.04-.048-.091-.048s-.1-.025-.113-.055c-.011-.03-.354.023-.762.118m-51.687.428c-.051.132.043.285.212.347.111.042.13.019.143-.169.012-.18-.003-.21-.094-.175q-.11.043-.063-.033c.028-.045.006-.075-.056-.075-.056 0-.12.047-.142.105m65.818-.01c-1.025.222-1.563.66-2.7 2.194a9 9 0 0 1-.83.903c-.306.287-.659.7-.816.953a8 8 0 0 1-.365.55c-.074.086-.072.115.011.183a.3.3 0 0 1 .098.2c0 .129-.222.28-.321.22-.034-.021-.078.043-.1.141a1.2 1.2 0 0 1-.098.29c-.088.164-.078.178.117.177.264-.001.383-.092.28-.216-.099-.118-.04-.24.092-.19.052.02.095.002.095-.04 0-.04.032-.054.071-.03.05.03.045.06-.016.099-.048.03-.057.056-.02.056.105.002.414-.154.415-.208 0-.026.044-.048.097-.048a.097.097 0 0 0 .097-.096c0-.053-.034-.096-.075-.096-.042 0-.06-.016-.042-.034.075-.074.236.048.199.151-.021.06-.018.09.006.068a.45.45 0 0 0 .074-.19c.015-.082.073-.174.127-.204.143-.08.355-.317.325-.365-.014-.023.06-.079.163-.124.104-.046.189-.11.189-.143 0-.099.336-.444.433-.444.049 0 .071-.028.05-.064-.022-.035-.01-.064.028-.064.037 0 .068-.03.068-.066s.088-.152.195-.257.163-.19.124-.19.039-.12.175-.266c.223-.24.42-.46.696-.778a.4.4 0 0 0 .098-.204c0-.051.056-.11.125-.132.068-.022.211-.137.316-.256.105-.12.211-.198.235-.174.025.024.035 0 .023-.053-.023-.102.221-.385.331-.385.036 0 .065-.06.065-.132q.002-.13.075-.086.077.048.031-.067c-.033-.088-.019-.105.064-.073.133.05.325-.145.294-.3-.013-.062.008-.112.046-.112s.069-.044.069-.097c0-.114-.095-.114-.614-.002m6.533.274-.156.177.177-.156c.166-.145.207-.197.156-.197-.011 0-.091.079-.177.176m-18.12.593c-.065.072-.1.15-.076.173s.043.004.043-.043c0-.049.053-.023.127.062.108.124.134.131.167.046.051-.134.013-.317-.074-.346-.038-.012-.122.036-.187.108m-63.241.222c-.051.132.02.312.103.26.036-.021.065-.093.065-.16 0-.158-.119-.229-.168-.1m-14.573.858c-.003.047-.03.069-.062.05-.031-.02-.093.007-.136.06-.044.052-.06.095-.037.095s-.032.08-.122.177a1 1 0 0 0-.2.305c-.02.07-.068.195-.109.277-.059.118-.054.16.02.208.078.049.075.059-.02.06-.094 0-.085.031.06.193.094.106.198.193.23.193.095 0 .24-.173.191-.227-.025-.028-.002-.035.052-.017.053.018.154-.025.225-.096.073-.074.087-.11.032-.082-.053.025-.034-.009.042-.076.121-.107.132-.158.084-.406-.062-.323-.243-.84-.25-.714m87.858.333c-.022.036.004.047.061.025.112-.043.132-.088.04-.088-.034 0-.079.028-.1.063m-39.469 1.036c-.1.26-.254.614-.34.785-.147.296-.15.317-.044.433.154.17.241.153.193-.038q-.039-.16.038-.16c.062 0 .062-.018.002-.078-.183-.182-.005-.5.28-.5.195 0 .39-.322.267-.443a.9.9 0 0 1-.145-.274l-.067-.198zm-9.434-.012c-.12.168-.472.306-.69.27-.056-.01-.06.047-.013.215.035.125.047.253.027.285-.058.094.088.406.175.372.052-.02.08.033.08.148 0 .098-.022.165-.048.149-.087-.054-.051.102.08.346.139.259.186.52.06.338-.05-.073-.061-.042-.05.13.01.123-.004.258-.03.299-.065.105.01.26.143.294.093.025.115.108.121.472.012.694.12 1.309.23 1.31.044 0 .038.024-.015.057-.048.03-.076.092-.061.136.019.058.06.047.143-.036a.5.5 0 0 1 .254-.132c.077-.008.153-.018.17-.022.019-.003-.01-.034-.063-.068-.076-.049-.078-.063-.009-.063.07-.001.072-.02.011-.094-.114-.138-.055-.38.11-.452.224-.098.222-.218-.041-2.216a54 54 0 0 0-.242-1.713c-.053-.217-.197-.228-.341-.025m47.215-.012c-.306.2-.367.401-.12.401.085 0 .166-.033.18-.074s.154-.091.311-.112c.253-.034.287-.058.287-.199 0-.237-.307-.245-.658-.016m-15.15-.048c-.059.037-.067.062-.02.063a.15.15 0 0 0 .116-.063c.05-.08.027-.08-.097 0m15.711.32c-.053.035-.067.063-.032.063a.4.4 0 0 0 .161-.062c.053-.034.068-.062.032-.062a.4.4 0 0 0-.16.062m1.345 1.138a.33.33 0 0 0-.24.183c-.042.09-.126.157-.202.157-.072 0-.13.032-.13.07 0 .04-.038.057-.084.04s-.151.051-.233.153-.19.186-.242.186c-.05 0-.075.03-.053.064.022.036-.005.065-.06.065-.056 0-.1.053-.1.118s-.076.152-.169.194c-.12.054-.159.112-.136.199.02.073-.007.137-.064.16-.057.021-.08.078-.056.14.03.079.01.095-.089.07-.108-.029-.118-.016-.065.085.035.065.07.192.078.282s.037.164.067.164.036.03.014.065c-.055.089-.177.007-.139-.093.017-.044.005-.12-.026-.17-.043-.068-.058-.051-.059.065a.44.44 0 0 0 .093.259c.085.093.178.02.95-.738.47-.463 1.038-.973 1.261-1.134.289-.21.376-.304.305-.33a.16.16 0 0 1-.098-.137c0-.135-.113-.124-.15.014-.025.095-.037.09-.077-.032-.025-.08-.064-.14-.087-.135a5 5 0 0 1-.209.036m-40.522.629c-.022.088-.068.16-.102.16-.074 0-.412.657-.478.928a.54.54 0 0 1-.172.278c-.154.108-.528.83-.474.917.021.035.015.055-.014.046-.03-.01-.058.008-.064.04-.006.03-.049.084-.096.117-.061.043-.043.051.064.028.114-.025.14-.01.112.064a.6.6 0 0 0-.037.124c0 .014-.043.026-.096.026s-.097.027-.097.06c0 .066.122.058.24-.016.057-.035.068-.018.038.06q-.046.116.038.06c.045-.027.068-.1.052-.16-.017-.067.026-.146.106-.196.134-.083.134-.085.008-.134-.07-.027-.09-.052-.044-.054.047-.003.064-.038.039-.079q-.04-.069.025-.03c.066.04.248-.197.222-.29-.006-.024.03-.077.08-.118.065-.055.074-.118.032-.229q-.06-.153.013-.197.065-.038.029.025c-.024.038-.016.086.017.107.033.02.052-.013.043-.074-.016-.11.018-.168.237-.408.126-.14.149-.218.044-.154-.038.024-.032-.018.015-.092s.103-.135.126-.135c.08 0 .105-.247.033-.325-.055-.06-.053-.068.007-.034q.08.045.08-.091c0-.075.03-.192.068-.26.038-.072.04-.125.006-.125-.032 0-.077.072-.1.16m37.18.221c.04.075.1.118.133.098.089-.055.077-.082-.072-.162-.123-.065-.128-.06-.062.064m-88.216.603c0 .13.24.32.35.277.133-.05.065-.201-.131-.29-.204-.093-.219-.092-.219.013m42.82 1.888c0 .036.178.21.215.21.017 0 .017-.054 0-.118-.025-.098-.214-.178-.214-.092m-25.196.832a.12.12 0 0 1-.137.044c-.113-.043-.192.08-.092.141q.075.047.023-.037-.053-.085.026-.037c.056.035.058.071.006.133s-.01.332.16 1.037c.125.525.247.997.27 1.05.048.11.066.168.077.25.005.031.056.075.114.098.093.035.095.026.016-.074-.081-.103-.08-.106.023-.026.062.049.113.128.113.177 0 .079.042.1.17.083.022-.003.064.031.092.076.04.066.07.065.153-.004.057-.046.122-.066.145-.044s.007.042-.034.042c-.137 0-.078.099.134.227.164.098.332.127.773.13.58.005.735-.054.338-.128-.124-.024-.226-.063-.226-.089 0-.073.717-.611.815-.611.072 0 .07-.027-.009-.147-.06-.09-.072-.161-.032-.185.103-.064.073-.178-.036-.136-.058.022-.084.011-.061-.025.022-.035.009-.064-.029-.064-.037 0-.068-.033-.068-.075s-.048-.128-.107-.192c-.078-.087-.084-.118-.021-.118.047 0 .066-.019.044-.041s-.082-.008-.132.033c-.073.06-.09.042-.09-.1a.32.32 0 0 0-.151-.275 2 2 0 0 1-.252-.195c-.113-.108-.347-.229-.563-.29-.08-.021-.145-.08-.145-.132 0-.106-.102-.122-.162-.026-.023.038-.12-.02-.229-.135-.169-.18-.22-.191-.195-.041.007.046-.286-.001-.399-.065-.028-.015-.015-.076.03-.135.067-.09.066-.094-.01-.027-.128.114-.245.1-.271-.032q-.022-.118-.071-.035m32.924 1.043c0 .048-.042.066-.102.043-.132-.05-.365.075-.309.166q.037.063-.025.029c-.038-.024-.108-.005-.155.04-.047.047-.172.12-.279.163-.35.143-1.126.954-1.126 1.176 0 .069-.044.141-.097.161s-.097.079-.097.13-.026.078-.058.058-.042.026-.022.102c.023.088.011.123-.03.097-.094-.057-.141.24-.061.385.058.105.053.108-.043.03-.096-.079-.108-.068-.108.109 0 .108.03.215.068.238.242.149 1.44-1.171 2.186-2.41.177-.294.308-.549.29-.567s-.032.005-.032.05m-29.975 1.16c.022.035.067.064.1.064.034 0 .061-.03.061-.065s-.045-.064-.1-.064-.083.03-.06.064m-2.286.414c0 .017.066.065.145.107.132.07.137.067.057-.03-.083-.099-.202-.144-.202-.077m.819.42c-.025.094-.002.129.083.129s.107-.035.083-.129c-.019-.071-.056-.128-.083-.128s-.065.057-.083.128m1.263.722a3 3 0 0 0-.148.259c-.054.107-.107.149-.133.107-.027-.044-.056-.025-.076.05-.029.11-.012.115.185.054.122-.039.234-.124.256-.197a.8.8 0 0 1 .138-.24c.09-.103.087-.113-.032-.113-.072 0-.157.036-.19.08m.563.217c-.082.085-.182.147-.223.138-.041-.01-.157.048-.259.127-.101.08-.144.145-.095.145q.084.003.023.049c-.071.05-.071.096.001.315q.047.138.144.103c.081-.031.085-.015.024.098-.061.116-.05.151.073.231.08.051.233.114.34.139.106.025.24.086.297.135.092.079.13.07.3-.073.107-.089.224-.163.26-.163s.076-.03.088-.067c.022-.066.164-.11.385-.12.077-.004.096-.044.07-.144s-.014-.124.043-.089c.059.036.057.009-.006-.1-.132-.232-.207-.296-.326-.278-.06.009-.103-.017-.095-.056.008-.04-.078-.119-.19-.177a5 5 0 0 1-.355-.199c-.267-.171-.345-.173-.499-.014m22.804.566c-.067.146-.054.177.148.33.122.093.38.233.574.312.368.149 1.067.219 1.067.107 0-.165-.658-.62-.97-.672a1 1 0 0 1-.221-.085 1.5 1.5 0 0 0-.327-.111c-.169-.037-.208-.019-.271.119" clip-rule="evenodd"/></g><defs><filter id="a" width="197" height="116" x="0" y=".146" color-interpolation-filters="sRGB" filterUnits="userSpaceOnUse"><feFlood flood-opacity="0" result="BackgroundImageFix"/><feColorMatrix in="SourceAlpha" result="hardAlpha" values="0 0 0 0 0 0 0 0 0 0 0 0 0 0 0 0 0 0 127 0"/><feOffset dy="4"/><feGaussianBlur stdDeviation="2"/><feComposite in2="hardAlpha" operator="out"/><feColorMatrix values="0 0 0 0 0 0 0 0 0 0 0 0 0 0 0 0 0 0 0.86 0"/><feBlend in2="BackgroundImageFix" result="effect1_dropShadow_340_59980"/><feBlend in="SourceGraphic" in2="effect1_dropShadow_340_59980" result="shape"/></filter></defs></svg>