<svg xmlns="http://www.w3.org/2000/svg" width="79" height="76" fill="none" viewBox="0 0 79 76"><path fill="#fff" fill-rule="evenodd" d="M33.318.657a5.33 5.33 0 0 0-3.522 2.944l-.438.95v19.344l.406.868c.779 1.661 2.246 2.742 4.115 3.03 1.53.236 40.263.109 40.975-.134 1.533-.525 2.96-2.012 3.386-3.53.324-1.155.307-1.436-.119-1.931-.744-.865-2.09-.368-2.284.843-.121.757-.656 1.518-1.313 1.867-.508.27-1.36.282-20.617.282-22.502 0-20.755.09-21.554-1.117l-.406-.612-.043-8.888c-.027-5.78.013-9.094.115-9.474.215-.797.698-1.37 1.44-1.707.594-.27 1.472-.282 20.423-.282 19.015 0 19.827.011 20.43.285.344.156.824.543 1.065.86l.44.576.076 5.606c.075 5.545.08 5.61.415 5.945.505.504 1.346.462 1.822-.09l.369-.43-.046-5.732c-.045-5.516-.06-5.759-.379-6.45-.465-1.008-1.609-2.173-2.619-2.67l-.857-.42L54.187.566C42.96.553 33.569.594 33.318.657m4.04 7.516c-.732.37-.76.597-.763 6.022-.002 5.175.03 5.492.594 5.926.172.131 1.153.187 3.376.19 3.06.005 3.142-.003 3.443-.338.438-.487.516-.8.33-1.333-.266-.766-.765-.914-3.091-.914h-2.064v-4.405c0-2.422-.043-4.516-.095-4.651-.1-.262-.823-.694-1.154-.69-.11.001-.368.088-.576.193m10.126-.026c-.686.39-.685.385-.685 6.079v5.427l.352.332c.75.704 1.97.268 2.162-.773.05-.273.07-2.739.045-5.48-.044-4.752-.06-4.999-.35-5.29-.381-.38-1.121-.523-1.524-.295m4.57 0c-.479.272-.685.611-.685 1.125 0 .716 3.598 10.455 3.982 10.777.174.147.541.267.816.267s.644-.12.821-.267c.213-.176.938-1.947 2.14-5.227 1-2.73 1.858-5.128 1.907-5.332.128-.53-.393-1.306-.962-1.431-.529-.117-1.297.217-1.465.636-.06.15-.582 1.563-1.16 3.14s-1.109 2.972-1.18 3.1c-.092.164-.364-.407-.932-1.954-1.37-3.727-1.687-4.513-1.893-4.684-.313-.26-1.054-.34-1.389-.15m11.684-.01c-.75.301-.812.815-.762 6.316l.045 5.077.37.393.37.393h3.247c3.032 0 3.269-.02 3.55-.301.418-.418.525-.971.284-1.473-.334-.697-.763-.81-3.06-.813l-2.095-.003v-2.284h1.378c1.26 0 1.41-.033 1.752-.374.524-.524.497-1.203-.072-1.77-.422-.424-.51-.446-1.751-.446h-1.307v-2.285h2.256c2.056 0 2.286-.027 2.588-.309.694-.646.558-1.662-.279-2.086-.449-.227-5.961-.257-6.514-.035m-39.94 5.856c-2.029.56-3.421 1.094-5.56 2.13-13.41 6.503-20.465 21.7-16.758 36.103 3.142 12.207 13.011 21.265 25.516 23.42 2.786.48 7.506.472 10.273-.018 17.118-3.03 28.51-18.697 26.036-35.808-.454-3.139-1.723-7.232-2.385-7.697-.452-.316-1.06-.287-1.518.073-.6.472-.622.907-.114 2.286 1.166 3.162 1.713 6.351 1.713 9.978 0 2.907-.243 4.824-.952 7.523-.818 3.113-3.186 8.194-3.53 7.577-.356-.635-1.333-5.89-1.34-7.208-.003-.41.238-.74 1.52-2.088 1.349-1.419 1.523-1.665 1.523-2.148 0-.72-.554-1.295-1.247-1.295-.431 0-.712.216-2.079 1.598l-1.58 1.597-3.297-1.08c-1.814-.593-3.34-1.105-3.392-1.136-.051-.032-.14-.42-.198-.861-.47-3.624-1.809-7.925-3.702-11.89l-.857-1.794.666-.945c.817-1.157.884-1.793.247-2.34-.812-.7-1.468-.464-2.397.86-.44.627-.72.893-.886.842-.133-.041-.928-.195-1.765-.342-1.2-.21-2.398-.267-5.636-.267s-4.437.057-5.637.267c-.837.147-1.635.302-1.773.344-.184.057-.773-.643-2.256-2.682-1.104-1.518-2.038-2.84-2.076-2.94-.038-.099.31-.864.772-1.7a41.5 41.5 0 0 0 2.758-6.233l.545-1.577.895-.251c1.294-.363 1.798-1.102 1.34-1.963-.433-.812-.93-.87-2.87-.334m-3.665 4.094c-2.653 1.165-5.653 3.206-7.943 5.404-5.299 5.086-8.278 11.318-9.013 18.85l-.076.778.866.615c1.578 1.122 3.753 3.032 5.313 4.667l1.54 1.612.874-.3c1.541-.53 2.256-.425 2.594.384.162.388.173.616.046.98-.186.532-.571.77-1.846 1.136-.482.139-.876.28-.876.316s-.106.873-.234 1.862c-.285 2.186-.859 4.815-1.467 6.72l-.45 1.418.42.55c1.333 1.749 4.687 4.632 7.14 6.138 1.267.777 4.37 2.279 4.71 2.279.132 0 .724-.346 1.317-.768 1.642-1.172 4.383-2.767 6.16-3.585l1.599-.735v-7.051l-1.718-.839c-3.942-1.925-7.665-4.734-10.34-7.802-1.397-1.603-1.398-1.61-.892-4.568.704-4.12 2.213-8.655 3.995-12.008.322-.605.42-.933.317-1.066a440 440 0 0 1-2.094-2.896c-1.07-1.487-1.955-2.703-1.967-2.702-.011.001-.658.134-1.437.294-2 .413-2.62.154-2.62-1.097 0-.81.466-1.125 2.194-1.48.823-.17 1.518-.308 1.546-.308.097 0 1.742-3.014 2.213-4.055.448-.99 1.36-3.261 1.307-3.253a68 68 0 0 0-1.176.51m8.615 15.584c-1.235.153-3.646.542-3.85.62-.381.146-2.281 4.285-3.072 6.694-.64 1.948-1.276 4.653-1.608 6.838-.094.622-.093.624 1.402 2.133 2.672 2.696 5.232 4.55 8.547 6.191l1.876.928 1.348-.616c1.7-.776 3.327-1.742 5.215-3.096 1.128-.809 1.598-1.059 1.99-1.059 1.182 0 1.608 1.443.681 2.307-.905.843-4.126 2.888-6.017 3.82l-1.866.92v7.076l1.407.644c1.802.826 4.223 2.216 6.037 3.466 1.667 1.15 1.476 1.152 3.904-.025a29.6 29.6 0 0 0 5.027-3.107c1.07-.82 3.513-3.146 4.35-4.145l.585-.698-.434-1.359c-.61-1.908-1.183-4.53-1.481-6.786l-.255-1.923-3.886-1.26c-2.569-.831-4-1.372-4.221-1.593-.241-.24-.364-.607-.442-1.31-.442-4.017-2.001-9.12-3.911-12.805-.7-1.35-.645-1.325-3.681-1.723-1.63-.213-6.337-.295-7.645-.132M3.298 47.696c.143 1.588.716 4.213 1.305 5.979.517 1.55 1.807 4.365 2.512 5.48l.432.683.198-.574c.302-.872.933-4.111 1.127-5.785l.172-1.49-.913-1.023c-1.376-1.543-4.543-4.45-4.846-4.45-.051 0-.045.531.013 1.18M30.5 69.42c-1.376.627-3.906 2.028-5.002 2.77-.585.396-.606.382 1.118.74 1.843.382 4.762.594 6.739.49 1.94-.103 5.343-.615 5.567-.838.07-.071-.373-.452-.986-.847-1.15-.741-5.532-2.98-5.824-2.976-.09.001-.816.299-1.612.661" clip-rule="evenodd"/></svg>