<svg xmlns="http://www.w3.org/2000/svg" width="113" height="125" fill="none" viewBox="0 0 113 125"><g filter="url(#a)"><path fill="#00aacb" fill-rule="evenodd" d="M70.822.516c-.523.467-15.157 26.353-15.947 28.208-.274.644-.272.87.013 1.548.183.437.546.907.805 1.045.809.43 2.009.302 2.543-.271.267-.288 3.965-6.75 8.217-14.36C74.412 2.442 74.663 1.91 73.883.903c-.77-.999-2.178-1.176-3.061-.386m32.134-.024c-1.97.969-1.972.975-4.031 13.47-1.016 6.167-1.848 11.32-1.848 11.45 0 .145 1.003.237 2.628.24 2.32.004 2.805.078 4.135.63.829.345 1.547.586 1.597.538.049-.05.922-5.175 1.941-11.392 2.051-12.52 2.043-12.345.614-13.963-1.344-1.521-3.195-1.88-5.036-.973m-48.98 3.663c-.257.107-.64.39-.853.628-.212.239-2.814 4.78-5.782 10.091-5.54 9.915-5.852 10.627-5.096 11.606.772 1 2.178 1.177 3.063.387.322-.288 3.07-4.982 6.109-10.433 4.762-8.543 5.502-10.003 5.372-10.592-.276-1.251-1.746-2.133-2.813-1.687m21.911 14.53c-.276.192-2.307 3.581-4.512 7.532-3.427 6.14-3.987 7.281-3.859 7.863.364 1.648 2.38 2.334 3.5 1.191.543-.554 7.012-11.92 7.872-13.831.352-.783.384-1.092.174-1.69-.431-1.23-2.123-1.798-3.175-1.066m21.774 11.35c-.514.162-1.263.464-1.663.672-1.121.58-2.816 2.599-3.215 3.828-.196.603-.735 3.447-1.199 6.32-.463 2.873-1.009 5.74-1.212 6.37-.507 1.57-2.148 3.18-3.795 3.725-2.538.837-1.804 1.087-28.577-9.722-13.461-5.435-25.183-10.094-26.047-10.353-4.933-1.477-11.251-.775-15.922 1.77-3.299 1.796-6.413 4.798-8.202 7.904-1.204 2.092-2.57 5.974-3.292 9.36-.44 2.058-.522 3.197-.536 7.313-.013 4.191.06 5.242.516 7.482 1 4.913 2.99 9.63 5.43 12.866 1.424 1.89 4.417 4.742 5.973 5.692l1.19.726-1.244-2.471c-2.764-5.493-3.486-11.08-2.195-16.982C15.82 54.716 23.408 47.3 33.652 45.01c.853-.19 2.82-.312 5.023-.31 2.942.002 4.002.097 5.655.51 7.541 1.882 13.432 6.36 16.854 12.809 2.107 3.972 2.954 7.405 2.954 11.973 0 6.935-2.412 12.845-7.319 17.935l-1.398 1.451h1.751c2.588 0 8.693-.616 12.728-1.284 6.225-1.032 9.799-2.13 14.679-4.508 10.018-4.884 16.283-12.29 18.081-21.371.265-1.341 1.351-7.191 2.414-13.001 2.283-12.488 2.338-13.287 1.079-15.575-1.708-3.102-5.272-4.615-8.492-3.603m-74.988 4.648c-3.498.804-6.542 2.535-8.877 5.048-2.907 3.129-3.738 5.44-2.377 6.604 1.293 1.105 2.615.559 3.849-1.59 2.622-4.571 8.549-7.108 13.712-5.868 2.068.496 2.846.448 3.515-.218.75-.745.771-1.971.048-2.77-.29-.319-1.104-.751-1.81-.962-1.762-.524-6.25-.66-8.06-.244m13.01 14.298c-2.078.29-3.835.83-6.042 1.853-2.441 1.132-3.774 2.042-5.768 3.936-4.302 4.09-6.538 9.304-6.523 15.221q.021 8.809 6.114 14.948c3.806 3.835 8.632 5.974 14.043 6.227 4.43.206 8.086-.64 11.849-2.745 2.51-1.404 6.335-5.208 7.75-7.705 3.228-5.7 3.757-12.554 1.42-18.402-1.532-3.83-4.582-7.627-7.909-9.844-4.265-2.843-9.988-4.18-14.934-3.489m1.505 6.88c-.875.87-.838 1.989.096 2.917.613.609.83.688 1.563.57.468-.076 1.045-.33 1.281-.565.237-.235.493-.808.569-1.274.119-.728.039-.944-.574-1.553-.934-.928-2.06-.965-2.935-.095m57.916 3.393c-.418.365-.732 1.047-1.04 2.263-.904 3.551-2.488 6.212-5.426 9.11-3.887 3.837-9.767 6.849-16.44 8.422-2.79.657-3.527 1.248-3.303 2.65.151.941 1.075 1.874 1.856 1.874.838 0 5.029-1.074 7.27-1.863 10.392-3.654 17.537-10.197 19.86-18.187.779-2.681.767-3.266-.085-4.113-.84-.835-1.849-.894-2.692-.156m-65.936.409c-.723.289-1.303 1.499-1.12 2.333.199.895 1.15 1.61 2.142 1.61 1.867 0 2.676-2.364 1.225-3.577-.742-.62-1.36-.722-2.247-.366m16.949.117c-.874.472-1.215 1.56-.799 2.551.88 2.092 3.88 1.513 3.862-.745-.015-1.743-1.528-2.635-3.063-1.806M20.77 63.837c-2.065.828-1.433 3.949.8 3.949 2.274 0 2.862-3.18.724-3.922-.853-.295-.856-.295-1.525-.027m17.046.108c-2.101.909-1.455 3.84.847 3.84 2.26 0 2.878-2.994.796-3.858-.905-.376-.725-.379-1.643.018m16.977.07c-1.966.978-1.274 3.77.934 3.77 1.042 0 1.762-.539 2.005-1.502.446-1.766-1.277-3.095-2.94-2.268m-25.99 4.463c-1.174.919-.994 2.71.343 3.396 1.39.715 2.987-.313 2.987-1.924 0-1.652-1.98-2.527-3.33-1.472m17.15-.088c-.773.538-1.039 1.392-.726 2.335.723 2.176 3.96 1.629 3.96-.669 0-1.694-1.836-2.64-3.234-1.666M20.57 72.477c-.742.424-1.036.936-1.036 1.81 0 1.83 2.01 2.733 3.413 1.533.52-.444.65-.752.65-1.534 0-.781-.13-1.09-.65-1.533-.699-.597-1.624-.704-2.377-.276m16.685.398c-.466.464-.683.912-.683 1.411 0 1 1.098 2.09 2.103 2.09s2.102-1.09 2.102-2.09c0-.998-1.097-2.09-2.102-2.09-.503 0-.954.216-1.42.68m17.054 0c-.466.464-.683.912-.683 1.411 0 1 1.097 2.09 2.102 2.09.503 0 .954-.216 1.42-.679s.683-.911.683-1.41c0-.5-.217-.948-.683-1.412s-.917-.678-1.42-.678-.953.215-1.42.678m-25.238 3.84c-.755.419-1.22 1.476-1.012 2.299.371 1.473 2.424 2.042 3.501.97 1.628-1.616-.48-4.385-2.49-3.27m17.04.007c-.776.43-1.232 1.675-.917 2.5.818 2.136 3.993 1.576 3.993-.706 0-1.56-1.705-2.555-3.076-1.794m-8.965 4.635c-1.046 1.04-.677 2.7.73 3.284 2.137.887 3.854-1.81 2.154-3.383-.737-.682-2.147-.634-2.884.099m-3.342 15.874 1.717 2.582 3.09.006 3.09.006 1.66-2.458c.912-1.352 1.617-2.5 1.566-2.55-.052-.052-.91.062-1.909.252-2.883.548-6.771.45-10.148-.256l-.783-.163zm2.768 11.806v5.034l.962 1.467c.53.807 1.029 1.465 1.11 1.462s.594-.681 1.14-1.507l.993-1.502v-9.987H36.57z" clip-rule="evenodd"/></g><defs><filter id="a" width="113" height="125" x="0" y="0" color-interpolation-filters="sRGB" filterUnits="userSpaceOnUse"><feFlood flood-opacity="0" result="BackgroundImageFix"/><feColorMatrix in="SourceAlpha" result="hardAlpha" values="0 0 0 0 0 0 0 0 0 0 0 0 0 0 0 0 0 0 127 0"/><feOffset dy="4"/><feGaussianBlur stdDeviation="2"/><feComposite in2="hardAlpha" operator="out"/><feColorMatrix values="0 0 0 0 0 0 0 0 0 0 0 0 0 0 0 0 0 0 0.25 0"/><feBlend in2="BackgroundImageFix" result="effect1_dropShadow_294_29979"/><feBlend in="SourceGraphic" in2="effect1_dropShadow_294_29979" result="shape"/></filter></defs></svg>