<svg xmlns="http://www.w3.org/2000/svg" width="69" height="78" fill="none" viewBox="0 0 69 78"><path fill="#fff" fill-rule="evenodd" d="M24.156.175c-3.182.737-6.055 2.47-7.925 4.781l-.853 1.054-1.5.098c-6.124.4-11.074 4.438-12.738 10.39-.337 1.207-.34 1.321-.345 11.89-.003 8.507.037 10.786.2 11.244.606 1.712 2.483 3.026 4.336 3.036.545.003 1.138-.04 1.318-.097l.327-.104.002 14.225c.003 15.66-.01 15.431.94 17.238.627 1.193 2.118 2.687 3.219 3.224 1.8.88 1.085.847 18.822.845 10.725-.001 16.576-.056 17.027-.16 1.956-.449 4.057-2.088 5.014-3.909.73-1.391.937-2.61.94-5.567l.002-2.553 4.314-.004c2.419-.002 4.616-.073 5.002-.161 2.735-.63 5.139-3.1 5.731-5.891.325-1.529.325-27.669 0-29.197-.596-2.808-2.982-5.259-5.736-5.892-.38-.088-2.594-.159-4.997-.161l-4.314-.004v-4.649l.517-.412c.284-.226.794-.825 1.132-1.33 2.089-3.123 1.703-7.082-.942-9.687-1.062-1.046-2.08-1.641-3.385-1.98-1.045-.272-2.903-.287-3.888-.031l-.688.178-1.069-1.067c-.588-.587-1.417-1.253-1.844-1.481-1.614-.863-3.825-1.118-5.626-.65l-.892.232-1.005-.775C34.056 1.927 31.902.836 30.417.4c-1.402-.412-4.912-.538-6.261-.225M25.28 3.17c-2.87.421-5.64 2.17-7.24 4.573-.994 1.492-1.04 1.514-3.134 1.514-2.165 0-3.61.332-5.333 1.227-2.328 1.21-4.19 3.369-5.105 5.92l-.471 1.313-.044 10.29c-.025 5.658-.006 10.445.042 10.636.1.405.914.947 1.422.948.468 0 1.183-.38 1.348-.718.073-.15.168-3.272.21-6.938l.076-6.666.397-.396c.322-.321.625-.425 1.59-.545 2.791-.345 4.766-1.607 6.039-3.859.5-.884 1.305-1.688 1.927-1.924.566-.215 1.744-.17 2.522.094.382.13 1.064.552 1.516.939a10 10 0 0 0 1.815 1.174c.893.424 1.138.47 2.443.47 1.312 0 1.549-.045 2.471-.482.561-.265 1.323-.76 1.693-1.1 1.004-.925 1.799-1.23 3.211-1.234 4.339-.012 7.173 1.998 7.735 5.485.087.545.16 2.728.16 4.851l.002 3.86.446.446c.616.615 1.393.615 2.009 0l.446-.445v-6.785c0-3.86.062-6.948.143-7.162.392-1.029 1.366-1.276 2.701-.686.524.232 1.062.332 1.814.337 2.52.017 4.447-1.724 4.622-4.175.094-1.313-.233-2.331-1.047-3.254-1.4-1.587-3.525-1.988-5.54-1.045-.576.27-1.202.49-1.391.49-.53 0-1.117-.553-1.603-1.514-1.14-2.254-3.722-3.155-6.017-2.099-1.35.621-1.589.572-2.878-.591-2.707-2.443-5.717-3.43-8.997-2.949m21.37 24.074c-.044 5.621-.06 5.899-.373 6.573-.43.93-1.267 1.837-2.03 2.202l-.618.295-.002 12.466c-.001 13.392.006 13.265-.77 13.68-.186.099-.561.18-.835.18s-.649-.081-.834-.18c-.777-.415-.77-.286-.77-13.701V36.27l-.355-.09c-.617-.154-1.744-1.283-2.194-2.197l-.428-.871-.077-4.65c-.065-4.008-.112-4.715-.338-5.126-.588-1.073-1.712-1.609-3.817-1.818l-1.025-.102-.804.703c-1.695 1.48-3.723 2.24-6.004 2.25-2.324.01-4.157-.643-6.037-2.149-.528-.423-1.007-.77-1.063-.77s-.456.543-.889 1.205c-1.544 2.368-3.877 3.926-7.014 4.685-.152.037-.191 4.32-.191 20.782v20.736H33.57l.447.445c.628.628.628 1.53 0 2.158l-.447.445H22.03c-6.348 0-11.542.038-11.542.083s.133.343.297.662c.367.72 1.226 1.486 2.139 1.907.69.319.795.321 16.574.363 11.035.028 16.125-.01 16.682-.125 1.054-.218 2.137-.957 2.754-1.878.273-.407.496-.802.496-.876 0-.075-1.105-.136-2.455-.136h-2.456l-.446-.445c-.628-.627-.628-1.53 0-2.158l.447-.445h5.215V21.375h-3.038zm6.291 1.819v1.535h8.089l.499.445.499.444v27.336l-.5.445-.498.445h-8.089v3.07l4.314-.049c4.007-.045 4.364-.072 5.01-.37a4.85 4.85 0 0 0 2.254-2.104l.41-.776.041-14.15.042-14.151-.407-.904a4.68 4.68 0 0 0-2.33-2.328c-.659-.304-.993-.329-5.02-.375l-4.314-.048zm-35.964 1.526c-.168.069-.443.278-.61.464-.3.333-.307.586-.351 15.147-.032 10.354.004 14.98.12 15.38.092.315.334.682.539.816.438.287 1.273.317 1.748.064.784-.42.769-.105.768-15.966 0-14.476-.006-14.762-.305-15.252-.427-.7-1.172-.954-1.909-.653m12.217 0c-.168.069-.442.278-.61.464-.3.333-.307.586-.351 15.147-.032 10.354.004 14.98.12 15.38.092.315.334.682.539.816.438.287 1.273.317 1.748.064.784-.42.769-.105.768-15.966 0-14.476-.006-14.762-.305-15.252-.427-.7-1.172-.954-1.909-.653m23.747 14.566v11.509h5.956V33.646h-5.956zM38.358 68.883c-.52.286-.833.791-.836 1.352-.005.676.347 1.186 1.009 1.462.442.184.586.184 1.029 0 .918-.383 1.248-1.241.83-2.157-.32-.703-1.345-1.034-2.032-.657" clip-rule="evenodd"/></svg>