<svg xmlns="http://www.w3.org/2000/svg" width="79" height="78" fill="none" viewBox="0 0 79 78"><path fill="#fff" fill-rule="evenodd" d="M57.679.611q-1.268.475-1.877 1.53c-1.218 2.105-.092 4.62 2.316 5.179.604.14.896.126 1.589-.077 2.282-.666 3.223-3.351 1.873-5.345C60.799.745 58.95.135 57.679.611m-26.318.507c-.096.04-.466.912-.823 1.94-.356 1.027-.758 1.976-.893 2.108-.134.132-.983.572-1.884.978-1.377.62-1.64.794-1.64 1.081 0 .452.127.542 1.83 1.3.797.356 1.56.759 1.697.897.136.137.538 1.09.894 2.116.93 2.68 1.169 2.671 2.136-.083.347-.988.679-1.872.736-1.964.058-.093.855-.507 1.772-.921 2.526-1.141 2.536-1.398.094-2.514-.862-.394-1.656-.81-1.763-.924-.108-.113-.45-.93-.76-1.814-.747-2.127-.918-2.397-1.396-2.2m26.534 1.428c-.69.422-.94 1.292-.586 2.04.239.504.98 1.029 1.455 1.029s1.217-.525 1.455-1.03c.354-.747.104-1.617-.586-2.039-.617-.378-1.12-.378-1.738 0m14.356.155c-.481.196-1.107 1.022-1.216 1.607-.13.69.14 1.462.695 1.996.644.62 1.839.712 2.593.202 1.375-.93 1.352-2.799-.046-3.654-.506-.31-1.46-.38-2.026-.15M44.914 8.804c-1.552.557-2.603 1.732-3.016 3.374-.283 1.124-.253 1.372.475 3.956.29 1.027.527 1.901.527 1.941s-.463-.064-1.03-.232c-2.156-.637-3.157-.782-4.24-.613-1.813.283-2.804.883-4.917 2.975-1.038 1.028-2.133 2.268-2.435 2.755-.302.49-.63.856-.731.817-1.527-.588-2.546-.774-4.265-.78-1.641-.004-1.901.033-2.512.36-1.065.57-2.225 1.507-2.636 2.13-.471.715-19.16 43.926-19.449 44.968-.506 1.829.137 4.067 1.555 5.414 1.008.957 1.784 1.351 3.106 1.579.886.152 1.208.142 2.029-.063.763-.191 20.202-8.515 42.61-18.245 2.39-1.038 2.958-1.417 3.657-2.442.591-.867 1.153-2.864 1.155-4.105.004-2.36-1.393-6.108-3.555-9.544-2.477-3.936-6.728-8.834-10.451-12.043-.799-.688-.823-.733-1.317-2.49-.313-1.117-.434-1.765-.32-1.72 2.452.944 4.51 1.218 5.97.794 1.52-.44 2.243-.952 4.313-3.05 1.612-1.633 2.081-2.212 2.466-3.037.522-1.12.777-2.49.654-3.514-.127-1.06-1.724-6.42-2.117-7.11-1.068-1.873-3.519-2.794-5.526-2.075m11.631 2.698c-.47.473-.477 1.019-.017 1.555.703.82 1.982.355 1.982-.721 0-.346-.123-.599-.415-.85-.535-.462-1.079-.456-1.55.016m-10.862.287c-.406.226-.718.652-.842 1.151-.082.33 1.373 5.902 2.199 8.422l.319.972.742-.734c1.623-1.604 1.712-2.581.586-6.389-.896-3.027-.923-3.088-1.513-3.394-.535-.278-1.027-.287-1.491-.028m21.15.784a8.5 8.5 0 0 0-1.472.615c-1.056.576-4.763 4.357-5.261 5.364-.888 1.795-.926 3.613-.126 5.96.257.75.442 1.39.41 1.421-.03.031-.94-.2-2.02-.514-3.188-.925-4.728-.71-6.274.874-2.085 2.136-1.464 5.976 1.186 7.34.296.152 1.853.667 3.461 1.143 5.244 1.554 6.53 1.255 10.125-2.354 2.11-2.117 2.738-3.113 3.052-4.836.2-1.101.104-1.981-.424-3.87-.218-.781-.36-1.458-.313-1.504.045-.046.96.163 2.034.463 1.106.31 2.3.547 2.755.547 1.718 0 3.389-1.073 4.178-2.682.304-.62.373-.991.37-1.988-.006-1.441-.381-2.377-1.34-3.339-.774-.777-1.286-.992-4.8-2.01-3.145-.911-4.123-1.022-5.542-.63m.77 2.986c-.708.215-1.126.493-1.942 1.288l-.806.787.882.271c2.75.846 7.938 2.255 8.305 2.255.258 0 .627-.178.927-.447.425-.38.498-.55.498-1.145 0-1.14-.331-1.353-3.597-2.319-2.75-.813-3.478-.93-4.267-.69M37.744 20.31c-.277.066-.525.145-.551.175-.027.031.132.642.352 1.358l.4 1.301 2.44.81c2.047.68 2.58.802 3.313.756.48-.03.92-.1.976-.156.1-.1-.463-2.228-.72-2.73-.084-.16-.929-.468-2.384-.867-2.632-.721-3.145-.808-3.826-.647m24.828.247c-.282.744-.141 1.625.646 4.05l.794 2.442 1.285.393c.882.27 1.335.344 1.443.236.35-.351.166-1.926-.5-4.262l-.665-2.332-1.003-.321-1.428-.457c-.374-.12-.444-.088-.572.251m-28.958 3.07c-.788.887-1.24 1.882-1.24 2.731 0 .452 1.104 4.45 1.614 5.845.28.77.771 1.124 1.547 1.12.858-.006 1.569-.706 1.569-1.546 0-.721-2.384-9.015-2.59-9.015-.073 0-.478.389-.9.865m-9.735 2.65c-.948.58-1.008 1.992-.19 4.477 2.179 6.622 10.073 15.693 18.143 20.85 1.403.896 3.855 2.105 5.187 2.558 1.21.412 3.259.55 3.813.26.646-.341.947-1.126.855-2.23-.083-.984-.638-3.096-.813-3.096-.054 0-.397.145-.763.323-.995.483-2.535.37-3.429-.252-1.306-.91-1.856-2.857-1.21-4.282.257-.565 1.127-1.473 1.761-1.837.239-.137.182-.266-.536-1.225-1.419-1.894-3.062-3.78-5.04-5.782l-1.931-1.955-.892.895c-1.05 1.053-1.908 1.408-3.397 1.405-1.601-.002-3.119-.858-3.893-2.196-.345-.596-1.992-5.847-2.096-6.682-.058-.463-.752-.838-2.31-1.248-1.423-.375-2.63-.37-3.26.017m30.977 1.757c-.628.274-.973.794-.973 1.464 0 .59.3 1.13.77 1.382.164.088 1.446.502 2.848.92 3.724 1.11 4.648 1.022 6.209-.594l.75-.777-.445-.172c-.466-.18-8.474-2.447-8.607-2.437-.042.003-.29.1-.552.214M12.179 51.32c-4.676 10.824-8.54 19.911-8.585 20.194-.257 1.587 1.381 3.222 2.934 2.93.305-.058 9.249-3.861 19.875-8.453s19.517-8.43 19.76-8.53c.433-.179.42-.189-.916-.697-4.37-1.662-9.294-5.15-14.176-10.039-4.66-4.668-8.062-9.419-9.839-13.742l-.552-1.342zm62.044-18.194c-.097.035-.404.726-.682 1.536l-.506 1.472-1.3.61c-.716.335-1.349.681-1.406.77-.2.31.142.593 1.396 1.151l1.262.562.522 1.45c.287.799.585 1.514.662 1.591.255.257.585-.217.985-1.412.216-.647.457-1.279.536-1.405s.714-.505 1.41-.842c1.702-.825 1.71-.994.076-1.763-.709-.333-1.356-.693-1.438-.8-.082-.106-.344-.764-.582-1.46-.441-1.292-.621-1.574-.935-1.46m-54.481 8.851c-.583.492-1.3 2.244-1.168 2.85.13.594.89 1.207 1.5 1.207.722 0 1.144-.383 1.638-1.488.663-1.483.573-2.259-.317-2.72-.64-.332-1.135-.287-1.653.151m43.447.584c-1.314.42-2.451 2.349-2.2 3.733.526 2.912 3.96 3.984 5.968 1.864 1.295-1.369 1.251-3.345-.105-4.748-.962-.995-2.262-1.296-3.663-.849m.456 1.831c-.21.105-.506.448-.66.762-.777 1.593 1.194 3.007 2.527 1.812.427-.384.498-.548.498-1.161s-.07-.777-.498-1.161c-.546-.49-1.21-.58-1.867-.252m-16.108.785c-.584.586-.673 1.185-.288 1.932.294.57.659.763 1.45.763 1.577 0 2.13-2.15.762-2.96-.702-.416-1.331-.33-1.924.265m-30.56 3.269c-.302.28-.784 1.193-1.434 2.717-1.24 2.91-1.225 2.858-.951 3.516.434 1.045 1.989 1.252 2.564.343.382-.604 2.253-5.127 2.253-5.447 0-.83-.739-1.55-1.592-1.55-.212 0-.59.19-.84.42" clip-rule="evenodd"/></svg>