<svg xmlns="http://www.w3.org/2000/svg" width="58" height="79" fill="none" viewBox="0 0 58 79"><path fill="#fff" fill-rule="evenodd" d="m1.216.874-.374.374v9.93l.374.374c.357.357.459.374 2.285.374h1.911v31.527l-2.285 4.583L.842 52.62v13.03l.352.331c.469.44 1.177.43 1.602-.021.328-.35.331-.409.331-6.094v-5.741h52.101v22.09H3.127v-6.869l-.374-.374c-.477-.477-1.06-.477-1.537 0l-.374.374v8.406l.374.374.374.374h55.176l.374-.374.374-.374V52.62l-2.286-4.583-2.285-4.583V29.01l-.401-.315c-.532-.42-1.053-.4-1.51.058l-.374.374v13.572H20.651l.317-.607c.174-.334.35-.865.393-1.18l.078-.574 8.859-.01c8.504-.009 12.138-.142 14.8-.544 1.965-.296 2.372-.686 2.742-2.623.72-3.758.72-15.94 0-19.696-.459-2.4-.811-2.57-6.17-2.98-3.439-.262-21.546-.262-24.984 0-5.36.41-5.712.58-6.171 2.98-.719 3.756-.719 15.939 0 19.696.375 1.961.797 2.351 2.876 2.66l1.162.173.003.63c.006 1.123.808 2.387 1.86 2.931l.422.218v3.497h-.812c-.65 0-.876.07-1.142.352-.44.468-.43 1.177.021 1.602.335.314.49.33 3.054.33 2.665 0 2.706-.004 3.075-.373.477-.477.477-1.06 0-1.537-.298-.299-.53-.374-1.142-.374h-.769v-2.286h31.991l1.676 3.35c.922 1.843 1.677 3.386 1.677 3.428 0 .043-11.38.078-25.29.078-13.908 0-25.288-.035-25.288-.078s.754-1.585 1.676-3.427l1.677-3.35h2.672c2.634 0 2.678-.006 3.046-.375.477-.476.477-1.06 0-1.537-.366-.366-.426-.374-2.818-.374H7.697V11.926h42.961v6.682c0 6.53.007 6.692.316 7.084.396.503 1.211.55 1.665.097.295-.296.304-.508.304-7.084v-6.78h1.912c1.826 0 1.927-.016 2.285-.373l.374-.374v-9.93L57.14.874 56.766.5H17.5l-.33.353c-.47.498-.438 1.217.07 1.616.386.304.577.316 5.066.316h4.665l3.425 3.428 3.426 3.428H3.127V2.785h10.678l.374-.374c.205-.206.374-.551.374-.768 0-.218-.169-.563-.374-.769L13.805.5H1.59zm32.38 5.339L37.02 9.64h5.941l-3.425-3.428-3.425-3.428H30.17zm9.14 0 3.425 3.428h5.941l-3.424-3.428-3.425-3.428h-5.941zm9.065-.076c1.842 1.843 3.366 3.351 3.388 3.351s.04-1.508.04-3.351V2.785h-6.777zm-31.584 10.51c-3.154.122-6.705.4-7.112.556-.11.042-.237.226-.282.409-.662 2.704-.662 16.697 0 19.401.104.424.261.479 1.728.6 1.04.087 1.314.056 1.966-.224 1.171-.504 2.741-.346 3.514.353.707.64 23.032.367 25.17-.308.493-.155.728-2.46.84-8.217.116-6.028-.228-11.659-.733-11.97-.829-.512-17.245-.905-25.09-.6m-3.005 23.075c-.206.205-.374.551-.374.768 0 .498.631 1.143 1.119 1.143.615 0 1.075-.489 1.075-1.143 0-1.047-1.084-1.505-1.82-.768m10.207 7.922c-.206.205-.374.551-.374.768s.168.563.374.769c.349.349.48.374 1.954.374 1.454 0 1.606-.028 1.911-.353.44-.468.43-1.177-.021-1.601-.315-.296-.521-.331-1.912-.331-1.451 0-1.584.025-1.932.373m6.855 0c-.205.205-.374.551-.374.768s.169.563.374.769c.35.349.48.374 1.954.374 1.455 0 1.606-.028 1.911-.353.44-.468.431-1.177-.02-1.601-.315-.296-.522-.331-1.912-.331-1.452 0-1.584.025-1.933.373m6.856 0c-.206.205-.374.551-.374.768s.168.563.374.769c.349.349.48.374 1.954.374 1.454 0 1.606-.028 1.911-.353.44-.468.43-1.177-.021-1.601-.315-.296-.521-.331-1.912-.331-1.451 0-1.584.025-1.932.373m4.12 8.924c-1.772.364-2.947 1.057-3.41 2.013-.306.633-.322.895-.322 5.066s.016 4.432.323 5.065c.587 1.213 2.292 1.984 4.704 2.126 2.643.155 4.974-.525 5.883-1.717l.44-.576v-9.798l-.43-.56c-.526-.691-1.642-1.274-2.979-1.557-1.091-.232-3.227-.263-4.209-.062m.404 2.29a6 6 0 0 0-1.219.403l-.556.272-.04 4.019c-.028 2.708.012 4.083.123 4.216.264.319 1.507.679 2.688.78 1.185.1 2.644-.118 3.494-.523l.514-.245V59.5l-.571-.25c-1.226-.534-2.942-.687-4.433-.394m.808 2.497c-.358.357-.374.458-.374 2.292s.016 1.934.374 2.292c.48.48 1.14.488 1.58.021.305-.325.331-.51.331-2.335 0-1.875-.019-2-.352-2.313-.468-.44-1.094-.422-1.56.043" clip-rule="evenodd"/></svg>