<svg xmlns="http://www.w3.org/2000/svg" width="78" height="78" fill="none" viewBox="0 0 78 78"><path fill="#fff" fill-rule="evenodd" d="M40.213 3.809v3.808h5.256c2.89 0 5.256.02 5.256.046s.171 1.677.38 3.672c.21 1.994.382 3.756.382 3.915 0 .28-.224.29-6.78.29h-6.78v5.483h-5.026v7.77h1.37c1.202 0 1.373.033 1.38.267.004.146.163 1.73.352 3.52.234 2.215.292 3.269.182 3.303-.089.027-.79.075-1.56.106l-1.399.057-4.024-8.235-4.024-8.235h-1.576l-3.803 7.77-3.802 7.768.949.488c.522.269.987.492 1.034.496s1.487-2.871 3.2-6.39c1.712-3.517 3.152-6.397 3.2-6.398.099-.002 6.54 13.148 6.54 13.35 0 .072-.532.402-1.181.733-.902.46-1.526.945-2.646 2.06-1.308 1.301-1.55 1.631-2.235 3.055-.898 1.862-1.25 3.29-1.25 5.061 0 1.062.065 1.404.39 2.058.423.848 1.167 1.589 1.99 1.981.477.228.51.287.42.767-.134.714-.138 1.526-.01 2.177.105.531.092.552-.465.72-.71.212-1.671 1.123-2.04 1.933-.424.927-.377 2.27.111 3.25.423.847 1.016 1.39 1.944 1.778.482.202.555.29.465.572-.058.183-.102.798-.099 1.366l.007 1.032h-1.776c-4.968-.002-9.423-1.716-13.042-5.017-1.504-1.371-2.322-1.94-3.263-2.268l-.732-.256 4.699-9.594c2.583-5.277 4.697-9.646 4.697-9.71 0-.155-1.81-1.063-1.948-.977-.06.037-2.333 4.629-5.051 10.203L4.96 57.72l-.877.32C1.81 58.87.232 61.042.037 63.612c-.161 2.12.597 3.76 2.619 5.665 5.258 4.953 11.603 7.844 18.797 8.566 1.017.102 9.957.158 25.14.158h23.562l2.489-23.88c1.369-13.134 2.525-24.205 2.57-24.603l.08-.724h2.7v-7.77h-5.027V15.54h-6.703v2.285h4.418v3.2H40.213v-3.2h23.613V15.54h-2.361c-1.789 0-2.36-.046-2.36-.19C59.11 14.987 57.72.685 57.648.343L57.575 0H40.214zm2.285-.002v1.52l5.142.041 5.142.04.326 3.123c.18 1.718.411 3.997.514 5.066l.188 1.942h1.504c1.24 0 1.505-.04 1.505-.23 0-.127-.275-3.005-.61-6.397s-.61-6.27-.61-6.397c0-.202-.807-.23-6.55-.23h-6.55zm-7.312 21.101v1.6h40.523v-3.2H35.186zm2.742 4.023c0 .276.612 6.045.693 6.527l.082.495h7.358c6.886 0 7.434.02 8.562.308 4.065 1.04 7.09 3.873 8.458 7.919.427 1.263.491 1.66.503 3.123.013 1.59-.01 1.718-.443 2.502-.455.822-1.31 1.59-2.08 1.866-.382.137-.395.176-.248.707.086.309.12 1.047.075 1.64l-.081 1.08.537.193c.8.29 1.64 1.13 2.025 2.024.615 1.43.202 3.165-1.007 4.227-.313.274-.775.585-1.027.691l-.458.193-.01 1.6-.011 1.6.512.186c.778.281 1.621 1.13 2.003 2.019.296.687.33.966.255 2.017-.139 1.91-.77 3.485-2.006 5.002l-.705.865h7.158l.089-.648c.108-.79 4.805-45.85 4.805-46.098 0-.132-4.355-.176-17.52-.176-10.366 0-17.52.056-17.52.138m-14.625 6.946v1.142h2.285v-2.285h-2.285zm9.75 2.598c-3.27.865-6.103 3.724-6.93 6.993-.313 1.235-.302 2.878.02 3.371.568.866-.295.825 17.505.825 15.184 0 16.432-.02 16.839-.26.93-.55 1.13-1.846.602-3.913-.796-3.11-2.88-5.443-6.022-6.737L54 38.314l-10.054-.03c-8.387-.026-10.194.006-10.893.19m-1.371 4.105v1.143h2.285v-2.285h-2.285zm4.57-.007v1.15h2.299l-.045-1.105-.045-1.104-1.104-.045-1.105-.045zm-17.672.921v1.143h2.285v-2.285H18.58zm-2.173 6.938c-3.378.84-4.684 4.906-2.41 7.497.754.858 2.141 1.485 3.286 1.485 1.409 0 2.296-.367 3.291-1.361 1.079-1.077 1.43-2.014 1.322-3.523-.094-1.312-.69-2.433-1.708-3.208-1.081-.826-2.603-1.184-3.781-.89m12.805 1.753c-.599.326-.834 1.2-.523 1.943.143.344.392.625.634.717.219.083 1.525.151 2.902.151h2.504v2.338c0 2.071.031 2.366.278 2.59.435.393 1.168.322 1.539-.15.287-.365.316-.605.316-2.672V54.83l1.104.045 1.105.045.076 5.078c.072 4.803.092 5.09.372 5.294.407.298.898.27 1.325-.075l.36-.291.043-4.965.044-4.965h10.043v2.188c0 1.984.03 2.227.316 2.59.226.288.457.402.814.402.91 0 1.003-.269 1.003-2.869v-2.31h2.067c2.68 0 3.099-.208 3.108-1.536.004-.556-.075-.772-.388-1.066l-.394-.37-14.117-.033c-12.226-.029-14.173-.003-14.531.193m-12.427.477c-.585.12-1.516 1.127-1.637 1.77-.354 1.889 1.769 3.385 3.396 2.393 1.436-.876 1.456-3.011.036-3.859-.44-.263-1.292-.407-1.795-.304m9.577 5.014c-.637.535-.668 1.498-.068 2.098l.402.402h5.824l-.049-1.447-.048-1.448h-2.797c-2.786 0-2.798.002-3.265.395m17.203 1.052v1.448h5.674l-.095-.476c-.052-.262-.095-.913-.095-1.448v-.97h-5.484zm12.16 0-.049 1.448h4.822l.446-.446c.33-.33.445-.59.445-1.001 0-.413-.116-.673-.445-1.002l-.446-.446h-4.725zM5.142 60.065c-2.156.717-3.348 3.122-2.632 5.309.217.662.507 1.056 1.505 2.043 5.335 5.282 12.816 8.299 20.577 8.299.883 0 1.606-.035 1.606-.079 0-.043-.304-.45-.674-.905-.802-.985-1.51-2.427-1.767-3.597-.187-.856-.145-2.887.071-3.38.1-.226.033-.266-.451-.266-1.246 0-3.9-.506-5.577-1.063-3.096-1.03-5.405-2.377-7.937-4.631-.789-.702-1.663-1.395-1.943-1.54-.651-.337-2.049-.432-2.778-.19m24.077 2.629c-.556.303-.817 1.119-.584 1.824.32.97.413.99 4.566.991h3.737l-.077-1.485-.076-1.486-3.58-.033c-2.898-.027-3.657.009-3.986.189m14.346.58c0 .452-.044 1.14-.097 1.528l-.097.707h7.115c7.286 0 7.521-.018 7.965-.596.33-.428.237-1.472-.172-1.947l-.368-.428-7.173-.042-7.173-.043zm-17.221 4.93c-.484.406-.487.418-.42 1.573.117 2.022 1.28 3.93 3.037 4.98 1.63.975 1.384.96 14.674.955 7.559-.002 12.29-.06 12.709-.158 2.29-.528 4.228-2.401 4.815-4.655.368-1.415.31-2.134-.215-2.66l-.446-.445H26.83z" clip-rule="evenodd"/></svg>