<svg xmlns="http://www.w3.org/2000/svg" width="78" height="68" fill="none" viewBox="0 0 78 68"><path fill="#fff" fill-rule="evenodd" d="M21.576.354C20.94.68.68 20.954.4 21.544c-.202.426-.201.63.007 1.828A20.03 20.03 0 0 0 13.45 38.787c1.517.535 3.371.947 4.355.966 1.013.02 1.332-.413 2.624-3.567.609-1.488 1.15-2.705 1.204-2.705.053 0 2.529 2.434 5.502 5.407l5.405 5.407-8.179 8.19c-9.14 9.151-8.866 8.817-8.862 10.856.002.875.084 1.311.351 1.864 1.054 2.18 3.521 3.214 5.726 2.398.87-.322 1.303-.726 9.179-8.581l8.265-8.244 8.188 8.17c5.544 5.533 8.41 8.286 8.873 8.527.55.285.926.355 1.905.355 1.443 0 2.263-.316 3.206-1.237.947-.925 1.344-1.882 1.347-3.252.004-2.04.277-1.705-8.863-10.856l-8.178-8.19 5.405-5.407c2.973-2.973 5.449-5.407 5.502-5.407s.595 1.217 1.204 2.705c1.292 3.154 1.61 3.588 2.624 3.567.984-.02 2.838-.43 4.354-.966 4.825-1.701 8.918-5.298 11.21-9.851 1.196-2.374 2.245-6.39 1.906-7.299-.205-.55-20.629-20.99-21.283-21.3-.395-.188-.608-.204-.995-.076-.336.11-2.291 1.964-6.164 5.842l-5.672 5.679v1.346l3.427 3.44 3.427 3.438-1.836 1.825c-2.965 2.947-3.488 3.941-3.961 7.536-.407 3.09-.602 3.446-3.412 6.245L39.02 37.82l-2.216-2.207c-2.778-2.768-2.993-3.155-3.417-6.168-.54-3.826-.82-4.382-3.688-7.312L27.611 20l3.42-3.435 3.419-3.436v-1.346l-5.6-5.62C23.95 1.245 22.699.116 22.153.12c-.066 0-.325.106-.576.235M9.042 17.07l-5.677 5.678.293 1.14a26 26 0 0 0 .695 2.205c1.85 4.899 6.092 8.717 11.26 10.135.658.18 1.252.27 1.318.2s1.602-3.727 3.412-8.125l3.29-7.997-4.457-4.458-4.457-4.457zm49.742-1.145-4.38 4.382 3.29 7.996c1.81 4.398 3.346 8.055 3.412 8.125.067.07.66-.02 1.32-.2 5.167-1.418 9.413-5.24 11.257-10.135.221-.587.532-1.58.69-2.21l.287-1.142-5.594-5.598c-3.077-3.08-5.664-5.599-5.748-5.599s-2.125 1.972-4.534 4.381M25.778 23.16c-.073.189-.766 1.876-1.54 3.75l-1.407 3.407 5.922 5.924 5.922 5.923 1.063-1.063 1.064-1.063-2.22-2.25c-1.22-1.237-2.437-2.575-2.706-2.972-.745-1.105-1.207-2.52-1.466-4.49-.276-2.106-.439-2.764-.917-3.71-.35-.687-3.168-3.799-3.443-3.799-.077 0-.2.155-.272.343m24.803.986c-2.274 2.364-2.576 2.961-2.88 5.68-.097.88-.28 2.01-.406 2.513-.536 2.149-.105 1.672-14.912 16.53-8.134 8.161-13.775 13.936-13.827 14.153-.132.553.264 1.33.823 1.62.402.209.595.225 1.04.09.432-.13 4.155-3.774 17.667-17.29l17.12-17.123-1.528-3.708c-.84-2.04-1.592-3.729-1.67-3.755s-.72.555-1.427 1.29m-8.405 23.469-1.024 1.032 8.036 8.017c6.285 6.27 8.141 8.039 8.52 8.118.975.205 1.999-.81 1.775-1.76-.075-.315-15.966-16.439-16.202-16.439-.044 0-.542.464-1.105 1.032" clip-rule="evenodd"/></svg>