<svg xmlns="http://www.w3.org/2000/svg" width="58" height="80" fill="none" viewBox="0 0 58 80"><path fill="#fff" fill-rule="evenodd" stroke="#fff" d="M7.55 1.21c-.843.273-1.746 1.19-2.293 2.326-1.584 3.293-1.523 9.67.173 18.063.715 3.536 2 8.143 3.164 11.335.286.786.52 1.461.52 1.5 0 .04-.078.043-.174.006-.332-.128-3.709-.674-4.163-.674-.984 0-1.878.845-2.149 2.029-.092.4-.13 1.295-.121 2.797.022 3.543.447 5.376 1.788 7.705l.328.57-.455.714c-1.418 2.227-2.41 4.616-2.862 6.893-.281 1.417-.385 4.514-.208 6.205.488 4.665 2.26 8.516 5.375 11.682 2.536 2.577 5.73 4.289 10.086 5.404 5.412 1.386 13.789 1.773 19.766.913 7.821-1.125 13.609-4.187 17.121-9.057.819-1.135 1.975-3.446 2.437-4.872 1.363-4.209 1.308-8.912-.156-13.066-1.61-4.572-5.238-8.62-10.051-11.213a65 65 0 0 1-.91-.495c-.015-.011.189-.385.454-.83 3.07-5.158 6.143-15.823 7.082-24.58.206-1.921.234-6.207.05-7.483-.419-2.88-1.369-4.814-2.768-5.637-.411-.241-.588-.28-1.297-.28-.657 0-.921.05-1.315.244-2.196 1.08-4.642 4.417-6.26 8.536-1.39 3.541-3.35 10.526-4.542 16.18-.61 2.893-1.203 6.386-1.543 9.078-.153 1.215-.287 2.219-.298 2.232s-.79-.03-1.732-.095l-1.712-.12-.06-.366c-.311-1.908-1.032-3.688-2.188-5.41-.961-1.43-2.698-3.453-3.32-3.866-1.39-.921-2.445-.705-3.638.746-.324.393-.599.704-.61.691-.013-.013-.147-.647-.298-1.41-1.192-6-3.35-13.855-4.85-17.66-1.607-4.075-4.059-7.44-6.176-8.476-.622-.305-1.67-.428-2.195-.259Zm-.105 1.144c-.77.407-1.553 1.86-1.929 3.584-.968 4.434-.15 12.234 2.166 20.69 1.09 3.98 2.61 8.364 2.904 8.375.066.002.432.155.813.34.382.185.693.307.693.272 0-.036-.117-.362-.26-.726-.32-.81-1.756-5.338-2.359-7.438-1.44-5.018-1.668-9.193-.667-12.182.513-1.53 1.148-2.373 2.002-2.655 1.586-.523 3.304 1.108 5.136 4.877 1.501 3.09 2.404 6.16 3.23 10.987.448 2.619.367 2.406.725 1.912l.303-.418-.31-1.62c-.666-3.487-1.583-7.29-2.73-11.323-1.65-5.795-2.852-8.783-4.57-11.352-.918-1.372-2.37-2.868-3.164-3.26-.686-.339-1.417-.362-1.983-.063Zm39.807.041c-1.748.871-3.95 3.907-5.433 7.488-1.48 3.574-3.694 11.517-4.928 17.67-.723 3.61-1.635 9.799-1.469 9.965.035.035.246.089.468.118l.404.055.177-.962c.097-.528.426-2.532.73-4.452.73-4.611.99-6.003 1.536-8.22 1.39-5.644 3.87-10.347 5.966-11.307 1.51-.691 2.772.245 3.517 2.61.471 1.494.564 2.161.568 4.082.006 3.166-.454 5.498-2.18 11.038-1.352 4.342-1.847 5.662-2.834 7.56l-.648 1.245.33.157.33.157.521-.888c3.136-5.35 6.075-15.58 7.026-24.454.2-1.868.166-6.295-.058-7.547-.655-3.657-2.142-5.252-4.023-4.315ZM10.854 13.707c-.533.331-1.049 1.396-1.4 2.89-.288 1.228-.257 4.852.056 6.593.538 2.994 2.578 9.816 3.806 12.735.275.653.401.824.815 1.106l.49.334.682-.356c.376-.196.953-.41 1.282-.474l.598-.118.384-1.291c.212-.71.567-1.681.79-2.157l.405-.866-.302-1.872c-.971-6.005-1.916-9.338-3.601-12.702-1.571-3.137-2.966-4.467-4.005-3.822Zm34.147-.008c-1.34.694-3.308 4.136-4.551 7.961-.769 2.364-1.331 4.928-1.97 8.974-.178 1.13-.518 3.21-.755 4.624l-.43 2.57 1.328.238c.73.13 1.816.374 2.412.541 1.038.292 1.09.297 1.228.12.287-.373 1.553-3.093 1.998-4.294.584-1.574 2.135-6.565 2.602-8.368 1.092-4.221 1.238-8.007.404-10.473C46.67 13.83 45.935 13.215 45 13.7ZM23.897 27.907c.37.692-.172 1.854-2.663 5.705-1.232 1.905-2.262 3.58-2.262 3.678 0 .03.14.282.313.56.55.885.743 1.972.466 2.634l-.144.346.427.16c1.044.39 2.97.91 4.21 1.137 3.17.581 4.936.41 5.75-.558.454-.539.52-.998.384-2.641-.21-2.539-.47-3.673-1.201-5.258-.805-1.745-3.392-5.086-4.376-5.65-.645-.37-1.07-.423-.904-.113Zm-1.9 1.558c-.619.684-1.322 1.505-1.562 1.823-.82 1.088-1.517 2.616-2.04 4.47-.215.765-.234.937-.119 1.053s.23-.018.7-.812c.308-.522.995-1.62 1.526-2.438 1.93-2.975 2.654-4.27 2.827-5.057.114-.522-.183-.307-1.331.961ZM3.65 35.102c-.426.738-.489 1.157-.487 3.285.003 4.032.519 5.846 2.513 8.83 1.025 1.534 1.275 1.81 1.88 2.078.988.437 2.16-.041 3.693-1.506a24 24 0 0 0 3.859-4.853l.382-.636-.559-.545c-.465-.453-.595-.663-.774-1.249-.118-.387-.215-.837-.215-1 0-.373.056-.35-3.8-1.628C5 36.174 4.227 35.803 3.995 34.936l-.079-.295zm1.155-.05c.387.411 1.397.831 4.362 1.815 1.525.505 3.223 1.084 3.775 1.287.55.202 1.03.339 1.065.304.355-.355-2.76-2.286-4.643-2.877-.788-.248-3.882-.788-4.509-.788h-.293zm11.139 2.359c-1.145.467-1.567 1.267-1.294 2.454.282 1.225.799 1.807 1.602 1.805.916-.001 2.352-.6 2.756-1.15.412-.56.158-1.854-.52-2.646-.658-.768-1.445-.912-2.544-.463Zm15.09 2.277c.004 1.418 0 1.438-.307 1.94-.343.558-1.06 1.098-1.727 1.3-.265.081-1.011.129-1.974.127l-1.548-.004.596.553c1.09 1.01 2.243 2.816 2.243 3.517 0 .395-.245.557-1.386.92-.565.178-1.854.721-2.863 1.206-1.747.84-1.85.875-2.105.734-.148-.081-.338-.307-.423-.502-.461-1.06-3.484-6.86-3.488-6.694-.002.076.131.723.295 1.438.165.715.424 1.993.577 2.84s.388 1.922.523 2.389.245.96.245 1.096c0 .288-.227.547-.547.624-2.62.628-3.985 1.011-4.697 1.317-1.02.438-1.216.456-1.506.144-.51-.549-.743-2.612-.509-4.492l.084-.667-.7.676c-1.724 1.666-2.987 2.203-4.316 1.834-.55-.153-1.386-.913-1.945-1.767l-.32-.49-.599 1.003a20 20 0 0 0-2.324 5.777c-.193.86-.22 1.301-.224 3.748-.005 2.47.02 2.905.228 3.989 1.07 5.582 4.338 10.078 9.145 12.579 4.167 2.168 10.32 3.3 17.933 3.297 3.606 0 6.02-.22 8.984-.817 5.567-1.12 9.644-3.189 12.777-6.484 2.172-2.285 3.672-5.266 4.383-8.714.218-1.053.244-1.447.242-3.645-.002-2.647-.096-3.438-.624-5.26-.913-3.152-2.402-5.642-4.786-8.004-1.344-1.332-1.971-1.852-3.346-2.773-2.087-1.398-5.234-2.714-7.67-3.206-2.051-.414-4.96-.784-7.038-.894l-1.287-.068zM18.74 41.56c-.156.1-.305.203-.331.23s.441.992 1.04 2.147l1.846 3.559c.416.804.757 1.533.757 1.62s.06.183.134.211.894-.316 1.823-.764c1.407-.68 2.183-.986 3.565-1.406.158-.048-.02-.52-.52-1.379-.395-.676-2.34-2.651-2.845-2.89-.198-.093-.822-.273-1.387-.4a28 28 0 0 1-2.337-.677c-.72-.246-1.345-.444-1.386-.44-.042.004-.203.089-.359.189Zm-2.119.761c-.422.113-.491.185-1.078 1.129-.345.555-.96 1.455-1.369 2-.615.824-.767 1.107-.891 1.662-.23 1.026-.382 2.643-.311 3.333.062.612.34 1.802.42 1.802.024 0 .26-.11.526-.245.644-.325 1.815-.684 3.565-1.094.79-.185 1.47-.364 1.508-.397s-.038-.43-.169-.882c-.13-.452-.383-1.607-.56-2.567a71 71 0 0 0-.572-2.784 21 21 0 0 1-.317-1.566c-.076-.569-.079-.57-.752-.39Zm-2.937 12.122c-.836.204-1.5.587-2.184 1.262-.72.709-1.098 1.418-1.28 2.394-.109.587-.103.638.108.849.194.194.264.209.528.109.29-.11.308-.1.419.235.162.492 1.01 1.383 1.602 1.683.759.385 1.986.418 2.738.073a3.57 3.57 0 0 0 1.67-1.53c.274-.498.3-.632.3-1.538 0-.546-.029-1.022-.064-1.058-.036-.035-.244.057-.462.207-.343.233-.479.265-.989.229-.505-.036-.644-.093-.952-.39-.643-.624-.683-1.545-.097-2.241.217-.257.23-.311.092-.364-.245-.094-.854-.06-1.429.08Zm28.825-.074c-.092.037-.055.14.126.356.576.684.538 1.606-.093 2.236-.351.352-.4.369-1.077.369-.608 0-.746-.036-.973-.249-.146-.137-.3-.214-.342-.171s-.078.524-.077 1.07c0 .84.036 1.06.238 1.439.381.716.986 1.296 1.67 1.603.552.248.725.276 1.464.243.634-.028.958-.099 1.336-.29.597-.303 1.44-1.192 1.606-1.693.105-.318.142-.347.325-.249.303.162.688.03.76-.259.085-.338-.113-1.228-.419-1.89-.326-.703-1.365-1.733-2.103-2.085-.838-.4-2.006-.605-2.44-.43Zm-28.845 4.264c-.476.23-.503 1.062-.043 1.309.838.448 1.609-.578.895-1.192-.302-.26-.5-.286-.852-.117Zm29.563.004c-.233.112-.38.465-.354.849.03.445.697.706 1.164.456.476-.255.43-1.086-.073-1.315-.307-.14-.43-.138-.737.01Zm-14.724.853q-1.227.299-1.834.924c-.306.315-.35.434-.388 1.02-.037.572 0 .75.266 1.32.316.676.858 1.356 1.373 1.723l.292.207.613-.472.613-.471.17.586c.23.79.158 2.429-.14 3.197-.503 1.294-1.38 2.019-2.444 2.022-1.156.004-1.993-.753-2.097-1.897-.043-.477-.085-.57-.268-.596-.403-.057-.422.854-.034 1.623.545 1.082 2.244 1.744 3.322 1.294.22-.092.408-.156.418-.14l.29.505c.632 1.102 1.882 1.233 2.683.28.15-.178.301-.46.334-.624.042-.212.105-.282.213-.241.897.344 1.713.309 2.573-.111.879-.43 1.46-1.44 1.304-2.27-.053-.285-.106-.343-.29-.317-.197.028-.232.111-.277.648-.092 1.1-.814 1.694-2.056 1.694-.82 0-1.19-.17-1.766-.811-.75-.835-.95-1.454-.947-2.936.001-.858.048-1.334.152-1.566l.15-.333.6.477.6.478.248-.298c.69-.828 1.273-2.234 1.273-3.066 0-.875-.665-1.562-1.792-1.85-.753-.193-2.357-.192-3.154.001Zm21.293 1.642c-3.693 1.64-4.745 2.258-4.196 2.469.084.032.954-.333 1.933-.811a82 82 0 0 1 3.295-1.511c1.807-.765 1.92-.834 1.729-1.063-.075-.091-.19-.161-.253-.156-.064.006-1.192.488-2.508 1.072ZM4.058 60.83c-.043.043-.077.158-.077.256 0 .138.123.195.539.252.658.09 2.947.645 4.691 1.14.71.2 1.774.475 2.367.61.933.212 1.096.225 1.223.098.222-.222-.01-.43-.576-.514-.262-.04-1.312-.3-2.332-.581-3.779-1.038-5.653-1.443-5.835-1.26Zm5.467 4.308c-2.966 1.13-4.126 1.666-4.083 1.891.052.271.357.235 1.148-.135.421-.197 1.474-.619 2.339-.936 2.993-1.099 3.523-1.332 3.523-1.549 0-.126-.076-.205-.206-.214-.113-.008-1.337.416-2.72.943Zm36.708-.786c-.837.074-1.02.157-.883.402.084.149.291.166 1.67.141 1.401-.025 2.183.022 4.151.254.543.063.555.059.555-.195 0-.299-.065-.317-1.694-.477-1.521-.148-2.988-.197-3.799-.125ZM10.577 67.73c-1.483 1.509-2.685 2.809-2.67 2.889.061.33.33.177 1.383-.791 1.436-1.32 4.291-4.393 4.291-4.619 0-.096-.069-.185-.154-.198s-1.367 1.21-2.85 2.72Zm33.885-2.066c-.486.196.476 1.017 4.132 3.523 1.017.697 1.923 1.287 2.014 1.311.168.044.342-.229.245-.385-.029-.047-.618-.466-1.31-.933-1.951-1.316-3.237-2.236-4.108-2.94-.44-.354-.81-.64-.822-.636zM29.905 67.97c-.096.191-.36.595-.584.896-.358.48-.4.593-.34.914.235 1.254 1.833 1.237 2.192-.024.074-.26.04-.369-.214-.695a8 8 0 0 1-.59-.913l-.287-.527z" clip-rule="evenodd"/></svg>