<svg xmlns="http://www.w3.org/2000/svg" width="107" height="122" fill="none" viewBox="0 0 107 122"><g filter="url(#a)"><path fill="#00aacb" fill-rule="evenodd" d="M81.704.325c-1.95.524-3.502 1.467-5 3.038-1.489 1.56-2.39 3.295-2.817 5.416-.483 2.407.259 10.666 1.522 16.94.266 1.324.54 2.496.606 2.604.18.292 16.017.249 16.198-.045.27-.436 1.31-6.163 1.677-9.225 1.143-9.556.639-12.759-2.513-15.965-2.58-2.626-6.269-3.68-9.673-2.763M42.125 26.229C17.74 29.552.7 52.384 4.541 76.594c2.973 18.74 17.59 33.394 36.45 36.537 7.77 1.295 16.257.31 23.503-2.727 2.64-1.107 2.52-.873 1.59-3.077-3.634-8.617-5.518-18.99-5.142-28.31.412-10.188 2.436-17.806 7.928-29.831 2.314-5.068 2.654-6.487 2.813-11.727.155-5.132.493-4.597-4.415-7.001-8.039-3.939-16.646-5.386-25.143-4.229M76.86 36.704c0 3.148-.251 5.371-.885 7.834-.193.753-.351 1.488-.351 1.635 0 .19 2.447.268 8.476.268 4.662 0 8.477-.033 8.477-.073s-.225-1.048-.5-2.24c-.35-1.52-.54-3.416-.638-6.345l-.14-4.178H76.86zM37.182 41.85c-2.83 1.439-2.784 5.398.08 6.784a3.746 3.746 0 0 0 5.424-3.403c0-2.846-2.969-4.67-5.504-3.381m-9.996 7.528c-2.164.863-3.126 3.707-1.877 5.543 1.25 1.835 3.016 2.365 4.879 1.463 2.874-1.39 2.91-5.397.061-6.776-1.115-.54-2.1-.614-3.063-.23m44.844 5.117c-3.489 7.728-5.583 16.344-5.989 24.643-.481 9.839 2.354 22.159 7.306 31.748.929 1.798 1.295 2.278 1.945 2.55 1.229.513 16.532.484 17.624-.034 2.44-1.158 6.97-12.998 8.476-22.155 1.912-11.623.283-23.892-4.72-35.557-.668-1.556-1.374-3.075-1.57-3.375l-.357-.545H73.26zM37.182 57.35c-2.83 1.439-2.784 5.398.08 6.784a3.746 3.746 0 0 0 5.424-3.403c0-2.846-2.969-4.67-5.504-3.381" clip-rule="evenodd"/></g><defs><filter id="a" width="106.17" height="121.805" x="0" y="0" color-interpolation-filters="sRGB" filterUnits="userSpaceOnUse"><feFlood flood-opacity="0" result="BackgroundImageFix"/><feColorMatrix in="SourceAlpha" result="hardAlpha" values="0 0 0 0 0 0 0 0 0 0 0 0 0 0 0 0 0 0 127 0"/><feOffset dy="4"/><feGaussianBlur stdDeviation="2"/><feComposite in2="hardAlpha" operator="out"/><feColorMatrix values="0 0 0 0 0 0 0 0 0 0 0 0 0 0 0 0 0 0 0.25 0"/><feBlend in2="BackgroundImageFix" result="effect1_dropShadow_294_29844"/><feBlend in="SourceGraphic" in2="effect1_dropShadow_294_29844" result="shape"/></filter></defs></svg>