<svg xmlns="http://www.w3.org/2000/svg" width="63" height="78" fill="none" viewBox="0 0 63 78"><path fill="#fff" fill-rule="evenodd" d="M7.947.654c-.555.555-.652.844-.513 1.536.094.47.266 2.476.382 4.46.185 3.177.299 3.78.948 5.047l.739 1.439-.665 1.233c-.365.678-.902 2.038-1.194 3.022-.323 1.087-.906 2.246-1.487 2.955-.914 1.115-2.027 3.21-2.039 3.837-.003.163.313.765.703 1.336s.881 1.701 1.092 2.51.571 1.678.8 1.933c.377.422.347.788-.337 4.009-.413 1.95-.9 3.785-1.081 4.079-.182.294-.66 1.711-1.063 3.15-.652 2.328-.89 2.792-2.16 4.215-.785.88-1.503 1.904-1.597 2.277-.274 1.09.048 2.624.968 4.62.473 1.026.893 2.264.933 2.753l.104 1.225c.016.185.66 1.05 1.432 1.922s1.674 1.943 2.007 2.38c.504.666.991.888 2.972 1.353 2.56.6 4.671.709 5.76.295.609-.232.685-.194.685.34 0 .98-1.033 4.41-1.761 5.848-.373.735-1.177 1.878-1.787 2.54l-1.11 1.203-.323-.894-.323-.893-.019 1.336c-.032 2.288.383 3.264 1.661 3.908.618.31 1.695.972 2.393 1.469 1.217.866 1.37.903 3.686.903 4.113 0 7.554-.925 14.503-3.899 4.238-1.813 9.316-4.492 10.919-5.76 1.084-.857 1.138-.83 1.401.707.3 1.752.436 2.022 1.15 2.294.496.189.836.157 1.256-.119.752-.492 4.037-6.922 4.284-8.382l.19-1.129 2.897.06c2.58.054 2.98 0 3.652-.5 1.317-.978 1.019-2.722-.55-3.209-1.42-.44-2.947-2.207-3.494-4.044-.173-.578-.12-.597 1.546-.572 1.767.026 3.037-.383 3.415-1.1.116-.221.282-.848.369-1.394.133-.837.407-1.167 1.75-2.11.877-.614 1.594-1.154 1.594-1.198s-.39.082-.868.281c-.478.2-1.76.547-2.85.772-1.76.364-2.067.366-2.753.01-1.217-.628-2.722-2.283-3.503-3.849-1.004-2.017-.953-2.238.612-2.64 1.627-.416 3.217-1.535 4.291-3.019 1.084-1.496 1.247-2.24.637-2.914-.318-.353-.39-.605-.205-.725.156-.1.43-.462.61-.803.267-.508.25-.736-.1-1.27-.235-.357-.574-.657-.754-.666-1.516-.08-2.233-.294-3.188-.955-1.23-.851-2.914-2.859-3.715-4.428-.459-.9-.484-1.161-.2-2.107.264-.884.243-1.602-.116-3.935-.242-1.57-.508-3.379-.59-4.019-.2-1.55-.757-2.598-2.15-4.047-.637-.661-1.436-1.688-1.776-2.283-.34-.594-1.674-2.535-2.964-4.313-2.602-3.586-3.18-4.002-5.173-3.729-1.848.254-4.653-.664-5.281-1.727C32.337.836 31.802.35 31.412.2c-.954-.364-2.53.116-3.066.935-.374.57-.66.641-3.17.787-3.826.222-6.43.988-9.224 2.713l-1.121.692-1.555-2.069C10.85.031 9.318-.718 7.947.654M9.331 2.24c.102.441.25 2.185.329 3.875.092 1.99.214 2.837.344 2.405.11-.367.213-1.138.228-1.712l.027-1.043 1.134 1.712c.623.941 1.22 1.831 1.327 1.978.188.261 1.781-1.358 1.803-1.833.011-.233-1.709-2.253-4.086-4.8-1.224-1.31-1.283-1.34-1.106-.582m20.186-.167c-.157.293-.286.751-.288 1.018-.004.81-1.224 3.093-2.253 4.22-1.1 1.202-1.354 1.92-1.116 3.156.117.612.089.744-.099.458-.144-.22-.264-.972-.267-1.67-.004-1.52-.238-1.58-2.236-.582-1.924.961-2.798 1.86-3.683 3.783-.42.915-.765 1.73-.765 1.813s.57.073 1.27-.018c.711-.094 2.735.03 4.609.284 1.837.248 3.869.516 4.515.597l1.175.147-.139-1.227c-.117-1.047-.045-1.315.493-1.821.348-.326.888-1.122 1.201-1.769.836-1.727.634-4.927-.451-7.153-.827-1.696-1.495-2.116-1.966-1.236m-6.255 1.65c-5.43.91-8.513 3.19-10.585 7.82-1.037 2.317-1.193 3.547-.533 4.207.671.671 1.456.656 3.185-.062 1.361-.566 1.434-.652 2.578-3.052 2.419-5.073 5.159-7.526 9.387-8.405.772-.16 1.403-.403 1.403-.54 0-.296-3.607-.275-5.435.032m6.42 1.168c-.243.71-.841 1.787-1.33 2.393-.859 1.062-.88 1.141-.56 2.171.181.588.344 1.67.361 2.405l.031 1.336.755-.881c.415-.485.951-1.49 1.192-2.235.452-1.401.57-4.999.195-5.958-.169-.43-.282-.295-.645.769m2.756-.793c0 .375 1.485.944 2.472.946.95.004.426-.524-.917-.923-1.674-.497-1.555-.495-1.555-.023m-6.185.673c-1.602.485-4.077 2.053-5.189 3.29-.652.725-1.185 1.426-1.185 1.557 0 .492.494.208 1.164-.67.965-1.266 3.692-3.023 5.484-3.533.826-.236 1.616-.535 1.756-.666.312-.292-1.038-.277-2.03.022m10.632.409c-.085.22-.456.4-.825.4-.867 0-2.82.78-2.82 1.127 0 .147.21.196.468.11.305-.102.258-.008-.134.272-.698.497-.855 1.965-.209 1.965.234 0 .332.158.243.39-.126.33.197.366 2.08.241 2.044-.136 3.508.04 4.9.586.53.208.53.205.018-.378-.284-.324-.922-.839-1.417-1.145s-.84-.615-.77-.687c.27-.27 3.03 1.227 4.539 2.462 1.81 1.482 1.66 1.035-.541-1.602-.859-1.029-1.893-2.382-2.3-3.006-.683-1.051-.826-1.136-1.908-1.136-.794 0-1.22.129-1.325.4M14.48 11.153c-1.404 1.09-2.469 2.904-2.024 3.447.156.191.88.335 1.691.335 1.973 0 2.365-.436 2.125-2.36-.314-2.51-.352-2.54-1.792-1.422m19.829.63-.935.302.801.19c.523.125.616.203.268.224-.962.06-2.54.584-2.54.845 0 .14.332.266.736.281s1.035.13 1.403.258c.546.19.46.22-.47.166-.687-.039-1.102.045-1.047.21.05.151.663.306 1.363.345.7.04 1.492.189 1.76.332.63.337 1.15 1.92 1.014 3.082-.103.88-.072.914.975 1.07.595.089 1.42.032 1.833-.126 1.278-.486 3.68-.352 4.69.264.494.3.954.492 1.022.424.133-.134-.445-1.253-1.187-2.3l-.467-.656.858.632c1.205.888 2.45 2.505 3.611 4.69.548 1.029.999 1.79 1.002 1.694.004-.098-.167-1.089-.38-2.204-.407-2.126-1.194-4.174-1.955-5.092-.249-.3-.004-.13.544.377 1.058.977 1.226.813.63-.612-.478-1.146-2.146-2.551-4.366-3.678-1.707-.867-1.926-.91-5.007-.963-1.825-.031-3.626.075-4.156.246m-20.935 1.28c-.388.657-.404.803-.089.803.212 0 .46-.21.55-.468.091-.257.235-.618.32-.802.322-.69-.327-.301-.78.468m2.069.376c-.277.721.043 1.145.383.509.206-.385.22-.641.043-.751-.148-.092-.34.017-.426.242m11.217-.16c.287.464 2.196.957 2.752.71.373-.165.204-.258-.715-.396-.661-.099-1.432-.279-1.714-.4-.357-.154-.455-.128-.323.085m-7.608 1.66c-1.398.218-2.738.663-5.102 1.696-.965.421-1.005.416-1.871-.28l-.885-.71.851.892.852.892 2.115-.836c3.985-1.575 6.196-1.74 11.446-.857l4.016.675c.602.1.886.322 1 .777.089.35.234.828.324 1.062s.043.426-.104.426-.343-.305-.436-.677c-.225-.893-.703-1.062-4.958-1.749-4.574-.738-7.345-.621-10.029.423-1.029.4-2.333.788-2.897.861-.912.119-1.142.02-2.066-.881-.572-.559-1.119-.937-1.215-.84s-.338.8-.536 1.561l-.359 1.386 1.397 2.62c1.323 2.48 1.426 2.599 1.933 2.245 2.477-1.726 6.1-3.81 7.57-4.354 2.101-.778 5.515-.9 9.62-.347 1.37.185 2.53.295 2.577.244s-.046-.727-.208-1.503c-.334-1.612.039-1.435-4.592-2.174-4.262-.68-6.634-.835-8.443-.553m14.09.55c-.753.592-.908 1.544-.448 2.755.268.706 1.517 1.688 1.794 1.41.09-.089-.139-.276-.506-.416-.789-.3-1.016-.788-.989-2.12l.02-.981.314.857c.516 1.41.93 1.657 1.535.917.284-.347.516-.504.516-.35s-.12.356-.267.447a.61.61 0 0 0-.259.483c.005.175.23.053.502-.271.27-.325.567-.515.659-.424.258.258.198-.425-.136-1.54-.196-.652-.504-1.065-.869-1.162-.896-.241-1.117-.194-1.866.394m.5 1.046c-.093.151.014.196.252.105.463-.178.548-.37.163-.37-.138 0-.325.12-.414.265m-5.747.808c-.626.198-.613.212.217.237.486.015.819.132.739.261-.124.2 1.01.567 1.75.567.58 0 .157-.809-.5-.955-1.412-.314-1.542-.32-2.206-.11m-16.548 1.502c-.728.925-.704 1.146.267 2.487.91 1.258.685 1.288 2.568-.34l.584-.505-.57-1.173c-.498-1.026-.678-1.173-1.433-1.173-.613 0-1.022.204-1.416.704m.813 0c-.675.472-.731 1.343-.13 2.008.42.463.465.461 1.187-.053.67-.477.721-.617.48-1.308-.335-.962-.805-1.16-1.537-.648m9.241.658c-1.539.362-3.516 1.379-6.432 3.307-1.45.96-2.789 1.745-2.973 1.745-.185 0-.681-.662-1.103-1.47-.423-.807-.888-1.433-1.035-1.389s-.55.614-.896 1.269c-.498.942-.59 1.026-.45.403.099-.431.411-1.111.695-1.51.614-.863.64-1.144.147-1.553-.295-.245-.62-.028-1.606 1.068-1.299 1.444-1.696 2.347-1.322 3 .438.76 3.298 3.67 3.298 3.353 0-.176.056-.265.125-.196.07.07-.11.9-.4 1.849-.445 1.466-2.13 8.728-2.13 9.186 0 .084 1.003.153 2.229.153s2.82.179 3.54.398c1.83.554 2.011.513 2.916-.666 1.099-1.431 1.396-1.334.55.18-.384.687-.605 1.332-.49 1.433s.808.514 1.543.916l1.336.733 1.618-1.564c.89-.86 2.125-1.964 2.745-2.452.627-.495 1.435-1.501 1.823-2.272.998-1.98 1.527-2.651 2.54-3.224l.895-.505-1.098 1.173c-.603.645-1.484 1.864-1.956 2.709-.532.95-1.67 2.272-2.985 3.464-2.553 2.317-3.77 3.944-1.426 1.906 3.052-2.651 6.448-6.35 7.201-7.841 1.13-2.239 2.267-5.816 2.107-6.633-.083-.422.15-1.54.566-2.72 1.16-3.292 1.293-3.735 1.166-3.862-.067-.067-.618-.201-1.224-.298l-1.102-.177.149 2.184c.129 1.881.078 2.282-.367 2.903-.284.396-.9 1.511-1.37 2.478-1.024 2.11-1.508 2.384-4.23 2.384-1.77 0-2.079.076-2.659.656-.602.602-.656.614-.656.136 0-.286.23-1.122.51-1.858.53-1.4.476-1.563-.322-.958-.264.2-.723.3-1.021.222-.39-.102-.874.184-1.725 1.02-.65.638-1.183 1.041-1.183.896s.722-.979 1.604-1.851c1.43-1.416 1.603-1.703 1.605-2.664.001-.851.282-1.488 1.336-3.036 1.23-1.805 1.632-2.758 1.134-2.691-.11.015-.658.134-1.217.266m2.106.386c-.093.373-.828 1.395-1.632 2.27-1.596 1.735-1.868 2.747-.961 3.568.474.429.6.401 2.376-.527 1.512-.79 2.257-1.006 3.842-1.114 2.509-.17 2.736-.351 2.517-2.002-.347-2.618-.719-2.874-4.163-2.874-1.713 0-1.817.036-1.979.679m16.315.26c-.524.523-.448.88.68 3.203.83 1.713.663 1.579-1.45-1.16-.955-1.24-1.434-1.646-1.937-1.646-1.031 0-.825.664.732 2.355.77.836 1.07 1.227.665.869-.553-.489-.812-.575-1.042-.346-.352.353-.558.053 2.876 4.204 4.115 4.974 6.29 6.592 10.06 7.48 1.968.464 3.21.493 1.762.04-.539-.168-1.076-.402-1.194-.52s.023-.138.312-.045c.516.167.516.162-.008-.264a28 28 0 0 0-1.07-.82c-.293-.21.248-.025 1.203.413 1.338.614 2.106.793 3.34.782l1.604-.016-1.394-.633c-2.687-1.222-5.37-4.393-7.348-8.689-1.21-2.63-2.034-3.554-4.035-4.532-2.207-1.08-3.178-1.254-3.756-.675m-7.65 2.134c-.184.22-.39.912-.458 1.537-.113 1.043-.04 1.212.896 2.07.56.515.793.666.516.335q-.505-.603-.162-.602c.276 0 .276-.078-.002-.413-.274-.33-.387-.344-.563-.067-.12.19-.221.267-.224.168-.002-.098-.075-.398-.163-.668-.132-.407-.11-.422.13-.088.244.339.289.341.292.015.003-.274.114-.236.387.134.375.51.392.508.948-.086.312-.333.483-.742.379-.91-.116-.187-.07-.232.12-.114.653.404.268-.362-.514-1.02-.953-.802-1.131-.835-1.583-.29m.8 1.04c0 .058.187.177.416.265.237.09.345.046.251-.105-.157-.254-.666-.376-.666-.16m1.164 3.58c-.462.987-1.221 2.96-1.687 4.384s-1.3 3.289-1.856 4.142c-.921 1.416-3.16 3.785-4.835 5.115-.604.48-.668.72-.668 2.492 0 1.953.003 1.962.753 2.048.415.047 1.126-.044 1.58-.202 1.19-.415 1.2-.173.026.658-.563.398-.783.636-.489.528 5.596-2.049 5.831-2.165 7.12-3.52 2.016-2.12 3.24-5.793 3.278-9.829.025-2.844-.278-3.536-.806-1.834-.304.979-.317.935-.344-1.139-.026-1.985-.636-4.672-1.056-4.646-.096.006-.553.817-1.016 1.804m-8.178-1.095c-.56.146-.627.617-.089.617.58 0 1.225-.296 1.225-.563 0-.247-.335-.264-1.136-.054m1.938.249c0 .14-.34.66-.753 1.157-.702.84-.913.92-3.12 1.192-1.44.177-2.41.422-2.476.627-.085.257.056.273.598.067.39-.148 1.531-.27 2.537-.27 1.705 0 1.876-.054 2.503-.8.724-.86 1.124-1.815.868-2.07-.086-.087-.158-.044-.158.097m11.101 2.84c.373 1.236 1.816 4.365 2.296 4.98.274.35.498.815.498 1.032s-.39-.182-.868-.888c-1.325-1.957-1.637-1.721-.62.467 1.09 2.344 1.515 3.847.56 1.976-.371-.726-.939-1.6-1.262-1.944-.525-.559-.613-.579-.834-.185-.38.678-.024 2.485.863 4.392a21 21 0 0 1 1.807 6.489c.115 1.071.245 1.445.417 1.202.172-.24.202-.14.098.316a7.4 7.4 0 0 0-.157 1.33l-.004.66-.439-.627c-.242-.345-.653-1.184-.913-1.863-.628-1.638-.918-.958-.7 1.643.323 3.85 3.115 7.436 7.598 9.758 1.999 1.035 4.844 2.047 5.083 1.808.064-.064-.322-.5-.857-.97s-1.109-1.108-1.274-1.417c-.171-.32.275-.044 1.035.637 1.345 1.21 3.395 2.15 4.63 2.125.617-.012.595-.052-.286-.518-1.974-1.043-3.79-3.737-4.53-6.717-.254-1.022-.488-1.335-1.376-1.834-.589-.33-1.85-1.2-2.805-1.93-.953-.732-1.778-1.286-1.831-1.232-.095.094.122 1.215.506 2.621.1.368-.172.007-.607-.801-.434-.809-.869-1.92-.966-2.471a2.58 2.58 0 0 0-.964-1.617l-.787-.617.668-2.496c.882-3.296 1.069-5.153.712-7.079-.403-2.175-1.164-3.634-2.8-5.363-1.479-1.565-2.201-1.895-1.89-.867m-8.943 1.944c-1.29 3.446-2.314 4.8-6.468 8.542-1.745 1.572-3.173 2.963-3.173 3.09 0 .128.494.366 1.098.528 1.017.274 1.128.25 1.508-.324.225-.34 1.83-2.002 3.566-3.692 2.644-2.575 3.298-3.377 4.028-4.944 1.008-2.16 1.23-4.46.447-4.617-.324-.065-.594.316-1.006 1.417m-9.042 2.667c-.584.904-.5 1.263.145.618.51-.51.704-.025.395.984-.41 1.338-.143 1.154.486-.334.295-.698.735-1.42.977-1.603.396-.3.383-.334-.124-.334-.31 0-.724-.06-.92-.132-.203-.076-.614.267-.959.801m23.452 1.363c0 .984.174 1.453.868 2.337l.868 1.107-.79-.615c-.78-.608-.792-.61-.99-.077-.109.297-.336 1.811-.503 3.365-.27 2.504-.254 2.902.136 3.497.922 1.408 3.725 3.843 5.491 4.772 1.83.961 5.333 2.023 6.654 2.017.612-.003.554-.081-.51-.685-1.532-.869-3.332-2.605-4.171-4.024-.36-.607-1.24-2.91-1.957-5.115-1.312-4.042-2.596-6.536-3.796-7.377-1.029-.72-1.3-.553-1.3.798m6.246 1.388c.095.154.8.488 1.568.743 1.143.38 1.299.5.865.67-.29.113-.95.219-1.464.234-.882.026-.906.05-.417.42.285.215.947.4 1.47.41.719.015.825.069.434.222-.572.224-.179.64.426.451.197-.062.719-.2 1.16-.308l.801-.196-1.068-.34c-.665-.212-.854-.348-.5-.361.312-.011 1.034-.218 1.603-.458l1.034-.437-1.18-.507c-1.343-.575-5.012-.997-4.732-.543M7.603 39.213c-.837.157-.95.293-1.264 1.509-.19.735-.348 1.426-.351 1.536s1.115.2 2.485.2c2.661 0 4.519.42 6.653 1.5 1.23.623 1.267.626 1.537.122.152-.285.276-.886.276-1.336s.058-.82.13-.82c.071 0 .738.375 1.483.833 1.896 1.166 1.994.753.107-.454-3.713-2.376-8.195-3.628-11.056-3.09m-2.197 4.885c-.304 1.016-1.34 2.23-2.833 3.322-.633.463-.471 1.542.61 4.054.555 1.288 1.043 2.801 1.084 3.363.089 1.206.712 2.254 1.53 2.571.667.259 5.43.824 6.91.82.86-.003 1.163-.205 2.472-1.65 1.147-1.268 1.626-2.07 2.079-3.475l.589-1.827-.56-1.152c-.383-.788-.482-1.288-.316-1.585.31-.555-.552-2.522-.88-2.006-.144.226-.214.148-.217-.243-.003-.433-.47-.847-1.857-1.647-2.34-1.349-2.517-1.397-4.271-1.17l-1.448.188-.65 1.955c-.359 1.074-.694 1.911-.746 1.86-.051-.052.13-.962.403-2.022.272-1.06.417-1.973.322-2.03-.096-.055-.558-.183-1.027-.283-.82-.176-.865-.14-1.194.957m14.609.761c-.398.784-.628 1.587-.538 1.871.163.516 2.115 2.41 2.484 2.41.115 0 .607-.333 1.094-.739l.884-.738-.33-1.734c-.18-.953-.403-1.811-.493-1.906s-.668-.255-1.285-.355l-1.12-.182zm26.992-.33c.227.552.774 1.588 1.215 2.304.554.9.671 1.251.378 1.139-.767-.294-.15.303 1.026.991.634.372 1.506.764 1.937.87l.784.195-.936-.777c-1.467-1.218-2.604-2.521-3.651-4.187-.532-.845-1.012-1.536-1.067-1.536s.087.45.314 1.002m-10.879.133c-.634.502-2.746 3.49-3.141 4.444-.19.46-.453.835-.583.835s-.432.486-.67 1.08c-.237.594-.48 1.032-.54.972-.059-.059.255-1.048.698-2.198s.754-2.14.692-2.202-1.022.517-2.135 1.286c-1.523 1.053-2.254 1.78-2.962 2.945-.516.85-1.454 2.127-2.085 2.838-1.547 1.744-2.163 2.83-2.816 4.966-.738 2.41-2.44 9.395-2.439 10.004.002.784 1.014 2.222 1.565 2.222 1.107 0 11.273-3.791 12.84-4.788.316-.202.288-.523-.184-2.068-.78-2.549-.881-4.05-.5-7.44l.33-2.94.159 4.409c.146 4.047.524 6.744 1.025 7.303.32.357 2.936-1.1 2.927-1.63-.005-.254-.125-1.364-.268-2.466s-.44-5.486-.66-9.74c-.22-4.256-.496-7.834-.614-7.952-.119-.118-.406-.064-.639.12m-15.732.769c-.168.314-.185.493-.038.402.15-.093.249.113.227.477-.02.352-.129.585-.239.517-.463-.286-.15.395.433.944.467.438.816.549 1.325.42 1.113-.278 1.347-.747.938-1.877-.43-1.188-1.213-1.573-1.94-.953-.477.409-.5.406-.342-.03.237-.65.002-.586-.364.1m21.684.123c.013.311.076.375.161.162.077-.193.068-.424-.021-.513-.089-.088-.152.07-.14.351m-21.128.738c.008.59.478 1.054.904.89.609-.233.527-.533-.243-.89-.503-.234-.664-.234-.661 0M10.927 47.74c-.147.108-.448.425-.668.705-.39.495-.379.497.454.067 1.06-.548 1.245-.549 2.39-.005 1.46.693 2.11 2.489 1.417 3.923-.273.564-.268.566.133.065.517-.646.536-2.08.041-3.038-.63-1.22-2.984-2.293-3.767-1.717m-8.239.79c-.164.267.609 2.44 1.577 4.43.457.94.51.972.706.44.137-.37.072-.828-.182-1.283a65 65 0 0 1-1.164-2.282c-.423-.867-.845-1.454-.937-1.305m8.105.97c0 .198-.359.889-.797 1.536q-1.394 2.058-.272 3.18c.672.672 1.059.686.887.031-.172-.66.837-1.367 1.95-1.367.914 0 1.172-.35 1.172-1.59 0-1.159-.934-2.151-2.024-2.151-.59 0-.916.127-.916.36m-6.146.585c0 .079.252.638.56 1.241.538 1.055.557 1.714.087 3.023-.157.44-.127.475.169.2.732-.679 1.766-.39 2.664.744.975 1.23 2.039 1.864 3.12 1.858 1.414-.007 1.532-.446.17-.628-2.57-.342-4.047-2.02-3.747-4.256.134-.996.12-1.017-.364-.578-.653.59-1.203.356-1.89-.807-.518-.88-.77-1.14-.77-.797m38.748.628c0 .4 1.24 2.868 1.934 3.852.577.819.46 1.265-.191.725-.242-.2-.407-.225-.407-.06 0 .463 3.74 2.994 4.425 2.994.096 0-.77-1-1.924-2.221-1.212-1.283-2.468-2.937-2.969-3.913-.477-.93-.868-1.55-.868-1.377M34.37 53.68c0 .515.055.725.122.468a2.2 2.2 0 0 0 0-.935c-.067-.258-.122-.047-.122.467m5.936 1.023c.085.267 1.073 2.222 2.197 4.342 2.308 4.358 3.114 6.261 3.589 8.47.282 1.314.356 1.436.525.863.109-.368.221-1.75.25-3.073.037-1.646.121-2.195.268-1.737.117.367.226 1.077.24 1.578.026.883.042.896.546.44.48-.435 1.352-2.514 1.352-3.225 0-.17-.982-1.07-2.181-2s-3.195-2.693-4.434-3.919-2.31-2.227-2.38-2.227-.057.22.028.488m-24.92 3.109c-1.254 1.31-1.888 1.767-2.653 1.91-1.121.212-4.516-.283-5.062-.737-.219-.181-.353-.191-.353-.026 0 .554.836.917 2.99 1.299 2.741.485 3.63.34 4.678-.768.9-.95 2.32-3.125 2.152-3.294-.058-.059-.847.669-1.753 1.616m2.888-.473c0 .119-.358 2.285-.795 4.814-.836 4.836-1.467 7.037-2.39 8.331-.648.912-.684 1.1-.205 1.1.574 0 1.737-1.396 2.159-2.589 1.178-3.339 2.22-11.262 1.536-11.684-.168-.104-.305-.091-.305.028m21.17.55c-.106.258-.188 1.746-.182 3.308.008 2.569.072 2.932.668 3.806.362.531.748.967.858.968s.2-1.532.2-3.405c-.001-2.925-.076-3.53-.53-4.276-.608-.995-.748-1.05-1.014-.4m-1.405 8.073c-2.227 1.178-9.013 3.923-13.204 5.342-2.491.843-4.616 1.702-4.721 1.909s-.336.766-.513 1.242c-.448 1.21-1.795 1.56-4.471 1.162-1.084-.162-2.282-.457-2.663-.657l-.694-.363 1.065-1.14c.986-1.058 1.111-1.117 1.713-.802.593.31.583.277-.112-.378-.858-.808-.621-.95-2.322 1.384l-.832 1.142 1.29.595c1.855.857 6.968.84 10.242-.031 3.013-.803 7.623-2.655 11.892-4.776 3.727-1.853 4.166-2.123 2.984-1.84-.497.12-.698.087-.586-.095.237-.383.01-.356-2.114.251-1.02.292-1.904.478-1.968.415-.063-.063 1.402-.87 3.256-1.794 3.089-1.538 3.923-2.11 3.037-2.078-.183.007-.759.237-1.279.512" clip-rule="evenodd"/></svg>