<svg xmlns="http://www.w3.org/2000/svg" width="118" height="118" fill="none" viewBox="0 0 118 118"><g filter="url(#a)"><path fill="#00aacb" fill-rule="evenodd" d="M31.552.361c-.388.191-.92.648-1.181 1.016l-.477.668-.057 17.562-.058 17.563-1.554.782C14.005 45.106 5.673 54.417 4.233 64.765c-1.592 11.45 5.016 22.383 18.44 30.51 13.379 8.1 32.717 13.322 53.739 14.51 10.185.576 16.345.022 22.448-2.02 4.676-1.564 7.634-3.313 10.543-6.231 1.632-1.638 2.103-2.276 2.944-3.99 2.263-4.614 2.188-9.454-.209-13.514-2.174-3.682-6.764-7.268-11.984-9.362-2.405-.965-3.37-1.593-4.194-2.73-1.806-2.494-1.663-5.976.334-8.11.924-.988 1.357-1.234 4.612-2.61 3.496-1.479 6.686-3.646 8.963-6.089 5.464-5.86 5.511-13.311.121-19.04-4.208-4.473-11.322-7.678-20.579-9.27-2.38-.41-3.573-.48-8.057-.477-13.439.008-29.056 2.575-41.254 6.779a351 351 0 0 1-3.492 1.19c-.35.11-.376-.21-.376-4.689v-4.806l12.07-4.511c10.136-3.787 12.184-4.622 12.775-5.205a3.087 3.087 0 0 0 0-4.411c-.594-.587-2.793-1.474-14.117-5.699C39.583 2.238 33.257-.007 32.902 0s-.962.17-1.35.361m3.391 34.634c-.532.21-1.91.796-3.062 1.302l-2.094.922-.001 11.524-.001 11.525-1.427.737c-1.85.957-3.58 2.656-4.324 4.245-.471 1.01-.583 1.558-.584 2.864-.005 4.466 3.745 7.617 10.892 9.155 2.467.531 7.76.531 10.226 0 5.392-1.16 8.742-3.166 10.187-6.102.61-1.24.708-1.66.708-3.057s-.098-1.818-.705-3.052c-1.971-4.004-7.77-6.475-15.249-6.499l-3.276-.01V46.571c0-6.587-.073-11.973-.162-11.967-.088.005-.596.181-1.128.39m34.435 23.778c-3.814 1.027-6.54 4.028-7.21 7.937-1.05 6.136 4.78 11.966 10.917 10.915 4.23-.724 7.392-3.886 8.116-8.116 1.12-6.538-5.406-12.464-11.823-10.736M35.695 65.11c-5.6.87-7.614 3.236-4.118 4.836 2.208 1.01 3.816 1.262 7.986 1.25 3.267-.009 4.13-.082 5.557-.472 2.078-.568 3.346-1.247 3.781-2.025.297-.531.297-.65 0-1.181-.829-1.483-4.037-2.416-8.694-2.53-1.772-.043-3.803.011-4.512.122m34.533.12c-2.82 1.439-2.029 5.692 1.124 6.047 2.465.278 4.297-2.295 3.231-4.539-.745-1.57-2.822-2.29-4.355-1.507" clip-rule="evenodd"/></g><defs><filter id="a" width="118" height="118" x="0" y="0" color-interpolation-filters="sRGB" filterUnits="userSpaceOnUse"><feFlood flood-opacity="0" result="BackgroundImageFix"/><feColorMatrix in="SourceAlpha" result="hardAlpha" values="0 0 0 0 0 0 0 0 0 0 0 0 0 0 0 0 0 0 127 0"/><feOffset dy="4"/><feGaussianBlur stdDeviation="2"/><feComposite in2="hardAlpha" operator="out"/><feColorMatrix values="0 0 0 0 0 0 0 0 0 0 0 0 0 0 0 0 0 0 0.25 0"/><feBlend in2="BackgroundImageFix" result="effect1_dropShadow_186_24968"/><feBlend in="SourceGraphic" in2="effect1_dropShadow_186_24968" result="shape"/></filter></defs></svg>