<svg width="58" height="80" viewBox="0 0 58 80" fill="none" xmlns="http://www.w3.org/2000/svg">
<path fill-rule="evenodd" clip-rule="evenodd" d="M7.55037 1.21033C6.70748 1.48253 5.8036 2.39914 5.25664 3.5363C3.67272 6.8294 3.73392 13.2055 5.43006 21.5985C6.1446 25.1349 7.43054 29.7421 8.59389 32.9338C8.88036 33.7198 9.11478 34.3952 9.11478 34.4348C9.11478 34.4743 9.03612 34.4765 8.93991 34.4396C8.60847 34.3124 5.23148 33.7659 4.77682 33.7659C3.79347 33.7659 2.89894 34.6105 2.62807 35.7948C2.53628 36.1957 2.49757 37.0902 2.50701 38.5918C2.52919 42.1351 2.95449 43.9681 4.29505 46.2972L4.6227 46.8666L4.16804 47.5807C2.74985 49.8085 1.75818 52.1973 1.30629 54.4741C1.02495 55.8913 0.920941 58.988 1.09786 60.6787C1.58599 65.3438 3.35791 69.1949 6.47286 72.3607C9.00922 74.9384 12.2031 76.6498 16.559 77.7652C21.9715 79.1513 30.3476 79.5382 36.3245 78.6783C44.1462 77.5529 49.9339 74.4911 53.4463 69.6208C54.265 68.4855 55.4206 66.1749 55.8825 64.7492C57.2465 60.5402 57.1906 55.8368 55.7272 51.6833C54.1163 47.111 50.4885 43.0638 45.676 40.4701C45.1917 40.2091 44.7825 39.9863 44.7666 39.975C44.7507 39.9637 44.9547 39.5901 45.2197 39.1447C48.2895 33.9875 51.3627 23.3221 52.3022 14.5651C52.5084 12.6436 52.5364 8.35787 52.3512 7.08188C51.9331 4.20247 50.9834 2.26802 49.5838 1.44525C49.1729 1.20375 48.9959 1.16556 48.2866 1.16556C47.6302 1.16556 47.366 1.21443 46.9718 1.4085C44.776 2.4896 42.33 5.82551 40.7127 9.94456C39.3221 13.4862 37.3612 20.4706 36.17 26.1244C35.5604 29.0182 34.9668 32.5113 34.6272 35.2034C34.4741 36.4176 34.3398 37.4218 34.3288 37.4349C34.3178 37.4481 33.5385 37.4053 32.5969 37.3398L30.885 37.2206L30.8252 36.8538C30.5136 34.9464 29.7934 33.1662 28.6371 31.4449C27.6759 30.0142 25.9388 27.9913 25.3166 27.5783C23.9279 26.6565 22.8723 26.8727 21.6788 28.3236C21.3551 28.7171 21.0803 29.0284 21.0683 29.0152C21.0562 29.0021 20.9224 28.3676 20.7709 27.6052C19.5786 21.6043 17.4216 13.7499 15.9207 9.94456C14.3135 5.86966 11.8623 2.50561 9.74481 1.46877C9.12268 1.16422 8.07516 1.0408 7.55037 1.21033ZM7.44502 2.35396C6.67442 2.76077 5.89242 4.21367 5.5161 5.93784C4.54846 10.3715 5.36507 18.1717 7.68231 26.6281C8.77286 30.6082 10.2928 34.9916 10.5861 35.0026C10.6522 35.0051 11.0182 35.1584 11.3994 35.3433C11.7805 35.5282 12.0924 35.6504 12.0924 35.615C12.0924 35.5794 11.975 35.2528 11.8313 34.8892C11.5115 34.0791 10.0759 29.5508 9.47343 27.4512C8.03327 22.4328 7.8047 18.2584 8.80623 15.2689C9.3188 13.7389 9.95448 12.8962 10.8084 12.6144C12.3944 12.0909 14.112 13.7221 15.944 17.4914C17.4453 20.5803 18.3482 23.6519 19.1737 28.478C19.6216 31.0967 19.5409 30.8841 19.8991 30.3896L20.2016 29.972L19.8922 28.3522C19.226 24.8647 18.3091 21.0629 17.1615 17.0294C15.5126 11.2339 14.3098 8.24585 12.5919 5.67673C11.6743 4.30464 10.2225 2.80851 9.42835 2.4168C8.74195 2.07827 8.01119 2.05516 7.44502 2.35396ZM47.2517 2.39534C45.504 3.26625 43.3016 6.30173 41.8193 9.88274C40.3398 13.4568 38.1247 21.3999 36.8914 27.5539C36.1683 31.1625 35.2556 37.3518 35.4222 37.5183C35.4574 37.5535 35.668 37.6067 35.8902 37.6365L36.2942 37.6907L36.4709 36.7294C36.568 36.2007 36.8965 34.1972 37.2008 32.2771C37.9316 27.666 38.1918 26.274 38.7373 24.0576C40.1262 18.4131 42.6077 13.7096 44.7027 12.7504C46.2134 12.0588 47.4755 12.9948 48.2203 15.3592C48.6912 16.8537 48.7839 17.5211 48.7878 19.4423C48.7942 22.6075 48.3336 24.9401 46.6083 30.4802C45.2561 34.8223 44.7612 36.1422 43.7741 38.0397L43.1265 39.2845L43.4565 39.4419L43.7865 39.5993L44.3074 38.7105C47.4426 33.3607 50.3818 23.1305 51.3329 14.257C51.5331 12.3887 51.4992 7.96194 51.2749 6.71019C50.6198 3.05309 49.1325 1.45809 47.2517 2.39534ZM10.854 13.707C10.3209 14.0381 9.80508 15.1032 9.45464 16.5967C9.16642 17.8251 9.19671 21.4494 9.50978 23.1901C10.0482 26.184 12.0875 33.0063 13.3164 35.9247C13.5912 36.5777 13.7174 36.749 14.1308 37.0311L14.6201 37.365L15.3032 37.0089C15.6789 36.813 16.2556 36.5998 16.5848 36.5351L17.1833 36.4173L17.5673 35.1259C17.7785 34.4156 18.1337 33.445 18.3569 32.9688L18.7624 32.1034L18.4596 30.2306C17.4886 24.2258 16.5439 20.8931 14.8586 17.5285C13.2878 14.3923 11.8935 13.0617 10.854 13.707ZM45.0009 13.699C43.6601 14.3929 41.6925 17.8349 40.4495 21.6604C39.6814 24.0244 39.1188 26.5876 38.4799 30.6342C38.3016 31.7637 37.962 33.8446 37.7253 35.2584L37.2948 37.8289L38.623 38.066C39.3534 38.1963 40.439 38.44 41.0354 38.6074C42.0734 38.8989 42.1259 38.904 42.263 38.7262C42.55 38.3541 43.8163 35.6339 44.2612 34.4333C44.8449 32.8586 46.3964 27.8681 46.8628 26.0651C47.9548 21.8437 48.1009 18.0577 47.2669 15.5925C46.6704 13.8295 45.9354 13.2153 45.0009 13.699ZM23.8969 27.9065C24.2673 28.5987 23.7249 29.761 21.2341 33.6119C20.0022 35.5167 18.9719 37.1918 18.9719 37.2901C18.9719 37.3209 19.1127 37.5725 19.2848 37.8493C19.8354 38.7352 20.028 39.8225 19.7515 40.4844L19.6071 40.8301L20.0339 40.9897C21.0776 41.3797 23.0038 41.9002 24.2445 42.1275C27.4141 42.7081 29.1803 42.5366 29.9942 41.5693C30.4479 41.0301 30.5147 40.5707 30.3783 38.9278C30.1675 36.3894 29.9084 35.2552 29.1769 33.6697C28.3718 31.9246 25.7845 28.5842 24.801 28.0203C24.1558 27.6502 23.731 27.5967 23.8969 27.9065ZM21.9978 29.4652C21.3784 30.1495 20.6751 30.9696 20.4353 31.2878C19.6151 32.3758 18.9176 33.9045 18.3958 35.7584C18.1805 36.5233 18.1609 36.6953 18.2761 36.8106C18.3914 36.9259 18.5056 36.7931 18.9751 35.9989C19.2836 35.4767 19.9709 34.3794 20.5021 33.5606C22.4318 30.5862 23.156 29.2907 23.3289 28.5037C23.4435 27.9822 23.1465 28.1968 21.9978 29.4652ZM3.6491 35.102C3.22268 35.8396 3.16046 36.2592 3.1619 38.3865C3.16457 42.4195 3.68063 44.2332 5.67474 47.2168C6.70019 48.751 6.95011 49.0274 7.55406 49.2946C8.54265 49.7319 9.71513 49.254 11.2483 47.7891C12.6807 46.4205 14.0473 44.7016 15.107 42.9358L15.4885 42.2999L14.93 41.755C14.4654 41.3019 14.335 41.0915 14.156 40.5062C14.0376 40.119 13.9407 39.6692 13.9407 39.5065C13.9407 39.1326 13.997 39.1567 10.1416 37.8784C4.99984 36.1736 4.22616 35.8033 3.99421 34.9357L3.91545 34.6413L3.6491 35.102ZM4.80403 35.0513C5.19082 35.463 6.20087 35.8834 9.16611 36.8665C10.6909 37.3721 12.3894 37.9513 12.9406 38.1536C13.4916 38.3559 13.9709 38.493 14.0057 38.4583C14.3613 38.1027 11.246 36.1718 9.36295 35.5808C8.5753 35.3335 5.48089 34.7927 4.85424 34.7927H4.56109L4.80403 35.0513ZM15.9429 37.4106C14.7977 37.878 14.3759 38.6781 14.6491 39.8653C14.9308 41.0896 15.4478 41.6722 16.2509 41.6705C17.1673 41.6687 18.6029 41.0699 19.0067 40.5209C19.4191 39.9603 19.165 38.6663 18.4869 37.8742C17.8293 37.1059 17.0415 36.9623 15.9429 37.4106ZM31.0327 39.6878C31.0366 41.1062 31.0334 41.126 30.7256 41.6275C30.3826 42.1863 29.6669 42.7256 28.9992 42.9285C28.7335 43.0093 27.9879 43.057 27.0247 43.0548L25.4769 43.0514L26.0735 43.6039C27.1637 44.6131 28.3156 46.4201 28.3156 47.121C28.3156 47.5164 28.0711 47.6785 26.9295 48.0402C26.3647 48.2191 25.0765 48.7623 24.0668 49.2474C22.3195 50.0866 22.2179 50.122 21.9619 49.981C21.8139 49.8996 21.6236 49.6737 21.5389 49.479C21.0779 48.4197 18.0551 42.6182 18.0511 42.7851C18.0493 42.8608 18.1821 43.5076 18.3463 44.2226C18.5105 44.9376 18.7699 46.2157 18.923 47.0628C19.076 47.9099 19.3113 48.9848 19.446 49.4516C19.5806 49.9184 19.6906 50.4117 19.6906 50.5481C19.6906 50.8361 19.4635 51.0954 19.1444 51.172C16.5241 51.8003 15.1585 52.183 14.4465 52.4889C13.4274 52.9265 13.2305 52.9454 12.9406 52.6331C12.4314 52.0845 12.1979 50.0206 12.4324 48.1409L12.5157 47.4735L11.8163 48.1495C10.0919 49.8165 8.82943 50.353 7.50005 49.9837C6.95052 49.831 6.1139 49.0712 5.55461 48.2166L5.23456 47.7275L4.63625 48.73C3.56511 50.5246 2.75478 52.5389 2.31213 54.507C2.11858 55.3678 2.09219 55.8081 2.08767 58.2547C2.08305 60.7248 2.1079 61.1596 2.31562 62.2438C3.38522 67.8261 6.65388 72.3221 11.4607 74.8228C15.6276 76.9907 21.7807 78.1221 29.3937 78.1203C32.9998 78.1195 35.4132 77.9001 38.3781 77.3034C43.9448 76.1832 48.0215 74.1141 51.1547 70.8189C53.3268 68.5345 54.8268 65.553 55.5383 62.1051C55.7558 61.052 55.7819 60.658 55.7802 58.4601C55.7782 55.8135 55.6842 55.0218 55.1562 53.1994C54.2429 50.048 52.7537 47.5578 50.3697 45.1955C49.0258 43.8638 48.399 43.3444 47.0241 42.423C44.9373 41.0246 41.7904 39.7093 39.3535 39.2171C37.3029 38.803 34.3937 38.4334 32.3162 38.3231L31.0288 38.2548L31.0327 39.6878ZM18.74 41.5607C18.5844 41.6605 18.4352 41.764 18.4086 41.7906C18.3819 41.8171 18.85 42.7832 19.4487 43.9375C20.0475 45.0917 20.8781 46.6934 21.2948 47.497C21.7114 48.3006 22.0522 49.0297 22.0522 49.1174C22.0522 49.2051 22.1126 49.2999 22.1863 49.3283C22.2601 49.3565 23.0802 49.0124 24.0089 48.5636C25.4158 47.8837 26.1919 47.5777 27.5736 47.1585C27.7324 47.1102 27.5544 46.6382 27.0535 45.7793C26.6589 45.1027 24.7149 43.1276 24.2085 42.8888C24.0108 42.7957 23.3871 42.6159 22.8223 42.4893C22.2576 42.3628 21.2058 42.0578 20.485 41.8117C19.7641 41.5655 19.1403 41.3675 19.0988 41.3716C19.0572 41.3757 18.8958 41.4608 18.74 41.5607ZM16.6212 42.3221C16.199 42.4346 16.1296 42.5071 15.5431 43.451C15.1982 44.0058 14.5823 44.9061 14.1744 45.4519C13.5588 46.2751 13.4071 46.5576 13.2826 47.1127C13.0521 48.1394 12.9013 49.7562 12.9717 50.4461C13.0341 51.0576 13.3124 52.248 13.3929 52.248C13.4156 52.248 13.652 52.1379 13.9184 52.0033C14.562 51.6782 15.7325 51.3189 17.4831 50.9092C18.2737 50.7243 18.9521 50.5455 18.9906 50.5121C19.0291 50.4786 18.9533 50.0815 18.8223 49.6297C18.6912 49.1779 18.4386 48.0228 18.2611 47.0628C18.0835 46.1027 17.8267 44.8501 17.6904 44.2792C17.5541 43.7082 17.4111 43.0036 17.3726 42.7133C17.2971 42.1444 17.2944 42.1429 16.6212 42.3221ZM13.684 54.4441C12.848 54.6476 12.1842 55.0311 11.4996 55.706C10.7805 56.4148 10.4015 57.1239 10.22 58.0999C10.111 58.6865 10.1175 58.7384 10.3278 58.9487C10.5223 59.1431 10.5919 59.1576 10.8556 59.058C11.1468 58.9481 11.1642 58.9579 11.2747 59.2928C11.4372 59.7849 12.2849 60.6755 12.8766 60.9756C13.6357 61.3607 14.8629 61.3936 15.6154 61.0491C16.34 60.7175 16.9087 60.1955 17.2841 59.5181C17.5595 59.0209 17.5857 58.8871 17.5857 57.9809C17.5857 57.435 17.5565 56.9591 17.5207 56.9234C17.485 56.8876 17.2771 56.9804 17.0587 57.1296C16.7165 57.3633 16.58 57.3949 16.0701 57.3589C15.5652 57.3234 15.4258 57.2662 15.1184 56.9681C14.4753 56.345 14.4355 55.4243 15.0213 54.7279C15.2377 54.4708 15.2512 54.417 15.1129 54.3639C14.8681 54.27 14.2585 54.3042 13.684 54.4441ZM42.5094 54.3701C42.4174 54.4072 42.4539 54.5107 42.635 54.7261C43.211 55.4105 43.1726 56.3317 42.5418 56.9625C42.1907 57.3138 42.1414 57.3306 41.465 57.3306C40.8566 57.3306 40.7189 57.2955 40.4917 57.082C40.3461 56.9454 40.1923 56.8684 40.1497 56.911C40.1071 56.9535 40.0724 57.435 40.0726 57.9809C40.0728 58.8217 40.1093 59.0417 40.3109 59.42C40.6923 60.1356 41.2973 60.716 41.9819 61.0232C42.5334 61.2708 42.7065 61.2995 43.4448 61.2665C44.0788 61.238 44.4034 61.1674 44.7814 60.9756C45.378 60.673 46.2213 59.7836 46.3866 59.2827C46.4915 58.9647 46.5291 58.936 46.7124 59.034C47.0147 59.1959 47.3999 59.0645 47.4726 58.775C47.5573 58.4374 47.3595 57.5466 47.053 56.8853C46.7267 56.1816 45.6878 55.1515 44.9495 54.7998C44.1116 54.4006 42.9442 54.195 42.5094 54.3701ZM13.6637 58.6343C13.1879 58.8642 13.1607 59.6963 13.6209 59.9426C14.4594 60.3913 15.2299 59.3653 14.5158 58.751C14.2144 58.4918 14.0152 58.4645 13.6637 58.6343ZM43.2274 58.6377C42.9935 58.7504 42.8461 59.103 42.8725 59.4869C42.9031 59.9318 43.5698 60.1927 44.0371 59.9426C44.5129 59.688 44.4668 58.8572 43.9641 58.6283C43.6568 58.4882 43.5344 58.4897 43.2274 58.6377ZM28.5029 59.4913C27.6863 59.6893 27.0725 59.9985 26.6688 60.4151C26.3634 60.7301 26.3181 60.8492 26.2808 61.4342C26.2444 62.0071 26.2803 62.1855 26.5469 62.7553C26.8633 63.4315 27.4049 64.1107 27.92 64.4775L28.2116 64.6852L28.8246 64.2134L29.4376 63.7418L29.6079 64.328C29.8378 65.1189 29.766 66.7568 29.4678 67.5245C28.9651 68.8186 28.0888 69.5439 27.0241 69.5473C25.8677 69.5511 25.0314 68.7942 24.9272 67.6498C24.8839 67.1728 24.8421 67.0802 24.6587 67.054C24.2564 66.9966 24.2372 67.908 24.6246 68.6766C25.1702 69.759 26.8692 70.4209 27.9466 69.9707C28.1668 69.8786 28.355 69.8155 28.3645 69.8304C28.3739 69.8452 28.5051 70.0728 28.6558 70.3362C29.2866 71.438 30.5368 71.5688 31.3379 70.6168C31.4887 70.4375 31.6391 70.1561 31.6721 69.9915C31.7143 69.7805 31.7772 69.7095 31.8852 69.7509C32.782 70.0951 33.5976 70.0598 34.4582 69.6397C35.3369 69.2107 35.9179 68.1997 35.7623 67.3704C35.7087 67.0845 35.6558 67.0268 35.4716 67.053C35.2754 67.0809 35.2398 67.1641 35.1951 67.7011C35.1035 68.8001 34.3812 69.3953 33.1394 69.3953C32.3198 69.3953 31.9498 69.2254 31.373 68.5836C30.6229 67.7495 30.4231 67.1301 30.4258 65.6476C30.4273 64.7905 30.4738 64.3139 30.5783 64.082L30.7286 63.7485L31.3283 64.226L31.928 64.7035L32.1762 64.4055C32.8656 63.5777 33.4495 62.1721 33.4495 61.3405C33.4495 60.4653 32.7836 59.7777 31.6568 59.4894C30.9044 59.2969 29.3004 59.2978 28.5029 59.4913ZM49.7961 61.133C46.1029 62.7726 45.0515 63.3912 45.6001 63.6017C45.6839 63.6339 46.5537 63.2689 47.5329 62.7906C48.5121 62.3124 49.9949 61.6326 50.8279 61.28C52.6346 60.5152 52.7472 60.446 52.557 60.2167C52.4816 60.1259 52.3678 60.0559 52.3042 60.0612C52.2404 60.0666 51.1119 60.5489 49.7961 61.133ZM4.05787 60.8302C4.01546 60.8726 3.98086 60.9876 3.98086 61.0859C3.98086 61.2236 4.10428 61.2813 4.51992 61.3376C5.17778 61.4271 7.46669 61.983 9.2114 62.4771C9.9206 62.6781 10.9855 62.9529 11.5776 63.0877C12.5106 63.3001 12.6739 63.3133 12.8009 63.1861C13.023 62.9642 12.791 62.7568 12.2251 62.672C11.963 62.6327 10.9133 62.3712 9.89256 62.0908C6.1141 61.053 4.23992 60.648 4.05787 60.8302ZM9.52549 65.1377C6.5588 66.2671 5.39864 66.8044 5.44197 67.029C5.49413 67.3001 5.79919 67.2641 6.58961 66.894C7.0111 66.6966 8.06366 66.2753 8.92852 65.9579C11.9218 64.8594 12.4518 64.6263 12.4518 64.409C12.4518 64.2835 12.376 64.2045 12.2465 64.1951C12.1335 64.1869 10.9091 64.6111 9.52549 65.1377ZM46.233 64.3519C45.396 64.4259 45.2135 64.509 45.3504 64.7536C45.4341 64.9029 45.641 64.9205 47.0202 64.8952C48.4214 64.8696 49.203 64.9172 51.1711 65.1485C51.7137 65.2123 51.7263 65.2079 51.7263 64.9544C51.7263 64.655 51.6609 64.6365 50.0321 64.4772C48.511 64.3285 47.0443 64.2801 46.233 64.3519ZM10.5768 67.7302C9.09373 69.2389 7.89239 70.5389 7.90718 70.6189C7.96817 70.9499 8.23626 70.7965 9.28984 69.828C10.7258 68.5081 13.5813 65.4346 13.5813 65.209C13.5813 65.1129 13.512 65.0237 13.4273 65.0106C13.3426 64.9976 12.0598 66.2213 10.5768 67.7302ZM44.4618 65.6642C43.9761 65.8602 44.9384 66.6806 48.5942 69.1875C49.6105 69.8844 50.5166 70.4741 50.6079 70.498C50.776 70.5419 50.9495 70.2694 50.8529 70.1131C50.8241 70.0663 50.2348 69.6466 49.5435 69.1804C47.5919 67.8643 46.3055 66.9439 45.4348 66.2409C44.9955 65.8863 44.6259 65.5999 44.6131 65.6043C44.6005 65.6087 44.5324 65.6357 44.4618 65.6642ZM29.9054 67.9687C29.8086 68.1604 29.5454 68.5636 29.3206 68.8649C28.9631 69.3441 28.9206 69.4583 28.9808 69.7787C29.2161 71.0332 30.8143 71.0157 31.1733 69.7547C31.2471 69.495 31.2135 69.386 30.9593 69.0602C30.7935 68.8476 30.5281 68.4367 30.3697 68.147L30.0817 67.6203L29.9054 67.9687Z" fill="white" stroke="white"/>
</svg>
