<svg xmlns="http://www.w3.org/2000/svg" width="142" height="102" fill="none" viewBox="0 0 142 102"><g filter="url(#a)"><path fill="#00aacb" fill-rule="evenodd" d="M49.549 2.371v2.372h40.533V0H49.549zm45.24 0v2.372h7.387l-.169-.852C101.526 1.466 99.465 0 96.537 0h-1.748zm-77.274.39c-5.326 1.184-9.478 4.45-11.795 9.277-3.977 8.287-.497 18.282 7.765 22.308 2.943 1.434 5.143 1.873 8.449 1.685 4.19-.239 7.418-1.715 10.501-4.804 5.326-5.337 6.577-12.862 3.246-19.532-3.382-6.772-11.01-10.523-18.166-8.933m-.01 5.005c-4.006 1.276-7.15 4.54-8.216 8.528-.166.621-.302 2.02-.302 3.11 0 7.227 6.476 12.805 13.562 11.682 9.668-1.533 13.475-13.333 6.551-20.31-1.352-1.361-3.132-2.407-5.152-3.025-1.471-.45-5.01-.442-6.442.015M54.434 9.66c-.097.098-.177 1.227-.177 2.508v2.33l11.964-.068 11.963-.069V9.617L66.398 9.55c-6.483-.038-11.867.011-11.964.11m-36.07 2.822c-2.868 1.078-4.637 3.659-4.632 6.754.009 4.626 3.956 7.954 8.425 7.102 2.738-.521 5.16-2.98 5.638-5.724.554-3.175-.959-6.315-3.742-7.767-1.333-.695-4.304-.886-5.69-.365m23.76 8.912c-.457 5.523-3.508 11.194-7.926 14.731-2.977 2.384-5.737 3.605-10.34 4.575-.669.141-.72.245-.72 1.465v1.312h49.04c51.61 0 50.301.028 51.019-1.093.125-.196.288-3.143.362-6.548.152-6.969.323-7.71 2.202-9.549 1.793-1.755 2.358-1.904 7.567-1.996l4.673-.083-.152-.942c-.227-1.411-1.292-2.837-2.591-3.471l-1.146-.56H42.302zm8.95 3.382c-1.709.91-2.68 2.959-2.325 4.903.103.56.91 2.442 1.795 4.18 1.245 2.45 1.825 3.31 2.575 3.821l.968.659 17.774.071c17.637.07 17.782.067 18.916-.486 1.547-.755 2.55-2.456 2.523-4.28-.016-1.061-.333-1.949-1.636-4.585-1.437-2.909-1.748-3.355-2.826-4.043l-1.211-.774-17.797.012c-17.09.011-17.834.032-18.755.522m44.62.113c-1.114 1.121-.898 2.006 1.828 7.494 2.576 5.187 3.264 6.088 4.645 6.088.968 0 2.299-1.273 2.299-2.197 0-.943-5.067-11.096-5.793-11.609-.903-.637-2.224-.538-2.98.224m9.449.164c-.373.446-.677 1.087-.677 1.426 0 .822 4.801 10.53 5.612 11.347 1.379 1.39 3.802.38 3.802-1.585 0-1.164-4.959-11.307-5.732-11.724-1.03-.555-2.281-.332-3.005.536m-51.67 4.06c0 .07.496 1.137 1.104 2.371l1.104 2.244h16.417c9.028 0 16.416-.058 16.416-.128s-.497-1.137-1.105-2.371l-1.104-2.244H69.888c-9.03 0-16.417.057-16.417.128m75.71.501c-.833.84-.907 1.446-.984 8.158l-.067 5.757 1.768-.1c1.505-.086 1.874-.208 2.484-.823l.716-.722V30.256l-.734-.636c-.98-.85-2.343-.853-3.183-.007M23.04 48.812c-.086.326-.159 1.082-.16 1.68-.008 2.048-1.101 7.608-2.104 10.687a42 42 0 0 1-4.894 10.199c-1.9 2.873-6.823 7.861-9.7 9.829L4 82.698l1.709 1.722c4.318 4.351 10.632 7.87 16.537 9.217L23.84 94l1.567-2.009c8.42-10.79 13.624-25.397 14.375-40.348l.172-3.424h-7.062l-.172 2.832c-.689 11.391-5.658 23.554-13.551 33.17-2.18 2.654-3.168 3.034-4.641 1.785-.588-.498-.805-.907-.804-1.515.002-.976.339-1.535 2.593-4.304C20.962 74.48 24.759 66.834 26.5 59.68c.613-2.515 1.256-6.6 1.485-9.42l.165-2.042h-2.476c-2.347 0-2.484.03-2.634.593m21.451 3.162c-.092 2.065-.244 4.26-.336 4.878l-.168 1.123 8.73-.07 8.73-.069.072-4.808.07-4.81H50.505l.579.622c.318.341.647 1.047.731 1.568.131.813.039 1.063-.644 1.751-.858.864-1.846 1.026-2.842.464-.742-.42-2.037-2.079-2.625-3.366-.817-1.785-1.03-1.306-1.212 2.717m21.794 1.103v4.858l4.642.089c2.553.048 4.822.178 5.043.286.313.154.63-.273 1.429-1.923.565-1.167 1.286-2.367 1.603-2.667.85-.805 2.297-.77 3.138.078 1.047 1.055.896 2.087-.793 5.415-1.27 2.502-1.433 2.989-1.223 3.653.134.422.316 1.313.404 1.98.173 1.306.851 2.251 1.781 2.481.32.08 10.76.11 23.202.07l22.62-.075 1.45-.686c2.46-1.162 4.318-3.173 5.135-5.558.288-.841 2.698-12.252 2.698-12.777 0-.045-3.15-.082-6.999-.082h-6.999l.004 2.174c.004 2.298-.5 3.754-1.786 5.163-1.842 2.017-5.379 2.74-7.954 1.624-.745-.323-1.482-.743-1.639-.933-.229-.279-.543-.184-1.608.483-1.074.673-1.666.849-3.137.932-2.995.17-5.176-1.007-6.699-3.617-.625-1.072-.709-1.487-.708-3.52l.001-2.306H66.285zm38.944-4.088c-.522.526-.764 1.034-.764 1.601 0 1.174 1.226 2.372 2.428 2.372 1.263 0 2.279-1.057 2.279-2.372 0-2.175-2.404-3.151-3.943-1.601m9.6-.076c-2.15 2.168.842 5.416 3.148 3.418 1.601-1.388.545-4.112-1.593-4.112-.586 0-1.087.224-1.555.694M88.982 53.36c-.49.275-1.157 1.3-2.158 3.316-1.56 3.139-1.654 3.556-1.065 4.703.504.981 1.573 1.357 2.76.97.799-.262 1.078-.632 2.403-3.194.893-1.726 1.502-3.24 1.507-3.74.013-1.725-1.95-2.896-3.447-2.055" clip-rule="evenodd"/></g><defs><filter id="a" width="142" height="102" x="0" y="0" color-interpolation-filters="sRGB" filterUnits="userSpaceOnUse"><feFlood flood-opacity="0" result="BackgroundImageFix"/><feColorMatrix in="SourceAlpha" result="hardAlpha" values="0 0 0 0 0 0 0 0 0 0 0 0 0 0 0 0 0 0 127 0"/><feOffset dy="4"/><feGaussianBlur stdDeviation="2"/><feComposite in2="hardAlpha" operator="out"/><feColorMatrix values="0 0 0 0 0 0 0 0 0 0 0 0 0 0 0 0 0 0 0.25 0"/><feBlend in2="BackgroundImageFix" result="effect1_dropShadow_186_25264"/><feBlend in="SourceGraphic" in2="effect1_dropShadow_186_25264" result="shape"/></filter></defs></svg>