<svg width="63" height="78" viewBox="0 0 63 78" fill="none" xmlns="http://www.w3.org/2000/svg">
<path fill-rule="evenodd" clip-rule="evenodd" d="M7.94702 0.65361C7.39173 1.20891 7.29526 1.49805 7.43395 2.19016C7.52774 2.65915 7.69957 4.66629 7.81555 6.65045C8.00127 9.82697 8.11457 10.4298 8.76447 11.697L9.50255 13.136L8.83822 14.3693C8.47292 15.0475 7.93553 16.4072 7.64372 17.3908C7.32118 18.4776 6.73809 19.6366 6.15714 20.3456C5.24349 21.4607 4.13049 23.5552 4.1182 24.1832C4.11499 24.3465 4.43112 24.9477 4.82074 25.5193C5.21062 26.0912 5.70205 27.2202 5.91316 28.0286C6.124 28.837 6.48396 29.7073 6.71244 29.9625C7.09029 30.3845 7.05983 30.75 6.37626 33.9709C5.9626 35.9203 5.47571 37.7556 5.29453 38.0496C5.11335 38.3435 4.63501 39.7612 4.23204 41.1999C3.57974 43.5277 3.34164 43.9922 2.07231 45.4149C1.28746 46.2943 0.568891 47.3192 0.475362 47.6919C0.201455 48.7825 0.522662 50.3156 1.44299 52.3123C1.91571 53.3376 2.33553 54.5762 2.37641 55.065C2.41703 55.554 2.46353 56.105 2.47956 56.2902C2.49586 56.4751 3.14015 57.3399 3.9119 58.2119C4.68338 59.0838 5.58634 60.1554 5.91851 60.5928C6.42303 61.258 6.91045 61.4798 8.89114 61.9447C11.4514 62.5457 13.562 62.654 14.6504 62.2403C15.26 62.0083 15.3358 62.046 15.3358 62.5797C15.3358 63.5604 14.3027 66.9908 13.5746 68.4277C13.202 69.1628 12.3982 70.3057 11.7881 70.9677L10.6789 72.171L10.3555 71.2774L10.0319 70.384L10.0132 71.7202C9.98089 74.0084 10.3956 74.9843 11.6743 75.6281C12.2919 75.9389 13.3688 76.6 14.0671 77.0968C15.2845 77.9626 15.4369 78 17.7526 78C21.8658 78 25.3071 77.0749 32.2556 74.1014C36.4941 72.2878 41.5719 69.6091 43.1745 68.3416C44.2589 67.4838 44.3134 67.5111 44.5763 69.0479C44.8762 70.8004 45.0116 71.0705 45.7251 71.3418C46.2224 71.531 46.5618 71.4989 46.9824 71.2231C47.7336 70.7312 51.0194 64.3011 51.2656 62.8413L51.4564 61.712L54.3531 61.7724C56.9324 61.8261 57.3327 61.7713 58.005 61.2719C59.3222 60.2936 59.0237 58.5496 57.4556 58.0633C56.0358 57.6232 54.5084 55.8557 53.9608 54.0193C53.7884 53.4413 53.8411 53.4218 55.5067 53.4469C57.2739 53.4734 58.5443 53.064 58.9216 52.3462C59.0376 52.1258 59.2035 51.4989 59.2906 50.9532C59.424 50.1162 59.6984 49.7859 61.0418 48.8434C61.918 48.2288 62.635 47.6893 62.635 47.6446C62.635 47.6 62.2443 47.7267 61.7665 47.926C61.2887 48.1254 60.0065 48.473 58.9171 48.6983C57.1563 49.0625 56.8501 49.0636 56.1636 48.7087C54.9474 48.08 53.4418 46.4247 52.6615 44.8591C51.6568 42.8423 51.7081 42.6208 53.2727 42.2199C54.8996 41.8028 56.4896 40.6842 57.5644 39.2005C58.6482 37.7041 58.811 36.9593 58.2012 36.2856C57.8826 35.9334 57.8113 35.6814 57.9959 35.5614C58.1517 35.4602 58.4262 35.0986 58.6055 34.7582C58.8732 34.2499 58.8553 34.0225 58.5058 33.4888C58.2714 33.1313 57.9323 32.8309 57.7519 32.8216C56.2362 32.7427 55.5195 32.5282 54.5639 31.867C53.3339 31.0159 51.6496 29.0082 50.8489 27.4394C50.3901 26.5396 50.3653 26.278 50.6488 25.3317C50.9133 24.4483 50.8922 23.7305 50.5326 21.3966C50.2907 19.8266 50.0251 18.0183 49.9428 17.3783C49.7432 15.8289 49.1857 14.7798 47.7921 13.3311C47.1561 12.6697 46.3571 11.6425 46.0172 11.0482C45.677 10.4539 44.3433 8.51302 43.0531 6.73489C40.4509 3.14897 39.8739 2.73317 37.8804 3.00627C36.0323 3.25961 33.2267 2.34248 32.599 1.27946C32.3365 0.835592 31.8024 0.35004 31.4117 0.200393C30.4582 -0.164371 28.8821 0.315836 28.3455 1.13489C27.9719 1.70488 27.6855 1.77596 25.1762 1.92187C21.3495 2.1442 18.7467 2.90954 15.9518 4.63502L14.8305 5.32714L13.2758 3.258C10.8512 0.0312392 9.31843 -0.717798 7.94702 0.65361ZM9.33072 2.2412C9.43334 2.68213 9.58138 4.42578 9.65995 6.11599C9.75241 8.1055 9.87373 8.95341 10.0039 8.52103C10.1148 8.1536 10.2171 7.38345 10.2318 6.80945L10.2585 5.76593L11.3926 7.47751C12.0164 8.41895 12.6136 9.30935 12.7197 9.45633C12.9078 9.71714 14.501 8.09775 14.5232 7.62289C14.5342 7.3904 12.814 5.37043 10.4365 2.82349C9.21314 1.51328 9.15435 1.48228 9.33072 2.2412ZM29.5168 2.07392C29.3599 2.36707 29.2306 2.82536 29.229 3.09205C29.2247 3.90202 28.0053 6.1852 26.976 7.3113C25.8766 8.51355 25.6225 9.23239 25.8595 10.4683C25.9768 11.0803 25.9488 11.2117 25.7614 10.9261C25.6169 10.7056 25.4969 9.9539 25.4945 9.25591C25.4897 7.73592 25.2558 7.67526 23.2578 8.67389C21.334 9.63537 20.4599 10.5333 19.5751 12.4567C19.1542 13.372 18.8098 14.1878 18.8098 14.2696C18.8098 14.3517 19.3809 14.3434 20.0791 14.2517C20.7913 14.1582 22.8145 14.2827 24.6888 14.5358C26.526 14.7835 28.5577 15.0523 29.2041 15.1333L30.3788 15.28L30.2404 14.0526C30.1226 13.0064 30.1953 12.7376 30.7334 12.232C31.0806 11.906 31.6209 11.1097 31.9341 10.463C32.77 8.73615 32.5682 5.53558 31.483 3.31011C30.6562 1.61429 29.9879 1.19394 29.5168 2.07392ZM23.2618 3.72378C17.8328 4.63476 14.7487 6.9134 12.6767 11.5442C11.6401 13.8608 11.484 15.0911 12.1436 15.7506C12.8154 16.4224 13.5999 16.4072 15.3292 15.6886C16.6904 15.1229 16.7634 15.0366 17.9071 12.6371C20.326 7.5641 23.0659 5.11069 27.2942 4.23178C28.0657 4.07144 28.6972 3.82853 28.6972 3.69198C28.6972 3.39589 25.0902 3.41674 23.2618 3.72378ZM29.6814 4.89156C29.4393 5.60185 28.8407 6.67877 28.3511 7.28511C27.4931 8.34734 27.4728 8.42644 27.7913 9.45633C27.973 10.0442 28.1357 11.1265 28.1531 11.8614L28.1844 13.1975L28.939 12.3159C29.354 11.8309 29.8901 10.8251 30.1306 10.0806C30.583 8.67977 30.7008 5.08236 30.3257 4.12328C30.1573 3.69251 30.0437 3.82773 29.6814 4.89156ZM32.4384 4.09923C32.4384 4.47388 33.9233 5.04254 34.9102 5.04548C35.8602 5.04869 35.3362 4.52092 33.9931 4.12221C32.3186 3.62491 32.4384 3.62651 32.4384 4.09923ZM26.2534 4.77211C24.6506 5.25659 22.1758 6.82548 21.0644 8.06167C20.4124 8.78692 19.8787 9.48786 19.8787 9.6188C19.8787 10.1113 20.3728 9.82697 21.0427 8.94833C22.008 7.68301 24.7353 5.92626 26.5268 5.41586C27.353 5.18043 28.1435 4.88087 28.283 4.7502C28.5954 4.45785 27.2448 4.47255 26.2534 4.77211ZM36.8845 5.1807C36.8 5.40116 36.4289 5.58154 36.0598 5.58154C35.1932 5.58154 33.24 6.36184 33.24 6.70817C33.24 6.85488 33.4503 6.90431 33.7077 6.81826C34.0129 6.71592 33.9664 6.81025 33.5741 7.0895C32.8755 7.58654 32.7195 9.05549 33.3654 9.05549C33.5992 9.05549 33.6973 9.21288 33.6083 9.4451C33.4819 9.77406 33.805 9.81147 35.6876 9.68641C37.7316 9.55039 39.196 9.72569 40.5888 10.2724C41.1184 10.4803 41.1184 10.4769 40.6064 9.89378C40.3221 9.57017 39.6845 9.05522 39.1893 8.74924C38.6944 8.44327 38.3481 8.13409 38.4197 8.06221C38.6899 7.79231 41.449 9.28904 42.9577 10.5242C44.7682 12.0062 44.6172 11.5591 42.4169 8.92187C41.5583 7.89305 40.5236 6.54008 40.1174 5.91557C39.4338 4.86484 39.2911 4.77986 38.2086 4.77986C37.4149 4.77986 36.989 4.90893 36.8845 5.1807ZM14.4802 11.153C13.0756 12.2438 12.011 14.0566 12.4557 14.6004C12.612 14.7912 13.3365 14.9345 14.147 14.9345C16.1196 14.9345 16.5122 14.4986 16.2717 12.5754C15.9582 10.0659 15.9195 10.0351 14.4802 11.153ZM34.3089 11.7836L33.3737 12.0848L34.1753 12.2756C34.6983 12.3998 34.7913 12.4776 34.4426 12.4992C33.4808 12.5588 31.9039 13.0834 31.9039 13.3437C31.9039 13.4837 32.2347 13.6104 32.6388 13.6251C33.0428 13.6398 33.6743 13.7557 34.0417 13.8829C34.5882 14.0724 34.5024 14.1026 33.5717 14.0494C32.8854 14.0104 32.4696 14.0935 32.5247 14.2592C32.5746 14.4102 33.1882 14.5654 33.8878 14.6042C34.5877 14.6432 35.3797 14.7926 35.6483 14.9363C36.2773 15.2728 36.7976 16.8556 36.6619 18.0185C36.5593 18.898 36.59 18.9317 37.637 19.088C38.2316 19.1767 39.0568 19.1203 39.4704 18.9624C40.748 18.4755 43.1504 18.6102 44.1597 19.2256C44.6538 19.5268 45.1137 19.7178 45.1816 19.6502C45.3152 19.5163 44.7375 18.3969 43.9946 17.3507L43.5283 16.6942L44.3861 17.3264C45.5907 18.2144 46.836 19.8311 47.9974 22.0152C48.5447 23.0445 48.9955 23.8069 48.9995 23.7097C49.0032 23.6124 48.8319 22.621 48.6187 21.5064C48.212 19.3801 47.4255 17.3318 46.6636 16.4141C46.4151 16.1146 46.6604 16.2842 47.2082 16.7906C48.2657 17.7679 48.434 17.6041 47.8386 16.179C47.3598 15.0325 45.6923 13.6277 43.4724 12.5008C41.7646 11.6337 41.546 11.5917 38.4654 11.5383C36.6405 11.5065 34.8389 11.6128 34.3089 11.7836ZM13.3741 13.0639C12.9864 13.7205 12.9701 13.8656 13.2854 13.8656C13.4971 13.8656 13.7445 13.6553 13.8351 13.3979C13.926 13.1406 14.07 12.7801 14.1558 12.5962C14.4772 11.9065 13.8284 12.2948 13.3741 13.0639ZM15.4425 13.4391C15.1656 14.1601 15.4858 14.5841 15.8262 13.9479C16.0325 13.5628 16.0469 13.3068 15.8692 13.1967C15.7207 13.105 15.5288 13.2141 15.4425 13.4391ZM26.6604 13.2782C26.9474 13.7426 28.8559 14.2357 29.412 13.9893C29.7848 13.8241 29.6162 13.7306 28.6972 13.593C28.0358 13.4941 27.2646 13.314 26.9832 13.193C26.6256 13.0393 26.5284 13.065 26.6604 13.2782ZM19.0522 14.9385C17.654 15.1568 16.3142 15.6025 13.9495 16.6351C12.9848 17.0565 12.9452 17.0506 12.0789 16.3553L11.1938 15.645L12.0452 16.5368L12.8966 17.4285L15.0122 16.5926C18.9971 15.0179 21.2079 14.8524 26.4578 15.7359C28.2039 16.0298 30.0111 16.3337 30.4737 16.4112C31.0758 16.5119 31.3604 16.7329 31.4747 17.188C31.5627 17.5381 31.708 18.0159 31.7978 18.25C31.8876 18.4841 31.8411 18.6757 31.6941 18.6757C31.5474 18.6757 31.351 18.371 31.2575 17.9985C31.0333 17.106 30.5549 16.9371 26.2996 16.25C21.726 15.5117 18.9552 15.6285 16.2711 16.6731C15.2423 17.0734 13.9385 17.4611 13.3741 17.5343C12.4621 17.6527 12.2315 17.5544 11.3079 16.6525C10.7361 16.094 10.1893 15.7164 10.0926 15.8131C9.99585 15.9099 9.75508 16.6121 9.55733 17.3743L9.19818 18.7596L10.5952 21.3792C11.918 23.8593 12.0209 23.9788 12.5284 23.6252C15.0053 21.8987 18.6273 19.8154 20.0984 19.2708C22.1993 18.4931 25.6134 18.3702 29.7185 18.9242C31.0889 19.1091 32.2481 19.2192 32.2951 19.1684C32.3419 19.1179 32.2486 18.4413 32.0875 17.665C31.7532 16.0531 32.1257 16.2295 27.4947 15.4906C23.2327 14.8108 20.8608 14.6558 19.0522 14.9385ZM33.1425 15.4884C32.3887 16.0811 32.2337 17.0335 32.6936 18.2435C32.9624 18.9501 34.2106 19.9319 34.488 19.6545C34.5772 19.5653 34.3493 19.3779 33.9816 19.2382C33.193 18.9383 32.9656 18.4501 32.9931 17.1172L33.0134 16.137L33.3272 16.9937C33.8434 18.4036 34.2576 18.6513 34.8624 17.9111C35.1459 17.5643 35.3778 17.4069 35.3778 17.5613C35.3778 17.716 35.2576 17.9167 35.1106 18.0076C34.9636 18.0984 34.8474 18.316 34.8522 18.491C34.8573 18.666 35.0828 18.5439 35.3535 18.2195C35.6245 17.8948 35.9211 17.7045 36.0128 17.7962C36.2709 18.0543 36.2105 17.3713 35.8765 16.2567C35.6812 15.6041 35.3728 15.1915 35.008 15.0935C34.112 14.853 33.8907 14.8997 33.1425 15.4884ZM33.6427 16.5349C33.5492 16.6861 33.6564 16.731 33.8942 16.6399C34.357 16.4622 34.4418 16.2706 34.0575 16.2706C33.9191 16.2706 33.7325 16.3895 33.6427 16.5349ZM27.8955 17.3425C27.2691 17.5405 27.2825 17.5552 28.1117 17.58C28.598 17.5947 28.9307 17.7123 28.8508 17.8414C28.7274 18.0415 29.8604 18.4084 30.6012 18.4084C31.1816 18.4084 30.7575 17.5995 30.1001 17.4534C28.6886 17.1394 28.559 17.1327 27.8955 17.3425ZM11.3469 18.8453C10.619 19.7705 10.6428 19.9915 11.6139 21.3319C12.5249 22.5897 12.2988 22.6197 14.1822 20.9912L14.7656 20.4866L14.1959 19.3141C13.6975 18.2882 13.5179 18.1412 12.7633 18.1412C12.1497 18.1412 11.7408 18.3446 11.3469 18.8453ZM12.1599 18.8445C11.4851 19.3173 11.429 20.1876 12.0308 20.8525C12.4503 21.3159 12.4952 21.314 13.217 20.7998C13.8875 20.3226 13.9385 20.1833 13.6975 19.492C13.3624 18.5305 12.8915 18.3323 12.1599 18.8445ZM21.4014 19.503C19.8621 19.8651 17.8852 20.8816 14.9692 22.8099C13.5182 23.7695 12.1802 24.5546 11.9958 24.5546C11.8111 24.5546 11.3149 23.8935 10.8927 23.0857C10.4704 22.2776 10.0047 21.6523 9.85769 21.6961C9.71072 21.7397 9.30774 22.3105 8.96222 22.9646C8.46411 23.9074 8.37111 23.9911 8.51248 23.3684C8.61055 22.9366 8.9232 22.2565 9.20726 21.8575C9.82135 20.9954 9.84781 20.7143 9.35424 20.3047C9.05949 20.0602 8.7332 20.2774 7.74794 21.3733C6.44948 22.8174 6.05158 23.7201 6.4265 24.3721C6.86449 25.1337 9.72408 28.0428 9.72408 27.7264C9.72408 27.5497 9.78047 27.4613 9.84914 27.5302C9.91809 27.5992 9.73851 28.4308 9.44991 29.3786C9.00364 30.8452 7.31904 38.107 7.31904 38.5648C7.31904 38.6487 8.32194 38.7177 9.54798 38.7177C10.774 38.7177 12.3672 38.8967 13.0887 39.1156C14.9176 39.6703 15.0991 39.6292 16.0039 38.4504C17.103 37.0189 17.4004 37.1162 16.5541 38.6303C16.1701 39.3173 15.9494 39.9619 16.0635 40.0629C16.1779 40.1639 16.8724 40.5765 17.6073 40.9795L18.9434 41.7125L20.5609 40.1484C21.4508 39.2879 22.6859 38.1843 23.3056 37.6958C23.9333 37.2011 24.7412 36.195 25.1294 35.4244C26.127 33.4442 26.6561 32.7727 27.6697 32.2L28.5636 31.6949L27.4663 32.8681C26.8629 33.5134 25.9824 34.7322 25.5097 35.5769C24.9785 36.5267 23.8393 37.8489 22.525 39.0413C19.9722 41.3576 18.755 42.985 21.0994 40.9474C24.1506 38.2957 27.5473 34.5965 28.3001 33.1059C29.4307 30.8671 30.5667 27.2902 30.4066 26.4731C30.3241 26.0514 30.5565 24.9336 30.9726 23.753C32.1324 20.4613 32.2663 20.0179 32.1391 19.8907C32.0723 19.8237 31.5212 19.6898 30.9149 19.5928L29.8126 19.4164L29.962 21.5996C30.091 23.4812 30.0403 23.8823 29.5951 24.5028C29.311 24.8988 28.6945 26.014 28.2253 26.9811C27.2015 29.0914 26.7168 29.3647 23.9959 29.3647C22.225 29.3647 21.916 29.4409 21.3364 30.0208C20.7336 30.6234 20.6804 30.6346 20.6804 30.157C20.6804 29.8714 20.9094 29.0352 21.1892 28.2988C21.7207 26.8996 21.6659 26.7357 20.8685 27.3407C20.6042 27.5409 20.1446 27.6411 19.8466 27.5631C19.4568 27.4613 18.9731 27.7469 18.122 28.5823C17.4715 29.221 16.9392 29.6242 16.9392 29.4788C16.9392 29.3335 17.6607 28.5005 18.5426 27.6277C19.9733 26.212 20.1462 25.925 20.1478 24.9638C20.1494 24.1126 20.4297 23.4756 21.4839 21.9283C22.7142 20.1227 23.1156 19.1703 22.6178 19.2368C22.5077 19.2518 21.9601 19.3712 21.4014 19.503ZM23.5074 19.8889C23.4138 20.2624 22.6792 21.2835 21.8751 22.1582C20.2795 23.8938 20.0067 24.9058 20.9139 25.7267C21.3883 26.1559 21.5131 26.1281 23.2901 25.2C24.8024 24.4101 25.5466 24.1942 27.1318 24.0862C29.6408 23.9152 29.8679 23.7345 29.649 22.0836C29.3016 19.4664 28.9305 19.2101 25.4859 19.2101C23.7725 19.2101 23.6688 19.2456 23.5074 19.8889ZM39.8218 20.1489C39.2983 20.6724 39.3742 21.0297 40.5011 23.3521C41.3325 25.065 41.1649 24.9309 39.0525 22.1918C38.0969 20.9527 37.6183 20.5462 37.1151 20.5462C36.0839 20.5462 36.2902 21.2098 37.847 22.9005C38.6172 23.7367 38.9162 24.1279 38.5116 23.7698C37.9593 23.281 37.6995 23.195 37.47 23.4245C37.1175 23.777 36.9123 23.4774 40.3456 27.6277C44.4606 32.6022 46.6361 34.2197 50.4067 35.1085C52.374 35.5724 53.6158 35.6007 52.1682 35.1488C51.629 34.9805 51.0916 34.7464 50.9737 34.6283C50.8562 34.5104 50.9965 34.4901 51.2859 34.5834C51.8021 34.7496 51.8021 34.7445 51.2778 34.3186C50.9839 34.0797 50.5029 33.7114 50.2089 33.4998C49.915 33.2884 50.4561 33.4739 51.4115 33.9121C52.7492 34.5257 53.5169 34.7052 54.7518 34.6938L56.3552 34.6785L54.961 34.0449C52.2735 32.8232 49.5914 29.6517 47.6131 25.3563C46.4023 22.7268 45.5787 21.8017 43.5785 20.8239C41.3709 19.7448 40.4004 19.5703 39.8218 20.1489ZM32.1711 22.2835C31.9881 22.5039 31.7826 23.1953 31.7142 23.82C31.6006 24.8628 31.6736 25.0319 32.6099 25.8908C33.1706 26.4052 33.403 26.5556 33.1262 26.2248C32.7884 25.8216 32.7352 25.6235 32.964 25.6235C33.2403 25.6235 33.24 25.5447 32.9624 25.2101C32.6882 24.8799 32.5749 24.8662 32.3993 25.1433C32.2783 25.3339 32.1775 25.4095 32.1751 25.3114C32.173 25.2131 32.0998 24.9125 32.0124 24.6434C31.8801 24.2361 31.902 24.2211 32.1417 24.5546C32.3857 24.8938 32.4309 24.8962 32.4343 24.5704C32.4373 24.2957 32.5479 24.3342 32.8205 24.704C33.1957 25.2134 33.2128 25.212 33.7694 24.618C34.0813 24.2853 34.2515 23.8759 34.1478 23.7083C34.0316 23.5205 34.0778 23.4764 34.2675 23.594C34.9214 23.998 34.5356 23.2319 33.7539 22.5742C32.8005 21.772 32.6225 21.7391 32.1711 22.2835ZM32.9728 23.3235C32.9728 23.3812 33.1593 23.5002 33.3876 23.5878C33.6254 23.6789 33.7325 23.634 33.639 23.4828C33.4821 23.2287 32.9728 23.1071 32.9728 23.3235ZM34.1363 26.9038C33.674 27.8899 32.9148 29.8623 32.4493 31.2869C31.9835 32.7117 31.1485 34.5756 30.5932 35.4289C29.6715 36.8455 27.4324 39.2142 25.7577 40.5444C25.154 41.0241 25.0896 41.2641 25.0896 43.0363C25.0896 44.9892 25.0928 44.9978 25.8435 45.0838C26.2579 45.1314 26.9688 45.0405 27.4233 44.8823C28.6138 44.4673 28.6232 44.7092 27.4487 45.54C26.8859 45.9379 26.6663 46.1757 26.9602 46.068C32.5565 44.0194 32.7914 43.9032 34.0802 42.5476C36.0956 40.4279 37.3203 36.7551 37.3575 32.719C37.3834 29.8746 37.0796 29.183 36.5515 30.8852C36.2479 31.8638 36.2346 31.8197 36.2076 29.7463C36.1817 27.7611 35.5716 25.0739 35.1523 25.1001C35.0558 25.1059 34.5989 25.9175 34.1363 26.9038ZM25.9581 25.8077C25.3988 25.9538 25.3312 26.4252 25.8694 26.4252C26.449 26.4252 27.0938 26.1286 27.0938 25.8622C27.0938 25.6145 26.7587 25.5984 25.9581 25.8077ZM27.8955 26.0567C27.8955 26.197 27.5567 26.7176 27.1427 27.2135C26.441 28.054 26.2296 28.1349 24.0234 28.4059C22.5822 28.5831 21.6138 28.8281 21.5465 29.0328C21.462 29.2899 21.6026 29.3057 22.1445 29.0996C22.5341 28.9516 23.6763 28.8303 24.6824 28.8303C26.3865 28.8303 26.558 28.7755 27.1852 28.0299C27.9091 27.1697 28.3092 26.2155 28.0534 25.9597C27.9666 25.8729 27.8955 25.9164 27.8955 26.0567ZM38.9972 28.8971C39.3702 30.1327 40.813 33.262 41.2934 33.8768C41.5671 34.2274 41.7913 34.6919 41.7913 34.9091C41.7913 35.1264 41.4003 34.7266 40.9228 34.0209C39.5984 32.0642 39.2858 32.2997 40.3031 34.4877C41.3929 36.8321 41.8183 38.335 40.8621 36.4636C40.4915 35.7383 39.9242 34.8637 39.6011 34.5198C39.0763 33.9613 38.9876 33.9415 38.7674 34.3351C38.3879 35.0134 38.7428 36.8204 39.6302 38.7265C40.5663 40.7374 41.2023 43.0219 41.4375 45.2158C41.5521 46.2874 41.6817 46.661 41.8544 46.4183C42.0257 46.1776 42.0564 46.2775 41.9516 46.7345C41.8675 47.1019 41.7969 47.7 41.795 48.0634L41.7913 48.724L41.352 48.0968C41.1104 47.7518 40.6994 46.9135 40.4389 46.2337C39.8109 44.5959 39.5209 45.2765 39.739 47.8769C40.0618 51.7276 42.8538 55.3132 47.3371 57.6354C49.3356 58.6704 52.1811 59.6824 52.4202 59.4432C52.4841 59.3794 52.0985 58.9425 51.563 58.4724C51.0275 58.0021 50.454 57.3647 50.2886 57.0556C50.1178 56.7362 50.5644 57.0115 51.3238 57.6934C52.6693 58.9021 54.7187 59.8425 55.9543 59.8182C56.5713 59.8059 56.5492 59.7663 55.6676 59.3003C53.6936 58.2567 51.8772 55.5631 51.1378 52.5833C50.8842 51.5606 50.6496 51.2479 49.7619 50.749C49.1732 50.4182 47.9113 49.5494 46.9573 48.8183C46.0036 48.0872 45.1792 47.5332 45.1255 47.5869C45.0314 47.681 45.2481 48.8017 45.6324 50.2084C45.7329 50.5759 45.4595 50.2151 45.0253 49.4067C44.5908 48.5984 44.156 47.4864 44.059 46.936C43.943 46.2788 43.6122 45.7235 43.0951 45.3187L42.3078 44.7025L42.9759 42.2058C43.858 38.9101 44.0448 37.0528 43.6883 35.1275C43.2854 32.9525 42.5238 31.4932 40.8881 29.7637C39.409 28.1993 38.6869 27.8685 38.9972 28.8971ZM30.0536 30.8414C28.7643 34.2873 27.7397 35.6408 23.5862 39.3828C21.8409 40.9552 20.4132 42.3461 20.4132 42.4735C20.4132 42.6013 20.9073 42.8386 21.5109 43.001C22.5277 43.2749 22.6392 43.2509 23.0186 42.6774C23.2439 42.3367 24.8486 40.6751 26.5848 38.9849C29.2292 36.4104 29.8829 35.6082 30.6132 34.0412C31.6206 31.8801 31.843 29.5809 31.0603 29.424C30.7364 29.3588 30.4657 29.7399 30.0536 30.8414ZM21.012 33.5083C20.4276 34.4121 20.5118 34.771 21.1568 34.1259C21.6667 33.616 21.8615 34.1013 21.5518 35.1104C21.1413 36.4478 21.4086 36.2643 22.0382 34.7761C22.3334 34.0778 22.773 33.3566 23.0149 33.1727C23.4109 32.8721 23.3983 32.8387 22.8911 32.8387C22.5812 32.8387 22.1672 32.7791 21.9716 32.7067C21.768 32.631 21.3573 32.9742 21.012 33.5083ZM44.4636 34.8712C44.4636 35.8549 44.6381 36.3244 45.3321 37.2084L46.2005 38.3149L45.4103 37.6995C44.63 37.0916 44.6178 37.0908 44.4205 37.6234C44.311 37.9203 44.0841 39.4344 43.9168 40.9883C43.6472 43.4919 43.6627 43.8901 44.0526 44.485C44.975 45.893 47.7782 48.3285 49.5443 49.2566C51.3748 50.2183 54.8766 51.2803 56.1975 51.2741C56.8105 51.2712 56.7523 51.1929 55.6871 50.5887C54.1564 49.7202 52.3561 47.9835 51.5167 46.5653C51.1571 45.9579 50.2768 43.6557 49.5604 41.4498C48.2478 37.4077 46.9643 34.9137 45.7639 34.0727C44.7353 33.3525 44.4636 33.5196 44.4636 34.8712ZM50.7103 36.2589C50.8054 36.4128 51.5106 36.7474 52.2775 37.0021C53.4213 37.3821 53.5768 37.5023 53.1428 37.6717C52.8521 37.7853 52.1931 37.8906 51.6787 37.9058C50.7971 37.9315 50.7733 37.9555 51.2621 38.3254C51.5475 38.541 52.2089 38.7262 52.7318 38.7364C53.4507 38.7505 53.5568 38.8048 53.1661 38.9576C52.5942 39.1816 52.9873 39.5982 53.592 39.409C53.789 39.3472 54.3109 39.2086 54.7518 39.1009L55.5535 38.905L54.4846 38.5645C53.8202 38.3532 53.631 38.2166 53.9843 38.2038C54.297 38.1926 55.0185 37.9865 55.5877 37.746L56.6224 37.3088L55.4412 36.8024C54.099 36.2268 50.4299 35.8054 50.7103 36.2589ZM7.60283 39.2128C6.76641 39.3702 6.65311 39.5057 6.33859 40.7219C6.14859 41.4567 5.99092 42.1483 5.98798 42.2584C5.98531 42.3685 7.10339 42.4588 8.47293 42.4588C11.1345 42.4588 12.9917 42.8773 15.1261 43.9582C16.3564 44.5812 16.3927 44.5841 16.6626 44.0796C16.8147 43.7955 16.9392 43.1942 16.9392 42.7437C16.9392 42.2932 16.9975 41.9244 17.0688 41.9244C17.1402 41.9244 17.8074 42.299 18.5519 42.7573C20.4476 43.9235 20.5457 43.5096 18.6593 42.303C14.9457 39.9274 10.4635 38.6746 7.60283 39.2128ZM5.40623 44.0977C5.10159 45.1143 4.06636 46.3283 2.57282 47.4204C1.9395 47.8835 2.10197 48.9621 3.18371 51.4737C3.73847 52.762 4.22616 54.2751 4.26731 54.8365C4.35576 56.043 4.9792 57.0914 5.79665 57.4083C6.46365 57.6667 11.2275 58.2316 12.7079 58.2279C13.5676 58.2255 13.8704 58.0232 15.1787 56.5775C16.3259 55.3098 16.8053 54.5086 17.258 53.1027L17.8467 51.2757L17.2871 50.1245C16.9039 49.3357 16.8045 48.8365 16.971 48.5388C17.2815 47.984 16.4189 46.0167 16.0916 46.5327C15.9475 46.7593 15.8772 46.6805 15.8743 46.2898C15.8714 45.8572 15.404 45.443 14.0171 44.6431C11.6772 43.2945 11.4998 43.2458 9.74599 43.4735L8.29816 43.6614L7.64719 45.6156C7.28911 46.6901 6.95401 47.5273 6.90243 47.4758C6.85086 47.4244 7.03177 46.5145 7.30461 45.4544C7.57745 44.3941 7.72229 43.4807 7.62662 43.4249C7.53095 43.369 7.06891 43.241 6.6002 43.1405C5.77955 42.9647 5.73492 43.0002 5.40623 44.0977ZM20.0147 44.8593C19.6174 45.6434 19.3865 46.4461 19.4765 46.7302C19.6403 47.2462 21.5922 49.1395 21.9607 49.1395C22.0758 49.1395 22.5683 48.8073 23.0547 48.4012L23.9389 47.6631L23.6097 45.9293C23.4285 44.9758 23.2065 44.118 23.1162 44.0229C23.0258 43.9278 22.4476 43.768 21.8313 43.668L20.7106 43.4858L20.0147 44.8593ZM47.007 44.5298C47.2342 45.0811 47.7809 46.1174 48.2221 46.8333C48.7763 47.7326 48.8931 48.0842 48.6005 47.972C47.8333 47.6775 48.4506 48.2745 49.6258 48.9631C50.2602 49.3351 51.1319 49.7266 51.563 49.8335L52.3468 50.0275L51.4115 49.2512C49.9441 48.0329 48.8073 46.7299 47.7595 45.0643C47.2278 44.2193 46.7481 43.5277 46.6933 43.5277C46.6388 43.5277 46.7799 43.9788 47.007 44.5298ZM36.1282 44.6624C35.4941 45.1642 33.3819 48.1521 32.9867 49.1061C32.7964 49.5655 32.534 49.9412 32.4039 49.9412C32.2735 49.9412 31.9723 50.4273 31.7348 51.021C31.4969 51.6151 31.254 52.0525 31.1947 51.9935C31.1354 51.9342 31.4491 50.9449 31.8919 49.7955C32.3344 48.6459 32.646 47.6548 32.5843 47.5931C32.5225 47.5313 31.5619 48.1101 30.4494 48.8792C28.9257 49.9324 28.1951 50.6587 27.4874 51.8235C26.9709 52.6738 26.0327 53.9509 25.4023 54.6617C23.8553 56.4062 23.2393 57.4922 22.5857 59.6284C21.8484 62.0377 20.1457 69.0228 20.147 69.6321C20.1486 70.4158 21.1614 71.8538 21.7119 71.8538C22.819 71.8538 32.9854 68.0629 34.5511 67.0662C34.8683 66.8641 34.8397 66.5429 34.3675 64.9981C33.588 62.449 33.487 60.9483 33.8678 57.5571L34.1978 54.6177L34.3568 59.0269C34.5027 63.074 34.8811 65.7712 35.3816 66.3297C35.7017 66.6867 38.3184 65.2308 38.3091 64.7009C38.3045 64.4463 38.1837 63.3359 38.0405 62.2336C37.8973 61.1313 37.6004 56.7483 37.3807 52.4932C37.1611 48.2384 36.8847 44.6605 36.7666 44.5424C36.6483 44.424 36.3612 44.4783 36.1282 44.6624ZM20.3958 45.4307C20.2277 45.7447 20.2109 45.9242 20.3581 45.8331C20.5088 45.7401 20.6069 45.9459 20.5852 46.3098C20.5641 46.662 20.4564 46.8948 20.3463 46.8267C19.883 46.5407 20.1956 47.2224 20.7793 47.7705C21.2458 48.209 21.5946 48.3199 22.1044 48.1919C23.2169 47.9127 23.4507 47.4442 23.0419 46.3136C22.6124 45.126 21.8287 44.7412 21.1026 45.3612C20.6245 45.7695 20.6013 45.7674 20.7603 45.3315C20.9973 44.6819 20.7624 44.7455 20.3958 45.4307ZM42.0796 45.5541C42.0925 45.8654 42.1558 45.9288 42.241 45.7158C42.3183 45.5229 42.3086 45.2922 42.2199 45.2035C42.1312 45.1148 42.0681 45.2725 42.0796 45.5541ZM20.9516 46.2919C20.9596 46.882 21.4305 47.3459 21.8559 47.1826C22.4647 46.949 22.3829 46.6487 21.6135 46.2919C21.1098 46.0584 20.9487 46.0584 20.9516 46.2919ZM10.9266 47.7406C10.7796 47.8485 10.479 48.166 10.2585 48.4461C9.86838 48.9415 9.88041 48.9431 10.7128 48.5129C11.7732 47.9645 11.9578 47.9642 13.1026 48.5075C14.5633 49.2007 15.2121 50.9967 14.5195 52.4307C14.2472 52.9945 14.2517 52.9967 14.6531 52.4956C15.1699 51.8505 15.1891 50.4152 14.694 49.4575C14.0633 48.2376 11.7098 47.1652 10.9266 47.7406ZM2.68827 48.531C2.52365 48.7975 3.29701 50.9705 4.2649 52.9608C4.7216 53.9002 4.77451 53.9333 4.97145 53.4012C5.108 53.0319 5.04307 52.5728 4.78947 52.1185C4.57248 51.7295 4.04845 50.702 3.62516 49.8356C3.20214 48.969 2.78046 48.3819 2.68827 48.531ZM10.793 49.5003C10.793 49.6985 10.4344 50.3899 9.99612 51.0368C9.0659 52.4098 8.97531 53.468 9.72408 54.2168C10.3962 54.8889 10.7826 54.9025 10.6113 54.2481C10.4389 53.5883 11.4477 52.8807 12.561 52.8807C13.4749 52.8807 13.7325 52.5311 13.7325 51.2915C13.7325 50.1323 12.7988 49.1395 11.7088 49.1395C11.1182 49.1395 10.793 49.2675 10.793 49.5003ZM4.64677 50.0855C4.64677 50.1649 4.89877 50.7236 5.20688 51.3273C5.74481 52.3818 5.76378 53.041 5.29426 54.3504C5.13687 54.7895 5.1668 54.8253 5.46262 54.5508C6.19482 53.8713 7.22872 54.1596 8.12713 55.2937C9.10171 56.5243 10.1658 57.1582 11.2473 57.1523C12.6609 57.1446 12.779 56.706 11.4164 56.5243C8.84624 56.1817 7.36981 54.5044 7.66964 52.2679C7.80352 51.2717 7.7907 51.2514 7.30648 51.6897C6.65338 52.2805 6.10289 52.0456 5.41692 50.8829C4.89797 50.0035 4.64677 49.7434 4.64677 50.0855ZM43.3947 50.7143C43.3947 51.1132 44.6341 53.5816 45.3286 54.5663C45.9063 55.3849 45.7887 55.8311 45.138 55.2911C44.8959 55.0901 44.7308 55.0655 44.7308 55.2301C44.7308 55.6938 48.4709 58.2252 49.1558 58.2252C49.2525 58.2252 48.3867 57.2255 47.2318 56.0035C46.0196 54.7213 44.7645 53.0672 44.2631 52.0913C43.7856 51.1613 43.3947 50.5416 43.3947 50.7143ZM34.3709 53.6824C34.3709 54.1968 34.426 54.4073 34.4931 54.15C34.5604 53.8927 34.5604 53.4721 34.4931 53.2147C34.426 52.9574 34.3709 53.1679 34.3709 53.6824ZM40.3066 54.7045C40.3918 54.9725 41.3803 56.9268 42.5035 59.0469C44.8123 63.4054 45.6185 65.3081 46.0928 67.5164C46.375 68.8312 46.4493 68.9533 46.6185 68.3798C46.7267 68.0124 46.8392 66.6295 46.8686 65.3067C46.9049 63.6609 46.9894 63.1125 47.1358 63.5698C47.2534 63.9372 47.3616 64.6472 47.3763 65.1477C47.4023 66.0309 47.4183 66.044 47.9215 65.5884C48.4022 65.1533 49.2736 63.0743 49.2736 62.363C49.2736 62.1925 48.2924 61.2922 47.0928 60.3625C45.8932 59.4325 43.8981 57.6697 42.6592 56.4444C41.4201 55.2192 40.3491 54.2168 40.2791 54.2168C40.2093 54.2168 40.2216 54.4362 40.3066 54.7045ZM15.3861 57.814C14.1331 59.1242 13.4992 59.5809 12.7339 59.7249C11.6128 59.9355 8.21826 59.4406 7.67151 58.9868C7.45345 58.8056 7.31904 58.796 7.31904 58.9614C7.31904 59.5151 8.15492 59.878 10.3085 60.2596C13.05 60.7452 13.9382 60.5995 14.9874 59.4919C15.8863 58.5421 17.3074 56.3667 17.1388 56.198C17.0806 56.1395 16.2917 56.8666 15.3861 57.814ZM18.2751 57.341C18.2748 57.4599 17.917 59.626 17.4798 62.1548C16.6439 66.9908 16.0127 69.1917 15.0908 70.4864C14.4417 71.3982 14.4064 71.5866 14.885 71.5866C15.4585 71.5866 16.6225 70.1903 17.0437 68.9971C18.2216 65.6584 19.2635 57.7354 18.5802 57.3132C18.4124 57.2095 18.2753 57.222 18.2751 57.341ZM39.4448 57.8912C39.339 58.1485 39.2572 59.6367 39.2625 61.1987C39.2713 63.768 39.3349 64.1307 39.9306 65.0048C40.2927 65.5363 40.6791 65.9719 40.7892 65.9729C40.8993 65.974 40.9891 64.4414 40.9885 62.5676C40.9877 59.6426 40.9127 59.0376 40.4581 58.292C39.8515 57.2971 39.7115 57.2416 39.4448 57.8912ZM38.04 65.9641C35.8129 67.1418 29.0267 69.887 24.8358 71.3057C22.3447 72.1488 20.2199 73.0079 20.1147 73.2148C20.0091 73.4216 19.7785 73.9809 19.6019 74.4574C19.154 75.6666 17.8069 76.0164 15.1306 75.6185C14.0475 75.4573 12.8493 75.162 12.468 74.9622L11.7745 74.599L12.8386 73.4582C13.8252 72.4008 13.95 72.3423 14.5523 72.6573C15.1448 72.967 15.1349 72.9336 14.4396 72.2789C13.5815 71.4706 13.8185 71.3292 12.1176 73.6634L11.2858 74.805L12.5759 75.4004C14.4313 76.2566 19.5441 76.2409 22.8182 75.3686C25.8306 74.5659 30.4414 72.7143 34.7098 70.5927C38.4368 68.7403 38.8756 68.4699 37.6936 68.7537C37.1971 68.8731 36.9956 68.84 37.1081 68.6578C37.3446 68.2751 37.1178 68.3021 34.9936 68.9095C33.9749 69.2008 33.0896 69.3875 33.0265 69.3242C32.9632 69.2611 34.4284 68.4536 36.2824 67.5303C39.3705 65.9919 40.2053 65.4208 39.3194 65.4521C39.1359 65.4588 38.56 65.6889 38.04 65.9641Z" fill="white"/>
</svg>
