<svg xmlns="http://www.w3.org/2000/svg" width="79" height="78" fill="none" viewBox="0 0 79 78"><path fill="#fff" fill-rule="evenodd" d="M20.96.983c-.251.053-2.748 1.608-5.548 3.455a1355 1355 0 0 1-5.292 3.48c-.136.083-.535-.203-1.236-.884-.57-.553-1.232-1.08-1.47-1.171-1.09-.417-2.186.4-2.186 1.625 0 .634.072.754 1.126 1.863l1.126 1.185-3.26 4.966C2.427 18.233.826 20.723.662 21.035c-.668 1.27-.906.95 5.592 7.502 3.24 3.266 6.018 6.01 6.174 6.096s.498.156.76.154 2.91-.662 5.884-1.467 5.505-1.464 5.625-1.464 1.141.946 2.269 2.102l3.915 4.018 1.864 1.916-4.192 4.045c-3.61 3.485-4.27 4.058-4.753 4.131-.308.047-.697.162-.864.257-.168.094-3.082 2.98-6.477 6.411-7.003 7.08-6.981 7.052-7.095 9.281-.05.982.003 1.439.258 2.197l.322.957-3.067 4.01a982 982 0 0 1-3.815 4.967c-.412.525-.722.955-.689.955s2.27-1.71 4.97-3.8l4.912-3.8.704.27c1.064.406 1.98.496 3.057.3 1.866-.34 2.062-.501 8.565-7.011 3.33-3.333 6.189-6.248 6.354-6.478s.317-.658.335-.951c.03-.473.483-1.005 3.974-4.665 2.166-2.272 3.98-4.131 4.031-4.131.24 0 7.977 8.308 7.948 8.535-.094.748.45 1.37 6.531 7.466 6.736 6.752 6.907 6.893 8.78 7.234 1.074.196 1.994.107 3.047-.296l.694-.265 4.826 3.735c2.655 2.054 4.847 3.71 4.872 3.681.024-.03-1.145-1.6-2.6-3.492a3088 3088 0 0 1-3.71-4.837l-1.067-1.397.312-.929c.535-1.598.351-3.507-.471-4.891-.352-.592-12.306-12.765-12.822-13.056-.167-.095-.557-.21-.867-.257-.485-.073-1.137-.638-4.753-4.125l-4.19-4.04 1.79-1.845c.985-1.015 2.759-2.85 3.943-4.08l2.153-2.234 5.522 1.493c3.037.82 5.659 1.507 5.826 1.526.945.103.982.071 7.025-6 3.284-3.298 5.97-6.084 5.97-6.19s.07-.194.153-.194c.084 0 .152-.245.152-.544s-.064-.505-.141-.457c-.078.049-.181-.033-.23-.182-.05-.148-1.622-2.608-3.494-5.467l-3.404-5.197.877-.917c1.16-1.215 1.376-1.565 1.376-2.239 0-1.054-1.138-1.899-2.13-1.582-.183.058-.839.59-1.456 1.18-1.074 1.025-1.14 1.062-1.467.846C59.932 2.32 58 1.074 57.662.977c-.946-.273-1.081-.162-6.815 5.563-3.04 3.036-5.725 5.789-5.966 6.117-.24.328-.438.77-.438.985 0 .213.684 2.951 1.52 6.084s1.52 5.726 1.52 5.761-1.85 1.873-4.11 4.082l-4.11 4.018-2.008-1.97-4.107-4.035-2.1-2.064 1.53-5.746c.841-3.161 1.53-5.946 1.53-6.19 0-.379-.87-1.318-6.026-6.51-3.315-3.336-6.17-6.094-6.346-6.126s-.526-.017-.776.037M16.655 7.66l-4.305 2.85 7.529 7.571c4.14 4.164 7.562 7.537 7.604 7.495.102-.103 2.976-10.88 2.976-11.159 0-.197-9.245-9.625-9.424-9.612-.042.004-2.013 1.288-4.38 2.856m36.11 1.84c-2.57 2.586-4.674 4.799-4.674 4.918 0 .278 2.875 11.055 2.976 11.157.042.042 3.465-3.331 7.606-7.496l7.53-7.572-4.319-2.854C59.51 6.084 57.537 4.8 57.502 4.8c-.036 0-2.168 2.115-4.738 4.701m-45.74 7.871-2.827 4.319 4.741 4.785 4.741 4.785 5.464-1.467c3.005-.806 5.563-1.5 5.684-1.543.145-.05-2.348-2.661-7.295-7.637-4.134-4.158-7.553-7.56-7.6-7.56-.045 0-1.354 1.944-2.909 4.318m53.998 3.237-7.511 7.555.824.237c.453.13 3.01.826 5.681 1.546l4.858 1.309 4.74-4.783 4.74-4.782-2.8-4.28c-1.539-2.354-2.849-4.298-2.91-4.319s-3.49 3.362-7.622 7.517M.403 21.997c0 .336.032.456.068.265.037-.19.035-.465-.003-.611s-.067.01-.066.346m28.104 7.313-.65.666 10.748 11.22c5.911 6.171 10.79 11.238 10.842 11.26.052.02.581-.46 1.177-1.07l1.083-1.11L40.59 39.511c-6.114-5.921-11.188-10.789-11.274-10.817-.087-.028-.45.249-.808.616m16.923 2.956-3.735 3.619.8.814c.439.447.841.813.894.813.052 0 1.716-1.698 3.696-3.772l3.6-3.773-.645-.66c-.354-.364-.696-.66-.76-.66-.063 0-1.795 1.628-3.85 3.619m-14.538 14.08-4.052 3.93 1.085 1.11c.597.61 1.123 1.09 1.17 1.07.161-.076 7.673-7.943 7.728-8.095.053-.145-1.625-1.965-1.799-1.95-.044.003-1.904 1.774-4.132 3.935m-7.849 6.496c-.351.36-.64.723-.64.806 0 .082.752.903 1.671 1.824l1.67 1.675.764-.757.763-.756-1.71-1.723c-.94-.948-1.747-1.724-1.793-1.724-.047 0-.373.295-.725.655m29.946 1.069-1.71 1.723.764.756.763.757 1.67-1.675c.92-.921 1.671-1.742 1.671-1.825 0-.157-1.217-1.46-1.364-1.46-.047 0-.854.776-1.794 1.724m-33.624 2.631-.523.542 1.665 1.679c.915.923 1.737 1.678 1.828 1.678s.362-.208.605-.463l.441-.463-1.747-1.757-1.747-1.757zm37.546 1.22-1.74 1.755.44.462c.243.254.515.462.605.462s.914-.756 1.831-1.681l1.667-1.681-.532-.536-.532-.535zm-41.046 2.3-.518.538 1.737 1.753 1.738 1.752.499-.486c.274-.267.499-.56.499-.65 0-.162-3.197-3.445-3.355-3.445-.045 0-.315.242-.6.538m44.42 1.187-1.71 1.724.576.567.577.566 1.738-1.753 1.738-1.753-.518-.538c-.285-.296-.558-.538-.605-.538-.048 0-.856.776-1.797 1.725m-47.43 2.173c-.58 1.28.206 2.889 1.6 3.276.546.151 1.869-.045 1.869-.277 0-.055-.74-.841-1.645-1.748l-1.643-1.648zm51.002 1.266c-.896.904-1.63 1.686-1.63 1.738 0 .051.296.168.657.26 1.146.29 2.253-.217 2.744-1.257.291-.618.313-1.562.047-2.043-.183-.331-.24-.29-1.818 1.302" clip-rule="evenodd"/></svg>