<svg xmlns="http://www.w3.org/2000/svg" width="69" height="78" fill="none" viewBox="0 0 69 78"><path fill="#fff" fill-rule="evenodd" d="M48.042.26c-2.216.48-4.217 1.307-5.886 2.432l-.686.463-.69-.665c-1.235-1.19-1.873-1.305-2.694-.487-.801.798-.736 1.406.264 2.46l.785.827-.567.626c-1.828 2.016-3.142 4.918-3.721 8.22l-.282 1.6-14.35 18.29C12.32 44.086 5.734 52.523 5.58 52.774c-.588.952-.35 1.486 1.462 3.272l1.309 1.29-3.267 3.283C2.81 62.902 1.7 64.133 1.432 64.663c-1.18 2.341-1.18 4.836.001 7.16.502.986 2.054 2.525 3.062 3.034 2.257 1.14 4.945 1.133 7.137-.018.545-.287 2.322-1.932 5.976-5.533 3.331-3.284 5.42-5.228 5.811-5.411.357-.167 1.077-.312 1.729-.348 1.01-.055 1.21-.015 2.094.419 1.624.797 2.422 2.078 2.427 3.898.005 1.713-.272 2.15-3.342 5.252-2.616 2.645-2.678 2.723-2.678 3.35 0 .913.629 1.534 1.553 1.534.652 0 .687-.029 3.496-2.858 2.98-3.001 3.567-3.82 3.961-5.525.203-.88.203-2.626 0-3.506-.469-2.028-2.068-4.001-4.01-4.948-2.171-1.058-4.324-1.073-6.606-.045-.995.448-1.438.846-6.276 5.628-5.785 5.72-5.924 5.824-7.718 5.821-2.44-.004-4.309-1.83-4.345-4.246-.026-1.728.21-2.085 3.709-5.6l3.146-3.16 1.536 1.503c1.748 1.711 2.198 1.92 3.057 1.414.286-.168 8.79-6.8 18.899-14.738l18.378-14.433 1.13-.14c2.712-.335 5.724-1.574 7.96-3.275l1.319-1.002.904.892c.826.814.961.891 1.575.891.806 0 1.407-.476 1.548-1.228.12-.636-.085-1.015-1.118-2.072l-.841-.86.491-.713c.812-1.176 1.83-3.483 2.236-5.068 2.28-8.903-3.243-18.086-12.23-20.334-1.868-.467-5.522-.536-7.36-.138m1.578 2.903c-1.512.238-2.763.614-4.025 1.211-2.118 1.003-2.12.765.017 2.93C46.71 8.42 47.504 9.351 47.564 9.6c.246 1.017-.84 2.126-1.837 1.876-.268-.067-1.195-.855-2.4-2.04l-1.963-1.93-.538.609c-1.303 1.477-2.409 3.913-2.824 6.22l-.187 1.04 7.42 7.393 7.419 7.395.982-.172c2.147-.373 4.251-1.268 5.915-2.514.526-.394.956-.76.956-.814s-1.618-1.714-3.594-3.69c-3.215-3.214-3.594-3.646-3.594-4.09 0-.698.365-1.319.907-1.543.988-.407 1.232-.237 4.904 3.426 1.891 1.886 3.49 3.43 3.552 3.43.246 0 1.657-3.201 1.948-4.421.38-1.587.419-4.351.085-5.933-1.07-5.073-5.049-9.184-10.035-10.37-1.494-.356-3.846-.5-5.06-.309m-23.69 2.73c-.404.402-.447.543-.447 1.448v1.002h-.849c-1.01 0-1.661.3-1.978.91-.291.561-.291.82 0 1.382.317.61.968.91 1.978.91h.849v1.002c0 .904.043 1.046.447 1.448.63.627 1.535.627 2.165 0 .403-.402.447-.543.447-1.448v-1.003h.88c1.47-.001 2.324-.777 2.11-1.917-.156-.825-.714-1.19-1.927-1.258l-1.063-.06v-.985c0-.886-.045-1.03-.447-1.431-.351-.35-.584-.446-1.083-.446-.498 0-.731.097-1.082.446M9.414 11.38c-.325.324-.447.592-.447.983 0 1.656-.768 3.473-1.978 4.679-1.092 1.088-2.221 1.617-4.02 1.884-1.66.246-2.108.588-2.108 1.611 0 1.022.45 1.366 2.102 1.61 1.734.258 2.995.858 4.088 1.949 1.15 1.146 1.916 2.992 1.916 4.615 0 1.222 1.582 1.893 2.535 1.076.348-.298.443-.56.61-1.683.506-3.415 2.563-5.463 5.994-5.968 1.569-.231 2.025-.591 2.025-1.599s-.456-1.368-2.025-1.599c-3.432-.505-5.488-2.552-5.995-5.968-.166-1.123-.26-1.385-.609-1.683a1.53 1.53 0 0 0-2.088.093m40.463 1.528c-.593.242-.917.767-.917 1.485 0 .56.078.75.428 1.05.587.503 1.035.585 1.697.31 1.146-.478 1.257-2.048.191-2.696-.51-.31-.901-.352-1.399-.15M9.845 18.563a8.4 8.4 0 0 1-1.33 1.325c-.415.315-.754.607-.754.65 0 .041.34.333.754.648a8.4 8.4 0 0 1 1.33 1.325c.316.414.609.753.651.754s.338-.335.656-.747a9 9 0 0 1 1.332-1.327c.414-.318.752-.612.752-.654s-.338-.336-.752-.654a9 9 0 0 1-1.332-1.327c-.318-.412-.614-.748-.656-.747-.042 0-.335.34-.651.754m15.29 14.249C18.93 40.73 13.82 47.295 13.779 47.4c-.04.106 1.45 1.709 3.338 3.589l3.41 3.397L35.012 43.01c7.966-6.256 14.484-11.42 14.484-11.476s-2.942-3.03-6.538-6.61l-6.538-6.51zm9.426-5.418c-1.214.604-3.121 2.547-3.667 3.736-.35.763-.392 1.016-.33 2.036.085 1.436.436 2.168 1.49 3.112 1.268 1.137 2.725 1.442 4.452.933.723-.213 1.04-.454 2.452-1.867 1.787-1.788 2.126-2.414 2.126-3.93 0-3.32-3.545-5.504-6.523-4.02m1.4 2.77c-.482.262-1.913 1.685-2.154 2.14-.32.605-.269.975.208 1.507.337.375.55.474 1.014.474.524 0 .707-.118 1.704-1.105.615-.609 1.159-1.27 1.21-1.47.122-.487-.3-1.334-.774-1.55-.473-.214-.812-.213-1.209.004m20.553 14.251c-6.075 2.088-7.78 2.73-8.051 3.036l-.344.387V60.57l-1.492-.009c-1.177-.007-1.709.066-2.525.345-4.773 1.632-6.122 6.557-2.308 8.428 2.976 1.46 7.4-.079 8.917-3.103l.466-.93V49.572l3.097-1.066 5.812-2.002 2.715-.934v9.947l-1.568.012c-1.308.01-1.738.08-2.601.413-2.568.995-4.1 2.76-4.219 4.865-.07 1.252.302 2.14 1.235 2.935.886.756 1.92 1.073 3.482 1.066 2.724-.012 5.227-1.428 6.38-3.608l.426-.806.044-8.603c.05-9.871.083-9.612-1.241-9.91-.44-.099-1.668.28-8.225 2.533m-46.229 7.318-1.358 1.76 2.797 2.791 2.797 2.79 1.217-.94a51 51 0 0 0 1.773-1.425l.556-.485-3.134-3.135c-1.724-1.724-3.17-3.13-3.212-3.126s-.689.801-1.436 1.77m49.343 7.163c-.357.125-.962.514-1.346.864-1.245 1.135-.916 1.924.804 1.929 1.54.004 3.396-1.04 3.652-2.055.087-.345.038-.49-.237-.712-.432-.349-1.92-.362-2.873-.026m-14.853 5.106c-1.624.622-2.572 2.11-1.62 2.542.546.248 1.876.22 2.69-.056 1.19-.404 2.414-1.664 2.188-2.252-.238-.618-1.937-.74-3.258-.234" clip-rule="evenodd"/></svg>