<svg xmlns="http://www.w3.org/2000/svg" width="79" height="66" fill="none" viewBox="0 0 79 66"><path fill="#fff" fill-rule="evenodd" d="M18.155.428c-.365.365-.374.431-.374 2.742 0 1.81.057 2.511.243 2.976.22.548.22.678.01 1.337-.176.554-.25 1.747-.304 4.925-.12 7.071-.574 8.892-3.957 15.864-.712 1.468-1.551 3.355-1.864 4.194-1.045 2.803-1.602 6.073-1.602 9.394v1.703l.476-.095a7.6 7.6 0 0 1 1.198-.096h.72l.108-2.169c.135-2.732.556-5.216 1.221-7.203.285-.85 1.27-3.123 2.187-5.049.918-1.925 1.712-3.621 1.764-3.768q.096-.266.574-.267c.794 0 2.294-.45 3.34-1.004.542-.287 1.093-.521 1.224-.521.132 0 .683.234 1.226.521 1.045.553 2.545 1.004 3.338 1.004.38 0 .51.085.637.42.087.23.833 1.826 1.657 3.546s1.755 3.824 2.067 4.677l.57 1.55.68-.292c.374-.16.765-.291.867-.291.103 0 .317-.095.476-.211.278-.204.268-.264-.294-1.792-.32-.87-1.29-3.058-2.154-4.862-1.863-3.883-2.247-4.81-2.74-6.635-.705-2.602-.862-4.032-.94-8.541-.055-3.238-.129-4.448-.305-5.002-.21-.659-.208-.79.011-1.337.186-.465.243-1.165.243-2.976 0-2.31-.009-2.377-.374-2.742l-.375-.375h-9.18zm2.171 2.164c-.242.243-.097 2.232.233 3.176s.331.987.076 1.796c-.204.648-.261 1.4-.261 3.447v2.618h5.491V11.01c0-2.042-.057-2.8-.26-3.443-.254-.805-.252-.848.086-1.843.26-.767.333-1.284.298-2.087L25.94 2.57l-2.755-.041c-1.515-.023-2.802.005-2.86.063m44.241 9.525c-1.476.347-2.913 1.504-3.672 2.955l-.482.92-.048 3.318-.05 3.318-6.28.004c-3.455.002-6.55.066-6.88.142-.683.158-1.226.524-1.68 1.132-.282.378-.32.678-.363 2.914-.057 2.951.093 3.44 1.268 4.129.378.221.691.413.697.426s.091.813.19 1.778l.181 1.754 1.144.59c5.339 2.75 9.07 7.688 10.145 13.427.215 1.146.301 1.335.902 1.962 2.403 2.508 2.46 6.527.128 9.12-.612.68-.65.777-.65 1.634 0 1.325-.243 2.434-.75 3.43l-.448.877H71.79l.357-.356c.233-.234.39-.617.452-1.106.053-.412.817-7.82 1.698-16.46.88-8.641 1.637-15.93 1.68-16.198.063-.377.225-.567.719-.84.374-.206.783-.604.989-.962.333-.578.349-.738.31-3.154-.037-2.295-.072-2.585-.356-2.965-.454-.608-.998-.974-1.68-1.132-.33-.076-3.43-.14-6.89-.142l-6.292-.004v-2.723c0-1.63.07-2.93.173-3.241.26-.777.84-1.476 1.507-1.817.56-.285.904-.303 5.7-.303h5.104l.47-.395c.32-.27.469-.532.469-.827 0-1.343-.14-1.374-6.056-1.356-2.752.009-5.261.076-5.578.15m-17.01 14.896.044 1.792h27.913l.043-1.792.043-1.792H47.515zm-10.271 9.113c-2.42.459-5.04 1.605-6.95 3.04-1.268.953-3.13 2.944-3.976 4.25-1.337 2.064-2.298 4.768-2.564 7.22-.097.89-.135.959-.809 1.462-1.412 1.054-2.047 3.111-1.483 4.807.283.854 1.12 1.92 1.771 2.256l.43.223.05 2.036c.049 1.96.068 2.064.512 2.782.286.461.747.922 1.209 1.207l.746.462h27.961l.747-.462a3.95 3.95 0 0 0 1.209-1.207c.444-.718.463-.823.511-2.782l.05-2.036.43-.223c.652-.337 1.489-1.402 1.772-2.256.564-1.696-.071-3.753-1.483-4.807-.675-.503-.712-.571-.807-1.462-.25-2.341-1.17-4.98-2.47-7.081-.96-1.55-3.572-4.162-5.122-5.121a18.2 18.2 0 0 0-4.855-2.072c-1.685-.442-5.165-.56-6.88-.236m-26.598 9.78c-2.257.465-4.578 1.99-6.037 3.966-.42.567-.71.806-1.068.878-1.295.259-2.504 1.222-3.223 2.568-.297.558-.35.882-.35 2.18 0 1.307.052 1.625.36 2.212.686 1.31 2.015 2.377 3.31 2.656.338.074.649.354 1.143 1.034.85 1.169 2.192 2.274 3.58 2.947 1.894.92 2.449.985 8.348.988 2.915 0 5.3-.015 5.3-.036s-.137-.4-.305-.84c-.167-.442-.304-.968-.304-1.169v-.366l-5.072-.063c-4.685-.06-5.138-.089-5.942-.385-1.127-.416-2.079-.979-2.633-1.557l-.444-.463h13.665l-.496-.565c-.273-.31-.692-.982-.93-1.493-1.122-2.396-.876-4.774.717-6.938l.676-.919h-6.81c-6.789 0-6.81 0-6.537-.303.398-.44 1.622-1.197 2.552-1.578.759-.311 1.113-.335 6.196-.407l5.392-.076.364-1.144c.201-.63.366-1.195.367-1.258s-2.417-.109-5.375-.102c-4.052.01-5.64.066-6.444.233m13.744 8.303c-.29.255-.573.666-.627.914-.133.605.163 1.445.643 1.822.386.304.582.308 15.714.308 15.121 0 15.33-.004 15.755-.308.512-.364.823-1.192.684-1.822-.054-.248-.336-.66-.627-.914l-.528-.465H24.96z" clip-rule="evenodd"/></svg>