<svg xmlns="http://www.w3.org/2000/svg" width="79" height="78" fill="none" viewBox="0 0 79 78"><path fill="#fff" fill-rule="evenodd" d="M8.652.31c-1.363.335-1.996.703-2.518 1.466C5.377 2.88 5.298 2.48 9.767 20l4.114 16.126-6.728 18.456C.691 72.31.425 73.081.424 74.105c-.002 1.61.732 2.812 2.147 3.513.582.29 1.333.296 36.543.334 40.027.044 36.802.13 37.973-1.007.322-.312.706-.84.854-1.171s.334-.722.413-.867c.183-.334.192-1.84.01-1.727-.074.046-.167-.07-.206-.258-.19-.902-19.079-52.517-19.402-53.015-.508-.782-1.449-1.43-2.362-1.625-.47-.101-3.115-.164-6.924-.164-5.014 0-6.162-.037-6.162-.201 0-.115 2.16-1.238 5.008-2.604 2.755-1.32 5.22-2.53 5.478-2.686.64-.389 1.122-1.38 1.115-2.291-.006-.808-.262-1.41-.82-1.93-.337-.316-10.335-5.217-10.64-5.217-.073 0-.31-.376-.527-.834-1.215-2.569-4.347-3.132-6.339-1.14-1.197 1.197-1.197 1.202-1.197 9.611v7.277l-6.589.046c-6.585.046-6.59.046-7.317.407-.881.438-1.687 1.344-2.037 2.29-.669 1.811-.79 2.066-.874 1.843-.047-.126-1.253-4.822-2.68-10.436S13.22 1.866 13.132 1.645C12.766.742 11.52-.02 10.445 0c-.317.007-1.124.146-1.793.31m.732 2.551c-.518.138-.985.296-1.04.351-.1.103 4.307 17.651 4.476 17.82.17.168 2.45-.619 2.38-.822-.036-.103-1.029-3.992-2.206-8.642S10.8 3.014 10.731 2.893c-.174-.31-.29-.313-1.347-.032m29.43-.106c-.709.388-.686-.056-.686 13.26V28.63h2.438V16.074c0-6.906-.043-12.667-.095-12.802-.101-.264-.826-.696-1.155-.688-.109.002-.335.08-.502.171m4.494 7.644v4.349l.952-.435c2.85-1.303 7.957-3.803 7.991-3.913.03-.098-7.641-3.85-8.717-4.262-.197-.076-.226.475-.226 4.261M22.34 21.146c-.17.158-.805 1.658-1.424 3.362L19.8 27.584l3.777 14.882c2.565 10.108 3.853 14.93 4.014 15.033.13.084.515.404.853.71l.615.558 1.087 4.393 1.087 4.394 4.705.076c5.226.085 5.126.066 6.173 1.168.946.996 1.096 1.442 1.163 3.479.034 1.005-.006 2.12-.088 2.475l-.15.648h4.053l-.557-1.087c-.547-1.066-.557-1.118-.557-2.856 0-1.648.03-1.834.446-2.684.579-1.186 2.024-2.632 3.21-3.21.85-.415 1.039-.447 2.666-.447 1.597 0 1.832.038 2.655.424 2.592 1.213 4.062 3.67 3.853 6.437-.082 1.088-.188 1.395-1.145 3.312-.032.065 3.853.1 8.635.076l8.693-.042.34-.339c.215-.216.337-.521.334-.838-.006-.714-18.925-52.643-19.309-53.001-.287-.268-.667-.285-6.675-.285h-6.37l.001 4.228.001 4.228 1.143.586c2.25 1.156 4.418 3.658 5.427 6.265.95 2.457 1.105 3.628 1.114 8.483L51 49.015l-.46.57c-.97 1.2-.337 1.135-11.159 1.135-10.478 0-10.211.02-11.032-.857-.679-.726-.734-1.084-.73-4.752.004-5.351.5-7.975 2.022-10.692.925-1.65 3.014-3.712 4.563-4.501l1.18-.602V20.86h-6.369c-6.015 0-6.387.016-6.676.286m-7.749 2.213c-.866.275-1.06.394-1.036.634.022.213 7.07 28.042 8.588 33.908l.143.553 1.218-.306c.67-.168 1.218-.355 1.218-.415 0-.113-8.624-34.004-8.772-34.473-.101-.318-.03-.324-1.359.099m22.775 8.102c-2.904.766-5.182 2.988-6.253 6.101-.163.476-.297.93-.297 1.008 0 .079.348-.17.774-.554 4.337-3.899 11.151-3.895 15.368.01l1.062.982-.23-.81c-.126-.444-.51-1.387-.854-2.094-1.766-3.633-5.862-5.621-9.57-4.643m-.304 6.55a9.1 9.1 0 0 0-5.857 4.863c-.643 1.35-.863 2.31-.896 3.91l-.027 1.27 1.234.044 1.233.044.169-1.018c.89-5.371 7.525-7.427 11.154-3.456.927 1.014 1.488 2.15 1.704 3.456l.168 1.018 1.234-.044 1.233-.044-.046-1.295c-.093-2.596-.928-4.55-2.699-6.319-1.797-1.796-3.91-2.677-6.373-2.66-.767.006-1.77.11-2.231.232m-22.16 3.067c-1.472 3.76-11.866 32.717-11.87 33.068-.002.317.12.622.335.838l.34.34 6.813.042 6.813.043v-6.202l.44-.576q.762-1 2.069-1c.338 0 .614-.026.614-.058 0-.031-.314-1.351-.699-2.932-.773-3.182-.822-4.12-.255-4.84l.319-.405-.449-1.71c-.247-.94-1.31-5.104-2.363-9.251-1.052-4.148-1.933-7.561-1.957-7.586-.023-.024-.09.078-.15.229m23.662 3.191c-.22.038-.767.288-1.213.556-.967.58-1.66 1.601-1.774 2.613l-.078.692h7.656v-.462c0-.563-.344-1.418-.824-2.047-.712-.934-2.487-1.57-3.767-1.352M23.96 60.743a90 90 0 0 0-2.248.568c-.036.023 1.236 5.42 1.427 6.054.072.24.339.266 2.746.266 2.469 0 2.66-.02 2.584-.266-.068-.223-1.43-5.742-1.692-6.856-.101-.43-.123-.428-2.817.233m26.978 7.142c-.94.343-1.892 1.342-2.22 2.328-1.296 3.903 3.43 6.874 6.328 3.976 1.907-1.908 1.376-5.025-1.058-6.2-.748-.36-2.21-.411-3.05-.104m-31.091 4.48v2.145l.445.445.445.446h9.389c9.925 0 10.083-.01 10.345-.693.052-.135.095-1.032.095-1.993 0-1.65-.02-1.767-.374-2.12l-.374-.374H19.847zM.394 74.104c0 .503.03.69.063.417a4 4 0 0 0-.001-.914c-.035-.23-.063-.005-.062.498" clip-rule="evenodd"/></svg>