<svg xmlns="http://www.w3.org/2000/svg" width="108" height="117" fill="none" viewBox="0 0 108 117"><g filter="url(#a)"><path fill="#00aacb" d="M42.993.928c-5.857.042-10.498 4.54-10.748 10.634.043 5.928 4.589 10.524 10.748 10.75 5.484-.074 10.356-4.596 10.633-10.75-.041-5.905-4.56-10.365-10.633-10.634m2.971 23.784q-3.659 0-6.174 2.458c-1.363 1.367-2.888 4.384-2.4 6.805h-.114l6.289 30.302c.649 3.47 3.505 5.708 7.319 5.946 8.76-.025 18.26-.223 27.212-.115l15.095 26.3c1.699 3.585 6.048 4.34 9.205 1.717 1.515-1.504 2.127-4.06 1.085-6.29L85.987 61.417c-1.26-2.608-3.747-4.077-6.861-4.23h-19.44L57.402 45.98h15.207c3.287.244 5.656-2.265 4.975-5.717-.5-1.686-2.248-3.239-4.289-3.317H55.457c-.9-4.595-.756-7.373-4.289-10.52q-2.23-1.715-5.204-1.715M29.561 37.68a6.5 6.5 0 0 0-1.434.18c-6.736 2.622-12.796 7.126-17.495 13.38C6.492 57.079 4.177 64.107 4 71.824c.069 9.147 3.997 18.533 11.035 25.614 6.822 6.498 16.292 10.42 26.47 10.633 7.425-.04 14.847-2.233 21.614-6.573 6.077-4.129 10.84-10.053 13.719-17.439q.801-1.945 1.373-4.347c.558-2.517-.855-4.561-3.544-5.374-2.446-.542-4.633.808-5.488 3.432a16.7 16.7 0 0 1-1.03 3.315c-1.942 5.134-5.556 9.579-10.349 13.036-4.659 3.168-10.24 4.894-16.294 5.03-7.201-.05-14.137-2.796-19.953-8.002-4.997-4.845-8.123-11.778-8.29-19.325.032-5.38 1.765-10.689 5.031-15.494 3.203-4.447 7.687-7.881 13.15-10.12 2.302-.755 3.543-3.138 2.743-5.717-.772-1.854-2.591-2.84-4.626-2.812"/></g><defs><filter id="a" width="108" height="115.143" x="0" y=".928" color-interpolation-filters="sRGB" filterUnits="userSpaceOnUse"><feFlood flood-opacity="0" result="BackgroundImageFix"/><feColorMatrix in="SourceAlpha" result="hardAlpha" values="0 0 0 0 0 0 0 0 0 0 0 0 0 0 0 0 0 0 127 0"/><feOffset dy="4"/><feGaussianBlur stdDeviation="2"/><feComposite in2="hardAlpha" operator="out"/><feColorMatrix values="0 0 0 0 0 0 0 0 0 0 0 0 0 0 0 0 0 0 0.25 0"/><feBlend in2="BackgroundImageFix" result="effect1_dropShadow_186_25012"/><feBlend in="SourceGraphic" in2="effect1_dropShadow_186_25012" result="shape"/></filter></defs></svg>