<svg xmlns="http://www.w3.org/2000/svg" width="211" height="87" fill="none" viewBox="0 0 211 87"><g filter="url(#a)"><path fill="#e1017d" fill-rule="evenodd" d="M4.389.887c-.572 1.308-.502 4.633.135 6.414 1.662 4.655 6.017 9.687 11.826 13.665 1.283.878 1.466 1.071.916.965-.378-.073-1.83-.259-3.229-.413-2.796-.306-4.844-.072-5.629.645-.645.59-.542 1.92.23 2.994 3.684 5.118 15.827 11.371 23.389 12.043l1.704.151-1.549.429c-5.942 1.643-6.725 5.43-1.889 9.132 2.643 2.023 7.259 3.757 10.093 3.793l1.159.014-1.718.84c-2.12 1.036-4.02 2.851-4.244 4.058-.285 1.534.712 3.164 2.687 4.397 1.904 1.188 7.2 2.208 9.882 1.902l1.339-.152-1.648 1.432c-3.15 2.737-4.43 5.202-3.573 6.876 1.24 2.42 8.169 3.237 15.05 1.776.906-.193 1.681-.317 1.722-.275.04.04-.619.532-1.466 1.091-.847.56-2.139 1.619-2.87 2.354-1.202 1.206-1.325 1.42-1.26 2.185.051.613.25.983.719 1.334.58.435.937.483 3.435.457 2.24-.022 3.236-.15 5.063-.646 6.697-1.819 18.942-8.25 26.978-14.17l1.08-.795.132.65c.927 4.591 2.717 7.725 5.676 9.94 1.346 1.007 4.336 2.621 4.856 2.621.132 0-.402-.678-1.188-1.507-1.637-1.728-3.01-3.956-3.775-6.125-.45-1.279-.53-1.953-.528-4.51.001-2.86.057-3.222 1.14-7.401 1.077-4.158 1.138-4.55 1.131-7.286-.007-2.55-.082-3.109-.643-4.741-2.203-6.41-5.89-9.736-12.784-11.538-2.837-.74-5.495-1.177-11.409-1.875-2.708-.32-6.419-.853-8.245-1.185-20.535-3.74-45.83-15.607-59.292-27.817A85 85 0 0 0 5.442.54L4.775 0zm199.999.621c-10.19 9.388-26.163 18.386-42.823 24.124-10.117 3.484-15.991 4.778-28.745 6.33-12.174 1.482-17.335 4.097-20.27 10.273-2.316 4.872-2.448 7.748-.673 14.7 1.042 4.084 1.092 4.427 1.105 7.517.012 2.95-.039 3.377-.581 4.797-.849 2.224-1.922 3.924-3.631 5.753-.819.876-1.383 1.592-1.253 1.592.516 0 3.511-1.618 4.852-2.622 3.012-2.254 4.723-5.247 5.668-9.912.126-.622.129-.621 3.618 1.763 8.411 5.745 18.45 10.86 24.587 12.527 1.819.494 2.818.622 5.055.645 2.499.025 2.855-.023 3.436-.458 1.248-.935.922-2.252-.994-4.02-.682-.63-1.856-1.528-2.608-1.997-.753-.47-1.331-.891-1.285-.937s.808.069 1.692.257c2.613.554 6.663.88 8.756.705 4.495-.378 6.654-1.595 6.654-3.749 0-1.347-1.523-3.542-3.87-5.577l-1.513-1.311 2.863-.04c6.705-.091 11.517-2.855 10.886-6.251-.22-1.188-2.116-3-4.243-4.056l-1.718-.853 1.145-.01c3.956-.037 9.99-2.879 12.136-5.716 2.423-3.205.987-5.845-3.918-7.202l-1.55-.429 1.709-.145c7.452-.637 19.72-6.958 23.384-12.05.773-1.074.876-2.404.231-2.993-.785-.717-2.833-.951-5.629-.645-1.398.154-2.851.336-3.229.404-.609.11-.556.038.458-.62 3.426-2.221 7.715-6.274 9.813-9.273 2.139-3.058 3.338-6.581 3.056-8.981-.155-1.32-.622-3.009-.832-3.009-.08 0-.862.661-1.739 1.469M20.531 23.268c1.305.984 7.91 3.801 11.625 4.959 3.41 1.063 5.459 1.507 13.474 2.92 10.178 1.795 16.664 3.185 28.783 6.169l2.176.535-3.436.184c-4.75.254-29.534.038-33.386-.291-1.734-.148-3.331-.234-3.55-.19-.463.093 4.777.978 8.764 1.48 3.854.485 15.16.677 19.583.333 1.953-.152 5.509-.33 7.902-.395l4.352-.12-.859.732c-1.93 1.646-.346 3.366 3.915 4.248.925.192 1.722.388 1.77.437s-2.512.785-5.69 1.636c-12.4 3.321-18.845 4.37-28.971 4.71-2.426.082-4.381.178-4.345.215s2.093.19 4.57.342c8.953.549 17.444-.615 26.518-3.634 1.7-.566 3.556-1.082 4.123-1.147a51 51 0 0 0 1.67-.218c.615-.097.634-.07.494.68-.083.449-.03 1 .125 1.29.551 1.04 3.783 2.046 6.758 2.103l1.145.022-1.61.772c-2.754 1.32-8.557 3.702-11.746 4.822-5.578 1.96-10.48 3.16-22.146 5.422-1.028.2-1.063.225-.343.25 1.22.04 6.59-.615 10.307-1.26 9.57-1.66 18.535-4.833 24.141-8.548l.664-.44-.263.496c-.145.273-.263.961-.263 1.529 0 1.52.756 2.22 3.264 3.024 1.102.353 2.004.712 2.004.799 0 .247-4.33 2.612-8.475 4.628-3.6 1.751-12.184 5.524-17.46 7.674-5.446 2.22-.617.778 7.089-2.117 7.895-2.967 13.902-5.793 17.643-8.3.914-.612 1.674-1.045 1.69-.962s.094 1.295.173 2.694l.144 2.544.285-1.523c.175-.933.229-2.203.139-3.275l-.147-1.75-1.4-.395c-2.644-.747-4.491-2.005-4.491-3.06 0-.846.392-1.465 1.66-2.622l1.165-1.062-2.73-.143c-2.937-.154-4.715-.572-5.675-1.335-1.133-.9-.783-1.565 1.989-3.784.765-.612 1.032-.958.866-1.125-.13-.132-1.331-.32-2.668-.416-3.284-.236-4.112-.399-4.793-.94-.82-.65-.76-1.478.145-2.034.635-.39 1.659-.624 4.745-1.084.495-.074.695-.196.554-.338-.238-.24-4.235-1.313-11.938-3.204-2.686-.66-5.985-1.561-7.33-2.004-3.588-1.18-7.33-3.109-8.854-4.565q-1.264-1.207-1.126-.736c.268.915 1.236 2.396 1.974 3.024l.748.635-1.831-.164c-8.385-.75-20.993-3.725-30.435-7.182-4.032-1.476-3.78-1.4-3.175-.944m168.176.38c-8.625 3.435-23.169 6.961-31.95 7.747l-1.831.164.756-.643c.721-.612 2.097-2.739 2.102-3.247.001-.132-.581.317-1.294.998-1.549 1.48-5.115 3.303-8.897 4.552-2.3.759-4.17 1.252-12.712 3.35-6.358 1.56-7.429 1.954-5.927 2.178 3.086.46 4.11.694 4.745 1.084.906.556.965 1.383.145 2.034-.674.536-1.384.677-4.77.95-1.368.11-2.587.3-2.708.423-.143.144.171.539.883 1.108a41 41 0 0 1 1.849 1.578c1.992 1.857-.173 3.264-5.458 3.546-1.376.073-2.501.21-2.501.302 0 .093.369.454.821.802 1.002.772 1.696 1.874 1.697 2.694.002.876-1.216 1.86-3.236 2.62-.928.35-1.904.718-2.168.82-.413.16-.5.44-.62 1.999-.091 1.182-.032 2.296.171 3.2l.31 1.388.026-1.85c.014-1.017.087-2.224.162-2.68l.136-.831 1.465.992c3.618 2.45 10.047 5.482 17.816 8.404 4.696 1.765 9.312 3.317 9.451 3.177.038-.038-1.037-.52-2.388-1.072-5.371-2.19-13.879-5.93-17.459-7.672-3.996-1.945-8.475-4.38-8.475-4.607 0-.075.581-.321 1.291-.547 2.175-.693 3.243-1.237 3.646-1.858.445-.685.486-2.179.082-2.941-.271-.512-.265-.516.272-.163 7.152 4.699 18.243 8.143 30.836 9.575 5.085.578 4.979.307-.261-.668-11.413-2.124-18.079-4.146-27.849-8.446l-4.009-1.764 1.947-.162c2.291-.19 3.626-.5 4.833-1.123 1.083-.557 1.438-1.185 1.248-2.205-.139-.752-.12-.778.495-.681.352.055 1.103.153 1.67.217.567.065 2.289.536 3.827 1.047 9.325 3.1 17.833 4.286 26.814 3.735 2.477-.151 4.534-.305 4.57-.342.036-.036-1.971-.136-4.46-.22-7.301-.25-13.132-.97-19.887-2.457-3.694-.813-14.789-3.753-14.659-3.884.048-.049.821-.242 1.718-.43 2.994-.625 4.826-1.745 4.826-2.95 0-.377-.294-.823-.859-1.305l-.859-.732 4.352.12c2.393.065 5.949.243 7.902.395 4.423.344 15.729.152 19.583-.333 3.792-.477 9.171-1.37 8.869-1.471-.137-.046-1.724.034-3.528.178-6.146.492-37.251.572-36.778.095.128-.13 15.258-3.692 18.985-4.47 1.844-.386 6.894-1.33 11.223-2.098 11.581-2.056 16.318-3.392 22.558-6.364 3.921-1.868 4.719-2.554 1.461-1.256" clip-rule="evenodd"/></g><defs><filter id="a" width="211" height="87" x="0" y="0" color-interpolation-filters="sRGB" filterUnits="userSpaceOnUse"><feFlood flood-opacity="0" result="BackgroundImageFix"/><feColorMatrix in="SourceAlpha" result="hardAlpha" values="0 0 0 0 0 0 0 0 0 0 0 0 0 0 0 0 0 0 127 0"/><feOffset dy="4"/><feGaussianBlur stdDeviation="2"/><feComposite in2="hardAlpha" operator="out"/><feColorMatrix values="0 0 0 0 0 0 0 0 0 0 0 0 0 0 0 0 0 0 0.86 0"/><feBlend in2="BackgroundImageFix" result="effect1_dropShadow_340_59970"/><feBlend in="SourceGraphic" in2="effect1_dropShadow_340_59970" result="shape"/></filter></defs></svg>